<?xml version="1.0" encoding="UTF-8" standalone="no"?>
<!DOCTYPE svg PUBLIC "-//W3C//DTD SVG 1.1//EN"
 "http://www.w3.org/Graphics/SVG/1.1/DTD/svg11.dtd">
<!-- Generated by graphviz version 3.0.0 (20220226.1711)
 -->
<!-- Title: dependencies Pages: 1 -->
<svg width="160pt" height="247pt"
 viewBox="0.00 0.00 160.00 246.80" xmlns="http://www.w3.org/2000/svg" xmlns:xlink="http://www.w3.org/1999/xlink">
<g id="graph0" class="graph" transform="scale(1 1) rotate(0) translate(4 242.8)">
<title>dependencies</title>
<polygon fill="white" stroke="transparent" points="-4,4 -4,-242.8 156,-242.8 156,4 -4,4"/>
<text text-anchor="middle" x="76" y="-8.2" font-family="sans-serif" font-size="14.00">dependencies</text>
<g id="clust1" class="cluster">
<title>cluster_HomePageModule</title>
<polygon fill="none" stroke="black" stroke-dasharray="1,5" points="8,-32.8 8,-230.8 144,-230.8 144,-32.8 8,-32.8"/>
</g>
<g id="clust3" class="cluster">
<title>cluster_HomePageModule_imports</title>
<polygon fill="none" stroke="black" points="19,-40.8 19,-92.8 133,-92.8 133,-40.8 19,-40.8"/>
</g>
<g id="clust4" class="cluster">
<title>cluster_HomePageModule_exports</title>
<polygon fill="none" stroke="black" points="17,-170.8 17,-222.8 135,-222.8 135,-170.8 17,-170.8"/>
</g>
<!-- RouterModule -->
<g id="node1" class="node">
<title>RouterModule</title>
<polygon fill="#8dd3c7" stroke="black" points="124.66,-84.8 121.66,-88.8 100.66,-88.8 97.66,-84.8 27.34,-84.8 27.34,-48.8 124.66,-48.8 124.66,-84.8"/>
<text text-anchor="middle" x="76" y="-62.6" font-family="Times,serif" font-size="14.00">RouterModule</text>
</g>
<!-- HomePageModule -->
<g id="node2" class="node">
<title>HomePageModule</title>
<polygon fill="#8dd3c7" stroke="black" points="136.48,-149.8 133.48,-153.8 112.48,-153.8 109.48,-149.8 15.52,-149.8 15.52,-113.8 136.48,-113.8 136.48,-149.8"/>
<text text-anchor="middle" x="76" y="-127.6" font-family="Times,serif" font-size="14.00">HomePageModule</text>
</g>
<!-- RouterModule&#45;&gt;HomePageModule -->
<g id="edge1" class="edge">
<title>RouterModule&#45;&gt;HomePageModule</title>
<path fill="none" stroke="black" d="M76,-84.91C76,-84.91 76,-103.79 76,-103.79"/>
<polygon fill="black" stroke="black" points="72.5,-103.79 76,-113.79 79.5,-103.79 72.5,-103.79"/>
</g>
<!-- RouterModule  -->
<g id="node3" class="node">
<title>RouterModule </title>
<polygon fill="#fb8072" stroke="black" points="126.66,-214.8 25.34,-214.8 25.34,-178.8 126.66,-178.8 126.66,-214.8"/>
<text text-anchor="middle" x="76" y="-192.6" font-family="Times,serif" font-size="14.00">RouterModule </text>
</g>
<!-- HomePageModule&#45;&gt;RouterModule  -->
<g id="edge2" class="edge">
<title>HomePageModule&#45;&gt;RouterModule </title>
<path fill="none" stroke="black" stroke-dasharray="5,2" d="M76,-149.91C76,-149.91 76,-168.79 76,-168.79"/>
<polygon fill="black" stroke="black" points="72.5,-168.79 76,-178.79 79.5,-168.79 72.5,-168.79"/>
</g>
</g>
</svg>
