<?xml version="1.0" encoding="UTF-8"?>
<svg width="192px" height="192px" viewBox="0 0 192 192" version="1.1" xmlns="http://www.w3.org/2000/svg" xmlns:xlink="http://www.w3.org/1999/xlink">
    <title>192x192@1x</title>
    <defs>
        <polygon id="path-1" points="0 47 192 24.6693706 192 -8.15320034e-17 0 -8.15320034e-17"></polygon>
    </defs>
    <g id="192x192" stroke="none" stroke-width="1" fill="none" fill-rule="evenodd">
        <g id="Group" transform="translate(19.000000, 69.000000)">
            <text id="pilotez-votre-juridi" font-family="YuGo-Medium, YuGothic" font-size="26.754" font-weight="400" line-spacing="24.402" fill="#301717">
                <tspan x="-7.10542736e-15" y="69.0572837">pilotez votre</tspan>
                <tspan x="-7.10542736e-15" y="93.4592837">juridiction</tspan>
            </text>
            <text id="A-JUST" font-family="YuGo-Bold, YuGothic" font-size="41.454" font-weight="bold" letter-spacing="0.646800034" fill="#FF0000">
                <tspan x="-0.0281804882" y="36.0389103">A-JUST</tspan>
            </text>
            <line x1="1.02862595" y1="45.493905" x2="147.975191" y2="45.493905" id="Line-2" stroke="#353535" stroke-width="1.176" stroke-linecap="round"></line>
        </g>
        <g id="Group-2" transform="translate(0.000000, 22.000000)">
            <mask id="mask-2" fill="white">
                <use xlink:href="#path-1"></use>
            </mask>
            <g id="Path-2"></g>
            <g id="Group" mask="url(#mask-2)" fill="#404B5B">
                <g transform="translate(18.825498, 0.750083)" id="Shape">
                    <path d="M9.80664919,42.0295394 C10.5722934,43.6868185 12.0976921,44.8591889 13.8910664,45.1754968 L27.6962197,47.5840796 C30.8706983,48.13254 34.0569559,48.5620222 37.2579375,48.8696244 C45.877324,49.6966678 54.5614958,49.6270221 63.172048,48.663589 L134.951189,40.6305301 C134.951189,40.6305301 148.815238,39.0788804 148.061373,32.1389699 C147.660882,28.4712496 136.273398,23.8511235 129.777201,23.2275037 C129.002723,23.1424778 128.222355,23.1352231 127.447876,23.2057394 L84.4775694,28.0266775 L36.6925388,0.730760062 C36.0093486,0.340743764 35.249594,0.100175676 34.4662811,0.0253064758 C34.083459,-0.0112575521 33.6976921,-0.00806545447 33.3148701,0.0340121967 L26.8922934,0.753104746 C26.129594,0.837550239 25.5759743,1.52675315 25.6554835,2.2925664 C25.690821,2.60655273 25.8292259,2.89964534 26.0500848,3.12367256 L53.9784283,31.4396103 L23.4792872,34.8525431 L9.0851768,19.8450409 C8.18701729,18.9100465 6.90309091,18.4477727 5.61327496,18.5940288 L1.23143447,19.0763258 C0.468735083,19.168026 -0.0789949782,19.8627426 0.00934858004,20.6276853 C0.0270172917,20.7687179 0.0652995003,20.9062683 0.121250421,21.0356934 L9.80664919,42.0295394 Z M56.5786737,28.8691011 L31.9426001,3.89122695 C31.9278762,3.87700761 31.9337658,3.86278826 31.9455449,3.86017655 L33.7035817,3.6619763 C34.1099621,3.61554579 34.5192872,3.69970109 34.8726615,3.90254439 L82.6665265,31.1993324 L83.6942566,31.786098 L84.8721707,31.655222 L127.848367,26.8458915 C128.372539,26.8014924 128.899655,26.8101981 129.423827,26.8722989 C135.157324,27.4230808 142.975729,31.0083869 144.430453,32.8180161 C144.118306,34.5713483 138.973766,36.5138848 134.562477,37.0077894 L62.7833363,45.044911 C54.4230909,45.979325 45.9921707,46.0460689 37.6230909,45.2422406 C34.5251768,44.9462461 31.4007596,44.5225677 28.3381829,43.9857149 L14.5330296,41.575391 C13.9116799,41.4654087 13.3816185,41.0585613 13.1165878,40.4851445 L4.75339766,22.3592532 L6.01376576,22.2179303 C6.05204797,22.2141578 6.08738539,22.2141578 6.1256676,22.2176401 C6.25229337,22.2292477 6.37008478,22.2869957 6.45842833,22.3801469 L20.8525388,37.387649 L22.0952382,38.6830603 L23.879778,38.4871816 L54.3789191,35.074539 L57.1381829,34.7649055 L60.2066492,37.8336721 C60.9163424,38.5449295 62.0706983,38.5420276 62.7833363,37.8272879 C63.4959743,37.112258 63.4959743,35.9561383 62.7862811,35.2448809 L56.5786737,28.8691011 Z"></path>
                </g>
            </g>
        </g>
    </g>
</svg>