<?xml version="1.0" encoding="UTF-8" standalone="no"?>
<!DOCTYPE svg PUBLIC "-//W3C//DTD SVG 1.1//EN"
 "http://www.w3.org/Graphics/SVG/1.1/DTD/svg11.dtd">
<!-- Generated by graphviz version 3.0.0 (20220226.1711)
 -->
<!-- Title: dependencies Pages: 1 -->
<svg width="444pt" height="174pt"
 viewBox="0.00 0.00 444.00 173.80" xmlns="http://www.w3.org/2000/svg" xmlns:xlink="http://www.w3.org/1999/xlink">
<g id="graph0" class="graph" transform="scale(1 1) rotate(0) translate(4 169.8)">
<title>dependencies</title>
<polygon fill="white" stroke="transparent" points="-4,4 -4,-169.8 440,-169.8 440,4 -4,4"/>
<text text-anchor="middle" x="218" y="-8.2" font-family="sans-serif" font-size="14.00">dependencies</text>
<g id="clust1" class="cluster">
<title>cluster_ActivitiesModule</title>
<polygon fill="none" stroke="black" stroke-dasharray="1,5" points="8,-32.8 8,-157.8 428,-157.8 428,-32.8 8,-32.8"/>
</g>
<g id="clust4" class="cluster">
<title>cluster_ActivitiesModule_imports</title>
<polygon fill="none" stroke="black" points="138,-40.8 138,-92.8 420,-92.8 420,-40.8 138,-40.8"/>
</g>
<g id="clust2" class="cluster">
<title>cluster_ActivitiesModule_declarations</title>
<polygon fill="none" stroke="black" points="16,-40.8 16,-92.8 130,-92.8 130,-40.8 16,-40.8"/>
</g>
<!-- ActivitiesPage -->
<g id="node1" class="node">
<title>ActivitiesPage</title>
<polygon fill="#ffffb3" stroke="black" points="121.65,-84.8 24.35,-84.8 24.35,-48.8 121.65,-48.8 121.65,-84.8"/>
<text text-anchor="middle" x="73" y="-62.6" font-family="Times,serif" font-size="14.00">ActivitiesPage</text>
</g>
<!-- ActivitiesModule -->
<g id="node2" class="node">
<title>ActivitiesModule</title>
<polygon fill="#8dd3c7" stroke="black" points="255.99,-149.8 252.99,-153.8 231.99,-153.8 228.99,-149.8 142.01,-149.8 142.01,-113.8 255.99,-113.8 255.99,-149.8"/>
<text text-anchor="middle" x="199" y="-127.6" font-family="Times,serif" font-size="14.00">ActivitiesModule</text>
</g>
<!-- ActivitiesPage&#45;&gt;ActivitiesModule -->
<g id="edge1" class="edge">
<title>ActivitiesPage&#45;&gt;ActivitiesModule</title>
<path fill="none" stroke="black" d="M73,-84.91C73,-104.14 73,-131.8 73,-131.8 73,-131.8 131.9,-131.8 131.9,-131.8"/>
<polygon fill="black" stroke="black" points="131.9,-135.3 141.9,-131.8 131.9,-128.3 131.9,-135.3"/>
</g>
<!-- ActivitiesPageModule -->
<g id="node3" class="node">
<title>ActivitiesPageModule</title>
<polygon fill="#8dd3c7" stroke="black" points="411.7,-84.8 408.7,-88.8 387.7,-88.8 384.7,-84.8 270.3,-84.8 270.3,-48.8 411.7,-48.8 411.7,-84.8"/>
<text text-anchor="middle" x="341" y="-62.6" font-family="Times,serif" font-size="14.00">ActivitiesPageModule</text>
</g>
<!-- ActivitiesPageModule&#45;&gt;ActivitiesModule -->
<g id="edge2" class="edge">
<title>ActivitiesPageModule&#45;&gt;ActivitiesModule</title>
<path fill="none" stroke="black" d="M341,-84.91C341,-104.14 341,-131.8 341,-131.8 341,-131.8 266.35,-131.8 266.35,-131.8"/>
<polygon fill="black" stroke="black" points="266.35,-128.3 256.35,-131.8 266.35,-135.3 266.35,-128.3"/>
</g>
<!-- MaterialModule -->
<g id="node4" class="node">
<title>MaterialModule</title>
<polygon fill="#8dd3c7" stroke="black" points="252.47,-84.8 249.47,-88.8 228.47,-88.8 225.47,-84.8 145.53,-84.8 145.53,-48.8 252.47,-48.8 252.47,-84.8"/>
<text text-anchor="middle" x="199" y="-62.6" font-family="Times,serif" font-size="14.00">MaterialModule</text>
</g>
<!-- MaterialModule&#45;&gt;ActivitiesModule -->
<g id="edge3" class="edge">
<title>MaterialModule&#45;&gt;ActivitiesModule</title>
<path fill="none" stroke="black" d="M199,-84.91C199,-84.91 199,-103.79 199,-103.79"/>
<polygon fill="black" stroke="black" points="195.5,-103.79 199,-113.79 202.5,-103.79 195.5,-103.79"/>
</g>
</g>
</svg>
