<?xml version="1.0" encoding="UTF-8" standalone="no"?>
<!DOCTYPE svg PUBLIC "-//W3C//DTD SVG 1.1//EN"
 "http://www.w3.org/Graphics/SVG/1.1/DTD/svg11.dtd">
<!-- Generated by graphviz version 3.0.0 (20220226.1711)
 -->
<!-- Title: dependencies Pages: 1 -->
<svg width="444pt" height="174pt"
 viewBox="0.00 0.00 444.00 173.80" xmlns="http://www.w3.org/2000/svg" xmlns:xlink="http://www.w3.org/1999/xlink">
<g id="graph0" class="graph" transform="scale(1 1) rotate(0) translate(4 169.8)">
<title>dependencies</title>
<polygon fill="white" stroke="transparent" points="-4,4 -4,-169.8 440,-169.8 440,4 -4,4"/>
<text text-anchor="middle" x="218" y="-8.2" font-family="sans-serif" font-size="14.00">dependencies</text>
<g id="clust1" class="cluster">
<title>cluster_ActivitiesModule</title>
<polygon fill="none" stroke="black" stroke-dasharray="1,5" points="8,-32.8 8,-157.8 428,-157.8 428,-32.8 8,-32.8"/>
</g>
<g id="clust2" class="cluster">
<title>cluster_ActivitiesModule_declarations</title>
<polygon fill="none" stroke="black" points="306,-40.8 306,-92.8 420,-92.8 420,-40.8 306,-40.8"/>
</g>
<g id="clust4" class="cluster">
<title>cluster_ActivitiesModule_imports</title>
<polygon fill="none" stroke="black" points="16,-40.8 16,-92.8 298,-92.8 298,-40.8 16,-40.8"/>
</g>
<!-- ActivitiesPage -->
<g id="node1" class="node">
<title>ActivitiesPage</title>
<polygon fill="#ffffb3" stroke="black" points="411.65,-84.8 314.35,-84.8 314.35,-48.8 411.65,-48.8 411.65,-84.8"/>
<text text-anchor="middle" x="363" y="-62.6" font-family="Times,serif" font-size="14.00">ActivitiesPage</text>
</g>
<!-- ActivitiesModule -->
<g id="node2" class="node">
<title>ActivitiesModule</title>
<polygon fill="#8dd3c7" stroke="black" points="275.99,-149.8 272.99,-153.8 251.99,-153.8 248.99,-149.8 162.01,-149.8 162.01,-113.8 275.99,-113.8 275.99,-149.8"/>
<text text-anchor="middle" x="219" y="-127.6" font-family="Times,serif" font-size="14.00">ActivitiesModule</text>
</g>
<!-- ActivitiesPage&#45;&gt;ActivitiesModule -->
<g id="edge1" class="edge">
<title>ActivitiesPage&#45;&gt;ActivitiesModule</title>
<path fill="none" stroke="black" d="M363,-84.91C363,-104.14 363,-131.8 363,-131.8 363,-131.8 286.33,-131.8 286.33,-131.8"/>
<polygon fill="black" stroke="black" points="286.33,-128.3 276.33,-131.8 286.33,-135.3 286.33,-128.3"/>
</g>
<!-- ActivitiesPageModule -->
<g id="node3" class="node">
<title>ActivitiesPageModule</title>
<polygon fill="#8dd3c7" stroke="black" points="289.7,-84.8 286.7,-88.8 265.7,-88.8 262.7,-84.8 148.3,-84.8 148.3,-48.8 289.7,-48.8 289.7,-84.8"/>
<text text-anchor="middle" x="219" y="-62.6" font-family="Times,serif" font-size="14.00">ActivitiesPageModule</text>
</g>
<!-- ActivitiesPageModule&#45;&gt;ActivitiesModule -->
<g id="edge2" class="edge">
<title>ActivitiesPageModule&#45;&gt;ActivitiesModule</title>
<path fill="none" stroke="black" d="M219,-84.91C219,-84.91 219,-103.79 219,-103.79"/>
<polygon fill="black" stroke="black" points="215.5,-103.79 219,-113.79 222.5,-103.79 215.5,-103.79"/>
</g>
<!-- MaterialModule -->
<g id="node4" class="node">
<title>MaterialModule</title>
<polygon fill="#8dd3c7" stroke="black" points="130.47,-84.8 127.47,-88.8 106.47,-88.8 103.47,-84.8 23.53,-84.8 23.53,-48.8 130.47,-48.8 130.47,-84.8"/>
<text text-anchor="middle" x="77" y="-62.6" font-family="Times,serif" font-size="14.00">MaterialModule</text>
</g>
<!-- MaterialModule&#45;&gt;ActivitiesModule -->
<g id="edge3" class="edge">
<title>MaterialModule&#45;&gt;ActivitiesModule</title>
<path fill="none" stroke="black" d="M77,-84.91C77,-104.14 77,-131.8 77,-131.8 77,-131.8 151.65,-131.8 151.65,-131.8"/>
<polygon fill="black" stroke="black" points="151.65,-135.3 161.65,-131.8 151.65,-128.3 151.65,-135.3"/>
</g>
</g>
</svg>
