<?xml version="1.0" encoding="UTF-8" standalone="no"?>
<!DOCTYPE svg PUBLIC "-//W3C//DTD SVG 1.1//EN"
 "http://www.w3.org/Graphics/SVG/1.1/DTD/svg11.dtd">
<!-- Generated by graphviz version 3.0.0 (20220226.1711)
 -->
<!-- Title: dependencies Pages: 1 -->
<svg width="278pt" height="174pt"
 viewBox="0.00 0.00 278.00 173.80" xmlns="http://www.w3.org/2000/svg" xmlns:xlink="http://www.w3.org/1999/xlink">
<g id="graph0" class="graph" transform="scale(1 1) rotate(0) translate(4 169.8)">
<title>dependencies</title>
<polygon fill="white" stroke="transparent" points="-4,4 -4,-169.8 274,-169.8 274,4 -4,4"/>
<text text-anchor="middle" x="135" y="-8.2" font-family="sans-serif" font-size="14.00">dependencies</text>
<g id="clust1" class="cluster">
<title>cluster_HomeModule</title>
<polygon fill="none" stroke="black" stroke-dasharray="1,5" points="8,-32.8 8,-157.8 262,-157.8 262,-32.8 8,-32.8"/>
</g>
<g id="clust2" class="cluster">
<title>cluster_HomeModule_declarations</title>
<polygon fill="none" stroke="black" points="160,-40.8 160,-92.8 254,-92.8 254,-40.8 160,-40.8"/>
</g>
<g id="clust4" class="cluster">
<title>cluster_HomeModule_imports</title>
<polygon fill="none" stroke="black" points="16,-40.8 16,-92.8 152,-92.8 152,-40.8 16,-40.8"/>
</g>
<!-- HomePage -->
<g id="node1" class="node">
<title>HomePage</title>
<polygon fill="#ffffb3" stroke="black" points="245.93,-84.8 168.07,-84.8 168.07,-48.8 245.93,-48.8 245.93,-84.8"/>
<text text-anchor="middle" x="207" y="-62.6" font-family="Times,serif" font-size="14.00">HomePage</text>
</g>
<!-- HomeModule -->
<g id="node2" class="node">
<title>HomeModule</title>
<polygon fill="#8dd3c7" stroke="black" points="191.77,-149.8 188.77,-153.8 167.77,-153.8 164.77,-149.8 98.23,-149.8 98.23,-113.8 191.77,-113.8 191.77,-149.8"/>
<text text-anchor="middle" x="145" y="-127.6" font-family="Times,serif" font-size="14.00">HomeModule</text>
</g>
<!-- HomePage&#45;&gt;HomeModule -->
<g id="edge1" class="edge">
<title>HomePage&#45;&gt;HomeModule</title>
<path fill="none" stroke="black" d="M180.08,-84.91C180.08,-84.91 180.08,-103.79 180.08,-103.79"/>
<polygon fill="black" stroke="black" points="176.58,-103.79 180.08,-113.79 183.58,-103.79 176.58,-103.79"/>
</g>
<!-- HomePageModule -->
<g id="node3" class="node">
<title>HomePageModule</title>
<polygon fill="#8dd3c7" stroke="black" points="144.48,-84.8 141.48,-88.8 120.48,-88.8 117.48,-84.8 23.52,-84.8 23.52,-48.8 144.48,-48.8 144.48,-84.8"/>
<text text-anchor="middle" x="84" y="-62.6" font-family="Times,serif" font-size="14.00">HomePageModule</text>
</g>
<!-- HomePageModule&#45;&gt;HomeModule -->
<g id="edge2" class="edge">
<title>HomePageModule&#45;&gt;HomeModule</title>
<path fill="none" stroke="black" d="M121.3,-84.91C121.3,-84.91 121.3,-103.79 121.3,-103.79"/>
<polygon fill="black" stroke="black" points="117.8,-103.79 121.3,-113.79 124.8,-103.79 117.8,-103.79"/>
</g>
</g>
</svg>
