<?xml version="1.0" encoding="UTF-8" standalone="no"?>
<!DOCTYPE svg PUBLIC "-//W3C//DTD SVG 1.1//EN"
 "http://www.w3.org/Graphics/SVG/1.1/DTD/svg11.dtd">
<!-- Generated by graphviz version 3.0.0 (20220226.1711)
 -->
<!-- Title: dependencies Pages: 1 -->
<svg width="276pt" height="174pt"
 viewBox="0.00 0.00 276.00 173.80" xmlns="http://www.w3.org/2000/svg" xmlns:xlink="http://www.w3.org/1999/xlink">
<g id="graph0" class="graph" transform="scale(1 1) rotate(0) translate(4 169.8)">
<title>dependencies</title>
<polygon fill="white" stroke="transparent" points="-4,4 -4,-169.8 272,-169.8 272,4 -4,4"/>
<text text-anchor="middle" x="134" y="-8.2" font-family="sans-serif" font-size="14.00">dependencies</text>
<g id="clust1" class="cluster">
<title>cluster_LoginModule</title>
<polygon fill="none" stroke="black" stroke-dasharray="1,5" points="8,-32.8 8,-157.8 260,-157.8 260,-32.8 8,-32.8"/>
</g>
<g id="clust4" class="cluster">
<title>cluster_LoginModule_imports</title>
<polygon fill="none" stroke="black" points="116,-40.8 116,-92.8 252,-92.8 252,-40.8 116,-40.8"/>
</g>
<g id="clust2" class="cluster">
<title>cluster_LoginModule_declarations</title>
<polygon fill="none" stroke="black" points="16,-40.8 16,-92.8 108,-92.8 108,-40.8 16,-40.8"/>
</g>
<!-- LoginPage -->
<g id="node1" class="node">
<title>LoginPage</title>
<polygon fill="#ffffb3" stroke="black" points="100.16,-84.8 23.84,-84.8 23.84,-48.8 100.16,-48.8 100.16,-84.8"/>
<text text-anchor="middle" x="62" y="-62.6" font-family="Times,serif" font-size="14.00">LoginPage</text>
</g>
<!-- LoginModule -->
<g id="node2" class="node">
<title>LoginModule</title>
<polygon fill="#8dd3c7" stroke="black" points="169.49,-149.8 166.49,-153.8 145.49,-153.8 142.49,-149.8 76.51,-149.8 76.51,-113.8 169.49,-113.8 169.49,-149.8"/>
<text text-anchor="middle" x="123" y="-127.6" font-family="Times,serif" font-size="14.00">LoginModule</text>
</g>
<!-- LoginPage&#45;&gt;LoginModule -->
<g id="edge1" class="edge">
<title>LoginPage&#45;&gt;LoginModule</title>
<path fill="none" stroke="black" d="M88.42,-84.91C88.42,-84.91 88.42,-103.79 88.42,-103.79"/>
<polygon fill="black" stroke="black" points="84.92,-103.79 88.42,-113.79 91.92,-103.79 84.92,-103.79"/>
</g>
<!-- LoginPageModule -->
<g id="node3" class="node">
<title>LoginPageModule</title>
<polygon fill="#8dd3c7" stroke="black" points="244.21,-84.8 241.21,-88.8 220.21,-88.8 217.21,-84.8 123.79,-84.8 123.79,-48.8 244.21,-48.8 244.21,-84.8"/>
<text text-anchor="middle" x="184" y="-62.6" font-family="Times,serif" font-size="14.00">LoginPageModule</text>
</g>
<!-- LoginPageModule&#45;&gt;LoginModule -->
<g id="edge2" class="edge">
<title>LoginPageModule&#45;&gt;LoginModule</title>
<path fill="none" stroke="black" d="M146.7,-84.91C146.7,-84.91 146.7,-103.79 146.7,-103.79"/>
<polygon fill="black" stroke="black" points="143.2,-103.79 146.7,-113.79 150.2,-103.79 143.2,-103.79"/>
</g>
</g>
</svg>
