<?xml version="1.0" encoding="UTF-8" standalone="no"?>
<!DOCTYPE svg PUBLIC "-//W3C//DTD SVG 1.1//EN"
 "http://www.w3.org/Graphics/SVG/1.1/DTD/svg11.dtd">
<!-- Generated by graphviz version 3.0.0 (20220226.1711)
 -->
<!-- Title: dependencies Pages: 1 -->
<svg width="276pt" height="174pt"
 viewBox="0.00 0.00 276.00 173.80" xmlns="http://www.w3.org/2000/svg" xmlns:xlink="http://www.w3.org/1999/xlink">
<g id="graph0" class="graph" transform="scale(1 1) rotate(0) translate(4 169.8)">
<title>dependencies</title>
<polygon fill="white" stroke="transparent" points="-4,4 -4,-169.8 272,-169.8 272,4 -4,4"/>
<text text-anchor="middle" x="134" y="-8.2" font-family="sans-serif" font-size="14.00">dependencies</text>
<g id="clust1" class="cluster">
<title>cluster_LoginModule</title>
<polygon fill="none" stroke="black" stroke-dasharray="1,5" points="8,-32.8 8,-157.8 260,-157.8 260,-32.8 8,-32.8"/>
</g>
<g id="clust2" class="cluster">
<title>cluster_LoginModule_declarations</title>
<polygon fill="none" stroke="black" points="160,-40.8 160,-92.8 252,-92.8 252,-40.8 160,-40.8"/>
</g>
<g id="clust4" class="cluster">
<title>cluster_LoginModule_imports</title>
<polygon fill="none" stroke="black" points="16,-40.8 16,-92.8 152,-92.8 152,-40.8 16,-40.8"/>
</g>
<!-- LoginPage -->
<g id="node1" class="node">
<title>LoginPage</title>
<polygon fill="#ffffb3" stroke="black" points="244.16,-84.8 167.84,-84.8 167.84,-48.8 244.16,-48.8 244.16,-84.8"/>
<text text-anchor="middle" x="206" y="-62.6" font-family="Times,serif" font-size="14.00">LoginPage</text>
</g>
<!-- LoginModule -->
<g id="node2" class="node">
<title>LoginModule</title>
<polygon fill="#8dd3c7" stroke="black" points="191.49,-149.8 188.49,-153.8 167.49,-153.8 164.49,-149.8 98.51,-149.8 98.51,-113.8 191.49,-113.8 191.49,-149.8"/>
<text text-anchor="middle" x="145" y="-127.6" font-family="Times,serif" font-size="14.00">LoginModule</text>
</g>
<!-- LoginPage&#45;&gt;LoginModule -->
<g id="edge1" class="edge">
<title>LoginPage&#45;&gt;LoginModule</title>
<path fill="none" stroke="black" d="M179.58,-84.91C179.58,-84.91 179.58,-103.79 179.58,-103.79"/>
<polygon fill="black" stroke="black" points="176.08,-103.79 179.58,-113.79 183.08,-103.79 176.08,-103.79"/>
</g>
<!-- LoginPageModule -->
<g id="node3" class="node">
<title>LoginPageModule</title>
<polygon fill="#8dd3c7" stroke="black" points="144.21,-84.8 141.21,-88.8 120.21,-88.8 117.21,-84.8 23.79,-84.8 23.79,-48.8 144.21,-48.8 144.21,-84.8"/>
<text text-anchor="middle" x="84" y="-62.6" font-family="Times,serif" font-size="14.00">LoginPageModule</text>
</g>
<!-- LoginPageModule&#45;&gt;LoginModule -->
<g id="edge2" class="edge">
<title>LoginPageModule&#45;&gt;LoginModule</title>
<path fill="none" stroke="black" d="M121.3,-84.91C121.3,-84.91 121.3,-103.79 121.3,-103.79"/>
<polygon fill="black" stroke="black" points="117.8,-103.79 121.3,-113.79 124.8,-103.79 117.8,-103.79"/>
</g>
</g>
</svg>
