<?xml version="1.0" encoding="UTF-8" standalone="no"?>
<!DOCTYPE svg PUBLIC "-//W3C//DTD SVG 1.1//EN"
 "http://www.w3.org/Graphics/SVG/1.1/DTD/svg11.dtd">
<!-- Generated by graphviz version 3.0.0 (20220226.1711)
 -->
<!-- Title: dependencies Pages: 1 -->
<svg width="188pt" height="247pt"
 viewBox="0.00 0.00 188.00 246.80" xmlns="http://www.w3.org/2000/svg" xmlns:xlink="http://www.w3.org/1999/xlink">
<g id="graph0" class="graph" transform="scale(1 1) rotate(0) translate(4 242.8)">
<title>dependencies</title>
<polygon fill="white" stroke="transparent" points="-4,4 -4,-242.8 184,-242.8 184,4 -4,4"/>
<text text-anchor="middle" x="90" y="-8.2" font-family="sans-serif" font-size="14.00">dependencies</text>
<g id="clust1" class="cluster">
<title>cluster_DashboardPageModule</title>
<polygon fill="none" stroke="black" stroke-dasharray="1,5" points="8,-32.8 8,-230.8 172,-230.8 172,-32.8 8,-32.8"/>
</g>
<g id="clust4" class="cluster">
<title>cluster_DashboardPageModule_exports</title>
<polygon fill="none" stroke="black" points="31,-170.8 31,-222.8 149,-222.8 149,-170.8 31,-170.8"/>
</g>
<g id="clust3" class="cluster">
<title>cluster_DashboardPageModule_imports</title>
<polygon fill="none" stroke="black" points="33,-40.8 33,-92.8 147,-92.8 147,-40.8 33,-40.8"/>
</g>
<!-- RouterModule -->
<g id="node1" class="node">
<title>RouterModule</title>
<polygon fill="#8dd3c7" stroke="black" points="138.66,-84.8 135.66,-88.8 114.66,-88.8 111.66,-84.8 41.34,-84.8 41.34,-48.8 138.66,-48.8 138.66,-84.8"/>
<text text-anchor="middle" x="90" y="-62.6" font-family="Times,serif" font-size="14.00">RouterModule</text>
</g>
<!-- DashboardPageModule -->
<g id="node2" class="node">
<title>DashboardPageModule</title>
<polygon fill="#8dd3c7" stroke="black" points="163.91,-149.8 160.91,-153.8 139.91,-153.8 136.91,-149.8 16.09,-149.8 16.09,-113.8 163.91,-113.8 163.91,-149.8"/>
<text text-anchor="middle" x="90" y="-127.6" font-family="Times,serif" font-size="14.00">DashboardPageModule</text>
</g>
<!-- RouterModule&#45;&gt;DashboardPageModule -->
<g id="edge1" class="edge">
<title>RouterModule&#45;&gt;DashboardPageModule</title>
<path fill="none" stroke="black" d="M90,-84.91C90,-84.91 90,-103.79 90,-103.79"/>
<polygon fill="black" stroke="black" points="86.5,-103.79 90,-113.79 93.5,-103.79 86.5,-103.79"/>
</g>
<!-- RouterModule  -->
<g id="node3" class="node">
<title>RouterModule </title>
<polygon fill="#fb8072" stroke="black" points="140.66,-214.8 39.34,-214.8 39.34,-178.8 140.66,-178.8 140.66,-214.8"/>
<text text-anchor="middle" x="90" y="-192.6" font-family="Times,serif" font-size="14.00">RouterModule </text>
</g>
<!-- DashboardPageModule&#45;&gt;RouterModule  -->
<g id="edge2" class="edge">
<title>DashboardPageModule&#45;&gt;RouterModule </title>
<path fill="none" stroke="black" stroke-dasharray="5,2" d="M90,-149.91C90,-149.91 90,-168.79 90,-168.79"/>
<polygon fill="black" stroke="black" points="86.5,-168.79 90,-178.79 93.5,-168.79 86.5,-168.79"/>
</g>
</g>
</svg>
