<svg width="256" height="194" viewBox="0 0 256 194" fill="none" xmlns="http://www.w3.org/2000/svg">
<g clip-path="url(#clip0_778_64513)">
<path fill-rule="evenodd" clip-rule="evenodd" d="M225.632 69.5031C225.846 69.9453 226.664 70.0793 227.2 70.1731C231.568 70.9503 250.502 71.3523 252.324 69.7845C253.919 68.4445 253.035 46.5488 251.48 45.6644C249.47 44.4718 227.548 44.2441 226.02 45.4635C224.908 46.3881 224.211 66.4077 225.632 69.5031ZM226.355 45.7448C227.575 44.7264 248.988 45.4902 250.917 46.4282C251.949 49.1886 252.619 66.5282 251.614 68.9938C249.979 70.1194 229.947 70.0792 226.449 68.9938C225.082 65.7108 225.591 46.388 226.355 45.7448ZM172.34 43.3998C171.809 44.3089 171.091 45.0953 170.234 45.7073C169.377 46.3193 168.401 46.7431 167.369 46.9509C167.337 46.9427 167.304 46.942 167.272 46.9486C167.24 46.9553 167.21 46.9691 167.184 46.9892C167.158 47.0092 167.137 47.0349 167.123 47.0643C167.108 47.0936 167.101 47.1259 167.101 47.1586C167.101 47.1912 167.108 47.2235 167.123 47.2528C167.137 47.2822 167.158 47.3079 167.184 47.3279C167.21 47.348 167.24 47.3618 167.272 47.3685C167.304 47.3751 167.337 47.3744 167.369 47.3662C169.727 47.9826 172.796 45.8387 172.796 43.4803C172.806 43.4198 172.792 43.3577 172.757 43.3074C172.722 43.2571 172.668 43.2229 172.608 43.2123C172.547 43.2016 172.485 43.2154 172.435 43.2505C172.385 43.2857 172.351 43.3394 172.34 43.3998ZM161.392 31.4068V32.7468C161.392 32.9245 161.463 33.095 161.588 33.2206C161.714 33.3463 161.884 33.4168 162.062 33.4168C162.239 33.4134 162.407 33.3417 162.532 33.2168C162.657 33.0919 162.729 32.9235 162.732 32.7468V31.4068C162.732 31.2292 162.662 31.0587 162.536 30.9331C162.41 30.8074 162.24 30.7368 162.062 30.7368C161.884 30.7368 161.714 30.8074 161.588 30.9331C161.463 31.0587 161.392 31.2292 161.392 31.4068ZM174.752 32.6799C174.752 32.8575 174.823 33.028 174.948 33.1536C175.074 33.2793 175.244 33.3499 175.422 33.3499C175.6 33.3499 175.77 33.2793 175.896 33.1536C176.021 33.028 176.092 32.8575 176.092 32.6799V31.0182C176.092 30.8406 176.021 30.6701 175.896 30.5445C175.77 30.4188 175.6 30.3482 175.422 30.3482C175.244 30.3482 175.074 30.4188 174.948 30.5445C174.823 30.6701 174.752 30.8406 174.752 31.0182C174.698 31.5944 174.752 32.2645 174.752 32.6799Z" fill="black"/>
<path fill-rule="evenodd" clip-rule="evenodd" d="M252.445 129.615C252.357 129.466 252.233 129.341 252.084 129.254C250.931 128.691 244.66 128.972 243.36 129.026C243.588 93.8775 225.069 71.9551 198.189 65.6705C193.258 64.5181 193.244 64.4377 193.11 64.5181L192.199 62.0123C194.772 61.9319 196.876 59.9487 199.234 60.3507C201.016 60.6455 201.914 62.2267 203.669 62.8967C206.644 64.0223 211.937 62.2937 213.559 59.4663C214.389 57.9923 213.652 56.4647 214.175 55.4463C215.113 54.6289 217.78 53.3157 218.543 52.3643C220.111 50.4079 220.178 46.0261 219.468 43.6543C218.186 40.9704 216.439 38.5343 214.309 36.4585C211.991 34.2255 209.937 31.7348 208.185 29.0349C206.028 24.7335 205.947 18.7839 204.165 14.2949C202.201 10.2418 199.16 6.80676 195.375 4.36553C191.678 1.75423 187.221 0.439698 182.698 0.626933C178.477 0.894933 176.829 2.69053 174.859 3.30693C172.89 3.92333 172.474 3.30693 169.272 4.71393C168 5.48872 166.867 6.47167 165.922 7.62173C165.52 8.05053 165.546 8.07733 164.863 8.10413C164.127 8.04878 163.388 8.04878 162.652 8.10413C161.397 8.38259 160.197 8.86708 159.101 9.53793C151.637 14.0135 153.647 23.0183 150.833 29.6379C148.917 34.1403 143.584 38.4685 143.128 43.1719C142.967 45.3346 143.432 47.4979 144.468 49.4029C147.724 55.1247 152.401 50.6357 154.826 54.1331C155.59 55.2319 156.166 56.3039 157.587 56.5183C159.396 56.7595 161.861 55.3257 163.335 54.2671C163.645 54.6282 163.996 54.952 164.381 55.2319C165.687 56.1125 167.09 56.8409 168.561 57.4027L165.158 62.1597C158.779 61.4361 148.984 63.4997 142.673 65.4427C142.445 63.8347 140.462 50.5553 138.961 49.9121C136.884 49.0009 115.082 51.5335 113.755 52.9673C112.777 54.0125 114.533 73.9115 116.435 76.8863C116.717 77.3419 117.682 77.3553 118.218 77.3687C115.082 79.5127 112.054 81.6835 110.968 82.4741C110.124 79.5529 105.689 64.1027 104.054 61.5701C103.585 60.8331 103.156 60.8465 100.999 61.5701C99.7688 55.4346 98.2122 49.3692 96.3353 43.3997C97.0391 42.2428 97.6014 41.0057 98.0103 39.7147C98.5097 37.6701 98.5827 35.5444 98.2247 33.4703C99.8595 34.0197 109.628 36.6997 111.209 35.9225C111.634 35.6195 111.949 35.187 112.107 34.6897C113.836 30.9109 116.797 18.0067 117.025 13.9197C117.119 13.3964 117.029 12.8567 116.77 12.3921C115.203 10.7573 94.1109 4.68713 92.3287 5.49113C91.2433 5.98693 88.3087 15.6215 88.0005 16.7605C85.4411 25.3499 86.7409 23.4605 85.3205 23.9563C83.6857 24.5325 82.2787 27.9763 81.7025 29.5709C81.1263 31.1655 80.5233 33.3095 81.2067 34.5691C80.9292 35.0814 80.8176 35.6672 80.8872 36.2457C80.9568 36.8241 81.2042 37.3667 81.5953 37.7985C81.1692 38.2735 80.8914 38.8629 80.7962 39.4939C80.7009 40.1248 80.7924 40.7699 81.0593 41.3495C81.4479 42.5689 83.8733 43.3729 85.0793 43.7213C84.1272 46.2872 83.335 48.9097 82.7075 51.5737C81.6386 55.7076 80.7844 59.894 80.1481 64.1161C79.7517 66.1678 79.6211 68.2621 79.7595 70.3471L77.5619 71.3387C77.4774 71.3775 77.4059 71.4398 77.3559 71.5183C77.306 71.5967 77.2798 71.6879 77.2805 71.7809C77.2805 71.7809 77.6959 88.0217 83.0425 101.516C89.5013 117.85 100.128 123.317 116.301 117.207C116.447 118.489 116.763 119.746 117.239 120.946C117.481 121.374 118.298 121.455 118.847 121.508C123.604 121.664 128.367 121.516 133.105 121.066L137.125 146.526C136.04 149.662 123.725 185.386 123.899 188.709C123.899 189.058 124.033 189.326 124.609 189.594C128.16 191.242 161.808 195.637 163.081 191.966C163.402 191.068 164.18 185.346 164.327 184.261L183.261 182.17L201.311 183.363C201.505 185.17 201.828 186.961 202.276 188.723C202.437 189.125 202.624 189.339 203.093 189.299C204.875 189.125 214.376 187.41 217.002 186.914C227.079 185.011 226.851 184.85 226.557 183.859C225.846 181.514 219.254 163.223 216.681 154.687C220.444 155.088 224.24 155.088 228.004 154.687C228.044 154.832 228.121 154.964 228.226 155.072C228.332 155.18 228.463 155.259 228.607 155.303C231.059 156.201 252.968 154.955 254.764 153.159C256.385 151.725 253.665 131.652 252.445 129.615ZM92.3555 6.06733C92.5029 5.83953 92.4493 5.74573 93.6285 5.91993C98.5463 6.61673 114.626 11.8025 116.02 13.0219C116.288 16.0905 112.308 32.9343 110.74 34.9711C109.601 35.3597 102.044 33.4301 100.878 33.1219C92.0071 30.8037 92.3555 30.4419 90.3321 29.9729C89.2869 29.6111 89.1797 29.5977 89.2065 29.4503C89.2099 29.4172 89.2254 29.3864 89.2502 29.3641C89.275 29.3418 89.3072 29.3296 89.3405 29.3297C90.5465 29.3297 93.7759 29.2359 94.5665 28.2979C94.7411 28.1072 94.8713 27.8803 94.9479 27.6333C95.0246 27.3864 95.0457 27.1256 95.0099 26.8696C94.974 26.6136 94.8821 26.3686 94.7406 26.1522C94.5991 25.9359 94.4115 25.7534 94.1913 25.6179C92.4692 24.928 90.6692 24.451 88.8313 24.1975C88.2819 24.0903 87.6119 23.9027 86.9419 23.8223C87.8665 19.6415 90.9217 8.29173 92.3555 6.06733ZM80.8449 69.9049V67.8279C80.9655 65.2819 82.1849 58.5953 82.5467 56.7595C83.1363 53.7847 83.2703 53.1147 84.9855 46.6559C84.9855 46.4817 86.0173 43.6007 86.0173 43.6007C86.0358 43.5507 86.0434 43.4973 86.0397 43.4441C86.0359 43.3909 86.0208 43.3391 85.9955 43.2922C85.9701 43.2453 85.935 43.2043 85.8926 43.172C85.8502 43.1397 85.8013 43.1169 85.7493 43.1049C85.6019 43.1049 82.1179 42.2473 81.7293 41.1351C81.3407 40.0229 81.2603 38.6829 82.2385 38.0933C82.2745 38.0672 82.3038 38.033 82.324 37.9934C82.3442 37.9538 82.3547 37.91 82.3547 37.8655C82.3547 37.8211 82.3442 37.7773 82.324 37.7377C82.3038 37.6981 82.2745 37.6638 82.2385 37.6377C81.8103 37.2862 81.5221 36.7928 81.4263 36.2471C81.3304 35.7014 81.4332 35.1394 81.7159 34.6629C82.0241 34.0331 80.3759 34.3413 82.3323 29.8255C82.8281 28.7133 84.5031 25.2963 85.6421 24.9211C86.6507 24.8227 87.6686 24.9368 88.6303 25.2561C90.3099 25.5207 91.9609 25.9424 93.5615 26.5157C93.6633 26.5704 93.7511 26.6479 93.8181 26.7421C93.885 26.8363 93.9293 26.9447 93.9474 27.0589C93.9656 27.173 93.9571 27.2898 93.9227 27.4001C93.8883 27.5104 93.8289 27.6113 93.7491 27.6949C93.1605 28.0286 92.5155 28.2511 91.8463 28.3515C87.6253 29.1823 88.3757 28.2577 87.8263 29.6915C86.2138 29.5969 84.6019 29.8863 83.1229 30.5357C82.5467 30.6563 82.7879 31.0315 83.2033 30.9645C84.9987 30.3762 86.9188 30.279 88.7643 30.6831C89.8351 30.8788 90.8819 31.1888 91.8865 31.6077C92.7977 31.9778 93.6065 32.5615 94.2449 33.3095C94.3589 33.593 94.4015 33.9002 94.3687 34.204C94.336 34.5078 94.2291 34.7988 94.0573 35.0515C93.7357 35.5473 92.1813 35.2123 91.5917 35.0515C90.7877 34.8103 89.9435 34.6093 89.1529 34.3547C88.0407 34.0063 88.1613 33.9125 87.8129 33.9393C86.5839 34.1134 85.3818 34.4421 84.2351 34.9175C84.2027 34.9212 84.1715 34.9323 84.144 34.9499C84.1165 34.9675 84.0934 34.9911 84.0764 35.019C84.0594 35.0469 84.049 35.0783 84.046 35.1108C84.043 35.1433 84.0475 35.1761 84.059 35.2066C84.0706 35.2371 84.089 35.2646 84.1128 35.2869C84.1366 35.3093 84.1652 35.3259 84.1964 35.3355C84.2276 35.3451 84.2606 35.3474 84.2929 35.3423C84.3251 35.3372 84.3558 35.3249 84.3825 35.3061C85.4088 35.0168 86.4578 34.815 87.5181 34.7031C88.1211 34.7031 87.7325 34.7031 89.2467 35.3061C89.9301 35.5607 90.5867 35.7617 91.3103 36.0029C91.7758 36.1624 92.2562 36.2747 92.7441 36.3379C93.6017 37.1419 94.2181 39.0179 93.0657 39.3529C92.6129 39.431 92.1472 39.3751 91.7257 39.1921C88.6571 38.1871 90.7341 37.4635 84.0743 38.8303C84.0198 38.8371 83.97 38.8644 83.9351 38.9068C83.9002 38.9492 83.8829 39.0034 83.8867 39.0581C83.8867 39.4065 84.1145 39.1921 87.7995 39.0581C88.2451 39.0134 88.694 39.0134 89.1395 39.0581C90.2919 39.6477 92.0071 40.6527 93.3337 40.2641C94.9551 39.7415 94.9015 37.9459 93.8563 36.6327C93.4811 36.1771 93.4409 36.3111 93.7625 36.2575C93.9977 36.232 94.225 36.1581 94.4303 36.0405C94.6355 35.9229 94.8142 35.7641 94.9551 35.5741C95.2724 35.1364 95.4499 34.6129 95.4643 34.0724C95.4786 33.5319 95.3292 32.9997 95.0355 32.5457L97.2867 33.2157C97.7324 35.2912 97.6958 37.4413 97.1795 39.5003C97.0359 40.003 96.8475 40.4918 96.6167 40.9609C95.6385 43.0245 95.2767 43.0915 95.3973 43.4801C97.2594 49.5347 98.7937 55.6853 99.9935 61.9051C94.9417 63.6739 85.6823 67.7475 80.8449 69.9049ZM186.879 163.022C192.614 163.263 204.942 163.705 210.597 163.531C210.209 165.219 209.967 166.291 209.9 166.532C207.207 166.532 189.8 163.517 186.879 163.022ZM212.768 162.338C209.177 163.182 162.558 161.36 158.565 159.658C158.98 156.657 162.893 139.786 163.684 136.342C167.201 137.419 170.86 137.961 174.538 137.95C175.878 138.647 178.089 139.853 179.415 140.483C179.268 141.622 178.906 144.315 179.71 145.119C180.514 145.923 199.02 152.717 215.247 154.62C214.592 157.245 213.764 159.823 212.768 162.338ZM163.255 130.084C162.638 129.897 162.067 129.582 161.58 129.16C161.232 128.785 161.352 127.646 161.58 127.11C161.705 126.849 161.926 126.647 162.196 126.547C162.524 126.405 162.872 126.318 163.228 126.292C163.335 126.29 163.438 126.255 163.524 126.192C163.61 126.129 163.675 126.042 163.71 125.941C163.745 125.841 163.748 125.732 163.719 125.629C163.691 125.527 163.632 125.436 163.55 125.368C162.766 124.707 162.22 123.808 161.995 122.808C161.995 122.071 162.277 121.307 163.456 120.637C164.796 120.745 168.816 124.068 170.679 122.152C172.541 120.235 170.344 115.746 172.421 115.371C174.498 114.996 175.543 121.24 175.905 121.924C177.111 124.269 180.353 125.944 182.203 127.873C181.086 131.868 180.191 135.921 179.523 140.014C176.843 138.58 174.859 137.334 174.658 137.334C171.858 137.24 164.34 136.463 162.384 134.466C162.036 134.197 161.798 133.811 161.714 133.38C161.63 132.948 161.706 132.501 161.928 132.121C162.071 131.869 162.263 131.649 162.494 131.474C162.724 131.299 162.988 131.173 163.268 131.103C163.383 131.075 163.485 131.009 163.557 130.915C163.63 130.822 163.668 130.706 163.667 130.588C163.665 130.47 163.624 130.356 163.549 130.264C163.474 130.173 163.37 130.109 163.255 130.084ZM178.183 85.4623C175.693 85.2242 173.192 85.1258 170.692 85.1675C170.37 85.1675 170.102 85.3283 170.009 85.6365C169.781 86.4941 165.989 114.366 165.801 115.733C164.997 102.333 164.166 88.2227 163.55 77.8779C168.213 85.3149 168.615 86.0519 169.352 85.5293C171.837 83.4859 174.187 81.2837 176.387 78.9365C176.789 80.4239 177.432 82.8493 178.183 85.4623ZM190.444 80.7589C189.532 79.4189 188.635 78.0789 188.3 77.5831L192.628 66.6889L190.444 80.7589ZM193.566 65.3757C198.634 66.4208 203.576 68.0066 208.306 70.1059C208.105 70.7357 205.519 78.6417 202.423 88.0753C201.003 87.9011 192.869 86.9095 190.363 86.6415L193.566 65.3757ZM188.085 79.0705L190.202 82.2597L189.532 86.5477L187.455 86.2797C187.764 83.3719 187.978 80.6115 188.085 79.0705ZM225.083 93.2075C225.066 94.9522 224.895 96.692 224.573 98.4067C219.977 97.2275 179.884 87.3651 175.811 89.6833C173.774 90.8625 167.074 118.359 166.431 120.838L165.948 120.597C168.066 105.71 170.88 86.1859 170.88 86.1323C175.449 85.6097 219.468 90.5945 225.083 93.2075ZM201.7 121.227C198.698 121.026 186.785 120.436 184.28 122.098C183.891 122.366 183.73 122.42 182.35 127.378C180.568 125.488 177.58 123.706 176.575 121.602C176.119 120.678 175.382 113.924 172.26 114.447C168.052 115.157 173.426 123.827 167.208 121.147C167.61 119.445 174.203 91.0635 176.039 90.0183C179.925 87.8073 222.309 98.5943 227.669 100.109C227.361 103.378 223.421 120.825 222.697 124.014C215.758 122.681 208.747 121.75 201.7 121.227ZM181.064 27.4939C181.814 28.0031 181.787 29.2225 181.653 30.1069C180.715 36.0967 174.712 39.7281 170.545 33.9929C169.593 32.6529 168.856 28.3917 169.499 27.4537C169.928 26.9043 173.385 26.8775 174.082 26.8775C175.369 26.8909 180.394 27.0919 181.01 27.4939H181.064ZM165.104 28.4587C165.104 30.9779 164.26 35.1587 162.022 36.3647C158.418 38.2407 154.759 35.2659 154.666 31.3933C154.528 29.9796 154.596 28.5533 154.867 27.1589L155.001 27.0919C154.786 26.7167 164.206 26.5961 165.051 27.4403C165.079 27.7792 165.079 28.1199 165.051 28.4587H165.104ZM169.767 57.6305C172.086 58.3005 175.824 57.9789 177.62 56.1431C177.657 56.1033 177.678 56.0506 177.678 55.9957C177.678 55.9409 177.657 55.8881 177.62 55.8483C177.312 55.4731 177.62 56.1967 174.136 56.7193C170.652 57.2419 168.548 56.7193 165.024 54.4279C163.404 52.9397 162.191 51.0625 161.5 48.9741C160.057 45.4398 159.153 41.7086 158.82 37.9057C160.081 38.1122 161.375 37.9005 162.505 37.3027C163.601 36.6615 164.451 35.6705 164.917 34.4887C164.464 35.9048 164.093 37.3454 163.804 38.8035C163.742 38.9902 163.732 39.1907 163.777 39.3825C163.822 39.5742 163.92 39.7496 164.059 39.8889C164.986 40.4552 166.076 40.6914 167.154 40.5589C167.186 40.567 167.219 40.5678 167.251 40.5612C167.283 40.5545 167.313 40.5406 167.339 40.5206C167.365 40.5006 167.386 40.4749 167.4 40.4455C167.414 40.4162 167.422 40.3839 167.422 40.3512C167.422 40.3185 167.414 40.2863 167.4 40.2569C167.386 40.2276 167.365 40.2019 167.339 40.1819C167.313 40.1618 167.283 40.148 167.251 40.1413C167.219 40.1347 167.186 40.1354 167.154 40.1435C166.359 40.055 165.592 39.7993 164.903 39.3931C164.595 39.1787 164.729 39.3127 164.823 38.8705C164.917 38.4283 166.659 32.0365 166.752 31.6345C167.168 31.6345 168.749 31.4201 168.749 31.0315C168.749 30.6429 167.489 30.5357 167.02 30.5625C167.02 30.3883 167.101 30.2409 167.141 30.1069C167.162 30.0536 167.162 29.994 167.139 29.9413C167.116 29.8885 167.074 29.8469 167.02 29.8255C166.967 29.8042 166.907 29.8049 166.855 29.8275C166.802 29.8502 166.76 29.8928 166.739 29.9461C166.27 30.8573 166.592 30.5223 165.962 30.6831C166.204 29.4441 166.204 28.1701 165.962 26.9311C165.198 25.7519 160.602 26.0199 159.101 26.1137C159.865 21.6247 162.84 19.4137 164.662 15.8225C165.173 14.989 165.853 14.2722 166.659 13.7187C167.061 13.6115 167.851 14.6165 168.334 14.8577C168.816 15.0989 169.272 16.4255 169.674 16.8811C170.938 18.3203 172.394 19.5784 174.002 20.6197C175.342 21.5711 177.432 21.7185 178.343 22.9379C178.728 23.9748 178.915 25.0749 178.893 26.1807C177.164 26.0735 169.955 25.9663 169.097 27.1991C168.32 28.1907 168.655 32.7199 169.794 34.4619C172.662 38.8035 177.07 39.0715 180.514 35.1587C180.884 34.6969 181.199 34.1931 181.452 33.6579C184.025 37.6779 186.048 40.0765 186.142 44.7933C186.249 50.7697 184.561 60.6723 191.033 61.9185L192.145 64.9871C186.785 78.4675 187.067 77.6233 187.067 77.7573C187.067 77.8913 186.812 81.7773 186.343 86.2261C183.77 85.9581 181.372 85.7303 179.241 85.5561C179.08 85.0067 177.084 77.9047 177.124 77.7573C177.325 77.0873 176.32 75.7741 175.543 74.6083C172.628 70.3887 169.446 66.3604 166.015 62.5483L169.767 57.6305ZM165.051 62.9101C165.278 63.2585 174.926 73.8713 176.106 77.7707C173.938 80.1737 171.595 82.4132 169.097 84.4707C168.2 83.2915 165.774 79.4055 163.469 75.7741C163.054 68.7659 162.773 63.8883 162.706 62.8699C163.456 62.8163 164.3 62.8565 164.997 62.9101H165.051ZM117.199 76.3101C115.672 73.6301 113.554 56.2101 114.05 53.5301C114.05 53.2889 114.05 53.2085 115.176 52.9003C119.973 51.6541 136.803 50.2203 138.572 50.8233C139.912 53.4363 142.847 70.4945 142.15 73.1209C140.783 74.2197 121.139 76.9935 117.146 76.3101H117.199ZM118.137 120.396C116.596 117.368 115.457 97.9511 116.221 97.2141C117.36 96.1153 138.746 95.1773 140.77 95.9679C142.11 98.7819 144.013 116.068 143.222 118.413C141.4 119.78 121.3 121.12 118.084 120.396H118.137ZM148.729 97.9377C149.694 97.6831 156.421 95.9679 157.225 95.4855C157.801 95.1505 158.458 96.2359 147.188 65.3087C148.528 64.0759 160.24 62.4947 162.089 63.0709C162.089 63.8079 163.845 95.0835 165.225 120.182C164.568 119.86 163.617 119.364 163.014 119.699C160.495 121.039 160.334 123.264 162.196 125.435C161.848 125.52 161.525 125.685 161.253 125.918C160.981 126.151 160.767 126.444 160.629 126.775C160.414 127.277 160.322 127.825 160.362 128.37C160.402 128.915 160.571 129.443 160.856 129.91C161.169 130.209 161.526 130.458 161.915 130.647C161.515 130.915 161.199 131.292 161.004 131.733C160.828 132.112 160.724 132.521 160.696 132.939L148.729 97.9377ZM182.082 181.326L164.582 183.269C164.662 182.626 166.632 167.095 167.262 161.829C170.906 162.151 175.302 162.432 180.005 162.687C180.782 172.348 182.149 179.021 182.028 181.326H182.082ZM183.007 181.219C183.194 178.164 180.675 162.847 180.662 162.713L182.002 162.78C186.558 163.625 198.296 165.702 199.569 165.916C199.998 170.231 201.07 180.281 201.324 182.344C181.345 181.058 183.502 181.165 182.94 181.219H183.007ZM254.107 152.543C252.767 153.615 233.082 155.41 229.022 154.526C227.454 151.484 226.342 132.081 227.106 131.344C228.258 130.232 249.645 129.321 251.641 130.098C252.901 132.898 254.844 150.251 254.053 152.543H254.107Z" fill="black"/>
<path fill-rule="evenodd" clip-rule="evenodd" d="M118.164 142.694C118.057 142.211 117.91 141.515 117.521 141.354C116.181 140.55 107.35 140.389 105.783 140.362C105.434 133.97 104.818 126.587 103.813 124.604C103.156 123.264 59.8473 123.13 58.3599 123.116C58.4671 115.907 58.4805 104.919 58.3599 97.6564C60.2493 97.6564 69.6829 97.6564 70.9827 96.5844C72.6443 95.2444 71.5321 77.3554 70.7817 73.8044C70.6745 73.322 70.5137 72.6252 70.1385 72.4644C68.1821 71.2986 46.2329 71.0172 44.6785 72.2634C43.8611 72.9468 43.5529 81.3218 43.5127 82.3804C40.4441 82.3804 21.4697 81.9918 14.6893 82.1526V71.2048C16.4447 71.2048 26.7493 71.4862 28.0893 70.3606C29.7107 69.0206 29.1747 47.125 27.6337 46.2406C26.0927 45.3562 16.4715 45.0748 14.8099 45.0346C14.8099 43.1318 14.6625 38.3346 14.6491 38.214C20.8533 37.9862 37.2013 38.5088 43.9415 38.5088C43.9415 40.6126 43.8209 48.1032 44.7053 50.0194C44.9197 50.475 45.7371 50.609 46.2731 50.7028C50.5343 51.4532 69.5355 51.8954 71.3981 50.3142C73.2607 48.733 71.9609 28.7 70.8755 26.5426C70.8036 26.3875 70.6928 26.2537 70.5539 26.154C68.5305 24.9614 46.6081 24.814 45.0939 25.953C44.2229 26.69 43.9281 36.2844 43.9013 37.4368C37.0539 37.4368 20.9471 36.9142 14.5687 37.142C14.5687 34.5558 14.4347 31.9428 14.4347 29.37C16.3375 29.37 27.8347 29.1958 29.2685 27.9362C30.7023 26.6766 29.2685 6.3756 28.1161 4.178C28.0445 4.02226 27.9278 3.89158 27.7811 3.80281C25.7443 2.66381 3.82193 3.0122 2.32113 4.2718C1.18213 5.2634 0.981126 25.2964 2.50873 28.3918C2.61397 28.5646 2.77451 28.6969 2.96433 28.767C4.49193 29.4102 11.6207 29.4236 13.2957 29.4236C13.2957 35.4134 13.5637 40.2776 13.6173 45.0614C12.2773 45.0614 3.13853 44.8604 2.12013 45.6778C1.10173 46.4952 -0.131074 66.5148 1.28933 69.7978C1.49033 70.24 2.30773 70.4008 2.84373 70.4946C6.39505 71.0075 9.9759 71.2894 13.5637 71.3388V91.1172C12.2907 91.1172 3.56733 90.9564 2.58913 91.747C1.61093 92.5376 0.324526 112.584 1.74493 115.867C1.94593 116.323 2.76333 116.47 3.29933 116.577C7.64093 117.408 26.5617 118.132 28.4243 116.577C30.2869 115.023 29.3221 94.9362 28.3037 92.8056C28.2312 92.6472 28.1208 92.5091 27.9821 92.4036C26.5215 91.5192 16.3643 91.2244 14.5821 91.1842V83.439C21.5233 83.2648 39.7205 83.6534 43.3921 83.6668C43.3921 85.9314 43.1777 94.4672 44.1425 96.5442C44.2301 96.7241 44.3837 96.8633 44.5713 96.9328C46.2999 97.7234 55.2913 97.8842 57.1271 97.8976C57.3013 105.187 57.2879 116.202 57.1271 123.358C39.1175 123.264 20.4379 123.451 16.6725 124.215C16.2705 124.296 15.6139 124.43 15.5871 124.992C15.5871 124.992 14.8635 136.57 14.5285 140.55C13.3359 140.55 5.49693 140.55 4.58573 141.354C3.67453 142.158 2.66953 162.231 4.14353 165.474C4.34453 165.916 5.16192 166.063 5.69792 166.157C9.97252 166.908 28.9603 167.35 30.8229 165.769C32.6855 164.187 31.3723 144.114 30.3003 141.997C30.3541 141.869 30.3713 141.729 30.35 141.591C30.3287 141.454 30.2698 141.326 30.1797 141.22C28.6387 140.295 17.6373 140.215 15.8149 140.201C16.1365 136.181 16.8333 124.992 16.8333 124.992C21.4161 123.652 97.6487 123.813 102.982 125.167C103.799 127.123 104.322 133.836 104.751 140.255C103.411 140.255 93.2267 140.175 92.1681 141.059C91.1095 141.943 90.3055 162.057 91.7259 165.179C91.8199 165.359 91.9776 165.497 92.1681 165.568C94.5399 166.64 116.476 167.122 118.405 165.474C118.737 165.072 118.93 164.574 118.955 164.053C119.585 159.98 119.035 146.714 118.164 142.694ZM45.3753 26.1138C46.5679 25.1222 67.9543 25.8324 69.9375 26.7972C70.4352 28.9121 70.7225 31.0711 70.7951 33.2426C62.2057 32.3716 50.6013 33.0416 44.6785 33.2426C44.7053 32.4386 44.9197 26.4354 45.3753 26.0736V26.1138ZM44.6651 33.9796C54.4203 34.2878 65.9979 33.7786 70.8353 33.8322C70.9827 36.204 71.5053 47.3126 70.6343 49.3628C69.6427 50.0462 61.8305 50.1668 60.6379 50.1802C57.7569 50.1802 48.2563 50.1802 45.4691 49.3762C44.5043 47.0312 44.5981 36.6194 44.6651 33.9394V33.9796ZM2.66953 4.379C3.86213 3.3338 25.2887 3.5348 27.2451 4.379C27.6848 5.87258 27.9633 7.40893 28.0759 8.9618C19.4198 8.70657 10.7573 9.15471 2.17373 10.3018C2.18713 9.8194 2.28093 4.7274 2.66953 4.379ZM3.37973 27.628C2.29433 25.2026 2.14693 13.9198 2.17373 10.7574C3.29933 10.6234 27.6337 9.4174 28.1295 9.4174C28.4243 12.0974 29.4695 24.5996 28.5315 26.9446C26.7359 28.2444 6.56893 28.499 3.37973 27.628ZM2.45513 45.7582C3.67453 44.78 25.0475 45.8386 27.0173 46.8302C27.4556 48.8297 27.6979 50.8672 27.7409 52.9138C27.8749 52.9138 8.79333 52.1634 1.67793 52.3912C1.71813 51.6006 2.03973 46.0798 2.45513 45.7582ZM27.7141 115.438C26.2401 116.403 6.47513 116.282 2.56233 115.036C1.59753 112.638 1.89233 101.636 2.02633 98.8356C2.16033 98.8356 20.4781 100.256 28.1429 99.3582C28.2769 101.81 28.6387 113.348 27.7141 115.425V115.438ZM27.3925 92.8458C27.8288 94.8505 28.0755 96.8919 28.1295 98.9428C28.2635 98.9428 9.22213 98.1924 2.05313 98.4068C2.11285 96.2527 2.34135 94.1066 2.73653 91.9882C2.83033 91.7202 2.73653 91.6666 3.94253 91.5326C8.73973 90.9966 25.6773 91.9748 27.3925 92.8324V92.8458ZM2.17373 69.0072C1.22233 66.6086 1.51713 55.6876 1.65113 52.82C1.81193 52.82 20.0761 54.2404 27.7677 53.3426C27.9017 55.8082 28.2769 67.2786 27.3389 69.4226C25.5299 70.6018 5.40313 70.039 2.17373 69.0072ZM30.4745 148.938C30.6353 151.431 31.1445 162.512 30.2735 164.616C28.8531 165.608 9.00773 165.809 5.10833 164.616C4.14353 162.285 4.23733 151.792 4.30433 148.992C12.9473 149.327 20.7997 148.938 30.4745 148.938ZM29.5767 142.051C30.0724 144.162 30.3641 146.316 30.4477 148.483C21.9253 147.625 9.91892 148.308 4.31773 148.563C4.31773 147.719 4.57233 141.729 5.01453 141.367C6.22053 140.376 27.5935 141.086 29.5767 142.051ZM44.9197 72.4376C46.1525 71.4058 67.5389 72.183 69.4819 73.121C69.9916 75.3207 70.2877 77.5644 70.3663 79.821C64.5507 79.5128 50.0787 78.5882 44.2363 79.3118C44.3033 78.548 44.5311 72.7994 44.9197 72.4376ZM45.0537 95.6598C44.0755 93.3148 44.1827 82.5948 44.2631 79.7942C46.1525 79.6066 59.8205 80.4642 66.1721 80.4106C67.7935 80.4106 69.2541 80.3436 70.4333 80.3034C70.5807 82.6886 71.0765 93.5828 70.2189 95.6464C68.4635 96.8926 48.3099 96.6916 45.0537 95.6598ZM92.3959 141.367C93.6019 140.376 114.975 141.086 116.972 142.051C117.463 144.167 117.75 146.325 117.829 148.496C109.387 147.638 97.1663 148.322 91.7125 148.496C91.7259 147.786 91.9537 141.769 92.3959 141.407V141.367ZM117.668 164.616C116.208 165.608 96.3623 165.809 92.5031 164.616C91.5249 162.298 91.6187 151.766 91.6991 148.978C100.717 149.327 107.484 148.978 117.856 148.978C118.017 151.444 118.526 162.566 117.668 164.656V164.616Z" fill="#000091"/>
<g style="mix-blend-mode:multiply">
<path d="M116.5 12.5C109 9.5 104.5 7.5 92.5 5.5C88 14.5 86.5 24.5 86.5 24.5C86.5 24.5 93.5 24.5 94.5 27C92.5 29 88.5 29.5 88.5 29.5C88.5 29.5 105.5 35.5 111 35.5C113.5 31 116 23.5 116.5 12.5Z" fill="#000091"/>
</g>
<g style="mix-blend-mode:multiply">
<path d="M139 50C129.5 50.5 124 50.5 113.5 53C114 61.5 114.5 73 117 77C129 76 134 75.5 143 73.5C142.5 67.5 141 55.4998 139 50Z" fill="#FF8F00"/>
</g>
<g style="mix-blend-mode:multiply">
<path d="M141 95.5C132.5 94.4999 127 95.5001 116 97C115 109 115.5 111.5 117.5 121C131.5 121.5 132 121 143.5 118.5C143 107.5 142.5 103.5 141 95.5Z" fill="#FEE7FC"/>
</g>
<g style="mix-blend-mode:multiply">
<path d="M251.5 46C251.5 46 237.5 44.5 226 45.5C224 55 226 69.5 226 69.5C226 69.5 241.5 71.5 252 69.5C253.5 62.5 251.5 46 251.5 46Z" fill="#A558A0"/>
</g>
<g style="mix-blend-mode:multiply">
<path d="M252 129.5C252 129.5 234.5 128.5 226.5 131C225.5 139 226.5 149.5 228.5 155.5C240.5 156 255 153 255 153L252 129.5Z" fill="#FF8F00"/>
</g>
<g style="mix-blend-mode:multiply">
<path d="M163 76.5L162.5 63H165.5C165.5 63 172.5 71.5 176.5 77.5C177.281 80.6242 178.5 86 178.5 86H170.5L165.5 119.5L163 76.5Z" fill="#FF9F8B"/>
<path d="M187.5 78L193 65.5L190.698 82L190 87L187 86.5L187.5 78Z" fill="#FF9F8B"/>
</g>
</g>
<defs>
<clipPath id="clip0_778_64513">
<rect width="256" height="194" fill="white"/>
</clipPath>
</defs>
</svg>
