<svg width="210" height="204" viewBox="0 0 210 204" fill="none" xmlns="http://www.w3.org/2000/svg">
<g id="Slang-To-the-Moon--cryptocurrency-crypto-web 3.0-metaverse-bitcoin-ethereum">
<path id="space" fill-rule="evenodd" clip-rule="evenodd" d="M86.8382 5.43415C106.176 4.57186 116.47 10.8067 125.904 17.4448C113.944 31.0294 112.655 49.4135 117.567 63.2205C128.416 93.7169 168.371 104.996 193.605 80.881C200.772 74.0315 204.659 65.2176 206.331 59.1898C210.314 70.4493 210.578 82.7339 207.018 94.2119C205.342 99.7966 202.95 104.403 200.566 108.989C198.007 113.915 195.461 118.817 193.83 124.881C191.861 132.201 193.397 138.665 195.012 145.459C197.297 155.066 199.738 165.331 192.641 179.607C186.508 191.945 171.324 197.585 157.642 197.951C144.645 198.297 131.554 191.429 121.582 186.196C118.108 184.373 115.014 182.75 112.432 181.698C100.456 176.82 92.5286 183.329 84.0282 190.31L84.0275 190.311H84.0269L84.0251 190.313H84.024L84.0236 190.314H84.0226L84.0221 190.316C82.7887 191.329 81.5429 192.352 80.2711 193.35C73.2619 198.858 34.8136 220.042 9.92614 179.407C4.15663 169.997 -5.68067 145.312 5.85613 120.997C11.3587 109.401 18.0534 103.693 24.0075 98.6165C30.962 92.6875 36.9062 87.6199 38.7604 75.0356C39.4706 70.2147 39.2769 65.3309 39.0797 60.3594C38.6883 50.4909 38.2833 40.277 44.9061 29.5242C49.3801 22.3743 55.546 16.4363 62.8594 12.2349C70.1726 8.03345 78.408 5.69771 86.8382 5.43415ZM66.351 80.5083C68.1685 79.6328 71.0318 78.2537 71.8055 77.933C71.8913 77.9064 71.9835 77.9085 72.0681 77.9389C72.1526 77.9693 72.2251 78.0262 72.2745 78.1013C72.3238 78.1763 72.3475 78.2654 72.3419 78.355C72.3363 78.4447 72.3017 78.5301 72.2433 78.5984C71.7714 79.0714 66.7224 81.8885 65.9524 82.3143C66.139 82.5515 66.7254 82.9586 67.3897 83.4198C67.9513 83.8096 68.5685 84.2382 69.0468 84.6353C70.3053 85.6764 70.3191 85.8387 70.3458 86.1537C70.3482 86.1798 70.3505 86.2069 70.3535 86.2358C70.3585 86.2757 70.3548 86.3162 70.3425 86.3544C70.3302 86.3928 70.3098 86.428 70.2826 86.4576C70.2554 86.4872 70.2221 86.5105 70.1849 86.526C70.1477 86.5414 70.1077 86.5486 70.0675 86.5471C69.9317 86.5407 69.7976 86.5128 69.6704 86.4646C68.7011 85.896 67.7975 85.2618 67.0354 84.727C66.0636 84.045 65.3218 83.5244 64.9679 83.5078C64.7371 85.3004 64.5994 87.104 64.5554 88.911C64.5125 89.6051 64.4729 90.0396 64.2089 90.231C64.0952 90.3262 63.9543 90.3832 63.8063 90.3938C63.3102 90.3938 63.2794 89.7008 63.2673 89.2069C63.2255 87.492 63.462 84.4032 63.5269 83.5969C63.3608 83.6694 63.0935 83.8026 62.6535 84.0368C61.0268 84.8977 60.1177 85.4274 59.5796 85.741L59.5789 85.7413C58.8196 86.1838 58.7993 86.1957 58.5417 86.1005C58.4564 86.072 58.3814 86.0189 58.3258 85.9482C58.2703 85.8774 58.2367 85.7919 58.2293 85.7023C58.1581 84.8423 60.5663 83.56 62.2324 82.6731C62.5202 82.5198 62.7863 82.3781 63.0132 82.2527L62.2091 81.6893C58.4414 79.0501 57.9327 78.6938 57.9523 78.3693C57.9553 78.3187 57.9713 78.2689 57.9897 78.2113L57.9917 78.2047C58.3584 77.0535 60.3932 78.5773 62.055 79.8218C62.7417 80.336 63.3647 80.8026 63.7799 81.013C63.7733 80.6313 63.8228 79.5445 64.1187 76.2598C64.2708 74.5708 64.252 73.2746 64.2381 72.317C64.2161 70.7939 64.2064 70.1276 64.9162 70.0999C65.0748 70.1126 65.2256 70.1738 65.3481 70.2751C65.4708 70.3765 65.5592 70.513 65.6015 70.6664C65.6392 74.1429 65.4923 77.619 65.1615 81.0801C65.435 80.9494 65.8464 80.7513 66.3345 80.5162L66.3423 80.5125L66.349 80.5092L66.351 80.5083ZM183.683 115.55C183.746 115.481 183.783 115.395 183.791 115.302C183.799 115.21 183.776 115.118 183.725 115.04C183.676 114.962 183.601 114.904 183.513 114.873C183.426 114.842 183.331 114.842 183.243 114.871C182.368 115.233 178.842 116.936 177.155 117.75L177.153 117.751L176.599 118.018C176.93 114.556 177.077 111.08 177.039 107.603C176.996 107.45 176.907 107.314 176.785 107.213C176.663 107.112 176.512 107.051 176.354 107.038C175.644 107.065 175.654 107.732 175.677 109.252C175.691 110.21 175.71 111.507 175.558 113.198C175.262 116.48 175.213 117.568 175.22 117.95C174.804 117.741 174.179 117.272 173.491 116.756C171.831 115.512 169.798 113.989 169.431 115.143L169.427 115.151C169.41 115.209 169.393 115.258 169.391 115.309C169.37 115.633 169.882 115.991 173.703 118.665L174.452 119.19C174.245 119.304 174.001 119.433 173.734 119.575C172.089 120.448 169.596 121.772 169.668 122.64C169.686 122.735 169.729 122.824 169.792 122.897C169.855 122.969 169.938 123.023 170.029 123.054C170.12 123.085 170.218 123.09 170.313 123.069C170.407 123.049 170.494 123.004 170.566 122.939C170.842 122.719 174.526 120.724 175.076 120.461C175.071 120.514 175.066 120.578 175.059 120.649L175.058 120.657C174.932 122.073 174.508 126.793 175.539 126.793C175.834 126.793 175.847 126.615 175.94 125.32V125.319V125.318H175.941C175.993 124.598 176.07 123.537 176.234 121.971C176.284 121.502 176.331 120.395 176.331 120.395C176.528 120.493 176.731 120.628 177.036 120.83C177.439 121.096 178.015 121.479 178.983 122.045C179.177 122.117 179.456 122.189 179.596 122.039C179.683 121.945 179.674 121.866 179.664 121.777C179.662 121.76 179.659 121.744 179.658 121.727C179.631 121.354 179.513 121.17 178.359 120.214C177.983 119.902 177.714 119.697 177.487 119.523C177.4 119.457 177.319 119.394 177.241 119.334C177.739 119.082 183.199 116.034 183.683 115.55ZM90.4458 25.4594C90.4656 25.4989 90.4774 25.542 90.4803 25.586C90.4967 26.2669 84.8702 31.9297 82.4678 34.0296C82.7676 34.3943 84.6197 36.0729 86.2354 37.537L86.2439 37.5448C86.5166 37.792 86.7825 38.0329 87.0329 38.2602C88.6553 39.732 88.6235 39.8662 88.5794 40.0499C88.5649 40.1013 88.538 40.1483 88.5009 40.1867C88.464 40.2251 88.418 40.2537 88.3671 40.2699C87.7544 40.4426 82.9013 36.5739 81.4371 35.0999C81.1916 36.1776 80.8111 40.2305 80.5551 42.9585C80.4188 44.4101 80.3177 45.487 80.291 45.5402C80.2721 45.5782 80.2449 45.6113 80.211 45.6371C80.1772 45.6627 80.1379 45.6802 80.0963 45.6881C80.0545 45.696 80.0115 45.6942 79.9706 45.6825C79.9298 45.6709 79.8922 45.65 79.8609 45.6214C79.0106 44.8512 79.4403 40.9252 79.7472 38.1225L79.7476 38.1197C79.8327 37.3415 79.9084 36.6502 79.9445 36.1372C79.7184 36.3074 79.3904 36.577 78.7947 37.0666C78.5005 37.3084 78.1409 37.604 77.6961 37.9676C76.7973 38.7062 76.7467 38.814 76.6205 39.0833C76.5933 39.1412 76.5625 39.2068 76.5191 39.2876C76.0372 40.2105 74.8922 39.2834 75.4191 38.1966C75.7411 37.5335 75.9125 37.3932 78.333 35.4121C78.7477 35.0728 79.2283 34.6793 79.7871 34.2199C79.9247 34.1066 80.0566 33.9977 80.1347 33.9251C80.0192 33.825 74.2266 28.3525 74.1892 28.1963C74.0583 27.7079 74.2277 27.5077 74.3883 27.4263C75.353 26.9335 79.7288 31.3788 80.4559 32.1774C80.4658 32.0672 80.4746 31.933 80.4823 31.8076C80.5092 31.3706 80.6033 30.5113 80.7318 29.3378L80.7322 29.335C80.8614 28.1549 81.0254 26.6574 81.1908 24.9524L81.1911 24.9497C81.4316 22.4829 81.4462 22.3344 81.9684 22.2519C82.8423 22.1082 82.4783 25.4907 82.044 29.5269C81.9337 30.5514 81.819 31.6182 81.7188 32.6799C85.5884 29.4556 87.5693 27.4901 88.6713 26.3966C89.7878 25.2888 90.0022 25.0761 90.3647 25.3561C90.3984 25.3849 90.426 25.4199 90.4458 25.4594ZM134.052 124.719C132.846 125.372 132.782 125.399 132.564 125.49C132.411 125.555 132.181 125.653 131.422 126.024C130.964 126.248 130.366 126.555 129.834 126.827C129.238 127.133 128.724 127.396 128.582 127.454C128.617 126.866 128.81 123.189 128.716 122.864C128.777 122.615 128.812 122.361 128.819 122.105C128.822 121.926 128.757 121.753 128.637 121.621C128.517 121.489 128.351 121.407 128.173 121.393C127.376 121.341 127.346 122.273 127.349 123.067C127.353 124.033 127.314 124.588 127.277 125.113C127.241 125.627 127.207 126.11 127.218 126.917C127.162 126.887 127.098 126.853 127.028 126.816L126.914 126.755L126.912 126.754C125.791 126.151 123.355 124.844 122.561 125.345C122.478 125.407 122.413 125.49 122.375 125.586C122.335 125.682 122.324 125.786 122.341 125.889C122.357 125.991 122.401 126.087 122.468 126.165C122.534 126.244 122.622 126.302 122.72 126.335C125.339 127.547 126.061 127.896 126.425 128.072C126.636 128.174 126.726 128.218 126.999 128.339C126.853 128.436 126.687 128.538 126.485 128.663C126.041 128.937 125.422 129.317 124.458 129.989C123.275 130.821 124.018 132.256 124.655 131.669C125.423 131.013 126.263 130.449 127.161 129.987C127.197 134.001 127.595 134.36 127.748 134.497C127.788 134.536 127.834 134.566 127.886 134.586C127.937 134.606 127.992 134.615 128.047 134.612C128.104 134.609 128.157 134.595 128.207 134.571C128.256 134.547 128.3 134.511 128.336 134.47C128.473 134.296 128.447 134.081 128.366 133.435C128.357 133.356 128.347 133.273 128.336 133.183C128.376 133.028 128.407 132.161 128.438 131.272C128.473 130.274 128.509 129.248 128.562 129.171C128.623 129.176 128.681 129.195 128.733 129.227C129.75 129.729 130.52 130.116 131.108 130.412C132.596 131.16 132.901 131.313 133.037 131.219C133.072 131.196 133.095 131.155 133.126 131.104L133.144 131.074C133.598 130.279 131.611 129.229 130.398 128.587C130.233 128.5 130.082 128.42 129.954 128.349C131.435 127.551 132.87 126.67 134.253 125.709C135.063 125.018 134.41 124.523 134.052 124.719ZM163.335 156.322C163.355 156.362 163.367 156.406 163.37 156.45C163.393 157.131 157.772 162.787 155.359 164.896C155.646 165.24 157.438 166.865 159.173 168.437L159.174 168.438L159.177 168.441C159.428 168.669 159.678 168.895 159.922 169.116C161.544 170.588 161.512 170.721 161.468 170.906C161.453 170.958 161.427 171.005 161.39 171.042C161.352 171.081 161.306 171.11 161.255 171.126C160.648 171.288 155.791 167.431 154.325 165.956C154.076 167.043 153.685 171.203 153.429 173.933V173.935C153.298 175.329 153.202 176.349 153.178 176.397C153.159 176.435 153.132 176.468 153.098 176.493C153.064 176.518 153.025 176.536 152.983 176.544C151.777 176.732 152.364 171.374 152.682 168.468L152.683 168.467V168.461C152.752 167.826 152.81 167.309 152.832 166.993C152.583 167.181 152.154 167.533 151.558 168.024L151.556 168.026L151.154 168.356C150.976 168.503 150.786 168.659 150.583 168.824C149.683 169.56 149.635 169.663 149.506 169.938C149.48 169.995 149.449 170.059 149.407 170.138C148.924 171.061 147.778 170.135 148.307 169.047C148.638 168.367 148.679 168.333 151.671 165.891L152.13 165.517L152.707 165.045L152.739 165.019C152.806 164.964 152.872 164.91 152.927 164.863C152.965 164.831 152.998 164.802 153.025 164.777C152.915 164.689 147.116 159.204 147.079 159.046C146.948 158.559 147.117 158.357 147.278 158.276C148.246 157.784 152.597 162.217 153.345 163.028C153.493 161.338 153.591 160.446 153.71 159.343C153.806 158.465 153.917 157.454 154.079 155.801C154.321 153.332 154.336 153.185 154.858 153.101C155.732 152.965 155.368 156.349 154.934 160.381C154.824 161.405 154.708 162.471 154.608 163.532C154.675 163.465 154.883 163.29 155.208 163.018C156.343 162.066 158.898 159.924 161.805 157.025L161.806 157.024C162.638 156.194 162.89 155.942 163.253 156.22C163.287 156.249 163.316 156.283 163.335 156.322ZM44.9996 129.94C45.252 129.923 45.5121 129.794 45.8617 129.62C46.9645 129.071 48.9581 128.08 54.4101 128.774C54.8961 128.793 55.2395 128.856 55.5093 128.907C56.0497 129.008 56.2941 129.053 56.796 128.568C57.4956 127.908 62.3213 121.528 62.3895 121.43C62.7953 120.869 63.438 120.158 64.0884 119.436C65.5415 117.824 67.0335 116.171 66.0107 116.071C64.0317 115.734 62.0102 115.734 60.0311 116.071C58.4191 116.346 56.8441 116.807 55.3374 117.443C51.7817 119.263 48.7374 121.944 46.4813 125.241C45.7113 126.467 45.0447 127.75 44.4023 129.047C44.352 129.145 44.3288 129.253 44.3349 129.363C44.3411 129.472 44.3765 129.578 44.4375 129.669C44.4985 129.761 44.5829 129.834 44.6816 129.882C44.7805 129.929 44.8903 129.949 44.9996 129.94ZM65.0375 147.201C65.1372 147.256 65.2184 147.339 65.2704 147.44C65.5813 148.126 64.2966 149.707 58.2574 157.141C54.1667 162.175 47.8943 169.896 38.459 181.841C37.8393 182.625 37.3484 183.258 36.9549 183.764L36.9543 183.765C35.5318 185.598 35.3843 185.788 35.0336 185.571C34.9214 185.499 34.807 185.351 34.906 185.021C35.9037 181.751 63.682 147.134 64.7105 147.134C64.8237 147.123 64.9376 147.146 65.0375 147.201ZM44.5596 181.66C43.4959 182.961 44.5992 184.121 45.3604 183.008C45.8565 182.117 49.36 180.179 53.2947 180.319C53.7699 180.336 53.892 180.505 53.7006 181.003C53.2044 182.284 50.5039 183.954 49.4062 184.633C49.1631 184.784 48.9986 184.885 48.9541 184.923C48.756 185.06 48.595 185.243 48.4857 185.457C48.3764 185.671 48.3223 185.909 48.3284 186.15C48.3343 186.39 48.4003 186.625 48.5201 186.834C48.64 187.042 48.8099 187.217 49.0146 187.343C49.2673 187.529 49.5245 187.709 49.7713 187.881C50.6529 188.498 51.4041 189.024 51.3576 189.375C51.2674 190.056 48.7759 191.091 44.2076 192.765C43.4519 193.042 43.5652 193.975 45.3571 193.975C47.3206 193.838 49.2208 193.223 50.8923 192.183C55.6746 189.526 52.4943 187.561 50.8149 186.524C50.4671 186.308 50.1836 186.133 50.0486 186C50.0812 185.977 50.1778 185.925 50.3236 185.847C51.3323 185.305 54.6967 183.497 55.4991 181.261C57.1205 176.744 47.2502 178.373 44.5596 181.66ZM27.2896 169.964C28.5876 164.899 32.5256 161.282 34.7696 165.845C36.3338 169.023 35.1183 172.97 33.7543 172.854C33.6611 172.852 33.5698 172.827 33.4878 172.783C33.4059 172.738 33.3355 172.675 33.2824 172.598C33.2131 172.419 33.1833 172.226 33.1951 172.034C33.2069 171.842 33.2599 171.654 33.3506 171.485C34.3428 168.555 32.9029 164.769 31.5686 165.953C29.7998 167.525 28.405 171.205 29.0298 172.628C29.296 173.236 29.285 174.137 28.6481 174.336C27.8011 174.603 27.5162 173.94 27.2676 173.357C26.535 171.66 25.1204 171.451 24.2976 172.147C23.3255 173.152 22.7439 174.472 22.6575 175.868C22.6575 176.375 23.0233 176.687 23.335 176.952C23.6397 177.211 23.8928 177.427 23.7025 177.738C23.6383 177.836 23.5427 177.91 23.4314 177.946C23.3201 177.982 23.1996 177.98 23.0898 177.939C22.4766 177.805 21.9322 177.454 21.5564 176.952C21.1807 176.449 20.9986 175.827 21.0438 175.202C21.0214 174.473 21.1722 173.75 21.4838 173.091C22.1911 171.199 23.1217 170.245 24.5957 169.901C25.4502 169.717 26.3428 169.879 27.0784 170.351L27.1796 170.397C27.2088 170.25 27.2455 170.106 27.2896 169.964ZM73.3698 154.91C72.8007 153.53 71.8758 154.449 70.5292 155.787C69.986 156.327 69.3741 156.935 68.6892 157.487C66.4353 159.301 59.6824 165.839 57.6056 167.856C50.5073 174.744 50.6492 174.927 50.8648 175.204C50.8915 175.241 50.9267 175.271 50.9675 175.292C51.0082 175.313 51.0534 175.324 51.0991 175.323C52.341 175.323 72.6305 156.269 73.3466 155.164C73.3708 155.127 73.3856 155.084 73.3895 155.04C73.3936 154.996 73.3868 154.951 73.3698 154.91ZM55.2887 146.6L55.2878 146.602C50.8171 152.983 43.9781 162.743 42.9514 164.615C42.672 165.132 41.9592 164.991 42.1407 164.235C42.7138 161.874 56.0898 142.002 58.1259 140.382C58.2198 140.274 58.3479 140.202 58.4887 140.176C58.6296 140.152 58.7747 140.176 58.8999 140.246C59.0251 140.315 59.1227 140.425 59.1764 140.557C59.2301 140.69 59.2367 140.838 59.1951 140.974C59.1665 141.065 57.5236 143.41 55.2887 146.6ZM112.92 110.045C110.809 109.186 108.797 108.102 106.92 106.811C103.665 104.446 100.835 101.545 98.5532 98.2314C98.1935 97.641 97.9132 97.1643 97.6893 96.7833C97.1148 95.8061 96.9114 95.4602 96.6904 95.4486C96.5694 95.4422 96.443 95.5361 96.2474 95.6816L96.2091 95.7102C85.2257 102.268 75.4165 110.618 67.1877 120.413C65.5586 122.393 65.5718 122.442 65.9007 123.007C70.6593 131.198 82.2236 140.231 90.4099 144.866C91.0071 145.209 91.1919 145.206 97.1341 137.985C103.947 129.709 109.543 120.502 113.753 110.644C113.752 110.135 113.558 110.127 113.306 110.117C113.186 110.111 113.053 110.106 112.92 110.045ZM94.0311 124.696C90.5188 124.221 88.4926 123.349 86.4971 120.395C81.6 113.135 89.5903 103.396 98.0813 107.286C106.258 111.033 104.694 124.175 94.0311 124.696ZM87.2868 146.474C88.4968 147.149 88.7391 147.285 88.376 147.686L88.2787 147.792C87.316 148.838 83.4954 152.991 82.0531 153.397C76.1967 152.434 65.0086 142.766 61.1982 137.382C59.9941 135.896 59.0536 134.213 58.4174 132.409L58.3633 132.284L58.316 132.174C58.0379 131.53 57.9812 131.4 58.1424 131.182C59.634 129.175 62.8152 125.28 62.8405 125.256C63.4168 124.587 63.7562 125.089 64.7631 126.577C66.3301 128.892 69.5136 133.596 77.7213 139.996C82.8332 143.985 85.7953 145.64 87.2868 146.474ZM119.441 88.7767C119.429 88.5473 119.368 88.323 119.262 88.1193C119.155 87.9156 119.007 87.7373 118.825 87.5965C118.644 87.4557 118.433 87.3558 118.209 87.3035C117.986 87.2514 117.754 87.2481 117.528 87.2941C111.816 87.9541 107.641 89.1729 99.5981 93.3143C99.1581 93.5421 99.1813 93.7082 99.9479 94.8544C103.22 99.7384 106.423 103.857 113.181 106.796C113.498 106.933 113.774 107.055 114.015 107.161C115.559 107.84 115.671 107.889 115.821 107.621C118.726 102.272 119.828 92.1319 119.441 88.7767ZM89.4478 121.495C88.4797 120.724 87.7152 119.727 87.2209 118.593C86.6263 117.203 86.4602 115.666 86.7439 114.18C87.0276 112.694 87.7482 111.327 88.8134 110.253C89.8787 109.178 91.2401 108.447 92.7236 108.151C94.2071 107.855 95.7451 108.009 97.1408 108.592C98.2794 109.077 99.2818 109.834 100.061 110.795C100.84 111.757 101.371 112.894 101.609 114.109C101.847 115.323 101.784 116.578 101.425 117.762C101.067 118.946 100.424 120.026 99.5521 120.904C98.6805 121.782 97.6072 122.435 96.4258 122.803C95.2442 123.172 93.9906 123.244 92.7742 123.016C91.5578 122.789 90.4158 122.266 89.4478 121.495ZM99.6358 117.269C100.01 116.256 100.095 115.158 99.882 114.1C99.6996 113.209 99.3116 112.372 98.749 111.657C98.1863 110.942 97.4645 110.369 96.6409 109.981C95.8174 109.594 94.915 109.405 94.0055 109.429C93.0959 109.452 92.2045 109.688 91.4021 110.117C90.4513 110.629 89.6615 111.395 89.1207 112.329C88.5798 113.264 88.309 114.331 88.3387 115.41C88.3683 116.489 88.6972 117.54 89.2885 118.443C89.8799 119.346 90.7105 120.067 91.6878 120.527C92.6652 120.986 93.7509 121.164 94.8238 121.043C95.8967 120.921 96.9147 120.503 97.7643 119.837C98.614 119.171 99.2619 118.281 99.6358 117.269ZM97.0572 143.236C96.5367 143.134 95.8313 144.023 94.7727 145.357C94.115 146.186 93.321 147.186 92.3503 148.227C92.3173 148.263 92.3262 148.253 92.3372 148.241C92.3862 148.186 92.4769 148.085 89.0646 151.747C88.6758 152.163 88.3712 152.459 88.0814 152.741C87.5964 153.213 87.1522 153.643 86.4245 154.527C85.8928 155.161 86.1446 155.838 86.4671 156.707C86.6169 157.111 86.7821 157.555 86.891 158.056C87.0456 158.763 87.155 159.25 87.2325 159.596C87.3743 160.227 87.4093 160.382 87.4191 160.54C87.4222 160.591 87.4227 160.642 87.4235 160.711C87.4258 160.949 87.4303 161.391 87.5575 162.744C87.5815 164.397 87.2266 165.26 87.0018 165.806C86.7947 166.309 86.6983 166.543 87.112 166.879C87.6374 167.308 87.6862 167.269 90.6272 164.973L90.7289 164.893C99.7114 157.86 98.9657 143.605 97.0572 143.236ZM93.2665 113.301C94.311 112.767 95.4124 112.353 96.55 112.066C96.7514 112.027 96.8869 111.965 96.9943 111.914C97.2139 111.811 97.3157 111.763 97.6193 112.099C98.2419 112.814 99.1691 114.247 98.2693 114.531C95.0465 115.55 95.0472 115.551 95.3258 115.983C95.4041 116.104 95.5044 116.26 95.5611 116.482C95.607 116.651 95.6027 116.828 95.549 116.994C95.4953 117.159 95.3944 117.305 95.2586 117.414C94.3137 118.029 93.299 118.531 92.2359 118.906C91.3889 119.12 90.4879 118.875 89.8016 116.983C89.6617 116.599 89.8534 116.555 90.4173 116.425C90.878 116.32 91.5872 116.158 92.5669 115.706C93.7474 115.164 93.4858 114.757 93.2198 114.344C93.0131 114.023 92.8038 113.697 93.2665 113.301Z" fill="url(#paint0_linear_764_35156)"/>
<g id="Group">
<path id="Vector" d="M200.126 19.5612C185.144 -1.26947 157.672 -4.98857 136.446 6.92331C104.793 24.685 104.725 76.2783 143.095 91.8686C157.405 97.6832 177.112 96.5315 190.236 86.1079C197.379 80.4341 202.217 72.7121 205.049 67.145C211.996 50.8496 208.527 31.2399 200.126 19.5612ZM207.341 53.6205C207.231 57.8995 203.621 71.3085 193.605 80.8807C168.371 104.996 128.416 93.7166 117.567 63.2202C111.256 45.4805 115.182 20.1849 138.823 7.22141C164.914 -7.08517 200.246 6.00481 206.382 37.5572C207.543 42.828 207.868 48.249 207.341 53.6205Z" fill="#FF8F00"/>
<path id="Vector_2" d="M165.678 62.1618C162.422 60.9892 159.313 63.3256 157.609 65.9953C154.055 71.5668 155.277 79.5253 161.942 79.1227C163.877 79.1227 167.638 75.9646 168.834 71.4491C170.003 67.037 168.242 63.0847 165.678 62.1618ZM168.395 69.1369C168.006 73.8669 164.545 77.6223 162.384 78.0469C160.984 78.3208 164.474 75.5719 165.042 69.8189C165.725 62.8262 161.374 63.8437 162.265 63.0341C162.802 62.7249 163.428 62.6084 164.04 62.7041C165.899 62.3015 168.732 65.0394 168.395 69.1369Z" fill="#FF8F00"/>
<path id="Vector_3" d="M138.271 49.5722C135.411 46.4163 129.954 46.8376 127.202 53.8765C124.682 60.3203 130.59 69.3865 137.723 61.56C140.181 58.865 140.883 52.4586 138.271 49.5722ZM136.356 49.295C135.478 49.6006 134.7 50.1376 134.102 50.8493C132.948 52.1187 132.145 53.6665 131.771 55.3406C131.714 55.7531 131.441 56.1106 131.413 56.5363C131.331 57.5406 131.009 60.1443 131.721 61.4863C132.051 62.1078 132.263 62.8206 132.942 63.199C133.188 63.3365 133.128 63.6258 132.942 63.6203C132.117 63.7223 131.28 63.5949 130.522 63.2518C126.961 61.142 127.104 55.0304 129.299 51.9823C132.536 46.7133 137.08 48.844 136.356 49.295Z" fill="#FF8F00"/>
<path id="Vector_4" d="M158.6 23.21C156.385 21.8064 151.34 22.3421 148.605 23.2958C142.078 25.5684 138.662 30.5756 142.565 33.396C145.887 35.7973 153.823 33.5874 157.248 31.2499C161.224 28.5362 161.277 24.9062 158.6 23.21ZM143.115 31.0794C142.675 31.7647 142.836 32.1563 142.415 31.6833C141.617 30.7868 141.999 29.4239 143.221 27.9917C147.409 23.0846 155.859 22.4642 158.242 24.1021C158.86 24.5402 159.285 25.1998 159.429 25.9435C159.572 26.6873 159.422 27.4577 159.012 28.094C158.838 28.3536 158.043 27.6881 157.635 27.3559C154.745 24.9986 145.417 27.489 143.115 31.0794Z" fill="#FF8F00"/>
<path id="Vector_5" d="M178.239 46.4699C180.972 45.7714 181.168 43.0797 181.371 40.2736C181.084 37.3795 180.844 34.6306 178.437 32.9487C173.713 29.6498 171.486 45.25 178.239 46.4699ZM176.743 33.5526C177.812 33.1071 179.097 34.3732 179.467 35.3566C181.832 41.6266 179.67 45.8066 178.069 45.569C177.773 45.5239 177.694 45.4139 177.836 45.1488C178.892 43.1688 179.215 38.6247 177.461 35.1509C177.062 34.3611 176.424 34.2797 176.461 33.7528C176.459 33.5548 176.626 33.601 176.743 33.5526Z" fill="#FF8F00"/>
<path id="Vector_6" d="M132.667 22.3113C132.864 20.2213 131.418 19.283 129.837 19.7032C126.427 20.6096 123.052 26.1646 123.396 29.2732C123.99 34.6346 131.121 30.5591 132.667 22.3113ZM125.813 28.897C125.633 29.4611 125.567 30.0552 125.619 30.6449C125.552 31.0365 124.726 30.7549 124.454 30.0784C123.001 26.4869 129.527 18.6516 131.419 20.7592C132.756 22.2464 129.818 20.2488 126.298 27.4263C126.134 27.7607 125.947 28.5549 125.813 28.897Z" fill="#FF8F00"/>
<path id="Vector_7" d="M188.47 60.4765C186.913 62.7326 186.307 66.0733 188.418 67.3801C190.959 68.952 195.229 65.6443 195.551 61.2201C195.845 57.1996 191.214 56.4978 188.47 60.4765ZM193.364 64.7225C191.568 66.8543 189.961 67.0743 189.716 66.9885C189.226 66.8158 189.309 66.5045 189.606 66.3659C190.566 65.7388 191.346 64.873 191.871 63.8535C194.217 59.9804 192.104 58.7715 193.206 58.7308C194.685 58.6769 195.421 62.2893 193.364 64.7225Z" fill="#FF8F00"/>
<path id="Vector_8" d="M200.04 36.7459C197.858 37.1859 195.369 41.84 196.717 45.7857C198.514 51.0426 203.739 47.0947 203.436 41.3428C203.24 37.539 201.386 36.4731 200.04 36.7459ZM198.91 47.329C197.765 46.9242 199.146 46.2906 199.514 44.909C199.558 44.744 201.025 40.8929 199.534 38.749C199.074 38.089 199.043 38.1275 199.534 37.8173C199.793 37.6973 200.075 37.6366 200.359 37.6395C200.643 37.6425 200.924 37.709 201.18 37.8343C201.435 37.9596 201.66 38.1405 201.836 38.3635C202.013 38.5867 202.137 38.8466 202.201 39.1241C203.603 44.5658 200.59 47.9164 198.91 47.329Z" fill="#FF8F00"/>
<path id="Vector_9" d="M176.561 11.8189C173.61 13.6889 182.054 20.7762 185.263 18.4464C186.765 17.3563 184.846 14.9363 183.075 13.5415C181.532 12.3249 178.353 10.6837 176.561 11.8189ZM184.44 17.9008C184 18.1538 183.799 18.2165 183.021 17.1396C181.539 15.494 179.678 14.2329 177.601 13.4645C177.216 13.3721 176.7 13.5129 176.831 12.9981C177.002 12.315 177.344 12.3865 178.059 12.3689C181.246 12.2908 186.236 16.8811 184.44 17.9008Z" fill="#FF8F00"/>
<path id="Vector_10" d="M174.457 81.4437C174.273 81.7315 174.167 82.0616 174.148 82.4023C174.129 82.743 174.197 83.083 174.347 83.3896C175.208 84.6568 177.745 84.7481 179.684 84.45C181.063 84.2388 181.334 83.9121 181.63 83.1784C183.117 79.5649 176.409 79.1645 174.457 81.4437ZM180.886 81.9497C180.702 84.2036 179.934 81.2347 176.104 82.4436C175.871 82.5173 175.477 82.7901 175.224 82.8429C174.401 83.0112 175.224 80.0929 179.633 80.9806C179.996 81.0543 180.953 81.5834 180.886 81.9497Z" fill="#FF8F00"/>
<path id="Vector_11" d="M137.9 76.6849C136.813 78.2832 140.56 83.3839 143.261 82.9637C147.448 82.3092 140.311 73.1451 137.9 76.6849ZM142.269 81.6888C142.097 81.3446 141.903 81.0121 141.688 80.6933C141.175 79.831 140.524 79.0594 139.761 78.4097C139.184 77.8531 138.647 78.0181 138.681 77.3581C138.699 77.0039 138.763 76.928 139.136 76.9181C141.202 76.851 142.782 79.1907 143.667 81.2851C144.008 82.0892 142.591 82.604 142.269 81.6888Z" fill="#FF8F00"/>
<path id="Vector_12" d="M159.063 9.37191C166.572 9.91091 163.306 2.01066 156.836 5.94871C154.966 7.08721 155.072 9.08591 159.063 9.37191ZM162.301 6.40191C162.706 6.75831 162.485 7.15981 162.142 7.50191C161.51 8.13221 161.736 7.47331 160.525 7.36221C157.679 7.10041 158.206 8.50401 157.477 8.24221C154.207 7.06961 160.368 4.69691 162.301 6.39861V6.40191Z" fill="#FF8F00"/>
<path id="Vector_13" d="M160.236 44.6154C158.043 45.6285 157.989 46.4106 157.645 47.5777C157.453 48.2256 157.876 48.7447 158.311 49.2089C158.608 49.5246 159.069 49.5323 159.677 49.6379C160.323 49.654 160.964 49.5264 161.555 49.2645C162.146 49.0026 162.672 48.6127 163.093 48.1232C163.89 47.4918 164.402 45.9101 163.792 45.1885C163.349 44.7096 162.757 44.3931 162.113 44.2892C161.468 44.1853 160.808 44.3002 160.236 44.6154ZM163.042 46.0883C163.042 47.4655 161.911 46.064 160.236 47.2696C159.307 47.9395 159.18 48.5897 158.889 48.4346C158.339 48.1508 158.339 46.5216 160.236 45.5338C161.94 44.6461 163.228 45.3139 163.042 46.0883Z" fill="#FF8F00"/>
</g>
</g>
<defs>
<linearGradient id="paint0_linear_764_35156" x1="105" y1="105" x2="19" y2="206.5" gradientUnits="userSpaceOnUse">
<stop stop-color="#000091"/>
<stop offset="1" stop-color="#000091"/>
</linearGradient>
</defs>
</svg>
