<?xml version="1.0" encoding="UTF-8" standalone="no"?>
<!DOCTYPE svg PUBLIC "-//W3C//DTD SVG 1.1//EN"
 "http://www.w3.org/Graphics/SVG/1.1/DTD/svg11.dtd">
<!-- Generated by graphviz version 3.0.0 (20220226.1711)
 -->
<!-- Title: dependencies Pages: 1 -->
<svg width="468pt" height="174pt"
 viewBox="0.00 0.00 468.00 173.80" xmlns="http://www.w3.org/2000/svg" xmlns:xlink="http://www.w3.org/1999/xlink">
<g id="graph0" class="graph" transform="scale(1 1) rotate(0) translate(4 169.8)">
<title>dependencies</title>
<polygon fill="white" stroke="transparent" points="-4,4 -4,-169.8 464,-169.8 464,4 -4,4"/>
<text text-anchor="middle" x="230" y="-8.2" font-family="sans-serif" font-size="14.00">dependencies</text>
<g id="clust1" class="cluster">
<title>cluster_AverageEtpModule</title>
<polygon fill="none" stroke="black" stroke-dasharray="1,5" points="8,-32.8 8,-157.8 452,-157.8 452,-32.8 8,-32.8"/>
</g>
<g id="clust2" class="cluster">
<title>cluster_AverageEtpModule_declarations</title>
<polygon fill="none" stroke="black" points="318,-40.8 318,-92.8 444,-92.8 444,-40.8 318,-40.8"/>
</g>
<g id="clust4" class="cluster">
<title>cluster_AverageEtpModule_imports</title>
<polygon fill="none" stroke="black" points="16,-40.8 16,-92.8 310,-92.8 310,-40.8 16,-40.8"/>
</g>
<!-- AverageEtpPage -->
<g id="node1" class="node">
<title>AverageEtpPage</title>
<polygon fill="#ffffb3" stroke="black" points="436.07,-84.8 325.93,-84.8 325.93,-48.8 436.07,-48.8 436.07,-84.8"/>
<text text-anchor="middle" x="381" y="-62.6" font-family="Times,serif" font-size="14.00">AverageEtpPage</text>
</g>
<!-- AverageEtpModule -->
<g id="node2" class="node">
<title>AverageEtpModule</title>
<polygon fill="#8dd3c7" stroke="black" points="288.41,-149.8 285.41,-153.8 264.41,-153.8 261.41,-149.8 161.59,-149.8 161.59,-113.8 288.41,-113.8 288.41,-149.8"/>
<text text-anchor="middle" x="225" y="-127.6" font-family="Times,serif" font-size="14.00">AverageEtpModule</text>
</g>
<!-- AverageEtpPage&#45;&gt;AverageEtpModule -->
<g id="edge1" class="edge">
<title>AverageEtpPage&#45;&gt;AverageEtpModule</title>
<path fill="none" stroke="black" d="M381,-84.91C381,-104.14 381,-131.8 381,-131.8 381,-131.8 298.45,-131.8 298.45,-131.8"/>
<polygon fill="black" stroke="black" points="298.45,-128.3 288.45,-131.8 298.45,-135.3 298.45,-128.3"/>
</g>
<!-- AverageEtpPageModule -->
<g id="node3" class="node">
<title>AverageEtpPageModule</title>
<polygon fill="#8dd3c7" stroke="black" points="301.62,-84.8 298.62,-88.8 277.62,-88.8 274.62,-84.8 148.38,-84.8 148.38,-48.8 301.62,-48.8 301.62,-84.8"/>
<text text-anchor="middle" x="225" y="-62.6" font-family="Times,serif" font-size="14.00">AverageEtpPageModule</text>
</g>
<!-- AverageEtpPageModule&#45;&gt;AverageEtpModule -->
<g id="edge2" class="edge">
<title>AverageEtpPageModule&#45;&gt;AverageEtpModule</title>
<path fill="none" stroke="black" d="M225,-84.91C225,-84.91 225,-103.79 225,-103.79"/>
<polygon fill="black" stroke="black" points="221.5,-103.79 225,-113.79 228.5,-103.79 221.5,-103.79"/>
</g>
<!-- MaterialModule -->
<g id="node4" class="node">
<title>MaterialModule</title>
<polygon fill="#8dd3c7" stroke="black" points="130.47,-84.8 127.47,-88.8 106.47,-88.8 103.47,-84.8 23.53,-84.8 23.53,-48.8 130.47,-48.8 130.47,-84.8"/>
<text text-anchor="middle" x="77" y="-62.6" font-family="Times,serif" font-size="14.00">MaterialModule</text>
</g>
<!-- MaterialModule&#45;&gt;AverageEtpModule -->
<g id="edge3" class="edge">
<title>MaterialModule&#45;&gt;AverageEtpModule</title>
<path fill="none" stroke="black" d="M77,-84.91C77,-104.14 77,-131.8 77,-131.8 77,-131.8 151.38,-131.8 151.38,-131.8"/>
<polygon fill="black" stroke="black" points="151.38,-135.3 161.38,-131.8 151.38,-128.3 151.38,-135.3"/>
</g>
</g>
</svg>
