<?xml version="1.0" encoding="UTF-8" standalone="no"?>
<!DOCTYPE svg PUBLIC "-//W3C//DTD SVG 1.1//EN"
 "http://www.w3.org/Graphics/SVG/1.1/DTD/svg11.dtd">
<!-- Generated by graphviz version 3.0.0 (20220226.1711)
 -->
<!-- Title: dependencies Pages: 1 -->
<svg width="468pt" height="174pt"
 viewBox="0.00 0.00 468.00 173.80" xmlns="http://www.w3.org/2000/svg" xmlns:xlink="http://www.w3.org/1999/xlink">
<g id="graph0" class="graph" transform="scale(1 1) rotate(0) translate(4 169.8)">
<title>dependencies</title>
<polygon fill="white" stroke="transparent" points="-4,4 -4,-169.8 464,-169.8 464,4 -4,4"/>
<text text-anchor="middle" x="230" y="-8.2" font-family="sans-serif" font-size="14.00">dependencies</text>
<g id="clust1" class="cluster">
<title>cluster_AverageEtpModule</title>
<polygon fill="none" stroke="black" stroke-dasharray="1,5" points="8,-32.8 8,-157.8 452,-157.8 452,-32.8 8,-32.8"/>
</g>
<g id="clust4" class="cluster">
<title>cluster_AverageEtpModule_imports</title>
<polygon fill="none" stroke="black" points="150,-40.8 150,-92.8 444,-92.8 444,-40.8 150,-40.8"/>
</g>
<g id="clust2" class="cluster">
<title>cluster_AverageEtpModule_declarations</title>
<polygon fill="none" stroke="black" points="16,-40.8 16,-92.8 142,-92.8 142,-40.8 16,-40.8"/>
</g>
<!-- AverageEtpPage -->
<g id="node1" class="node">
<title>AverageEtpPage</title>
<polygon fill="#ffffb3" stroke="black" points="134.07,-84.8 23.93,-84.8 23.93,-48.8 134.07,-48.8 134.07,-84.8"/>
<text text-anchor="middle" x="79" y="-62.6" font-family="Times,serif" font-size="14.00">AverageEtpPage</text>
</g>
<!-- AverageEtpModule -->
<g id="node2" class="node">
<title>AverageEtpModule</title>
<polygon fill="#8dd3c7" stroke="black" points="274.41,-149.8 271.41,-153.8 250.41,-153.8 247.41,-149.8 147.59,-149.8 147.59,-113.8 274.41,-113.8 274.41,-149.8"/>
<text text-anchor="middle" x="211" y="-127.6" font-family="Times,serif" font-size="14.00">AverageEtpModule</text>
</g>
<!-- AverageEtpPage&#45;&gt;AverageEtpModule -->
<g id="edge1" class="edge">
<title>AverageEtpPage&#45;&gt;AverageEtpModule</title>
<path fill="none" stroke="black" d="M134.07,-66.8C144.72,-66.8 152.66,-66.8 152.66,-66.8 152.66,-66.8 152.66,-103.69 152.66,-103.69"/>
<polygon fill="black" stroke="black" points="149.16,-103.69 152.66,-113.69 156.16,-103.69 149.16,-103.69"/>
</g>
<!-- AverageEtpPageModule -->
<g id="node3" class="node">
<title>AverageEtpPageModule</title>
<polygon fill="#8dd3c7" stroke="black" points="435.62,-84.8 432.62,-88.8 411.62,-88.8 408.62,-84.8 282.38,-84.8 282.38,-48.8 435.62,-48.8 435.62,-84.8"/>
<text text-anchor="middle" x="359" y="-62.6" font-family="Times,serif" font-size="14.00">AverageEtpPageModule</text>
</g>
<!-- AverageEtpPageModule&#45;&gt;AverageEtpModule -->
<g id="edge2" class="edge">
<title>AverageEtpPageModule&#45;&gt;AverageEtpModule</title>
<path fill="none" stroke="black" d="M282.19,-66.8C274.44,-66.8 269.34,-66.8 269.34,-66.8 269.34,-66.8 269.34,-103.69 269.34,-103.69"/>
<polygon fill="black" stroke="black" points="265.85,-103.69 269.34,-113.69 272.85,-103.69 265.85,-103.69"/>
</g>
<!-- MaterialModule -->
<g id="node4" class="node">
<title>MaterialModule</title>
<polygon fill="#8dd3c7" stroke="black" points="264.47,-84.8 261.47,-88.8 240.47,-88.8 237.47,-84.8 157.53,-84.8 157.53,-48.8 264.47,-48.8 264.47,-84.8"/>
<text text-anchor="middle" x="211" y="-62.6" font-family="Times,serif" font-size="14.00">MaterialModule</text>
</g>
<!-- MaterialModule&#45;&gt;AverageEtpModule -->
<g id="edge3" class="edge">
<title>MaterialModule&#45;&gt;AverageEtpModule</title>
<path fill="none" stroke="black" d="M211,-84.91C211,-84.91 211,-103.79 211,-103.79"/>
<polygon fill="black" stroke="black" points="207.5,-103.79 211,-113.79 214.5,-103.79 207.5,-103.79"/>
</g>
</g>
</svg>
