<?xml version="1.0" encoding="UTF-8" standalone="no"?>
<!DOCTYPE svg PUBLIC "-//W3C//DTD SVG 1.1//EN"
 "http://www.w3.org/Graphics/SVG/1.1/DTD/svg11.dtd">
<!-- Generated by graphviz version 3.0.0 (20220226.1711)
 -->
<!-- Title: dependencies Pages: 1 -->
<svg width="224pt" height="247pt"
 viewBox="0.00 0.00 224.00 246.80" xmlns="http://www.w3.org/2000/svg" xmlns:xlink="http://www.w3.org/1999/xlink">
<g id="graph0" class="graph" transform="scale(1 1) rotate(0) translate(4 242.8)">
<title>dependencies</title>
<polygon fill="white" stroke="transparent" points="-4,4 -4,-242.8 220,-242.8 220,4 -4,4"/>
<text text-anchor="middle" x="108" y="-8.2" font-family="sans-serif" font-size="14.00">dependencies</text>
<g id="clust1" class="cluster">
<title>cluster_ChangePasswordPageModule</title>
<polygon fill="none" stroke="black" stroke-dasharray="1,5" points="8,-32.8 8,-230.8 208,-230.8 208,-32.8 8,-32.8"/>
</g>
<g id="clust4" class="cluster">
<title>cluster_ChangePasswordPageModule_exports</title>
<polygon fill="none" stroke="black" points="49,-170.8 49,-222.8 167,-222.8 167,-170.8 49,-170.8"/>
</g>
<g id="clust3" class="cluster">
<title>cluster_ChangePasswordPageModule_imports</title>
<polygon fill="none" stroke="black" points="51,-40.8 51,-92.8 165,-92.8 165,-40.8 51,-40.8"/>
</g>
<!-- RouterModule -->
<g id="node1" class="node">
<title>RouterModule</title>
<polygon fill="#8dd3c7" stroke="black" points="156.66,-84.8 153.66,-88.8 132.66,-88.8 129.66,-84.8 59.34,-84.8 59.34,-48.8 156.66,-48.8 156.66,-84.8"/>
<text text-anchor="middle" x="108" y="-62.6" font-family="Times,serif" font-size="14.00">RouterModule</text>
</g>
<!-- ChangePasswordPageModule -->
<g id="node2" class="node">
<title>ChangePasswordPageModule</title>
<polygon fill="#8dd3c7" stroke="black" points="199.7,-149.8 196.7,-153.8 175.7,-153.8 172.7,-149.8 16.3,-149.8 16.3,-113.8 199.7,-113.8 199.7,-149.8"/>
<text text-anchor="middle" x="108" y="-127.6" font-family="Times,serif" font-size="14.00">ChangePasswordPageModule</text>
</g>
<!-- RouterModule&#45;&gt;ChangePasswordPageModule -->
<g id="edge1" class="edge">
<title>RouterModule&#45;&gt;ChangePasswordPageModule</title>
<path fill="none" stroke="black" d="M108,-84.91C108,-84.91 108,-103.79 108,-103.79"/>
<polygon fill="black" stroke="black" points="104.5,-103.79 108,-113.79 111.5,-103.79 104.5,-103.79"/>
</g>
<!-- RouterModule  -->
<g id="node3" class="node">
<title>RouterModule </title>
<polygon fill="#fb8072" stroke="black" points="158.66,-214.8 57.34,-214.8 57.34,-178.8 158.66,-178.8 158.66,-214.8"/>
<text text-anchor="middle" x="108" y="-192.6" font-family="Times,serif" font-size="14.00">RouterModule </text>
</g>
<!-- ChangePasswordPageModule&#45;&gt;RouterModule  -->
<g id="edge2" class="edge">
<title>ChangePasswordPageModule&#45;&gt;RouterModule </title>
<path fill="none" stroke="black" stroke-dasharray="5,2" d="M108,-149.91C108,-149.91 108,-168.79 108,-168.79"/>
<polygon fill="black" stroke="black" points="104.5,-168.79 108,-178.79 111.5,-168.79 104.5,-168.79"/>
</g>
</g>
</svg>
