<?xml version="1.0" encoding="UTF-8" standalone="no"?>
<!DOCTYPE svg PUBLIC "-//W3C//DTD SVG 1.1//EN"
 "http://www.w3.org/Graphics/SVG/1.1/DTD/svg11.dtd">
<!-- Generated by graphviz version 3.0.0 (20220226.1711)
 -->
<!-- Title: dependencies Pages: 1 -->
<svg width="288pt" height="174pt"
 viewBox="0.00 0.00 288.00 173.80" xmlns="http://www.w3.org/2000/svg" xmlns:xlink="http://www.w3.org/1999/xlink">
<g id="graph0" class="graph" transform="scale(1 1) rotate(0) translate(4 169.8)">
<title>dependencies</title>
<polygon fill="white" stroke="transparent" points="-4,4 -4,-169.8 284,-169.8 284,4 -4,4"/>
<text text-anchor="middle" x="140" y="-8.2" font-family="sans-serif" font-size="14.00">dependencies</text>
<g id="clust1" class="cluster">
<title>cluster_SignupModule</title>
<polygon fill="none" stroke="black" stroke-dasharray="1,5" points="8,-32.8 8,-157.8 272,-157.8 272,-32.8 8,-32.8"/>
</g>
<g id="clust4" class="cluster">
<title>cluster_SignupModule_imports</title>
<polygon fill="none" stroke="black" points="122,-40.8 122,-92.8 264,-92.8 264,-40.8 122,-40.8"/>
</g>
<g id="clust2" class="cluster">
<title>cluster_SignupModule_declarations</title>
<polygon fill="none" stroke="black" points="16,-40.8 16,-92.8 114,-92.8 114,-40.8 16,-40.8"/>
</g>
<!-- SignupPage -->
<g id="node1" class="node">
<title>SignupPage</title>
<polygon fill="#ffffb3" stroke="black" points="106.39,-84.8 23.61,-84.8 23.61,-48.8 106.39,-48.8 106.39,-84.8"/>
<text text-anchor="middle" x="65" y="-62.6" font-family="Times,serif" font-size="14.00">SignupPage</text>
</g>
<!-- SignupModule -->
<g id="node2" class="node">
<title>SignupModule</title>
<polygon fill="#8dd3c7" stroke="black" points="178.73,-149.8 175.73,-153.8 154.73,-153.8 151.73,-149.8 79.27,-149.8 79.27,-113.8 178.73,-113.8 178.73,-149.8"/>
<text text-anchor="middle" x="129" y="-127.6" font-family="Times,serif" font-size="14.00">SignupModule</text>
</g>
<!-- SignupPage&#45;&gt;SignupModule -->
<g id="edge1" class="edge">
<title>SignupPage&#45;&gt;SignupModule</title>
<path fill="none" stroke="black" d="M92.92,-84.91C92.92,-84.91 92.92,-103.79 92.92,-103.79"/>
<polygon fill="black" stroke="black" points="89.42,-103.79 92.92,-113.79 96.42,-103.79 89.42,-103.79"/>
</g>
<!-- SignupPageModule -->
<g id="node3" class="node">
<title>SignupPageModule</title>
<polygon fill="#8dd3c7" stroke="black" points="256.44,-84.8 253.44,-88.8 232.44,-88.8 229.44,-84.8 129.56,-84.8 129.56,-48.8 256.44,-48.8 256.44,-84.8"/>
<text text-anchor="middle" x="193" y="-62.6" font-family="Times,serif" font-size="14.00">SignupPageModule</text>
</g>
<!-- SignupPageModule&#45;&gt;SignupModule -->
<g id="edge2" class="edge">
<title>SignupPageModule&#45;&gt;SignupModule</title>
<path fill="none" stroke="black" d="M154.2,-84.91C154.2,-84.91 154.2,-103.79 154.2,-103.79"/>
<polygon fill="black" stroke="black" points="150.7,-103.79 154.2,-113.79 157.7,-103.79 150.7,-103.79"/>
</g>
</g>
</svg>
