<?xml version="1.0" encoding="UTF-8" standalone="no"?>
<!DOCTYPE svg PUBLIC "-//W3C//DTD SVG 1.1//EN"
 "http://www.w3.org/Graphics/SVG/1.1/DTD/svg11.dtd">
<!-- Generated by graphviz version 3.0.0 (20220226.1711)
 -->
<!-- Title: dependencies Pages: 1 -->
<svg width="288pt" height="174pt"
 viewBox="0.00 0.00 288.00 173.80" xmlns="http://www.w3.org/2000/svg" xmlns:xlink="http://www.w3.org/1999/xlink">
<g id="graph0" class="graph" transform="scale(1 1) rotate(0) translate(4 169.8)">
<title>dependencies</title>
<polygon fill="white" stroke="transparent" points="-4,4 -4,-169.8 284,-169.8 284,4 -4,4"/>
<text text-anchor="middle" x="140" y="-8.2" font-family="sans-serif" font-size="14.00">dependencies</text>
<g id="clust1" class="cluster">
<title>cluster_SignupModule</title>
<polygon fill="none" stroke="black" stroke-dasharray="1,5" points="8,-32.8 8,-157.8 272,-157.8 272,-32.8 8,-32.8"/>
</g>
<g id="clust2" class="cluster">
<title>cluster_SignupModule_declarations</title>
<polygon fill="none" stroke="black" points="166,-40.8 166,-92.8 264,-92.8 264,-40.8 166,-40.8"/>
</g>
<g id="clust4" class="cluster">
<title>cluster_SignupModule_imports</title>
<polygon fill="none" stroke="black" points="16,-40.8 16,-92.8 158,-92.8 158,-40.8 16,-40.8"/>
</g>
<!-- SignupPage -->
<g id="node1" class="node">
<title>SignupPage</title>
<polygon fill="#ffffb3" stroke="black" points="256.39,-84.8 173.61,-84.8 173.61,-48.8 256.39,-48.8 256.39,-84.8"/>
<text text-anchor="middle" x="215" y="-62.6" font-family="Times,serif" font-size="14.00">SignupPage</text>
</g>
<!-- SignupModule -->
<g id="node2" class="node">
<title>SignupModule</title>
<polygon fill="#8dd3c7" stroke="black" points="199.73,-149.8 196.73,-153.8 175.73,-153.8 172.73,-149.8 100.27,-149.8 100.27,-113.8 199.73,-113.8 199.73,-149.8"/>
<text text-anchor="middle" x="150" y="-127.6" font-family="Times,serif" font-size="14.00">SignupModule</text>
</g>
<!-- SignupPage&#45;&gt;SignupModule -->
<g id="edge1" class="edge">
<title>SignupPage&#45;&gt;SignupModule</title>
<path fill="none" stroke="black" d="M186.58,-84.91C186.58,-84.91 186.58,-103.79 186.58,-103.79"/>
<polygon fill="black" stroke="black" points="183.08,-103.79 186.58,-113.79 190.08,-103.79 183.08,-103.79"/>
</g>
<!-- SignupPageModule -->
<g id="node3" class="node">
<title>SignupPageModule</title>
<polygon fill="#8dd3c7" stroke="black" points="150.44,-84.8 147.44,-88.8 126.44,-88.8 123.44,-84.8 23.56,-84.8 23.56,-48.8 150.44,-48.8 150.44,-84.8"/>
<text text-anchor="middle" x="87" y="-62.6" font-family="Times,serif" font-size="14.00">SignupPageModule</text>
</g>
<!-- SignupPageModule&#45;&gt;SignupModule -->
<g id="edge2" class="edge">
<title>SignupPageModule&#45;&gt;SignupModule</title>
<path fill="none" stroke="black" d="M125.3,-84.91C125.3,-84.91 125.3,-103.79 125.3,-103.79"/>
<polygon fill="black" stroke="black" points="121.8,-103.79 125.3,-113.79 128.8,-103.79 121.8,-103.79"/>
</g>
</g>
</svg>
