<?xml version="1.0" encoding="UTF-8"?>
<svg width="192px" height="192px" viewBox="0 0 192 192" version="1.1" xmlns="http://www.w3.org/2000/svg" xmlns:xlink="http://www.w3.org/1999/xlink">
    <title>White_192x192@1x</title>
    <defs>
        <polygon id="path-1" points="0 47 192 24.6693706 192 -8.15320034e-17 0 -8.15320034e-17"></polygon>
    </defs>
    <g id="White_192x192" stroke="none" stroke-width="1" fill="none" fill-rule="evenodd">
        <g id="Group" transform="translate(19.240786, 72.414612)">
            <g id="pilotez-votre-juridi" transform="translate(0.000000, 45.497599)" fill="#301717" fill-rule="nonzero">
                <path d="M4.307394,6.394206 L2.220582,6.394206 L2.220582,24.907974 L4.387656,24.907974 L4.387656,18.005442 C5.297292,19.610682 6.474468,20.386548 8.213478,20.386548 C11.209926,20.386548 13.617786,17.737902 13.617786,13.189722 C13.617786,8.641542 11.37045,6.099912 8.347248,6.099912 C6.795516,6.099912 5.297292,6.95604 4.307394,8.534526 L4.307394,6.394206 Z M4.387656,10.487568 C5.297292,8.69505 6.55473,7.865676 7.919184,7.865676 C9.89898,7.865676 11.397204,9.684948 11.397204,13.24323 C11.397204,16.801512 9.791964,18.620784 7.75866,18.620784 C6.394206,18.620784 5.297292,17.818164 4.387656,16.079154 L4.387656,10.487568 Z" id="Shape"></path>
                <path d="M19.878222,6.394206 L17.684394,6.394206 L17.684394,20.0655 L19.878222,20.0655 L19.878222,6.394206 Z M20.119008,1.123668 L17.443608,1.123668 L17.443608,3.772314 L20.119008,3.772314 L20.119008,1.123668 Z" id="Shape"></path>
                <polygon id="Path" points="26.968032 0 24.800958 0 24.800958 20.0655 26.968032 20.0655"></polygon>
                <path d="M36.92052,6.099912 C33.4425,6.099912 31.03464,8.882328 31.03464,13.296738 C31.03464,17.684394 33.415746,20.413302 36.893766,20.413302 C40.371786,20.413302 42.779646,17.630886 42.779646,13.216476 C42.779646,8.802066 40.345032,6.099912 36.92052,6.099912 Z M36.92052,7.785414 C39.19461,7.785414 40.559064,9.738456 40.559064,13.24323 C40.559064,16.801512 39.167856,18.7278 36.893766,18.7278 C34.619676,18.7278 33.255222,16.774758 33.255222,13.24323 C33.255222,9.738456 34.619676,7.785414 36.92052,7.785414 Z" id="Shape"></path>
                <path d="M49.62867,1.658748 L47.48835,2.14032 L47.48835,6.394206 L45.267768,6.394206 L45.267768,8.079708 L47.48835,8.079708 L47.48835,16.908528 C47.48835,19.26288 48.719034,20.386548 51.019878,20.386548 C51.76899,20.386548 52.384332,20.359794 53.133444,20.252778 L53.24046,18.567276 C52.625118,18.701046 52.116792,18.7278 51.528204,18.7278 C50.29752,18.7278 49.62867,18.032196 49.62867,16.507218 L49.62867,8.079708 L52.892658,8.079708 L52.892658,6.394206 L49.62867,6.394206 L49.62867,1.658748 Z" id="Path"></path>
                <path d="M67.072278,13.537524 L67.072278,13.055952 C67.072278,8.668296 64.637664,6.073158 61.293414,6.073158 C57.895656,6.073158 55.38078,8.909082 55.38078,13.269984 C55.38078,17.711148 57.78864,20.386548 61.480692,20.386548 C64.34337,20.386548 66.109134,19.102356 66.992016,16.640988 L64.985466,15.972138 C64.450386,17.898426 63.353472,18.754554 61.507446,18.754554 C59.072832,18.754554 57.494346,16.881774 57.494346,13.537524 L67.072278,13.537524 Z M57.547854,11.985792 C57.735132,9.390654 59.206602,7.731906 61.320168,7.731906 C63.40698,7.731906 64.74468,9.23013 64.958712,11.985792 L57.547854,11.985792 Z" id="Shape"></path>
                <polygon id="Path" points="79.539642 6.394206 70.122234 6.394206 70.122234 8.0262 77.078274 8.0262 69.69417 18.620784 69.69417 20.0655 79.72692 20.0655 79.72692 18.46026 72.128784 18.46026 79.539642 7.812168"></polygon>
                <path d="M100.702056,6.394206 L98.508228,6.394206 L96.421416,13.805064 C95.966598,15.38355 95.672304,16.748004 95.217486,18.299736 L94.816176,18.299736 C94.414866,16.748004 94.093818,15.437058 93.665754,13.885326 L91.578942,6.394206 L89.22459,6.394206 L93.612246,20.0655 L96.3144,20.0655 L100.702056,6.394206 Z" id="Path"></path>
                <path d="M108.995796,6.099912 C105.517776,6.099912 103.109916,8.882328 103.109916,13.296738 C103.109916,17.684394 105.491022,20.413302 108.969042,20.413302 C112.447062,20.413302 114.854922,17.630886 114.854922,13.216476 C114.854922,8.802066 112.420308,6.099912 108.995796,6.099912 Z M108.995796,7.785414 C111.269886,7.785414 112.63434,9.738456 112.63434,13.24323 C112.63434,16.801512 111.243132,18.7278 108.969042,18.7278 C106.694952,18.7278 105.330498,16.774758 105.330498,13.24323 C105.330498,9.738456 106.694952,7.785414 108.995796,7.785414 Z" id="Shape"></path>
                <path d="M121.703946,1.658748 L119.563626,2.14032 L119.563626,6.394206 L117.343044,6.394206 L117.343044,8.079708 L119.563626,8.079708 L119.563626,16.908528 C119.563626,19.26288 120.79431,20.386548 123.095154,20.386548 C123.844266,20.386548 124.459608,20.359794 125.20872,20.252778 L125.315736,18.567276 C124.700394,18.701046 124.192068,18.7278 123.60348,18.7278 C122.372796,18.7278 121.703946,18.032196 121.703946,16.507218 L121.703946,8.079708 L124.967934,8.079708 L124.967934,6.394206 L121.703946,6.394206 L121.703946,1.658748 Z" id="Path"></path>
                <path d="M134.84016,6.099912 C133.047642,6.099912 131.415648,7.250334 130.398996,9.872226 L130.398996,6.394206 L128.312184,6.394206 L128.312184,20.0655 L130.479258,20.0655 L130.479258,12.226578 C131.335386,9.551178 132.994134,8.213478 134.679636,8.213478 L134.84016,6.099912 Z" id="Path"></path>
                <path d="M148.939518,13.537524 L148.939518,13.055952 C148.939518,8.668296 146.504904,6.073158 143.160654,6.073158 C139.762896,6.073158 137.24802,8.909082 137.24802,13.269984 C137.24802,17.711148 139.65588,20.386548 143.347932,20.386548 C146.21061,20.386548 147.976374,19.102356 148.859256,16.640988 L146.852706,15.972138 C146.317626,17.898426 145.220712,18.754554 143.374686,18.754554 C140.940072,18.754554 139.361586,16.881774 139.361586,13.537524 L148.939518,13.537524 Z M139.415094,11.985792 C139.602372,9.390654 141.073842,7.731906 143.187408,7.731906 C145.27422,7.731906 146.61192,9.23013 146.825952,11.985792 L139.415094,11.985792 Z" id="Shape"></path>
                <path d="M5.002998,30.796206 L2.835924,30.796206 L2.835924,44.975826 C2.835924,46.902114 2.00655,47.651226 0.722358,47.651226 C0.508326,47.651226 0.26754,47.624472 0,47.597718 L0.160524,49.229712 C0.508326,49.256466 0.749112,49.309974 0.963144,49.309974 C3.531528,49.309974 5.002998,47.918766 5.002998,45.243366 L5.002998,30.796206 Z M5.270538,25.525668 L2.595138,25.525668 L2.595138,28.174314 L5.270538,28.174314 L5.270538,25.525668 Z" id="Shape"></path>
                <path d="M20.73435,30.796206 L18.567276,30.796206 L18.567276,40.133352 C17.630886,41.765346 16.025646,42.889014 14.634438,42.889014 C13.162968,42.889014 12.280086,42.113148 12.280086,40.240368 L12.280086,30.796206 L10.059504,30.796206 L10.059504,40.909218 C10.059504,43.477602 11.745006,44.788548 13.885326,44.788548 C15.758106,44.788548 17.550624,43.691634 18.647538,41.952624 L18.647538,44.4675 L20.73435,44.4675 L20.73435,30.796206 Z" id="Path"></path>
                <path d="M32.185062,30.501912 C30.392544,30.501912 28.76055,31.652334 27.743898,34.274226 L27.743898,30.796206 L25.657086,30.796206 L25.657086,44.4675 L27.82416,44.4675 L27.82416,36.628578 C28.680288,33.953178 30.339036,32.615478 32.024538,32.615478 L32.185062,30.501912 Z" id="Path"></path>
                <path d="M37.642878,30.796206 L35.44905,30.796206 L35.44905,44.4675 L37.642878,44.4675 L37.642878,30.796206 Z M37.883664,25.525668 L35.208264,25.525668 L35.208264,28.174314 L37.883664,28.174314 L37.883664,25.525668 Z" id="Shape"></path>
                <path d="M53.133444,24.402 L50.96637,24.402 L50.96637,32.802756 C50.02998,31.331286 48.612018,30.475158 46.980024,30.475158 C44.01033,30.475158 41.709486,33.016788 41.709486,37.618476 C41.709486,42.139902 44.037084,44.815302 47.033532,44.815302 C48.719034,44.815302 50.056734,44.039436 51.019878,42.46095 L51.019878,44.4675 L53.133444,44.4675 L53.133444,24.402 Z M50.96637,40.481154 C50.056734,42.19341 48.933066,43.022784 47.595366,43.022784 C45.562062,43.022784 43.930068,41.203512 43.930068,37.64523 C43.930068,34.086948 45.4818,32.29443 47.48835,32.29443 C48.852804,32.29443 50.083488,33.123804 50.96637,34.916322 L50.96637,40.481154 Z" id="Shape"></path>
                <path d="M60.1965,30.796206 L58.002672,30.796206 L58.002672,44.4675 L60.1965,44.4675 L60.1965,30.796206 Z M60.437286,25.525668 L57.761886,25.525668 L57.761886,28.174314 L60.437286,28.174314 L60.437286,25.525668 Z" id="Shape"></path>
                <path d="M75.366018,34.541766 C74.670414,31.866366 72.77088,30.475158 70.148988,30.475158 C66.61746,30.475158 64.263108,33.23082 64.263108,37.671984 C64.263108,42.113148 66.537198,44.788548 70.148988,44.788548 C72.877896,44.788548 74.697168,43.370586 75.44628,40.748694 L73.386222,40.106598 C72.984912,42.113148 71.96826,43.103046 70.175742,43.103046 C67.901652,43.103046 66.48369,41.150004 66.48369,37.618476 C66.48369,34.113702 67.901652,32.187414 70.175742,32.187414 C71.70072,32.187414 72.824388,33.123804 73.225698,35.1036 L75.366018,34.541766 Z" id="Path"></path>
                <path d="M81.786978,26.060748 L79.646658,26.54232 L79.646658,30.796206 L77.426076,30.796206 L77.426076,32.481708 L79.646658,32.481708 L79.646658,41.310528 C79.646658,43.66488 80.877342,44.788548 83.178186,44.788548 C83.927298,44.788548 84.54264,44.761794 85.291752,44.654778 L85.398768,42.969276 C84.783426,43.103046 84.2751,43.1298 83.686512,43.1298 C82.455828,43.1298 81.786978,42.434196 81.786978,40.909218 L81.786978,32.481708 L85.050966,32.481708 L85.050966,30.796206 L81.786978,30.796206 L81.786978,26.060748 Z" id="Path"></path>
                <path d="M90.589044,30.796206 L88.395216,30.796206 L88.395216,44.4675 L90.589044,44.4675 L90.589044,30.796206 Z M90.82983,25.525668 L88.15443,25.525668 L88.15443,28.174314 L90.82983,28.174314 L90.82983,25.525668 Z" id="Shape"></path>
                <path d="M100.541532,30.501912 C97.063512,30.501912 94.655652,33.284328 94.655652,37.698738 C94.655652,42.086394 97.036758,44.815302 100.514778,44.815302 C103.992798,44.815302 106.400658,42.032886 106.400658,37.618476 C106.400658,33.204066 103.966044,30.501912 100.541532,30.501912 Z M100.541532,32.187414 C102.815622,32.187414 104.180076,34.140456 104.180076,37.64523 C104.180076,41.203512 102.788868,43.1298 100.514778,43.1298 C98.240688,43.1298 96.876234,41.176758 96.876234,37.64523 C96.876234,34.140456 98.240688,32.187414 100.541532,32.187414 Z" id="Shape"></path>
                <path d="M112.554078,30.796206 L110.467266,30.796206 L110.467266,44.4675 L112.63434,44.4675 L112.63434,35.1036 C113.865024,33.36459 115.336494,32.401446 116.620686,32.401446 C118.092156,32.401446 118.92153,33.23082 118.92153,35.183862 L118.92153,44.4675 L121.142112,44.4675 L121.142112,34.407996 C121.142112,31.919874 119.59038,30.501912 117.343044,30.501912 C115.57728,30.501912 113.891778,31.572072 112.554078,33.284328 L112.554078,30.796206 Z" id="Path"></path>
            </g>
            <g id="A-JUST" transform="translate(0.684476, 0.000000)" fill="#FF0000" fill-rule="nonzero">
                <path d="M16.623054,0.538902 L9.866052,0.538902 L0,32.707206 L5.306112,32.707206 L8.08353,23.255694 L17.949582,23.255694 L20.685546,32.707206 L26.53056,32.707206 L16.623054,0.538902 Z M16.954686,19.110294 L9.078426,19.110294 L10.819494,12.560562 C11.524212,10.073322 12.104568,7.751898 12.809286,4.684302 L13.182372,4.684302 C13.88709,7.710444 14.384538,10.073322 15.089256,12.602016 L16.954686,19.110294 Z" id="Shape"></path>
                <polygon id="Path" points="42.266616 18.115398 30.162048 18.115398 30.162048 22.17789 42.266616 22.17789"></polygon>
                <path d="M59.4950161,0.538902 L53.8987261,0.538902 L53.8987261,23.711688 C53.8987261,27.318186 52.1162041,29.0178 49.5046021,29.0178 C48.6755221,29.0178 47.7635341,28.934892 46.5613681,28.769076 L46.7686381,33.121746 C47.9293501,33.204654 48.9242461,33.287562 49.8362341,33.287562 C55.4739781,33.287562 59.4950161,30.758868 59.4950161,24.25059 L59.4950161,0.538902 Z" id="Path"></path>
                <path d="M92.2272121,0.538902 L87.0040081,0.538902 L87.0040081,21.514626 C87.0040081,26.779284 84.4338601,29.0178 80.2055521,29.0178 C75.9357901,29.0178 73.4070961,26.779284 73.4070961,21.514626 L73.4070961,0.538902 L67.8108061,0.538902 L67.8108061,21.597534 C67.8108061,29.43234 72.6194701,33.287562 80.0811901,33.287562 C87.5014561,33.287562 92.2272121,29.307978 92.2272121,21.597534 L92.2272121,0.538902 Z" id="Path"></path>
                <path d="M121.435818,8.000622 C119.736204,2.653056 115.75662,0 110.118876,0 C103.196058,0 99.3822901,3.93813 99.3822901,8.788248 C99.3822901,13.721274 101.579352,16.415784 108.419262,18.44703 L110.077422,18.944478 C115.34208,20.436822 116.336976,21.721896 116.336976,24.499314 C116.336976,27.276732 114.430092,29.100708 110.201784,29.100708 C106.802556,29.100708 104.35677,27.028008 103.52769,23.297148 L98.1801241,24.996762 C99.7139221,30.593052 104.066592,33.329016 110.326146,33.329016 C118.03659,33.329016 121.933266,29.43234 121.933266,23.794596 C121.933266,19.06884 119.860566,16.291422 112.523208,14.30163 L110.823594,13.804182 C106.180746,12.519108 104.937126,11.234034 104.937126,8.415162 C104.937126,5.845014 106.885464,4.228308 110.284692,4.228308 C113.26938,4.228308 115.176264,6.01083 116.005344,9.492966 L121.435818,8.000622 Z" id="Path"></path>
                <polygon id="Path" points="150.18843 0.538902 125.481846 0.538902 125.481846 5.057388 134.974812 5.057388 134.974812 32.707206 140.612556 32.707206 140.612556 5.057388 150.18843 5.057388"></polygon>
            </g>
            <line x1="0.787839954" y1="42.0792928" x2="147.734405" y2="42.0792928" id="Line-2" stroke="#353535" stroke-width="1.176" stroke-linecap="round"></line>
        </g>
        <g id="Group-2" transform="translate(0.000000, 22.000000)">
            <mask id="mask-2" fill="white">
                <use xlink:href="#path-1"></use>
            </mask>
            <g id="Path-2"></g>
            <g id="Group" mask="url(#mask-2)" fill="#404B5B">
                <g transform="translate(18.825498, 0.750083)" id="Shape">
                    <path d="M9.80664919,42.0295394 C10.5722934,43.6868185 12.0976921,44.8591889 13.8910664,45.1754968 L27.6962197,47.5840796 C30.8706983,48.13254 34.0569559,48.5620222 37.2579375,48.8696244 C45.877324,49.6966678 54.5614958,49.6270221 63.172048,48.663589 L134.951189,40.6305301 C134.951189,40.6305301 148.815238,39.0788804 148.061373,32.1389699 C147.660882,28.4712496 136.273398,23.8511235 129.777201,23.2275037 C129.002723,23.1424778 128.222355,23.1352231 127.447876,23.2057394 L84.4775694,28.0266775 L36.6925388,0.730760062 C36.0093486,0.340743764 35.249594,0.100175676 34.4662811,0.0253064758 C34.083459,-0.0112575521 33.6976921,-0.00806545447 33.3148701,0.0340121967 L26.8922934,0.753104746 C26.129594,0.837550239 25.5759743,1.52675315 25.6554835,2.2925664 C25.690821,2.60655273 25.8292259,2.89964534 26.0500848,3.12367256 L53.9784283,31.4396103 L23.4792872,34.8525431 L9.0851768,19.8450409 C8.18701729,18.9100465 6.90309091,18.4477727 5.61327496,18.5940288 L1.23143447,19.0763258 C0.468735083,19.168026 -0.0789949782,19.8627426 0.00934858004,20.6276853 C0.0270172917,20.7687179 0.0652995003,20.9062683 0.121250421,21.0356934 L9.80664919,42.0295394 Z M56.5786737,28.8691011 L31.9426001,3.89122695 C31.9278762,3.87700761 31.9337658,3.86278826 31.9455449,3.86017655 L33.7035817,3.6619763 C34.1099621,3.61554579 34.5192872,3.69970109 34.8726615,3.90254439 L82.6665265,31.1993324 L83.6942566,31.786098 L84.8721707,31.655222 L127.848367,26.8458915 C128.372539,26.8014924 128.899655,26.8101981 129.423827,26.8722989 C135.157324,27.4230808 142.975729,31.0083869 144.430453,32.8180161 C144.118306,34.5713483 138.973766,36.5138848 134.562477,37.0077894 L62.7833363,45.044911 C54.4230909,45.979325 45.9921707,46.0460689 37.6230909,45.2422406 C34.5251768,44.9462461 31.4007596,44.5225677 28.3381829,43.9857149 L14.5330296,41.575391 C13.9116799,41.4654087 13.3816185,41.0585613 13.1165878,40.4851445 L4.75339766,22.3592532 L6.01376576,22.2179303 C6.05204797,22.2141578 6.08738539,22.2141578 6.1256676,22.2176401 C6.25229337,22.2292477 6.37008478,22.2869957 6.45842833,22.3801469 L20.8525388,37.387649 L22.0952382,38.6830603 L23.879778,38.4871816 L54.3789191,35.074539 L57.1381829,34.7649055 L60.2066492,37.8336721 C60.9163424,38.5449295 62.0706983,38.5420276 62.7833363,37.8272879 C63.4959743,37.112258 63.4959743,35.9561383 62.7862811,35.2448809 L56.5786737,28.8691011 Z"></path>
                </g>
            </g>
        </g>
    </g>
</svg>