<?xml version="1.0" encoding="UTF-8"?>
<svg width="170px" height="140px" viewBox="0 0 170 140" version="1.1" xmlns="http://www.w3.org/2000/svg" xmlns:xlink="http://www.w3.org/1999/xlink">
    <title>BlocMarque_Dark_TypoVect@2x</title>
    <g id="BlocMarque_Dark_TypoVect" stroke="none" stroke-width="1" fill="none" fill-rule="evenodd">
        <g id="1.-Fondamentaux/Bloc-marque/Thème-sombre/Marianne-⭥16" transform="translate(28.000000, 28.000000)">
            <g id="Devises" transform="translate(0.000000, 60.000000)" fill="#FFFFFF" fill-rule="nonzero">
                <path d="M39.6,24.8 C39.952,24.8 40.256,25.072 40.096,25.696 L38.48,26.128 C38.736,25.36 39.216,24.8 39.6,24.8 M40.496,27.424 L40.176,27.424 C39.776,27.904 39.328,28.288 38.896,28.288 C38.448,28.288 38.224,28.016 38.224,27.424 C38.224,27.184 38.256,26.928 38.304,26.704 L40.912,25.84 C41.424,24.624 40.816,24.096 40.096,24.096 C38.864,24.096 37.456,26.256 37.456,27.984 C37.456,28.8 37.84,29.248 38.448,29.248 C39.152,29.232 39.888,28.544 40.496,27.424 M40.08,23.52 L41.568,22.16 L41.568,21.968 L40.576,21.968 L39.696,23.52 L40.08,23.52 Z M34.512,24.832 L35.376,24.832 L34,28.608 C33.872,28.928 34.048,29.248 34.384,29.248 C35.36,29.248 36.528,28.416 36.976,27.232 L36.736,27.232 C36.384,27.728 35.616,28.272 35.04,28.368 L36.304,24.832 L37.6,24.832 L37.76,24.288 L36.496,24.288 L36.976,22.928 L36.48,22.928 L35.584,24.288 L34.512,24.432 L34.512,24.832 L34.512,24.832 Z M33.616,24.656 C33.728,24.304 33.488,24.112 33.312,24.112 C32.56,24.112 31.664,24.784 31.296,25.744 L31.536,25.744 C31.776,25.392 32.192,25.008 32.592,24.944 L31.152,28.704 C31.024,29.056 31.28,29.248 31.456,29.248 C32.176,29.248 33.008,28.56 33.376,27.616 L33.12,27.616 C32.88,27.968 32.464,28.352 32.064,28.416 L33.616,24.656 Z M33.76,23.152 C34.08,23.152 34.352,22.896 34.352,22.56 C34.352,22.24 34.08,21.968 33.76,21.968 C33.424,21.968 33.168,22.24 33.168,22.56 C33.168,22.88 33.44,23.152 33.76,23.152 M26.768,25.152 C26.992,25.152 27.12,25.504 26.768,26.272 L25.744,28.544 C25.552,28.976 25.76,29.248 26.176,29.248 C26.432,29.248 26.544,29.184 26.656,28.912 L27.664,26.256 C28.128,25.696 28.992,25.088 29.36,25.088 C29.632,25.088 29.6,25.312 29.424,25.648 L27.888,28.608 C27.744,28.896 27.936,29.248 28.272,29.248 C29.024,29.248 29.92,28.576 30.288,27.616 L30.048,27.616 C29.808,27.968 29.392,28.352 28.992,28.416 L30.32,25.744 C30.496,25.408 30.576,25.088 30.576,24.832 C30.576,24.4 30.336,24.112 29.872,24.112 C29.216,24.112 28.656,24.848 27.872,25.76 L27.872,25.056 C27.872,24.56 27.712,24.112 27.264,24.112 C26.736,24.112 26.256,24.928 25.888,25.744 L26.128,25.744 C26.352,25.36 26.576,25.152 26.768,25.152 M25.728,25.248 C25.904,24.64 25.808,24.096 25.344,24.096 C24.752,24.096 24.576,24.496 23.984,25.744 L23.984,25.04 C23.984,24.544 23.824,24.096 23.376,24.096 C22.848,24.096 22.368,24.912 22,25.728 L22.24,25.728 C22.496,25.36 22.736,25.136 22.928,25.136 C23.152,25.136 23.28,25.488 22.928,26.256 L21.904,28.528 C21.712,28.96 21.92,29.232 22.336,29.232 C22.592,29.232 22.704,29.168 22.816,28.896 L23.824,26.24 C24.112,25.888 24.368,25.584 24.688,25.248 L25.728,25.248 L25.728,25.248 Z M20.176,24.8 C20.528,24.8 20.832,25.072 20.672,25.696 L19.056,26.128 C19.312,25.36 19.792,24.8 20.176,24.8 M21.072,27.424 L20.752,27.424 C20.352,27.904 19.904,28.288 19.472,28.288 C19.024,28.288 18.8,28.016 18.8,27.424 C18.8,27.184 18.832,26.928 18.88,26.704 L21.488,25.84 C22,24.624 21.392,24.096 20.672,24.096 C19.44,24.096 18.032,26.256 18.032,27.984 C18.032,28.8 18.416,29.248 19.024,29.248 C19.728,29.232 20.464,28.544 21.072,27.424 M15.088,24.832 L15.952,24.832 L14.576,28.608 C14.448,28.928 14.624,29.248 14.96,29.248 C15.936,29.248 17.104,28.416 17.552,27.232 L17.312,27.232 C16.96,27.728 16.192,28.272 15.616,28.368 L16.88,24.832 L18.176,24.832 L18.336,24.288 L17.072,24.288 L17.552,22.928 L17.056,22.928 L16.16,24.288 L15.088,24.432 L15.088,24.832 L15.088,24.832 Z M10.512,27.76 C10.512,26.592 11.808,25.024 12.528,25.024 C12.688,25.024 12.848,25.04 12.976,25.088 L12.224,27.104 C11.792,27.632 11.12,28.272 10.8,28.272 C10.624,28.272 10.512,28.112 10.512,27.76 M14.48,23.888 L14.08,23.856 L13.632,24.304 L13.552,24.304 C11.648,24.304 9.616,26.672 9.616,28.528 C9.616,28.96 9.856,29.248 10.32,29.248 C10.88,29.248 11.424,28.448 12.032,27.6 L12,27.904 C11.92,28.768 12.192,29.248 12.64,29.248 C13.168,29.248 13.648,28.432 14.016,27.616 L13.776,27.616 C13.52,27.984 13.28,28.208 13.088,28.208 C12.896,28.208 12.752,27.856 13.088,27.088 L14.48,23.888 Z M10.416,25.248 C10.592,24.64 10.496,24.096 10.032,24.096 C9.44,24.096 9.264,24.496 8.672,25.744 L8.672,25.04 C8.672,24.544 8.512,24.096 8.064,24.096 C7.536,24.096 7.056,24.912 6.688,25.728 L6.928,25.728 C7.184,25.36 7.424,25.136 7.6,25.136 C7.824,25.136 7.952,25.488 7.6,26.256 L6.576,28.544 C6.384,28.976 6.592,29.248 7.008,29.248 C7.264,29.248 7.376,29.184 7.488,28.912 L8.496,26.256 C8.784,25.904 9.04,25.6 9.36,25.264 L10.416,25.264 L10.416,25.248 Z M3.728,29.056 L3.824,28.768 C2.56,28.528 2.4,28.528 2.912,27.168 L3.376,25.888 L4.384,25.888 C5.008,25.888 5.008,26.16 4.928,26.848 L5.28,26.848 L6.112,24.576 L5.76,24.576 C5.456,25.12 5.2,25.536 4.528,25.536 L3.52,25.536 L4.208,23.664 C4.448,22.992 4.56,22.864 5.424,22.864 L5.648,22.864 C6.528,22.864 6.624,23.104 6.624,24.032 L6.976,24.032 L7.264,22.48 L2.416,22.48 L2.32,22.768 C3.328,22.976 3.424,23.072 2.96,24.368 L1.92,27.152 C1.44,28.448 1.248,28.544 0.096,28.752 L0,29.056 L3.728,29.056 Z" id="Fraternité"></path>
                <path d="M27.84,13.824 C28.192,13.824 28.496,14.096 28.336,14.704 L26.72,15.136 C26.992,14.384 27.472,13.824 27.84,13.824 M28.736,16.432 L28.416,16.432 C28.016,16.912 27.568,17.296 27.136,17.296 C26.688,17.296 26.464,17.024 26.464,16.432 C26.464,16.192 26.496,15.936 26.544,15.712 L29.168,14.848 C29.68,13.632 29.056,13.104 28.352,13.104 C27.12,13.104 25.712,15.264 25.712,16.992 C25.712,17.808 26.096,18.256 26.704,18.256 C27.408,18.256 28.144,17.568 28.736,16.432 M28.32,12.544 L29.808,11.184 L29.808,10.992 L28.816,10.992 L27.936,12.544 L28.32,12.544 Z M22.768,13.856 L23.632,13.856 L22.256,17.632 C22.128,17.952 22.304,18.272 22.64,18.272 C23.616,18.272 24.784,17.44 25.232,16.256 L24.992,16.256 C24.64,16.752 23.872,17.296 23.296,17.392 L24.56,13.856 L25.856,13.856 L26.016,13.312 L24.752,13.312 L25.232,11.952 L24.736,11.952 L23.84,13.312 L22.768,13.456 L22.768,13.856 L22.768,13.856 Z M21.872,13.664 C21.968,13.312 21.744,13.12 21.552,13.12 C20.8,13.12 19.904,13.808 19.536,14.752 L19.776,14.752 C20.016,14.4 20.432,14.016 20.832,13.952 L19.392,17.712 C19.264,18.064 19.52,18.256 19.696,18.256 C20.416,18.256 21.248,17.568 21.616,16.624 L21.376,16.624 C21.136,16.976 20.72,17.36 20.32,17.424 L21.872,13.664 Z M22.016,12.176 C22.336,12.176 22.608,11.904 22.608,11.584 C22.608,11.264 22.336,10.992 22.016,10.992 C21.68,10.992 21.424,11.264 21.424,11.584 C21.424,11.904 21.696,12.176 22.016,12.176 M17.392,17.424 L19.776,11.088 L19.696,10.992 L18.048,11.184 L18.048,11.376 L18.368,11.616 C18.656,11.84 18.56,12.048 18.304,12.752 L16.48,17.616 C16.336,17.904 16.528,18.256 16.864,18.256 C17.616,18.256 18.416,17.568 18.784,16.624 L18.544,16.624 C18.288,16.976 17.776,17.36 17.392,17.424 M12.512,16.784 C12.512,15.616 13.808,14.048 14.528,14.048 C14.688,14.048 14.832,14.064 14.976,14.112 L14.224,16.128 C13.792,16.656 13.12,17.296 12.816,17.296 C12.624,17.296 12.512,17.136 12.512,16.784 M16.48,12.912 L16.08,12.88 L15.632,13.328 L15.552,13.328 C13.648,13.328 11.616,15.696 11.616,17.552 C11.616,17.984 11.856,18.272 12.32,18.272 C12.88,18.272 13.424,17.472 14.032,16.624 L14,16.928 C13.92,17.792 14.192,18.272 14.64,18.272 C15.168,18.272 15.648,17.456 16.016,16.64 L15.776,16.64 C15.52,17.008 15.28,17.232 15.088,17.232 C14.896,17.232 14.752,16.88 15.088,16.112 L16.48,12.912 Z M7.248,19.184 C7.248,18.688 7.728,18.368 8.416,18.096 C8.64,18.208 8.976,18.336 9.44,18.48 C10.16,18.72 10.432,18.816 10.432,19.024 C10.432,19.488 9.776,19.84 8.576,19.84 C7.68,19.84 7.248,19.648 7.248,19.184 M9.216,16.128 C8.896,16.128 8.784,15.856 8.784,15.568 C8.784,14.64 9.232,13.488 9.952,13.488 C10.272,13.488 10.384,13.76 10.384,14.048 C10.368,14.992 9.92,16.128 9.216,16.128 M11.248,18.72 C11.248,18.112 10.704,17.904 9.824,17.632 C9.072,17.408 8.736,17.344 8.736,17.088 C8.736,16.896 8.896,16.656 9.216,16.48 C10.464,16.416 11.248,15.296 11.248,14.32 C11.248,14.144 11.216,13.984 11.168,13.84 L12.016,13.84 L12.176,13.296 L10.736,13.296 C10.544,13.168 10.304,13.104 10.032,13.104 C8.72,13.104 7.888,14.256 7.888,15.264 C7.888,15.92 8.272,16.368 8.864,16.448 C8.256,16.736 7.904,17.04 7.904,17.424 C7.904,17.648 7.984,17.808 8.176,17.936 C6.768,18.352 6.192,18.864 6.192,19.488 C6.192,20.144 7.056,20.416 8.064,20.416 C9.808,20.432 11.248,19.504 11.248,18.72 M4.752,14.896 C5.376,14.896 5.392,15.168 5.296,15.856 L5.648,15.856 L6.48,13.584 L6.128,13.584 C5.824,14.128 5.568,14.544 4.896,14.544 L3.52,14.544 L4.192,12.672 C4.432,12 4.544,11.872 5.408,11.872 L6.016,11.872 C6.896,11.872 6.992,12.112 6.992,13.04 L7.344,13.04 L7.632,11.488 L2.416,11.488 L2.32,11.776 C3.328,11.984 3.424,12.08 2.96,13.376 L1.92,16.176 C1.44,17.472 1.248,17.568 0.08,17.776 L0,18.08 L5.792,18.08 L6.832,16.432 L6.432,16.432 C5.76,17.088 5.088,17.696 3.776,17.696 C2.24,17.696 2.368,17.616 2.88,16.192 L3.36,14.912 L4.752,14.912 L4.752,14.896 Z M5.504,10.992 L6.992,9.92 L6.992,9.728 L6,9.728 L5.12,11.008 L5.504,11.008 L5.504,10.992 Z" id="Égalité"></path>
                <path d="M27.664,2.848 C28.016,2.848 28.32,3.12 28.16,3.728 L26.544,4.16 C26.8,3.408 27.28,2.848 27.664,2.848 M28.56,5.456 L28.24,5.456 C27.84,5.936 27.392,6.32 26.96,6.32 C26.512,6.32 26.288,6.048 26.288,5.456 C26.288,5.216 26.32,4.96 26.368,4.736 L28.976,3.872 C29.488,2.656 28.864,2.128 28.16,2.128 C26.928,2.128 25.52,4.288 25.52,6.016 C25.52,6.832 25.904,7.264 26.512,7.264 C27.216,7.28 27.952,6.592 28.56,5.456 M28.144,1.568 L29.632,0.208 L29.632,0.016 L28.64,0.016 L27.76,1.568 L28.144,1.568 Z M22.576,2.88 L23.44,2.88 L22.064,6.656 C21.936,6.976 22.112,7.296 22.448,7.296 C23.424,7.296 24.592,6.464 25.04,5.28 L24.8,5.28 C24.448,5.776 23.68,6.32 23.104,6.416 L24.368,2.88 L25.664,2.88 L25.824,2.336 L24.56,2.336 L25.04,0.976 L24.544,0.976 L23.648,2.336 L22.576,2.48 L22.576,2.88 L22.576,2.88 Z M22.128,3.296 C22.304,2.688 22.208,2.144 21.744,2.144 C21.152,2.144 20.976,2.544 20.384,3.792 L20.384,3.088 C20.384,2.592 20.224,2.144 19.776,2.144 C19.248,2.144 18.768,2.96 18.4,3.776 L18.64,3.776 C18.896,3.408 19.136,3.184 19.312,3.184 C19.536,3.184 19.664,3.536 19.312,4.304 L18.288,6.576 C18.096,7.008 18.304,7.28 18.72,7.28 C18.976,7.28 19.088,7.216 19.2,6.944 L20.208,4.288 C20.496,3.936 20.752,3.632 21.072,3.296 L22.128,3.296 Z M16.56,2.848 C16.912,2.848 17.216,3.12 17.056,3.728 L15.44,4.16 C15.712,3.408 16.176,2.848 16.56,2.848 M17.456,5.456 L17.136,5.456 C16.736,5.936 16.288,6.32 15.856,6.32 C15.408,6.32 15.184,6.048 15.184,5.456 C15.184,5.216 15.216,4.96 15.264,4.736 L17.872,3.872 C18.384,2.656 17.776,2.128 17.056,2.128 C15.824,2.128 14.416,4.288 14.416,6.016 C14.416,6.832 14.8,7.264 15.408,7.264 C16.112,7.28 16.848,6.592 17.456,5.456 M11.36,6.512 C11.104,6.512 10.736,6.272 10.736,6.064 C10.736,6 10.848,5.712 10.992,5.344 L11.408,4.224 C11.856,3.68 12.56,3.104 12.944,3.104 C13.184,3.104 13.36,3.248 13.36,3.6 C13.376,4.64 12.4,6.512 11.36,6.512 M14.272,3.2 C14.272,2.432 14.08,2.144 13.536,2.144 C12.864,2.144 12.24,2.864 11.616,3.728 L12.96,0.128 L12.88,0.016 L11.232,0.208 L11.232,0.4 L11.552,0.64 C11.84,0.864 11.744,1.088 11.488,1.776 L10.032,5.584 C9.904,5.904 9.76,6.288 9.76,6.384 C9.76,6.832 10.368,7.264 10.928,7.264 C12.176,7.28 14.272,4.976 14.272,3.2 M9.376,2.688 C9.472,2.336 9.248,2.144 9.056,2.144 C8.304,2.144 7.408,2.832 7.04,3.776 L7.28,3.776 C7.52,3.424 7.936,3.04 8.336,2.976 L6.896,6.736 C6.768,7.088 7.024,7.28 7.216,7.28 C7.936,7.28 8.768,6.592 9.136,5.648 L8.896,5.648 C8.656,6 8.24,6.384 7.84,6.448 L9.376,2.688 Z M9.536,1.184 C9.856,1.184 10.128,0.912 10.128,0.592 C10.128,0.272 9.856,0 9.536,0 C9.2,0 8.944,0.272 8.944,0.592 C8.944,0.928 9.2,1.184 9.536,1.184 M5.856,0.48 L2.416,0.48 L2.32,0.768 C3.328,0.976 3.424,1.072 2.96,2.368 L1.92,5.2 C1.44,6.496 1.248,6.592 0.096,6.8 L0,7.088 L5.232,7.088 L6.368,5.072 L5.968,5.072 C5.312,5.792 4.576,6.704 3.408,6.704 C2.528,6.704 2.4,6.544 2.896,5.2 L3.92,2.384 C4.4,1.088 4.592,0.992 5.76,0.784 L5.856,0.48 Z" id="Liberté"></path>
            </g>
            <g id="Intitulé-officiel" transform="translate(1.648000, 21.680000)" fill="#FFFFFF" fill-rule="nonzero">
                <polygon id="Path" points="0 14.32 2.272 14.32 2.272 6.288 4.768 10.48 6.368 10.48 8.864 6.288 8.864 14.32 11.136 14.32 11.136 3.12 8.304 3.12 5.568 7.824 2.832 3.12 0 3.12"></polygon>
                <polygon id="Path" points="14.496 14.32 16.768 14.32 16.768 3.12 14.496 3.12"></polygon>
                <polygon id="Path" points="20.144 14.32 22.416 14.32 22.416 6.224 27.424 14.32 30.336 14.32 30.336 3.12 28.064 3.12 28.064 11.216 23.056 3.12 20.144 3.12"></polygon>
                <polygon id="Path" points="33.712 14.32 35.984 14.32 35.984 3.12 33.712 3.12"></polygon>
                <path d="M38.352,12.768 C39.344,13.952 40.608,14.64 42.496,14.64 C44.544,14.64 46.192,13.376 46.224,11.264 C46.224,7.424 41.136,8 41.136,5.968 C41.136,5.296 41.664,4.784 42.464,4.784 C43.312,4.784 44.048,5.344 44.704,6.192 L46.368,4.688 C45.408,3.552 44.128,2.8 42.448,2.8 C40.304,2.8 38.832,4.272 38.832,6.048 C38.832,9.84 43.92,9.28 43.92,11.344 C43.92,12.144 43.376,12.624 42.48,12.624 C41.568,12.624 40.672,12.112 40,11.248 L38.352,12.768 Z" id="Path"></path>
                <polygon id="Path" points="47.616 5.184 51.072 5.184 51.072 14.32 53.344 14.32 53.344 5.184 56.8 5.184 56.8 3.12 47.616 3.12"></polygon>
                <path d="M61.296,2.16 L63.376,2.16 L61.568,0 L59.232,0 L61.296,2.16 Z M59.04,14.32 L65.568,14.32 L65.568,12.432 L61.312,12.432 L61.312,9.552 L64.928,9.552 L64.928,7.664 L61.312,7.664 L61.312,5.008 L65.568,5.008 L65.568,3.12 L59.04,3.12 L59.04,14.32 Z" id="Shape"></path>
                <path d="M68.448,14.32 L70.72,14.32 L70.72,9.792 L71.888,9.792 L74.88,14.32 L77.552,14.32 L74.048,9.36 C75.2,8.832 75.856,7.824 75.856,6.464 C75.856,4.384 74.336,3.12 71.872,3.12 L68.448,3.12 L68.448,14.32 Z M72,5.008 C72.96,5.008 73.52,5.584 73.52,6.432 C73.52,7.344 72.96,7.904 72,7.904 L70.72,7.904 L70.72,5.008 L72,5.008 Z" id="Shape"></path>
                <polygon id="Path" points="79.232 14.32 85.76 14.32 85.76 12.432 81.504 12.432 81.504 9.552 85.12 9.552 85.12 7.664 81.504 7.664 81.504 5.008 85.76 5.008 85.76 3.12 79.232 3.12"></polygon>
                <path d="M0,30.32 L4.4,30.32 C7.952,30.32 10.352,27.744 10.352,24.72 C10.352,21.696 7.952,19.12 4.4,19.12 L0,19.12 L0,30.32 Z M4.432,21.184 C6.512,21.184 8.016,22.72 8.016,24.72 C8.016,26.704 6.512,28.256 4.432,28.256 L2.272,28.256 L2.272,21.184 L4.432,21.184 Z" id="Shape"></path>
                <polygon id="Path" points="12.784 30.32 19.312 30.32 19.312 28.432 15.056 28.432 15.056 25.552 18.672 25.552 18.672 23.664 15.056 23.664 15.056 21.008 19.312 21.008 19.312 19.12 12.784 19.12"></polygon>
                <polygon id="Path" points="26.592 30.32 33.12 30.32 33.12 28.256 28.864 28.256 28.864 19.12 26.592 19.12"></polygon>
                <path d="M34.432,30.32 L36.848,30.32 L37.92,27.408 L42.4,27.408 L43.472,30.32 L45.888,30.32 L41.648,19.12 L38.672,19.12 L34.432,30.32 Z M38.624,25.472 L40.16,21.264 L41.696,25.472 L38.624,25.472 Z" id="Shape"></path>
                <path d="M54.704,29.392 L54.704,19.12 L52.432,19.12 L52.432,29.504 C52.432,30.656 51.904,31.088 50.896,31.088 C50.672,31.088 50.48,31.072 50.32,31.04 L50.32,33.04 C50.544,33.104 50.848,33.104 51.216,33.104 C53.552,33.104 54.704,31.872 54.704,29.392 Z" id="Path"></path>
                <path d="M64.56,26.128 C64.56,27.632 63.696,28.512 62.304,28.512 C60.88,28.512 60.032,27.632 60.032,26.128 L60.032,19.12 L57.76,19.12 L57.76,25.936 C57.76,28.88 59.488,30.64 62.288,30.64 C65.104,30.64 66.832,28.88 66.832,25.936 L66.832,19.12 L64.56,19.12 L64.56,26.128 Z" id="Path"></path>
                <path d="M68.88,28.768 C69.872,29.952 71.136,30.64 73.024,30.64 C75.072,30.64 76.72,29.376 76.752,27.264 C76.752,23.424 71.664,24 71.664,21.968 C71.664,21.296 72.192,20.784 72.992,20.784 C73.84,20.784 74.576,21.344 75.232,22.192 L76.896,20.688 C75.936,19.552 74.656,18.8 72.976,18.8 C70.832,18.8 69.36,20.272 69.36,22.048 C69.36,25.84 74.448,25.28 74.448,27.344 C74.448,28.144 73.904,28.624 73.008,28.624 C72.096,28.624 71.2,28.112 70.528,27.248 L68.88,28.768 Z" id="Path"></path>
                <polygon id="Path" points="78.144 21.184 81.6 21.184 81.6 30.32 83.872 30.32 83.872 21.184 87.328 21.184 87.328 19.12 78.144 19.12"></polygon>
                <polygon id="Path" points="89.568 30.32 91.84 30.32 91.84 19.12 89.568 19.12"></polygon>
                <path d="M100.208,28.512 C98.096,28.512 96.592,26.864 96.592,24.72 C96.592,22.576 98.096,20.928 100.208,20.928 C101.488,20.928 102.496,21.552 103.136,22.464 L104.928,21.072 C103.904,19.712 102.24,18.8 100.208,18.8 C96.672,18.8 94.256,21.52 94.256,24.72 C94.256,27.92 96.672,30.64 100.208,30.64 C102.24,30.64 103.904,29.744 104.928,28.352 L103.136,26.976 C102.496,27.888 101.488,28.512 100.208,28.512 Z" id="Path"></path>
                <polygon id="Path" points="107.136 30.32 113.664 30.32 113.664 28.432 109.408 28.432 109.408 25.552 113.024 25.552 113.024 23.664 109.408 23.664 109.408 21.008 113.664 21.008 113.664 19.12 107.136 19.12"></polygon>
            </g>
            <g id="Marianne-⭥16" transform="translate(0.000000, 0.000000)">
                <rect id="Rectangle" fill="#FFFFFF" x="0" y="0" width="44" height="16"></rect>
                <g id="Contenu">
                    <path d="M43.995395,0 L26.7844815,0 C26.8417338,0.0188397391 26.8965722,0.0443460053 26.9478674,0.0759934561 C27.087611,0.150973666 27.2687287,0.24765423 27.3820434,0.307098 C27.6140269,0.413880646 27.8131231,0.580931321 27.9585804,0.790838567 C28.0190374,0.881524091 28.1097229,1.06297958 28.0492659,1.18389361 C27.9888089,1.33503615 27.9585804,1.57694865 27.8074379,1.63740567 C27.6259824,1.72809119 27.3840699,1.72809119 27.1724703,1.69786268 C27.0494375,1.69253055 26.9275127,1.67222864 26.8093905,1.63740567 C27.2628181,1.81877672 27.6861016,2.03046071 27.9884712,2.45374426 C28.0186997,2.51420128 28.1396137,2.54442979 28.2606122,2.54442979 C28.2908407,2.54442979 28.2908407,2.6048868 28.2908407,2.63511531 C28.2302992,2.69565676 28.1698422,2.72580083 28.2000707,2.81648636 L28.2908407,2.81648636 C28.4419832,2.75602934 28.4117547,2.45340651 28.6234387,2.54442979 C28.7777157,2.63955343 28.8307951,2.83863833 28.7443527,2.99794184 C28.6309332,3.10750487 28.5095765,3.20854139 28.3812729,3.30022692 C28.3510525,3.36755252 28.3510525,3.44458533 28.3812729,3.51191092 C28.4569331,3.62079422 28.5084635,3.74458237 28.5324154,3.87499076 C28.6231854,4.08659032 28.6533295,4.32850282 28.7440994,4.54010238 C28.8650135,4.99361444 28.9859275,5.4471265 28.955699,5.90063856 C28.955699,6.14255106 28.8347005,6.35415061 28.9254705,6.59606312 C28.9859275,6.83789118 29.13707,7.01934667 29.2580685,7.23094622 C29.3788981,7.41231727 29.4998966,7.53331574 29.5906665,7.71468679 C29.7719531,8.01705631 30.1045512,8.31934139 29.9537464,8.68216792 C29.8630608,8.89376748 29.5304628,8.86362341 29.3188633,8.98453744 C29.1374078,9.13567998 29.2886348,9.37750805 29.3792358,9.52873503 C29.5304628,9.80087604 29.1978648,9.98224708 28.9862652,10.0729326 C29.0467223,10.1636181 29.1676363,10.1333896 29.1978648,10.1938466 C29.2280933,10.3450736 29.3792358,10.4357591 29.2886348,10.5869017 C29.1676363,10.7683572 28.8048942,10.8590427 28.9862652,11.1310993 C29.1071793,11.3427833 29.0284838,11.5778564 28.9560367,11.7962953 C28.8653512,12.0684363 28.6235231,12.1892659 28.4118391,12.2498074 C28.2254931,12.3049229 28.0287696,12.3152798 27.8376664,12.2800359 C27.7825127,12.2465273 27.7205234,12.2258642 27.6562953,12.2195789 C27.1422418,12.1590374 26.6282727,12.0078949 26.1143037,12.0078949 C25.9686488,12.0300693 25.8264103,12.0707008 25.6910201,12.1288089 C25.5593928,12.2253333 25.4368707,12.3336954 25.324985,12.452541 L25.3214386,12.4563407 C25.298725,12.4804897 25.2769402,12.5049765 25.2554932,12.5296322 C25.242321,12.5449153 25.2294021,12.5604517 25.2165676,12.5759882 C25.2078425,12.5863458 25.199258,12.5967597 25.1908143,12.6072299 C25.1030366,12.7173955 25.0234793,12.833867 24.9527859,12.9557021 C24.9483107,12.9633859 24.9437511,12.9710697 24.9394448,12.9788379 C24.9315077,12.9927701 24.9238239,13.0069555 24.9160557,13.0210565 C24.8209176,13.1975991 24.74421,13.3834685 24.6871466,13.5757243 C24.4816265,14.2681091 24.5714676,14.8621247 24.7157708,15.0063433 C24.7558784,15.046451 25.7136493,15.34215 26.3807874,15.6389466 C26.6268801,15.7422839 26.8653373,15.8629375 27.0943659,16 L43.995395,16 L43.995395,0 Z" id="Droit" fill="#E1000F"></path>
                    <path d="M27.8081134,5.83680405 C27.9291118,5.86703256 28.1103984,5.86703256 28.1103984,5.92748958 C28.0500259,6.16931764 27.6870305,6.22977466 27.5056594,6.4717716 L27.4152272,6.4717716 C27.3245417,6.53222861 27.3547702,6.68337115 27.2640846,6.68337115 C27.1725404,6.66329399 27.0769323,6.67391711 26.9920281,6.71359966 C27.1129421,6.83451369 27.2640846,6.92536809 27.4454557,6.89497071 C27.4975659,6.9130372 27.533462,6.96096558 27.5361412,7.01605362 C27.5593916,7.01383807 27.5809793,7.00302914 27.5966827,6.98574067 C27.6269956,6.98574067 27.6572241,6.98574067 27.6572241,7.01605362 L27.6572241,7.13696765 C27.5663697,7.25788168 27.4152272,7.19734023 27.2941443,7.22765317 C27.5219732,7.28817715 27.7616555,7.28817715 27.9894844,7.22765317 C28.1709399,7.16719616 27.9894844,6.86457333 28.1104829,6.71359966 C28.0501103,6.71359966 28.1104829,6.62291414 28.0501103,6.62291414 C28.1104829,6.56245712 28.1709399,6.4717716 28.2314813,6.44154309 C28.3032986,6.443453 28.3713336,6.40940381 28.4128524,6.35077313 C28.4128524,6.29040055 28.2920228,6.26017204 28.3221669,6.19954615 C28.5035379,6.07880099 28.6546805,5.89726107 28.5943079,5.71589002 C28.5639949,5.6252045 28.3221669,5.6252045 28.1709399,5.56474748 C28.0197129,5.50429046 27.8383419,5.56474748 27.6570553,5.59497599 C27.5057438,5.59497599 27.3546013,5.68566151 27.2034588,5.71589002 C26.997524,5.78620621 26.8038079,5.88819204 26.629286,6.0181751 C26.8457766,5.93991798 27.068231,5.87926399 27.294482,5.83680405 C27.4755998,5.83680405 27.6296132,5.79213679 27.8081134,5.83680405 Z" id="Centre" fill="#808080" fill-rule="nonzero"></path>
                    <path d="M18.1862441,14.1127447 C18.3579893,13.9409995 18.5313389,13.7565887 18.7036751,13.5715025 C19.0115715,13.205255 19.3485164,12.8613409 19.7083086,12.5422977 C19.8124401,12.4478423 19.9224269,12.3600503 20.0376136,12.2794448 C20.0678421,12.2492163 20.0678421,12.1886749 20.0980706,12.1584464 C19.9469281,12.2189878 19.8561581,12.3399018 19.7050156,12.4003589 C19.6747871,12.4003589 19.6445586,12.3701303 19.6747871,12.3399018 L19.9978437,12.0975672 C19.9911731,12.0979893 19.9841649,12.0979893 19.9771566,12.0979893 C19.9469281,12.0979893 19.9469281,12.0678453 19.9469281,12.0375323 C19.5537886,11.9770753 19.2515035,12.2492163 18.9793625,12.4910444 C18.9189055,12.5213573 18.8584485,12.4608159 18.82822,12.4608159 C18.3747923,12.6120429 18.0421099,13.0050979 17.5886823,13.1864689 L17.5886823,13.1260119 C17.4072268,13.1864689 17.2310908,13.2961528 17.0444847,13.3376115 C16.7723437,13.3980685 16.5304312,13.36784 16.2885187,13.36784 C15.9187708,13.412829 15.5517847,13.47817 15.1892311,13.5635654 C15.1787609,13.5663518 15.1680374,13.568716 15.1575672,13.5715025 C14.961416,13.6244319 14.7722884,13.7005988 14.5942023,13.7983851 C14.587194,13.8021848 14.5803546,13.8062378 14.5735997,13.8103752 C14.5585698,13.8292891 14.5437933,13.8473587 14.5298612,13.8627263 C14.4727682,13.9355609 14.4024036,13.9969294 14.3224835,14.0435907 C14.1367217,14.1381603 13.9847348,14.3028128 13.8210956,14.4364769 C13.806864,14.4463792 13.789966,14.4517371 13.7726286,14.4518444 C13.6105093,14.6073777 13.4505008,14.7651063 13.2856795,14.9179376 C13.2568794,14.9312544 13.2246067,14.935126 13.1934741,14.9289989 C13.194234,14.9279856 13.1953317,14.9273946 13.1960072,14.9262125 C13.2017489,14.9165866 13.2076595,14.9070452 13.2134012,14.8974194 C13.2389013,14.8547505 13.264739,14.8122504 13.2909146,14.7699193 C13.3201298,14.7226344 13.3500206,14.6758281 13.3805868,14.6295002 C13.4217922,14.5669323 13.4641796,14.5051243 13.5092691,14.4454272 C13.5197612,14.4341032 13.5192735,14.4164684 13.5081714,14.4057417 C13.4968233,14.3949691 13.481585,14.38927 13.4659528,14.389952 C13.6205787,14.2453103 13.7907758,14.1182714 13.9734202,14.0111668 C13.9532397,14.0130244 13.92394,13.9968969 13.9392232,13.9756188 C13.9583904,13.9488522 13.9734202,13.9203969 13.9913209,13.8932081 C13.9947828,13.8842577 13.997907,13.875223 14.0010312,13.8662726 C13.9934318,13.8578289 13.9857481,13.8503984 13.9781487,13.8423769 C13.9283923,13.8719216 13.8808931,13.9051118 13.836041,13.941675 C13.7637627,14.006945 13.7071054,14.1401868 13.5973371,14.1389203 C13.5818414,14.1386891 13.5664367,14.1365046 13.5514877,14.1324186 C13.5403122,14.1308747 13.5295355,14.127206 13.5197393,14.1216106 C13.5210059,14.1192464 13.5223569,14.1169666 13.5237078,14.1146024 L13.528183,14.1061586 L13.5325738,14.098306 L13.5469281,14.0722993 C13.551741,14.0638556 13.5564695,14.0549053 13.5613668,14.0462082 C13.5652509,14.0392844 13.5690506,14.0321917 13.5729347,14.0252678 C13.5801963,14.0125178 13.5871202,13.9999367 13.5943818,13.9869333 C13.5995324,13.9777297 13.6050208,13.9686949 13.610256,13.9595757 C13.6231748,13.9371999 13.6362626,13.9150773 13.6492659,13.8928703 C13.6555143,13.8821468 13.6616782,13.8714233 13.6679265,13.8607842 C13.6787345,13.8424613 13.6892047,13.8239696 13.7000971,13.8058156 C13.706308,13.7959355 13.7073135,13.7836482 13.7027916,13.7728898 C13.6982697,13.7621313 13.6887879,13.754252 13.6773835,13.7517758 C13.7336192,13.6783727 13.8040247,13.6170119 13.8844235,13.5713336 C13.9910676,13.5130719 14.106831,13.4422291 14.2225099,13.3771281 C14.2393973,13.3626893 14.2556937,13.3480817 14.2724967,13.3338962 C14.1023151,13.3914773 13.9404849,13.4712852 13.7912048,13.5712491 C13.7732502,13.578343 13.7562353,13.5876161 13.7405425,13.5988601 C13.7121829,13.6050247 13.6828126,13.5942698 13.6651401,13.5712491 C13.6602747,13.5648827 13.6577145,13.5570532 13.6578785,13.5490422 C13.688107,13.4885851 13.778877,13.4582722 13.839334,13.3978152 C13.8694781,13.3978152 13.8997066,13.3978152 13.8997066,13.4280437 C14.8672722,12.6721621 16.1975798,12.8538709 17.3162035,12.4605626 L17.5883445,12.2791915 C17.739487,12.2187345 17.8604011,12.067592 18.0417721,11.976822 C18.2861004,11.8091095 18.4670836,11.5642603 18.5557412,11.2814819 C18.5525755,11.2585506 18.541988,11.2372867 18.5255971,11.2209404 C18.1456272,11.63067 17.6950062,11.9686572 17.1952895,12.2187345 C16.5603219,12.5513325 15.8649818,12.4907911 15.1997857,12.5818143 C15.2300987,12.5214418 15.2905557,12.5214418 15.3509283,12.5214418 C15.3509283,12.4306718 15.4114697,12.4004433 15.4719268,12.3399863 L15.5626967,12.3399863 C15.5928408,12.3399863 15.5928408,12.2795293 15.6230693,12.2795293 C15.6835263,12.2795293 15.7742963,12.2493008 15.7440678,12.2493008 C15.6532978,12.1283023 15.4719268,12.3399863 15.3207842,12.2493008 C15.3812412,12.1887593 15.3509283,12.0980738 15.4114697,12.0679297 L15.5323838,12.0679297 C15.5387188,12.0220574 15.5599622,11.979541 15.5928408,11.9469312 C16.0463528,11.6747902 16.4696364,11.4631907 16.8931733,11.2212782 C16.8024877,11.2212782 16.7420307,11.3120481 16.6513452,11.2515911 C16.7118022,11.2515911 16.6513452,11.1608212 16.7118022,11.1608212 C17.0444002,11.0701356 17.3164568,10.8887646 17.6490548,10.7678505 C17.5281408,10.7678505 17.4373708,10.8585361 17.3164568,10.7678505 C17.3769138,10.7375376 17.4071423,10.6770806 17.4978279,10.6770806 L17.4978279,10.5863951 C17.4978279,10.5561666 17.5281408,10.5561666 17.5583693,10.5561666 C17.5354257,10.5529837 17.5141587,10.542365 17.4978279,10.525938 C17.5281408,10.465481 17.6188263,10.4957095 17.6792833,10.4352525 C17.6490548,10.4352525 17.5885978,10.4352525 17.5885978,10.405024 C17.6792833,10.28411 17.8304259,10.253797 17.9816529,10.2235685 C17.9513399,10.1631115 17.8606544,10.2235685 17.8606544,10.1631115 C17.8606544,10.132883 17.8908829,10.132883 17.9211114,10.132883 L17.8606544,10.132883 C17.8001974,10.1026545 17.8304259,10.0421975 17.8304259,10.011969 C18.0117969,9.80036941 18.0117969,9.5282284 18.1024825,9.2863159 C18.0722539,9.2863159 18.0420254,9.2863159 18.0420254,9.25608739 C17.7397404,9.58868542 17.2559154,9.70959945 16.8024877,9.83026017 L16.6513452,9.83026017 C16.483842,9.8959916 16.2959365,9.88494196 16.1372917,9.80003166 C16.0163776,9.73949021 15.9559206,9.64880469 15.8350066,9.55811916 C15.5985924,9.40708437 15.3447919,9.28517393 15.079125,9.19503932 C14.3283715,8.94961657 13.5405482,8.83709079 12.7511077,8.86252573 C13.0837057,8.68107024 13.4505853,8.66570268 13.8093588,8.56015621 C14.3233279,8.40892923 14.806984,8.22755818 15.3511816,8.25778669 C15.2605805,8.22755818 15.1396665,8.25778669 15.0488965,8.25778669 C14.6256974,8.22755818 14.2023294,8.34847221 13.748564,8.43924218 C13.446279,8.49969919 13.1743913,8.62061322 12.8718529,8.68107024 C12.6903974,8.74152726 12.5997119,8.92298274 12.3880279,8.8926698 L12.3880279,8.80198427 C12.6903974,8.43890443 13.0532239,8.07641564 13.5369645,8.04618713 C14.0811621,7.95550161 14.5951311,8.04618713 15.1394132,8.10664415 C15.5270219,8.14785244 15.9109192,8.21859116 16.2877587,8.31824371 C16.4389857,8.31824371 16.4692142,8.56015621 16.5902127,8.59038472 C16.7715837,8.65084173 16.9532925,8.59038472 17.1343258,8.71129875 C17.1343258,8.65084173 17.1040973,8.59038472 17.1343258,8.5299277 C17.2552399,8.40892923 17.4064668,8.56015621 17.5274653,8.49969919 C17.7692934,8.34847221 17.3157813,8.07641564 17.1948673,7.86473165 C17.1980506,7.84183038 17.2086368,7.82059872 17.2250113,7.80427463 C17.4669238,8.01595863 17.6483793,8.25778669 17.9506644,8.40892923 C18.101807,8.46938625 18.4646335,8.56015621 18.4041765,8.37878516 C18.2530339,8.04618713 17.9506644,7.77404612 17.7088364,7.47167661 L17.7088364,7.35118476 C17.6483793,7.35118476 17.6483793,7.32095625 17.6181508,7.29072774 L17.6181508,7.16981371 C17.4971524,7.10935669 17.5274653,6.98835822 17.4669238,6.89775714 C17.3762383,6.74653016 17.4366953,6.53467729 17.3762383,6.35347512 C17.3217157,6.1858058 17.2812432,6.01388935 17.2552399,5.83950604 C17.1646388,5.32553697 17.0441469,4.87202491 16.9831833,4.38828434 C16.9227263,3.81411156 17.3157813,3.36034619 17.5879223,2.84637712 C17.7995219,2.48329727 18.0413499,2.12072405 18.434405,1.87889598 C18.5251749,1.51581614 18.7670874,1.21369993 19.0085778,0.91141485 C19.2499836,0.616306929 19.6512291,0.436540187 19.9418618,0.306675814 C20.203995,0.19023475 20.4721546,0.087863948 20.7451971,0 L0,0 L0,15.9994934 L14.6905451,15.9994934 C15.2661534,15.5851602 15.8410016,15.3882527 16.6445058,14.9923268 C17.0242197,14.8054673 17.8922339,14.4068394 18.1862441,14.1127447 Z M13.3857375,11.9166183 C13.415966,11.7654758 13.6275656,11.7654758 13.7488174,11.7049343 C13.8093588,11.6747058 13.8999599,11.6143332 13.9605013,11.6444773 C14.0209584,11.7352472 14.1116439,11.7049343 14.1721853,11.7654758 C13.9904765,11.9468468 13.748564,11.8561613 13.5369645,11.9468468 C13.476423,11.9468468 13.355509,11.9770753 13.3857375,11.9166183 Z M8.88084543,11.2211937 C9.2527561,10.7399391 9.57678718,10.2235199 9.84832656,9.67928651 C10.2413816,9.46768695 10.5676468,9.15949127 10.8762647,8.83280384 C11.3903182,8.28852182 11.9344314,7.80478125 12.5693989,7.50241174 C12.8270988,7.42162077 13.1047958,7.43232896 13.355509,7.53272468 C13.264739,7.65363871 13.1135965,7.62341021 12.9924292,7.71409573 C12.9591642,7.71820261 12.92582,7.70709821 12.9016592,7.68386722 C12.9249083,7.6597518 12.9360177,7.6264235 12.9318877,7.5931817 C12.6296026,7.92577972 12.2063191,8.07692227 11.9644066,8.46989287 C11.7830355,8.77226239 11.6621215,9.16531743 11.2690664,9.25600296 C11.1481524,9.28623146 11.2992949,9.16531743 11.2388379,9.19554594 C10.3019231,9.76997203 9.63681144,10.4653966 8.91115837,11.2817352 C8.89462641,11.2654192 8.88400408,11.2441449 8.88084543,11.2211937 Z M11.3297768,9.40722993 C11.3059699,9.46120901 11.2628418,9.50433705 11.2088627,9.52814397 C11.1786342,9.52814397 11.1484057,9.52814397 11.1484057,9.49791546 C11.1755071,9.37093786 11.2673921,9.26757122 11.3903182,9.22577445 C11.4205467,9.22569001 11.4205467,9.25600296 11.4205467,9.28623146 C11.3903182,9.34677292 11.3567967,9.3531057 11.3297768,9.40722993 Z M12.7500945,13.9043538 C12.7879223,13.9120376 12.8144356,13.9287561 12.7900332,13.951132 C12.7259063,14.0201305 12.6477739,14.0746274 12.5608708,14.1109716 C12.5455974,14.1145477 12.5300194,14.1166681 12.5143459,14.1173043 C12.4773624,14.1531057 12.4401256,14.1888226 12.4015378,14.2230197 C12.365652,14.2548525 12.1994797,14.2314634 12.2503108,14.1867117 C12.3269798,14.119162 12.3980759,14.0449417 12.473816,13.9756188 C12.5180153,13.9379448 12.5599946,13.8977416 12.599543,13.8552114 C12.6182368,13.8302088 12.6400587,13.8077058 12.6644752,13.7882527 C12.6893841,13.7709431 12.8492237,13.7567576 12.8244836,13.8161169 C12.8065088,13.8506308 12.7810845,13.8807537 12.7500945,13.9043538 Z M12.2753042,13.5715025 C12.162074,13.6512111 12.0493504,13.7325241 11.9300406,13.8017626 C11.8007673,13.8768273 11.6654145,13.9338224 11.5312439,13.9975724 C11.5302811,13.9949621 11.5289749,13.9924917 11.5273598,13.9902264 C11.5158694,13.9741036 11.4942536,13.9689158 11.4766975,13.9780674 C11.3654977,14.041404 11.2632671,14.1193265 11.1727236,14.209763 C11.1586508,14.2231604 11.1445779,14.2367267 11.130505,14.2504618 L11.1281408,14.252826 C11.1113378,14.2692631 11.0970116,14.2835048 11.0827136,14.2979155 L11.0776474,14.3029817 C11.0543427,14.3271307 11.0336556,14.3487466 11.0100132,14.376442 C10.9990858,14.3927298 10.9854322,14.4070118 10.9696522,14.4186606 C10.9509072,14.4311573 10.8988939,14.430904 10.9037068,14.3960315 C10.8858905,14.3994934 10.8679899,14.4089503 10.8500047,14.4175629 C10.8331173,14.4255 10.8181719,14.4344504 10.8028044,14.4434851 C10.7961507,14.4409884 10.7890379,14.4399517 10.7819484,14.4404454 C10.7740986,14.4405635 10.766482,14.4431319 10.7601636,14.4477914 C10.7231801,14.4767534 10.6866188,14.507573 10.6509863,14.5399124 C10.5874441,14.5971292 10.5287562,14.6595169 10.4755259,14.7264341 L10.4669133,14.7375798 C10.4638736,14.7415484 10.4608338,14.745348 10.4578785,14.7493166 C10.4549232,14.7532851 10.4513769,14.7577603 10.4482527,14.7618133 C10.4381202,14.7754077 10.4316186,14.7856246 10.4247791,14.7955882 C10.4167756,14.8039196 10.4080912,14.8080846 10.3987725,14.8093514 C10.3948039,14.8032719 10.3903288,14.7974458 10.3866135,14.7912819 C10.3837427,14.7865534 10.3810407,14.7815716 10.3781698,14.7766742 C10.3689662,14.7610534 10.360438,14.7448414 10.352332,14.7282073 C10.349039,14.7214523 10.3465903,14.7164705 10.3443105,14.7114043 C10.3770721,14.6762784 10.4086516,14.6398016 10.4392179,14.6025648 C10.4412444,14.6002005 10.4432709,14.5976674 10.4452974,14.5953032 C10.4558802,14.5823561 10.4663504,14.5694091 10.476708,14.5564621 C10.4935954,14.5349587 10.5104829,14.5133991 10.5273703,14.4917832 C10.5335342,14.4833395 10.5397826,14.4758246 10.5458621,14.4678031 C10.5790459,14.4244868 10.6107942,14.3824371 10.6404317,14.340134 L10.6426271,14.336841 C10.6470178,14.3305926 10.6510708,14.3241754 10.6557148,14.3178426 C10.6701536,14.29648 10.6840857,14.2748641 10.697089,14.2529104 C10.7088539,14.2331521 10.7198871,14.213028 10.7301884,14.1925379 C10.7309483,14.191018 10.7318771,14.1895826 10.7326371,14.1880627 C10.7376189,14.1780991 10.7389699,14.174215 10.740743,14.1705842 C10.7513821,14.1477862 10.7609517,14.1242845 10.7694517,14.1000792 C10.7703805,14.0974616 10.7712249,14.0948441 10.7721537,14.0922265 C10.7744335,14.0856404 10.7767977,14.0791387 10.7789086,14.0723838 C10.7822861,14.0614914 10.7854103,14.0503457 10.7883656,14.0390311 C10.7889567,14.0365824 10.7893789,14.0340493 10.7900544,14.031685 C10.7936852,14.016993 10.7976537,14.0026387 10.8005246,13.9873555 C10.8018585,13.9803567 10.8005659,13.9731118 10.7968938,13.9670062 C10.8309625,13.9085258 10.871125,13.8538154 10.9167101,13.8037891 C10.9122349,13.8065755 10.9072532,13.8088553 10.9028624,13.8116418 C10.8596306,13.839506 10.8309219,13.8784316 10.7906454,13.9085757 C10.7577149,13.9331469 10.6970046,13.8923637 10.7360146,13.8632329 C10.7601859,13.8438957 10.7831402,13.8230846 10.8047464,13.8009183 C10.8057307,13.7991926 10.8068606,13.7975542 10.8081239,13.7960209 C10.8557268,13.7412346 10.9072269,13.6899603 10.9622218,13.6425986 C10.9970099,13.6172674 11.0271539,13.5959892 11.0551026,13.5715869 C11.0595778,13.5677028 11.0635464,13.5636498 11.0683593,13.5595124 C11.0889563,13.5325379 11.1115354,13.5071364 11.135909,13.4835189 C11.4283994,13.2012454 11.9158552,13.2136577 12.2971735,13.0355797 C12.448316,12.9751227 12.6296871,13.0658927 12.7808296,13.0355797 C12.8756701,13.0263573 12.9709845,13.0475613 13.0529706,13.0961212 C12.7815895,13.2438862 12.5305578,13.410903 12.2829036,13.5662673 L12.2753042,13.5715025 Z M12.6600844,8.95371787 C12.6663844,9.10079676 12.5630553,9.22991299 12.4181719,9.25600296 C12.6600844,9.31654441 12.9019125,9.31654441 13.143825,9.43745844 C13.1135965,9.49791546 13.0531395,9.46768695 13.022911,9.46768695 C13.1740535,9.55837247 13.355509,9.49791546 13.5066515,9.61882949 C13.415966,9.70951501 13.3251961,9.61882949 13.2345105,9.61882949 C14.1717632,9.8909705 15.1694728,10.1025701 15.9555829,10.7072247 C15.2904713,11.0398227 14.5950467,11.1909652 13.8693936,11.3421922 C13.787611,11.347081 13.7056284,11.3368331 13.6275656,11.3119637 C13.6275656,11.3421922 13.6275656,11.4026492 13.5973371,11.4026492 C13.4927149,11.3902645 13.386863,11.4114348 13.295052,11.4631062 C13.1741379,11.5235632 12.9927669,11.5537918 12.9019969,11.4632751 C12.8717684,11.4328777 12.9926825,11.4631062 13.022911,11.4026492 L12.7809985,11.4026492 C12.75077,11.4026492 12.75077,11.3724207 12.75077,11.3421922 C12.5996274,11.3724207 12.4181719,11.4328777 12.2670294,11.4631062 C12.0554298,11.5235632 11.8740588,11.6747058 11.6321463,11.7352472 C11.2995483,11.8561613 11.0274917,12.1282178 10.6646652,12.2492163 C10.6343522,12.2492163 10.6343522,12.2189878 10.6343522,12.1886749 C10.6646652,12.0979893 10.7855792,12.0678453 10.8460362,11.9770753 C10.8460362,11.9468468 10.8460362,11.9166183 10.8158077,11.9166183 C11.0577202,11.5841047 11.3899805,11.4026492 11.6926033,11.1305082 L11.6926033,11.0398227 C11.7832888,10.9189086 11.9344314,10.8584516 11.9949728,10.7072247 C12.0568385,10.5808873 12.1651954,10.4833933 12.2973423,10.4351681 C12.2670294,10.4049396 12.2065724,10.4049396 12.2065724,10.3444826 C12.0856583,10.3444826 11.9646599,10.4049396 11.8434925,10.3142541 C11.896369,10.2626542 11.9617041,10.2256232 12.0331384,10.2067655 C12.0054654,10.2015426 11.9808583,10.1858835 11.9644066,10.1630271 C11.9341781,10.1025701 12.0228371,10.0350203 12.1156335,10.0118845 C12.2365476,9.98165602 12.3876901,9.98165602 12.4787134,9.8909705 C12.2670294,9.86074199 12.0252013,9.95142752 11.8135173,9.83051348 C11.9646599,9.43745844 12.2065724,9.10486041 12.5693989,8.92348937 C12.5996274,8.92348937 12.6600844,8.92348937 12.6600844,8.95371787 Z" id="Gauche" fill="#000091"></path>
                </g>
            </g>
        </g>
    </g>
</svg>