<?xml version="1.0" encoding="UTF-8"?>
<svg width="32px" height="32px" viewBox="0 0 32 32" version="1.1" xmlns="http://www.w3.org/2000/svg" xmlns:xlink="http://www.w3.org/1999/xlink">
    <title>Icône - LG</title>
    <g id="1---Ventilateur" stroke="none" stroke-width="1" fill="none" fill-rule="evenodd">
        <g id="Fiche_Individuelle_v3.8.4_1200_ModifParImport_2" transform="translate(-177, -230)" fill="#161616">
            <g id="2.-Composants/Modale/Thème-clair/Desktop/Défaut/Avec-zone-action/Cas-max/LG-Copy-2" transform="translate(153, 206)">
                <g id="Titre" transform="translate(24, 24)">
                    <g id="Icône---LG" transform="translate(2.6667, 2.6667)">
                        <g id="Icône-LG" transform="translate(0, 0)">
                            <path d="M4.61733333,3.2440258 C7.03674546,1.14757299 10.1319821,-0.00444029073 13.3333333,1.28621792e-05 C20.6973333,1.28621792e-05 26.6666667,5.96935913 26.6666667,13.3333591 C26.6666667,16.1813591 25.7733333,18.8213591 24.2533333,20.9866925 L20,13.3333591 L24,13.3333591 C24.0003511,9.05860522 21.4485958,5.19652497 17.5162395,3.52019112 C13.5838832,1.84385726 9.03055054,2.67709202 5.94666667,5.63735913 L4.61733333,3.2440258 Z M22.0493333,23.4226925 C19.6299212,25.5191453 16.5346845,26.6711586 13.3333333,26.6667054 C5.96933333,26.6667054 4.4408921e-16,20.6973591 4.4408921e-16,13.3333591 C4.4408921e-16,10.4853591 0.893333333,7.84535913 2.41333333,5.6800258 L6.66666667,13.3333591 L2.66666667,13.3333591 C2.66631559,17.608113 5.21807086,21.4701933 9.15042714,23.1465271 C13.0827834,24.822861 17.6361161,23.9896262 20.72,21.0293591 L22.0493333,23.4226925 L22.0493333,23.4226925 Z" id="Couleur-icône"></path>
                        </g>
                    </g>
                </g>
            </g>
        </g>
    </g>
</svg>