<?xml version="1.0" encoding="UTF-8"?>
<svg width="25px" height="24px" viewBox="0 0 25 24" version="1.1" xmlns="http://www.w3.org/2000/svg" xmlns:xlink="http://www.w3.org/1999/xlink">
    <title>Group</title>
    <g id="3---Simulateur" stroke="none" stroke-width="1" fill="none" fill-rule="evenodd">
        <g id="Simulateur/v0.2/2_AucunParams-Copy" transform="translate(-818.000000, -230.000000)">
            <g id="PopIn" transform="translate(544.000000, 180.000000)">
                <g id="Group-46" transform="translate(40.000000, 24.000000)">
                    <g id="Group-41" transform="translate(155.500000, 8.000000)">
                        <g id="Group-38" transform="translate(61.000000, 0.000000)">
                            <g id="Group" transform="translate(18.000000, 18.000000)">
                                <polygon id="Path" points="0 0 24 0 24 24 0 24"></polygon>
                                <g transform="translate(0.500000, 0.000000)">
                                    <polygon id="Path" points="0 0 24 0 24 24 0 24"></polygon>
                                    <path d="M20.083,15.2 L21.285,15.921 C21.4358426,16.0113033 21.5281752,16.1741928 21.5281752,16.35 C21.5281752,16.5258072 21.4358426,16.6886967 21.285,16.779 L12.515,22.041 C12.1980675,22.2314131 11.8019325,22.2314131 11.485,22.041 L2.715,16.779 C2.56415738,16.6886967 2.47182484,16.5258072 2.47182484,16.35 C2.47182484,16.1741928 2.56415738,16.0113033 2.715,15.921 L3.917,15.2 L12,20.05 L20.083,15.2 L20.083,15.2 Z M20.083,10.5 L21.285,11.221 C21.4358426,11.3113033 21.5281752,11.4741928 21.5281752,11.65 C21.5281752,11.8258072 21.4358426,11.9886967 21.285,12.079 L12,17.65 L2.715,12.079 C2.56415738,11.9886967 2.47182484,11.8258072 2.47182484,11.65 C2.47182484,11.4741928 2.56415738,11.3113033 2.715,11.221 L3.917,10.5 L12,15.35 L20.083,10.5 Z M12.514,1.309 L21.285,6.571 C21.4358426,6.66130334 21.5281752,6.82419275 21.5281752,7 C21.5281752,7.17580725 21.4358426,7.33869666 21.285,7.429 L12,13 L2.715,7.429 C2.56415738,7.33869666 2.47182484,7.17580725 2.47182484,7 C2.47182484,6.82419275 2.56415738,6.66130334 2.715,6.571 L11.485,1.309 C11.8019325,1.1185869 12.1980675,1.1185869 12.515,1.309 L12.514,1.309 Z M12,3.332 L5.887,7 L12,10.668 L18.113,7 L12,3.332 Z" id="Shape" fill="#8585F6" fill-rule="nonzero"></path>
                                </g>
                            </g>
                        </g>
                    </g>
                </g>
            </g>
        </g>
    </g>
</svg>