<?xml version="1.0" encoding="UTF-8"?>
<svg width="20px" height="20px" viewBox="0 0 20 20" version="1.1" xmlns="http://www.w3.org/2000/svg" xmlns:xlink="http://www.w3.org/1999/xlink">
    <title>calendar-line</title>
    <g id="5---Temps-Moyens" stroke="none" stroke-width="1" fill="none" fill-rule="evenodd">
        <g id="TempsMoyen_Magistrats_v1.1_1200" transform="translate(-730.000000, -178.000000)" fill="#000091">
            <g id="Group-8" transform="translate(223.000000, 153.000000)">
                <g id="Group-9" transform="translate(382.000000, 15.000000)">
                    <g id="calendar-line" transform="translate(125.000000, 10.000000)">
                        <path d="M10,0 C15.523,0 20,4.477 20,10 C20,15.523 15.523,20 10,20 C4.477,20 0,15.523 0,10 C0,4.477 4.477,0 10,0 Z M10,2 C5.581722,2 2,5.581722 2,10 C2,14.418278 5.581722,18 10,18 C14.418278,18 18,14.418278 18,10 C18,5.581722 14.418278,2 10,2 Z M11,5 L11,10 L15,10 L15,12 L9,12 L9,5 L11,5 Z" id="Couleur-icône"></path>
                    </g>
                </g>
            </g>
        </g>
    </g>
</svg>