<?xml version="1.0" encoding="UTF-8" standalone="no"?>
<!DOCTYPE svg PUBLIC "-//W3C//DTD SVG 1.1//EN"
 "http://www.w3.org/Graphics/SVG/1.1/DTD/svg11.dtd">
<!-- Generated by graphviz version 3.0.0 (20220226.1711)
 -->
<!-- Title: dependencies Pages: 1 -->
<svg width="312pt" height="174pt"
 viewBox="0.00 0.00 312.00 173.80" xmlns="http://www.w3.org/2000/svg" xmlns:xlink="http://www.w3.org/1999/xlink">
<g id="graph0" class="graph" transform="scale(1 1) rotate(0) translate(4 169.8)">
<title>dependencies</title>
<polygon fill="white" stroke="transparent" points="-4,4 -4,-169.8 308,-169.8 308,4 -4,4"/>
<text text-anchor="middle" x="152" y="-8.2" font-family="sans-serif" font-size="14.00">dependencies</text>
<g id="clust1" class="cluster">
<title>cluster_AboutUsModule</title>
<polygon fill="none" stroke="black" stroke-dasharray="1,5" points="8,-32.8 8,-157.8 296,-157.8 296,-32.8 8,-32.8"/>
</g>
<g id="clust2" class="cluster">
<title>cluster_AboutUsModule_declarations</title>
<polygon fill="none" stroke="black" points="178,-40.8 178,-92.8 288,-92.8 288,-40.8 178,-40.8"/>
</g>
<g id="clust4" class="cluster">
<title>cluster_AboutUsModule_imports</title>
<polygon fill="none" stroke="black" points="16,-40.8 16,-92.8 170,-92.8 170,-40.8 16,-40.8"/>
</g>
<!-- AboutUsPage -->
<g id="node1" class="node">
<title>AboutUsPage</title>
<polygon fill="#ffffb3" stroke="black" points="279.77,-84.8 186.23,-84.8 186.23,-48.8 279.77,-48.8 279.77,-84.8"/>
<text text-anchor="middle" x="233" y="-62.6" font-family="Times,serif" font-size="14.00">AboutUsPage</text>
</g>
<!-- AboutUsModule -->
<g id="node2" class="node">
<title>AboutUsModule</title>
<polygon fill="#8dd3c7" stroke="black" points="218.11,-149.8 215.11,-153.8 194.11,-153.8 191.11,-149.8 107.89,-149.8 107.89,-113.8 218.11,-113.8 218.11,-149.8"/>
<text text-anchor="middle" x="163" y="-127.6" font-family="Times,serif" font-size="14.00">AboutUsModule</text>
</g>
<!-- AboutUsPage&#45;&gt;AboutUsModule -->
<g id="edge1" class="edge">
<title>AboutUsPage&#45;&gt;AboutUsModule</title>
<path fill="none" stroke="black" d="M202.08,-84.91C202.08,-84.91 202.08,-103.79 202.08,-103.79"/>
<polygon fill="black" stroke="black" points="198.58,-103.79 202.08,-113.79 205.58,-103.79 198.58,-103.79"/>
</g>
<!-- AboutUsPageModule -->
<g id="node3" class="node">
<title>AboutUsPageModule</title>
<polygon fill="#8dd3c7" stroke="black" points="161.82,-84.8 158.82,-88.8 137.82,-88.8 134.82,-84.8 24.18,-84.8 24.18,-48.8 161.82,-48.8 161.82,-84.8"/>
<text text-anchor="middle" x="93" y="-62.6" font-family="Times,serif" font-size="14.00">AboutUsPageModule</text>
</g>
<!-- AboutUsPageModule&#45;&gt;AboutUsModule -->
<g id="edge2" class="edge">
<title>AboutUsPageModule&#45;&gt;AboutUsModule</title>
<path fill="none" stroke="black" d="M134.8,-84.91C134.8,-84.91 134.8,-103.79 134.8,-103.79"/>
<polygon fill="black" stroke="black" points="131.3,-103.79 134.8,-113.79 138.3,-103.79 131.3,-103.79"/>
</g>
</g>
</svg>
