<?xml version="1.0" encoding="UTF-8" standalone="no"?>
<!DOCTYPE svg PUBLIC "-//W3C//DTD SVG 1.1//EN"
 "http://www.w3.org/Graphics/SVG/1.1/DTD/svg11.dtd">
<!-- Generated by graphviz version 3.0.0 (20220226.1711)
 -->
<!-- Title: dependencies Pages: 1 -->
<svg width="5007pt" height="247pt"
 viewBox="0.00 0.00 5007.00 246.80" xmlns="http://www.w3.org/2000/svg" xmlns:xlink="http://www.w3.org/1999/xlink">
<g id="graph0" class="graph" transform="scale(1 1) rotate(0) translate(4 242.8)">
<title>dependencies</title>
<polygon fill="white" stroke="transparent" points="-4,4 -4,-242.8 5003,-242.8 5003,4 -4,4"/>
<text text-anchor="middle" x="2499.5" y="-8.2" font-family="sans-serif" font-size="14.00">dependencies</text>
<g id="clust1" class="cluster">
<title>cluster_ComponentsModule</title>
<polygon fill="none" stroke="black" stroke-dasharray="1,5" points="8,-32.8 8,-230.8 4991,-230.8 4991,-32.8 8,-32.8"/>
</g>
<g id="clust2" class="cluster">
<title>cluster_ComponentsModule_declarations</title>
<polygon fill="none" stroke="black" points="146,-40.8 146,-92.8 4983,-92.8 4983,-40.8 146,-40.8"/>
</g>
<g id="clust32" class="cluster">
<title>cluster_ComponentsModule_exports</title>
<polygon fill="none" stroke="black" points="31,-170.8 31,-222.8 4968,-222.8 4968,-170.8 31,-170.8"/>
</g>
<g id="clust31" class="cluster">
<title>cluster_ComponentsModule_imports</title>
<polygon fill="none" stroke="black" points="16,-40.8 16,-92.8 138,-92.8 138,-40.8 16,-40.8"/>
</g>
<!-- CoveragePreviewComponent -->
<g id="node1" class="node">
<title>CoveragePreviewComponent</title>
<polygon fill="#ffffb3" stroke="black" points="4975.35,-84.8 4794.65,-84.8 4794.65,-48.8 4975.35,-48.8 4975.35,-84.8"/>
<text text-anchor="middle" x="4885" y="-62.6" font-family="Times,serif" font-size="14.00">CoveragePreviewComponent</text>
</g>
<!-- ComponentsModule -->
<g id="node29" class="node">
<title>ComponentsModule</title>
<polygon fill="#8dd3c7" stroke="black" points="2514.33,-149.8 2511.33,-153.8 2490.33,-153.8 2487.33,-149.8 2383.67,-149.8 2383.67,-113.8 2514.33,-113.8 2514.33,-149.8"/>
<text text-anchor="middle" x="2449" y="-127.6" font-family="Times,serif" font-size="14.00">ComponentsModule</text>
</g>
<!-- CoveragePreviewComponent&#45;&gt;ComponentsModule -->
<g id="edge1" class="edge">
<title>CoveragePreviewComponent&#45;&gt;ComponentsModule</title>
<path fill="none" stroke="black" d="M4877.38,-84.91C4877.38,-104.14 4877.38,-131.8 4877.38,-131.8 4877.38,-131.8 2524.27,-131.8 2524.27,-131.8"/>
<polygon fill="black" stroke="black" points="2524.27,-128.3 2514.27,-131.8 2524.27,-135.3 2524.27,-128.3"/>
</g>
<!-- DateSelectBlueComponent -->
<g id="node2" class="node">
<title>DateSelectBlueComponent</title>
<polygon fill="#ffffb3" stroke="black" points="4776.41,-84.8 4607.59,-84.8 4607.59,-48.8 4776.41,-48.8 4776.41,-84.8"/>
<text text-anchor="middle" x="4692" y="-62.6" font-family="Times,serif" font-size="14.00">DateSelectBlueComponent</text>
</g>
<!-- DateSelectBlueComponent&#45;&gt;ComponentsModule -->
<g id="edge2" class="edge">
<title>DateSelectBlueComponent&#45;&gt;ComponentsModule</title>
<path fill="none" stroke="black" d="M4682.88,-84.97C4682.88,-103.89 4682.88,-130.8 4682.88,-130.8 4682.88,-130.8 2524.35,-130.8 2524.35,-130.8"/>
<polygon fill="black" stroke="black" points="2524.35,-127.3 2514.35,-130.8 2524.34,-134.3 2524.35,-127.3"/>
</g>
<!-- DateSelectComponent -->
<g id="node3" class="node">
<title>DateSelectComponent</title>
<polygon fill="#ffffb3" stroke="black" points="4589.97,-84.8 4448.03,-84.8 4448.03,-48.8 4589.97,-48.8 4589.97,-84.8"/>
<text text-anchor="middle" x="4519" y="-62.6" font-family="Times,serif" font-size="14.00">DateSelectComponent</text>
</g>
<!-- DateSelectComponent&#45;&gt;ComponentsModule -->
<g id="edge3" class="edge">
<title>DateSelectComponent&#45;&gt;ComponentsModule</title>
<path fill="none" stroke="black" d="M4507.88,-85.02C4507.88,-103.63 4507.88,-129.8 4507.88,-129.8 4507.88,-129.8 2524.31,-129.8 2524.31,-129.8"/>
<polygon fill="black" stroke="black" points="2524.31,-126.3 2514.31,-129.8 2524.31,-133.3 2524.31,-126.3"/>
</g>
<!-- DialWidgetComponent -->
<g id="node4" class="node">
<title>DialWidgetComponent</title>
<polygon fill="#ffffb3" stroke="black" points="4430.14,-84.8 4283.86,-84.8 4283.86,-48.8 4430.14,-48.8 4430.14,-84.8"/>
<text text-anchor="middle" x="4357" y="-62.6" font-family="Times,serif" font-size="14.00">DialWidgetComponent</text>
</g>
<!-- DialWidgetComponent&#45;&gt;ComponentsModule -->
<g id="edge4" class="edge">
<title>DialWidgetComponent&#45;&gt;ComponentsModule</title>
<path fill="none" stroke="black" d="M4343.88,-85.07C4343.88,-103.36 4343.88,-128.8 4343.88,-128.8 4343.88,-128.8 2524.23,-128.8 2524.23,-128.8"/>
<polygon fill="black" stroke="black" points="2524.23,-125.3 2514.23,-128.8 2524.23,-132.3 2524.23,-125.3"/>
</g>
<!-- DtesChartComponent -->
<g id="node5" class="node">
<title>DtesChartComponent</title>
<polygon fill="#ffffb3" stroke="black" points="4266.1,-84.8 4127.9,-84.8 4127.9,-48.8 4266.1,-48.8 4266.1,-84.8"/>
<text text-anchor="middle" x="4197" y="-62.6" font-family="Times,serif" font-size="14.00">DtesChartComponent</text>
</g>
<!-- DtesChartComponent&#45;&gt;ComponentsModule -->
<g id="edge5" class="edge">
<title>DtesChartComponent&#45;&gt;ComponentsModule</title>
<path fill="none" stroke="black" d="M4181.88,-84.8C4181.88,-102.48 4181.88,-126.8 4181.88,-126.8 4181.88,-126.8 2524.29,-126.8 2524.29,-126.8"/>
<polygon fill="black" stroke="black" points="2524.29,-123.3 2514.29,-126.8 2524.29,-130.3 2524.29,-123.3"/>
</g>
<!-- EtpChartComponent -->
<g id="node6" class="node">
<title>EtpChartComponent</title>
<polygon fill="#ffffb3" stroke="black" points="4109.88,-84.8 3978.12,-84.8 3978.12,-48.8 4109.88,-48.8 4109.88,-84.8"/>
<text text-anchor="middle" x="4044" y="-62.6" font-family="Times,serif" font-size="14.00">EtpChartComponent</text>
</g>
<!-- EtpChartComponent&#45;&gt;ComponentsModule -->
<g id="edge6" class="edge">
<title>EtpChartComponent&#45;&gt;ComponentsModule</title>
<path fill="none" stroke="black" d="M4027.38,-84.82C4027.38,-102.17 4027.38,-125.8 4027.38,-125.8 4027.38,-125.8 2524.31,-125.8 2524.31,-125.8"/>
<polygon fill="black" stroke="black" points="2524.31,-122.3 2514.31,-125.8 2524.31,-129.3 2524.31,-122.3"/>
</g>
<!-- EtpPreviewComponent -->
<g id="node7" class="node">
<title>EtpPreviewComponent</title>
<polygon fill="#ffffb3" stroke="black" points="3960.15,-84.8 3813.85,-84.8 3813.85,-48.8 3960.15,-48.8 3960.15,-84.8"/>
<text text-anchor="middle" x="3887" y="-62.6" font-family="Times,serif" font-size="14.00">EtpPreviewComponent</text>
</g>
<!-- EtpPreviewComponent&#45;&gt;ComponentsModule -->
<g id="edge7" class="edge">
<title>EtpPreviewComponent&#45;&gt;ComponentsModule</title>
<path fill="none" stroke="black" d="M3868.38,-84.83C3868.38,-101.86 3868.38,-124.8 3868.38,-124.8 3868.38,-124.8 2524.61,-124.8 2524.61,-124.8"/>
<polygon fill="black" stroke="black" points="2524.61,-121.3 2514.61,-124.8 2524.61,-128.3 2524.61,-121.3"/>
</g>
<!-- FiguresWidgetComponent -->
<g id="node8" class="node">
<title>FiguresWidgetComponent</title>
<polygon fill="#ffffb3" stroke="black" points="3795.04,-84.8 3630.96,-84.8 3630.96,-48.8 3795.04,-48.8 3795.04,-84.8"/>
<text text-anchor="middle" x="3713" y="-62.6" font-family="Times,serif" font-size="14.00">FiguresWidgetComponent</text>
</g>
<!-- FiguresWidgetComponent&#45;&gt;ComponentsModule -->
<g id="edge8" class="edge">
<title>FiguresWidgetComponent&#45;&gt;ComponentsModule</title>
<path fill="none" stroke="black" d="M3692.88,-84.83C3692.88,-101.2 3692.88,-122.8 3692.88,-122.8 3692.88,-122.8 2524.56,-122.8 2524.56,-122.8"/>
<polygon fill="black" stroke="black" points="2524.56,-119.3 2514.56,-122.8 2524.56,-126.3 2524.56,-119.3"/>
</g>
<!-- FooterNoConnectedComponent -->
<g id="node9" class="node">
<title>FooterNoConnectedComponent</title>
<polygon fill="#ffffb3" stroke="black" points="3612.36,-84.8 3417.64,-84.8 3417.64,-48.8 3612.36,-48.8 3612.36,-84.8"/>
<text text-anchor="middle" x="3515" y="-62.6" font-family="Times,serif" font-size="14.00">FooterNoConnectedComponent</text>
</g>
<!-- FooterNoConnectedComponent&#45;&gt;ComponentsModule -->
<g id="edge9" class="edge">
<title>FooterNoConnectedComponent&#45;&gt;ComponentsModule</title>
<path fill="none" stroke="black" d="M3493.38,-84.81C3493.38,-100.85 3493.38,-121.8 3493.38,-121.8 3493.38,-121.8 2524.33,-121.8 2524.33,-121.8"/>
<polygon fill="black" stroke="black" points="2524.33,-118.3 2514.33,-121.8 2524.33,-125.3 2524.33,-118.3"/>
</g>
<!-- InOutChartComponent -->
<g id="node10" class="node">
<title>InOutChartComponent</title>
<polygon fill="#ffffb3" stroke="black" points="3399.6,-84.8 3254.4,-84.8 3254.4,-48.8 3399.6,-48.8 3399.6,-84.8"/>
<text text-anchor="middle" x="3327" y="-62.6" font-family="Times,serif" font-size="14.00">InOutChartComponent</text>
</g>
<!-- InOutChartComponent&#45;&gt;ComponentsModule -->
<g id="edge10" class="edge">
<title>InOutChartComponent&#45;&gt;ComponentsModule</title>
<path fill="none" stroke="black" d="M3303.88,-85.08C3303.88,-100.75 3303.88,-120.8 3303.88,-120.8 3303.88,-120.8 2524.31,-120.8 2524.31,-120.8"/>
<polygon fill="black" stroke="black" points="2524.31,-117.3 2514.31,-120.8 2524.31,-124.3 2524.31,-117.3"/>
</g>
<!-- InputButtonComponent -->
<g id="node11" class="node">
<title>InputButtonComponent</title>
<polygon fill="#ffffb3" stroke="black" points="3236.5,-84.8 3087.5,-84.8 3087.5,-48.8 3236.5,-48.8 3236.5,-84.8"/>
<text text-anchor="middle" x="3162" y="-62.6" font-family="Times,serif" font-size="14.00">InputButtonComponent</text>
</g>
<!-- InputButtonComponent&#45;&gt;ComponentsModule -->
<g id="edge11" class="edge">
<title>InputButtonComponent&#45;&gt;ComponentsModule</title>
<path fill="none" stroke="black" d="M3136.88,-85.04C3136.88,-100.37 3136.88,-119.8 3136.88,-119.8 3136.88,-119.8 2524.33,-119.8 2524.33,-119.8"/>
<polygon fill="black" stroke="black" points="2524.33,-116.3 2514.33,-119.8 2524.33,-123.3 2524.33,-116.3"/>
</g>
<!-- InputPercentageComponent -->
<g id="node12" class="node">
<title>InputPercentageComponent</title>
<polygon fill="#ffffb3" stroke="black" points="3069.29,-84.8 2896.71,-84.8 2896.71,-48.8 3069.29,-48.8 3069.29,-84.8"/>
<text text-anchor="middle" x="2983" y="-62.6" font-family="Times,serif" font-size="14.00">InputPercentageComponent</text>
</g>
<!-- InputPercentageComponent&#45;&gt;ComponentsModule -->
<g id="edge12" class="edge">
<title>InputPercentageComponent&#45;&gt;ComponentsModule</title>
<path fill="none" stroke="black" d="M2956.38,-84.92C2956.38,-99.58 2956.38,-117.8 2956.38,-117.8 2956.38,-117.8 2524.29,-117.8 2524.29,-117.8"/>
<polygon fill="black" stroke="black" points="2524.29,-114.3 2514.29,-117.8 2524.29,-121.3 2524.29,-114.3"/>
</g>
<!-- LegendLabelComponent -->
<g id="node13" class="node">
<title>LegendLabelComponent</title>
<polygon fill="#ffffb3" stroke="black" points="2878.68,-84.8 2723.32,-84.8 2723.32,-48.8 2878.68,-48.8 2878.68,-84.8"/>
<text text-anchor="middle" x="2801" y="-62.6" font-family="Times,serif" font-size="14.00">LegendLabelComponent</text>
</g>
<!-- LegendLabelComponent&#45;&gt;ComponentsModule -->
<g id="edge13" class="edge">
<title>LegendLabelComponent&#45;&gt;ComponentsModule</title>
<path fill="none" stroke="black" d="M2772.88,-84.85C2772.88,-99.17 2772.88,-116.8 2772.88,-116.8 2772.88,-116.8 2524.54,-116.8 2524.54,-116.8"/>
<polygon fill="black" stroke="black" points="2524.54,-113.3 2514.54,-116.8 2524.54,-120.3 2524.54,-113.3"/>
</g>
<!-- ListSelectionComponent -->
<g id="node14" class="node">
<title>ListSelectionComponent</title>
<polygon fill="#ffffb3" stroke="black" points="2705.71,-84.8 2550.29,-84.8 2550.29,-48.8 2705.71,-48.8 2705.71,-84.8"/>
<text text-anchor="middle" x="2628" y="-62.6" font-family="Times,serif" font-size="14.00">ListSelectionComponent</text>
</g>
<!-- ListSelectionComponent&#45;&gt;ComponentsModule -->
<g id="edge14" class="edge">
<title>ListSelectionComponent&#45;&gt;ComponentsModule</title>
<path fill="none" stroke="black" d="M2597.88,-85.05C2597.88,-98.98 2597.88,-115.8 2597.88,-115.8 2597.88,-115.8 2524.3,-115.8 2524.3,-115.8"/>
<polygon fill="black" stroke="black" points="2524.3,-112.3 2514.3,-115.8 2524.3,-119.3 2524.3,-112.3"/>
</g>
<!-- LoadersWidgetComponent -->
<g id="node15" class="node">
<title>LoadersWidgetComponent</title>
<polygon fill="#ffffb3" stroke="black" points="2532.63,-84.8 2365.37,-84.8 2365.37,-48.8 2532.63,-48.8 2532.63,-84.8"/>
<text text-anchor="middle" x="2449" y="-62.6" font-family="Times,serif" font-size="14.00">LoadersWidgetComponent</text>
</g>
<!-- LoadersWidgetComponent&#45;&gt;ComponentsModule -->
<g id="edge15" class="edge">
<title>LoadersWidgetComponent&#45;&gt;ComponentsModule</title>
<path fill="none" stroke="black" d="M2449,-84.91C2449,-84.91 2449,-103.79 2449,-103.79"/>
<polygon fill="black" stroke="black" points="2445.5,-103.79 2449,-113.79 2452.5,-103.79 2445.5,-103.79"/>
</g>
<!-- NewsComponent -->
<g id="node16" class="node">
<title>NewsComponent</title>
<polygon fill="#ffffb3" stroke="black" points="2347.71,-84.8 2234.29,-84.8 2234.29,-48.8 2347.71,-48.8 2347.71,-84.8"/>
<text text-anchor="middle" x="2291" y="-62.6" font-family="Times,serif" font-size="14.00">NewsComponent</text>
</g>
<!-- NewsComponent&#45;&gt;ComponentsModule -->
<g id="edge16" class="edge">
<title>NewsComponent&#45;&gt;ComponentsModule</title>
<path fill="none" stroke="black" d="M2322.52,-85.05C2322.52,-98.98 2322.52,-115.8 2322.52,-115.8 2322.52,-115.8 2373.54,-115.8 2373.54,-115.8"/>
<polygon fill="black" stroke="black" points="2373.54,-119.3 2383.54,-115.8 2373.54,-112.3 2373.54,-119.3"/>
</g>
<!-- OptionsBackupPanelComponent -->
<g id="node17" class="node">
<title>OptionsBackupPanelComponent</title>
<polygon fill="#ffffb3" stroke="black" points="2216.54,-84.8 2017.46,-84.8 2017.46,-48.8 2216.54,-48.8 2216.54,-84.8"/>
<text text-anchor="middle" x="2117" y="-62.6" font-family="Times,serif" font-size="14.00">OptionsBackupPanelComponent</text>
</g>
<!-- OptionsBackupPanelComponent&#45;&gt;ComponentsModule -->
<g id="edge17" class="edge">
<title>OptionsBackupPanelComponent&#45;&gt;ComponentsModule</title>
<path fill="none" stroke="black" d="M2189.71,-84.85C2189.71,-99.17 2189.71,-116.8 2189.71,-116.8 2189.71,-116.8 2373.57,-116.8 2373.57,-116.8"/>
<polygon fill="black" stroke="black" points="2373.57,-120.3 2383.57,-116.8 2373.57,-113.3 2373.57,-120.3"/>
</g>
<!-- PanelActivitiesComponent -->
<g id="node18" class="node">
<title>PanelActivitiesComponent</title>
<polygon fill="#ffffb3" stroke="black" points="1999.37,-84.8 1832.63,-84.8 1832.63,-48.8 1999.37,-48.8 1999.37,-84.8"/>
<text text-anchor="middle" x="1916" y="-62.6" font-family="Times,serif" font-size="14.00">PanelActivitiesComponent</text>
</g>
<!-- PanelActivitiesComponent&#45;&gt;ComponentsModule -->
<g id="edge18" class="edge">
<title>PanelActivitiesComponent&#45;&gt;ComponentsModule</title>
<path fill="none" stroke="black" d="M1970.46,-84.92C1970.46,-99.58 1970.46,-117.8 1970.46,-117.8 1970.46,-117.8 2373.46,-117.8 2373.46,-117.8"/>
<polygon fill="black" stroke="black" points="2373.46,-121.3 2383.46,-117.8 2373.46,-114.3 2373.46,-121.3"/>
</g>
<!-- PopupComponent -->
<g id="node19" class="node">
<title>PopupComponent</title>
<polygon fill="#ffffb3" stroke="black" points="1814.62,-84.8 1697.38,-84.8 1697.38,-48.8 1814.62,-48.8 1814.62,-84.8"/>
<text text-anchor="middle" x="1756" y="-62.6" font-family="Times,serif" font-size="14.00">PopupComponent</text>
</g>
<!-- PopupComponent&#45;&gt;ComponentsModule -->
<g id="edge19" class="edge">
<title>PopupComponent&#45;&gt;ComponentsModule</title>
<path fill="none" stroke="black" d="M1783.69,-85.04C1783.69,-100.37 1783.69,-119.8 1783.69,-119.8 1783.69,-119.8 2373.69,-119.8 2373.69,-119.8"/>
<polygon fill="black" stroke="black" points="2373.69,-123.3 2383.69,-119.8 2373.69,-116.3 2373.69,-123.3"/>
</g>
<!-- ProgressionBarComponent -->
<g id="node20" class="node">
<title>ProgressionBarComponent</title>
<polygon fill="#ffffb3" stroke="black" points="1679.66,-84.8 1512.34,-84.8 1512.34,-48.8 1679.66,-48.8 1679.66,-84.8"/>
<text text-anchor="middle" x="1596" y="-62.6" font-family="Times,serif" font-size="14.00">ProgressionBarComponent</text>
</g>
<!-- ProgressionBarComponent&#45;&gt;ComponentsModule -->
<g id="edge20" class="edge">
<title>ProgressionBarComponent&#45;&gt;ComponentsModule</title>
<path fill="none" stroke="black" d="M1647.26,-85.08C1647.26,-100.75 1647.26,-120.8 1647.26,-120.8 1647.26,-120.8 2373.73,-120.8 2373.73,-120.8"/>
<polygon fill="black" stroke="black" points="2373.73,-124.3 2383.73,-120.8 2373.73,-117.3 2373.73,-124.3"/>
</g>
<!-- RadioButtonComponent -->
<g id="node21" class="node">
<title>RadioButtonComponent</title>
<polygon fill="#ffffb3" stroke="black" points="1494.39,-84.8 1341.61,-84.8 1341.61,-48.8 1494.39,-48.8 1494.39,-84.8"/>
<text text-anchor="middle" x="1418" y="-62.6" font-family="Times,serif" font-size="14.00">RadioButtonComponent</text>
</g>
<!-- RadioButtonComponent&#45;&gt;ComponentsModule -->
<g id="edge21" class="edge">
<title>RadioButtonComponent&#45;&gt;ComponentsModule</title>
<path fill="none" stroke="black" d="M1459.93,-84.81C1459.93,-100.85 1459.93,-121.8 1459.93,-121.8 1459.93,-121.8 2373.72,-121.8 2373.72,-121.8"/>
<polygon fill="black" stroke="black" points="2373.72,-125.3 2383.72,-121.8 2373.72,-118.3 2373.72,-125.3"/>
</g>
<!-- SelectCheckAllComponent -->
<g id="node22" class="node">
<title>SelectCheckAllComponent</title>
<polygon fill="#ffffb3" stroke="black" points="1323.69,-84.8 1154.31,-84.8 1154.31,-48.8 1323.69,-48.8 1323.69,-84.8"/>
<text text-anchor="middle" x="1239" y="-62.6" font-family="Times,serif" font-size="14.00">SelectCheckAllComponent</text>
</g>
<!-- SelectCheckAllComponent&#45;&gt;ComponentsModule -->
<g id="edge22" class="edge">
<title>SelectCheckAllComponent&#45;&gt;ComponentsModule</title>
<path fill="none" stroke="black" d="M1287.2,-84.83C1287.2,-101.2 1287.2,-122.8 1287.2,-122.8 1287.2,-122.8 2373.63,-122.8 2373.63,-122.8"/>
<polygon fill="black" stroke="black" points="2373.63,-126.3 2383.63,-122.8 2373.63,-119.3 2373.63,-126.3"/>
</g>
<!-- SelectComponent -->
<g id="node23" class="node">
<title>SelectComponent</title>
<polygon fill="#ffffb3" stroke="black" points="1136.54,-84.8 1021.46,-84.8 1021.46,-48.8 1136.54,-48.8 1136.54,-84.8"/>
<text text-anchor="middle" x="1079" y="-62.6" font-family="Times,serif" font-size="14.00">SelectComponent</text>
</g>
<!-- SelectComponent&#45;&gt;ComponentsModule -->
<g id="edge23" class="edge">
<title>SelectComponent&#45;&gt;ComponentsModule</title>
<path fill="none" stroke="black" d="M1098.21,-84.83C1098.21,-101.86 1098.21,-124.8 1098.21,-124.8 1098.21,-124.8 2373.39,-124.8 2373.39,-124.8"/>
<polygon fill="black" stroke="black" points="2373.39,-128.3 2383.39,-124.8 2373.39,-121.3 2373.39,-128.3"/>
</g>
<!-- SpeedometerComponent -->
<g id="node24" class="node">
<title>SpeedometerComponent</title>
<polygon fill="#ffffb3" stroke="black" points="1003.41,-84.8 848.59,-84.8 848.59,-48.8 1003.41,-48.8 1003.41,-84.8"/>
<text text-anchor="middle" x="926" y="-62.6" font-family="Times,serif" font-size="14.00">SpeedometerComponent</text>
</g>
<!-- SpeedometerComponent&#45;&gt;ComponentsModule -->
<g id="edge24" class="edge">
<title>SpeedometerComponent&#45;&gt;ComponentsModule</title>
<path fill="none" stroke="black" d="M962.84,-84.82C962.84,-102.17 962.84,-125.8 962.84,-125.8 962.84,-125.8 2373.71,-125.8 2373.71,-125.8"/>
<polygon fill="black" stroke="black" points="2373.71,-129.3 2383.71,-125.8 2373.71,-122.3 2373.71,-129.3"/>
</g>
<!-- TimeSelectorComponent -->
<g id="node25" class="node">
<title>TimeSelectorComponent</title>
<polygon fill="#ffffb3" stroke="black" points="830.25,-84.8 673.75,-84.8 673.75,-48.8 830.25,-48.8 830.25,-84.8"/>
<text text-anchor="middle" x="752" y="-62.6" font-family="Times,serif" font-size="14.00">TimeSelectorComponent</text>
</g>
<!-- TimeSelectorComponent&#45;&gt;ComponentsModule -->
<g id="edge25" class="edge">
<title>TimeSelectorComponent&#45;&gt;ComponentsModule</title>
<path fill="none" stroke="black" d="M788.71,-84.8C788.71,-102.48 788.71,-126.8 788.71,-126.8 788.71,-126.8 2373.66,-126.8 2373.66,-126.8"/>
<polygon fill="black" stroke="black" points="2373.66,-130.3 2383.66,-126.8 2373.66,-123.3 2373.66,-130.3"/>
</g>
<!-- TooltipsComponent -->
<g id="node26" class="node">
<title>TooltipsComponent</title>
<polygon fill="#ffffb3" stroke="black" points="656,-84.8 528,-84.8 528,-48.8 656,-48.8 656,-84.8"/>
<text text-anchor="middle" x="592" y="-62.6" font-family="Times,serif" font-size="14.00">TooltipsComponent</text>
</g>
<!-- TooltipsComponent&#45;&gt;ComponentsModule -->
<g id="edge26" class="edge">
<title>TooltipsComponent&#45;&gt;ComponentsModule</title>
<path fill="none" stroke="black" d="M612.44,-85.07C612.44,-103.36 612.44,-128.8 612.44,-128.8 612.44,-128.8 2373.64,-128.8 2373.64,-128.8"/>
<polygon fill="black" stroke="black" points="2373.64,-132.3 2383.64,-128.8 2373.64,-125.3 2373.64,-132.3"/>
</g>
<!-- WrapperComponent -->
<g id="node27" class="node">
<title>WrapperComponent</title>
<polygon fill="#ffffb3" stroke="black" points="510.3,-84.8 379.7,-84.8 379.7,-48.8 510.3,-48.8 510.3,-84.8"/>
<text text-anchor="middle" x="445" y="-62.6" font-family="Times,serif" font-size="14.00">WrapperComponent</text>
</g>
<!-- WrapperComponent&#45;&gt;ComponentsModule -->
<g id="edge27" class="edge">
<title>WrapperComponent&#45;&gt;ComponentsModule</title>
<path fill="none" stroke="black" d="M464.7,-85.02C464.7,-103.63 464.7,-129.8 464.7,-129.8 464.7,-129.8 2373.83,-129.8 2373.83,-129.8"/>
<polygon fill="black" stroke="black" points="2373.83,-133.3 2383.83,-129.8 2373.83,-126.3 2373.83,-133.3"/>
</g>
<!-- WrapperNoConnectedComponent -->
<g id="node28" class="node">
<title>WrapperNoConnectedComponent</title>
<polygon fill="#ffffb3" stroke="black" points="361.78,-84.8 154.22,-84.8 154.22,-48.8 361.78,-48.8 361.78,-84.8"/>
<text text-anchor="middle" x="258" y="-62.6" font-family="Times,serif" font-size="14.00">WrapperNoConnectedComponent</text>
</g>
<!-- WrapperNoConnectedComponent&#45;&gt;ComponentsModule -->
<g id="edge28" class="edge">
<title>WrapperNoConnectedComponent&#45;&gt;ComponentsModule</title>
<path fill="none" stroke="black" d="M314.37,-84.97C314.37,-103.89 314.37,-130.8 314.37,-130.8 314.37,-130.8 2373.66,-130.8 2373.66,-130.8"/>
<polygon fill="black" stroke="black" points="2373.66,-134.3 2383.66,-130.8 2373.66,-127.3 2373.66,-134.3"/>
</g>
<!-- CoveragePreviewComponent  -->
<g id="node31" class="node">
<title>CoveragePreviewComponent </title>
<polygon fill="#fb8072" stroke="black" points="4960.35,-214.8 4775.65,-214.8 4775.65,-178.8 4960.35,-178.8 4960.35,-214.8"/>
<text text-anchor="middle" x="4868" y="-192.6" font-family="Times,serif" font-size="14.00">CoveragePreviewComponent </text>
</g>
<!-- ComponentsModule&#45;&gt;CoveragePreviewComponent  -->
<g id="edge30" class="edge">
<title>ComponentsModule&#45;&gt;CoveragePreviewComponent </title>
<path fill="none" stroke="black" stroke-dasharray="5,2" d="M2514.23,-133.8C2892.3,-133.8 4785.39,-133.8 4785.39,-133.8 4785.39,-133.8 4785.39,-168.58 4785.39,-168.58"/>
<polygon fill="black" stroke="black" points="4781.89,-168.58 4785.39,-178.58 4788.89,-168.58 4781.89,-168.58"/>
</g>
<!-- DateSelectBlueComponent  -->
<g id="node32" class="node">
<title>DateSelectBlueComponent </title>
<polygon fill="#fb8072" stroke="black" points="4757.91,-214.8 4586.09,-214.8 4586.09,-178.8 4757.91,-178.8 4757.91,-214.8"/>
<text text-anchor="middle" x="4672" y="-192.6" font-family="Times,serif" font-size="14.00">DateSelectBlueComponent </text>
</g>
<!-- ComponentsModule&#45;&gt;DateSelectBlueComponent  -->
<g id="edge31" class="edge">
<title>ComponentsModule&#45;&gt;DateSelectBlueComponent </title>
<path fill="none" stroke="black" stroke-dasharray="5,2" d="M2514.22,-134.8C2873.88,-134.8 4598.89,-134.8 4598.89,-134.8 4598.89,-134.8 4598.89,-168.53 4598.89,-168.53"/>
<polygon fill="black" stroke="black" points="4595.39,-168.53 4598.89,-178.53 4602.39,-168.53 4595.39,-168.53"/>
</g>
<!-- DateSelectComponent  -->
<g id="node33" class="node">
<title>DateSelectComponent </title>
<polygon fill="#fb8072" stroke="black" points="4567.97,-214.8 4422.03,-214.8 4422.03,-178.8 4567.97,-178.8 4567.97,-214.8"/>
<text text-anchor="middle" x="4495" y="-192.6" font-family="Times,serif" font-size="14.00">DateSelectComponent </text>
</g>
<!-- ComponentsModule&#45;&gt;DateSelectComponent  -->
<g id="edge32" class="edge">
<title>ComponentsModule&#45;&gt;DateSelectComponent </title>
<path fill="none" stroke="black" stroke-dasharray="5,2" d="M2514.22,-135.8C2856.16,-135.8 4426.29,-135.8 4426.29,-135.8 4426.29,-135.8 4426.29,-168.5 4426.29,-168.5"/>
<polygon fill="black" stroke="black" points="4422.79,-168.5 4426.29,-178.5 4429.79,-168.5 4422.79,-168.5"/>
</g>
<!-- DialWidgetComponent  -->
<g id="node34" class="node">
<title>DialWidgetComponent </title>
<polygon fill="#fb8072" stroke="black" points="4404.14,-214.8 4253.86,-214.8 4253.86,-178.8 4404.14,-178.8 4404.14,-214.8"/>
<text text-anchor="middle" x="4329" y="-192.6" font-family="Times,serif" font-size="14.00">DialWidgetComponent </text>
</g>
<!-- ComponentsModule&#45;&gt;DialWidgetComponent  -->
<g id="edge33" class="edge">
<title>ComponentsModule&#45;&gt;DialWidgetComponent </title>
<path fill="none" stroke="black" stroke-dasharray="5,2" d="M2514.26,-137.8C2838.41,-137.8 4259.99,-137.8 4259.99,-137.8 4259.99,-137.8 4259.99,-168.78 4259.99,-168.78"/>
<polygon fill="black" stroke="black" points="4256.49,-168.78 4259.99,-178.78 4263.49,-168.78 4256.49,-168.78"/>
</g>
<!-- DtesChartComponent  -->
<g id="node35" class="node">
<title>DtesChartComponent </title>
<polygon fill="#fb8072" stroke="black" points="4235.6,-214.8 4094.4,-214.8 4094.4,-178.8 4235.6,-178.8 4235.6,-214.8"/>
<text text-anchor="middle" x="4165" y="-192.6" font-family="Times,serif" font-size="14.00">DtesChartComponent </text>
</g>
<!-- ComponentsModule&#45;&gt;DtesChartComponent  -->
<g id="edge34" class="edge">
<title>ComponentsModule&#45;&gt;DtesChartComponent </title>
<path fill="none" stroke="black" stroke-dasharray="5,2" d="M2514.31,-138.8C2820.85,-138.8 4102.07,-138.8 4102.07,-138.8 4102.07,-138.8 4102.07,-168.77 4102.07,-168.77"/>
<polygon fill="black" stroke="black" points="4098.57,-168.77 4102.07,-178.77 4105.57,-168.77 4098.57,-168.77"/>
</g>
<!-- EtpChartComponent  -->
<g id="node36" class="node">
<title>EtpChartComponent </title>
<polygon fill="#fb8072" stroke="black" points="4076.88,-214.8 3941.12,-214.8 3941.12,-178.8 4076.88,-178.8 4076.88,-214.8"/>
<text text-anchor="middle" x="4009" y="-192.6" font-family="Times,serif" font-size="14.00">EtpChartComponent </text>
</g>
<!-- ComponentsModule&#45;&gt;EtpChartComponent  -->
<g id="edge35" class="edge">
<title>ComponentsModule&#45;&gt;EtpChartComponent </title>
<path fill="none" stroke="black" stroke-dasharray="5,2" d="M2514.5,-139.8C2803.55,-139.8 3950.82,-139.8 3950.82,-139.8 3950.82,-139.8 3950.82,-168.76 3950.82,-168.76"/>
<polygon fill="black" stroke="black" points="3947.32,-168.76 3950.82,-178.76 3954.32,-168.76 3947.32,-168.76"/>
</g>
<!-- EtpPreviewComponent  -->
<g id="node37" class="node">
<title>EtpPreviewComponent </title>
<polygon fill="#fb8072" stroke="black" points="3923.15,-214.8 3772.85,-214.8 3772.85,-178.8 3923.15,-178.8 3923.15,-214.8"/>
<text text-anchor="middle" x="3848" y="-192.6" font-family="Times,serif" font-size="14.00">EtpPreviewComponent </text>
</g>
<!-- ComponentsModule&#45;&gt;EtpPreviewComponent  -->
<g id="edge36" class="edge">
<title>ComponentsModule&#45;&gt;EtpPreviewComponent </title>
<path fill="none" stroke="black" stroke-dasharray="5,2" d="M2514.3,-140.8C2782.35,-140.8 3784.1,-140.8 3784.1,-140.8 3784.1,-140.8 3784.1,-168.77 3784.1,-168.77"/>
<polygon fill="black" stroke="black" points="3780.6,-168.77 3784.1,-178.77 3787.6,-168.77 3780.6,-168.77"/>
</g>
<!-- FiguresWidgetComponent  -->
<g id="node38" class="node">
<title>FiguresWidgetComponent </title>
<polygon fill="#fb8072" stroke="black" points="3755.04,-214.8 3586.96,-214.8 3586.96,-178.8 3755.04,-178.8 3755.04,-214.8"/>
<text text-anchor="middle" x="3671" y="-192.6" font-family="Times,serif" font-size="14.00">FiguresWidgetComponent </text>
</g>
<!-- ComponentsModule&#45;&gt;FiguresWidgetComponent  -->
<g id="edge37" class="edge">
<title>ComponentsModule&#45;&gt;FiguresWidgetComponent </title>
<path fill="none" stroke="black" stroke-dasharray="5,2" d="M2514.58,-142.8C2758.55,-142.8 3599.71,-142.8 3599.71,-142.8 3599.71,-142.8 3599.71,-168.52 3599.71,-168.52"/>
<polygon fill="black" stroke="black" points="3596.21,-168.52 3599.71,-178.52 3603.21,-168.52 3596.21,-168.52"/>
</g>
<!-- FooterNoConnectedComponent  -->
<g id="node39" class="node">
<title>FooterNoConnectedComponent </title>
<polygon fill="#fb8072" stroke="black" points="3569.36,-214.8 3370.64,-214.8 3370.64,-178.8 3569.36,-178.8 3569.36,-214.8"/>
<text text-anchor="middle" x="3470" y="-192.6" font-family="Times,serif" font-size="14.00">FooterNoConnectedComponent </text>
</g>
<!-- ComponentsModule&#45;&gt;FooterNoConnectedComponent  -->
<g id="edge38" class="edge">
<title>ComponentsModule&#45;&gt;FooterNoConnectedComponent </title>
<path fill="none" stroke="black" stroke-dasharray="5,2" d="M2514.46,-143.8C2727.16,-143.8 3385.18,-143.8 3385.18,-143.8 3385.18,-143.8 3385.18,-168.56 3385.18,-168.56"/>
<polygon fill="black" stroke="black" points="3381.68,-168.56 3385.18,-178.56 3388.68,-168.56 3381.68,-168.56"/>
</g>
<!-- InOutChartComponent  -->
<g id="node40" class="node">
<title>InOutChartComponent </title>
<polygon fill="#fb8072" stroke="black" points="3353.1,-214.8 3204.9,-214.8 3204.9,-178.8 3353.1,-178.8 3353.1,-214.8"/>
<text text-anchor="middle" x="3279" y="-192.6" font-family="Times,serif" font-size="14.00">InOutChartComponent </text>
</g>
<!-- ComponentsModule&#45;&gt;InOutChartComponent  -->
<g id="edge39" class="edge">
<title>ComponentsModule&#45;&gt;InOutChartComponent </title>
<path fill="none" stroke="black" stroke-dasharray="5,2" d="M2514.45,-144.8C2700.76,-144.8 3220.6,-144.8 3220.6,-144.8 3220.6,-144.8 3220.6,-168.61 3220.6,-168.61"/>
<polygon fill="black" stroke="black" points="3217.1,-168.61 3220.6,-178.61 3224.1,-168.61 3217.1,-168.61"/>
</g>
<!-- InputButtonComponent  -->
<g id="node41" class="node">
<title>InputButtonComponent </title>
<polygon fill="#fb8072" stroke="black" points="3186,-214.8 3034,-214.8 3034,-178.8 3186,-178.8 3186,-214.8"/>
<text text-anchor="middle" x="3110" y="-192.6" font-family="Times,serif" font-size="14.00">InputButtonComponent </text>
</g>
<!-- ComponentsModule&#45;&gt;InputButtonComponent  -->
<g id="edge40" class="edge">
<title>ComponentsModule&#45;&gt;InputButtonComponent </title>
<path fill="none" stroke="black" stroke-dasharray="5,2" d="M2514.33,-146.8C2670.29,-146.8 3051.45,-146.8 3051.45,-146.8 3051.45,-146.8 3051.45,-168.75 3051.45,-168.75"/>
<polygon fill="black" stroke="black" points="3047.95,-168.75 3051.45,-178.75 3054.95,-168.75 3047.95,-168.75"/>
</g>
<!-- InputPercentageComponent  -->
<g id="node42" class="node">
<title>InputPercentageComponent </title>
<polygon fill="#fb8072" stroke="black" points="3015.79,-214.8 2840.21,-214.8 2840.21,-178.8 3015.79,-178.8 3015.79,-214.8"/>
<text text-anchor="middle" x="2928" y="-192.6" font-family="Times,serif" font-size="14.00">InputPercentageComponent </text>
</g>
<!-- ComponentsModule&#45;&gt;InputPercentageComponent  -->
<g id="edge41" class="edge">
<title>ComponentsModule&#45;&gt;InputPercentageComponent </title>
<path fill="none" stroke="black" stroke-dasharray="5,2" d="M2514.47,-147.8C2630.33,-147.8 2859.35,-147.8 2859.35,-147.8 2859.35,-147.8 2859.35,-168.55 2859.35,-168.55"/>
<polygon fill="black" stroke="black" points="2855.85,-168.55 2859.35,-178.55 2862.85,-168.55 2855.85,-168.55"/>
</g>
<!-- LegendLabelComponent  -->
<g id="node43" class="node">
<title>LegendLabelComponent </title>
<polygon fill="#fb8072" stroke="black" points="2822.18,-214.8 2663.82,-214.8 2663.82,-178.8 2822.18,-178.8 2822.18,-214.8"/>
<text text-anchor="middle" x="2743" y="-192.6" font-family="Times,serif" font-size="14.00">LegendLabelComponent </text>
</g>
<!-- ComponentsModule&#45;&gt;LegendLabelComponent  -->
<g id="edge42" class="edge">
<title>ComponentsModule&#45;&gt;LegendLabelComponent </title>
<path fill="none" stroke="black" stroke-dasharray="5,2" d="M2514.32,-148.8C2584.06,-148.8 2684.63,-148.8 2684.63,-148.8 2684.63,-148.8 2684.63,-168.65 2684.63,-168.65"/>
<polygon fill="black" stroke="black" points="2681.13,-168.65 2684.63,-178.65 2688.13,-168.65 2681.13,-168.65"/>
</g>
<!-- ListSelectionComponent  -->
<g id="node44" class="node">
<title>ListSelectionComponent </title>
<polygon fill="#fb8072" stroke="black" points="2645.21,-214.8 2486.79,-214.8 2486.79,-178.8 2645.21,-178.8 2645.21,-214.8"/>
<text text-anchor="middle" x="2566" y="-192.6" font-family="Times,serif" font-size="14.00">ListSelectionComponent </text>
</g>
<!-- ComponentsModule&#45;&gt;ListSelectionComponent  -->
<g id="edge43" class="edge">
<title>ComponentsModule&#45;&gt;ListSelectionComponent </title>
<path fill="none" stroke="black" stroke-dasharray="5,2" d="M2500.41,-149.91C2500.41,-149.91 2500.41,-168.79 2500.41,-168.79"/>
<polygon fill="black" stroke="black" points="2496.91,-168.79 2500.41,-178.79 2503.91,-168.79 2496.91,-168.79"/>
</g>
<!-- LoadersWidgetComponent  -->
<g id="node45" class="node">
<title>LoadersWidgetComponent </title>
<polygon fill="#fb8072" stroke="black" points="2468.63,-214.8 2297.37,-214.8 2297.37,-178.8 2468.63,-178.8 2468.63,-214.8"/>
<text text-anchor="middle" x="2383" y="-192.6" font-family="Times,serif" font-size="14.00">LoadersWidgetComponent </text>
</g>
<!-- ComponentsModule&#45;&gt;LoadersWidgetComponent  -->
<g id="edge44" class="edge">
<title>ComponentsModule&#45;&gt;LoadersWidgetComponent </title>
<path fill="none" stroke="black" stroke-dasharray="5,2" d="M2426.2,-149.91C2426.2,-149.91 2426.2,-168.79 2426.2,-168.79"/>
<polygon fill="black" stroke="black" points="2422.7,-168.79 2426.2,-178.79 2429.7,-168.79 2422.7,-168.79"/>
</g>
<!-- NewsComponent  -->
<g id="node46" class="node">
<title>NewsComponent </title>
<polygon fill="#fb8072" stroke="black" points="2279.21,-214.8 2162.79,-214.8 2162.79,-178.8 2279.21,-178.8 2279.21,-214.8"/>
<text text-anchor="middle" x="2221" y="-192.6" font-family="Times,serif" font-size="14.00">NewsComponent </text>
</g>
<!-- ComponentsModule&#45;&gt;NewsComponent  -->
<g id="edge45" class="edge">
<title>ComponentsModule&#45;&gt;NewsComponent </title>
<path fill="none" stroke="black" stroke-dasharray="5,2" d="M2383.69,-148.8C2327.99,-148.8 2256.88,-148.8 2256.88,-148.8 2256.88,-148.8 2256.88,-168.65 2256.88,-168.65"/>
<polygon fill="black" stroke="black" points="2253.38,-168.65 2256.88,-178.65 2260.38,-168.65 2253.38,-168.65"/>
</g>
<!-- OptionsBackupPanelComponent  -->
<g id="node47" class="node">
<title>OptionsBackupPanelComponent </title>
<polygon fill="#fb8072" stroke="black" points="2144.54,-214.8 1941.46,-214.8 1941.46,-178.8 2144.54,-178.8 2144.54,-214.8"/>
<text text-anchor="middle" x="2043" y="-192.6" font-family="Times,serif" font-size="14.00">OptionsBackupPanelComponent </text>
</g>
<!-- ComponentsModule&#45;&gt;OptionsBackupPanelComponent  -->
<g id="edge46" class="edge">
<title>ComponentsModule&#45;&gt;OptionsBackupPanelComponent </title>
<path fill="none" stroke="black" stroke-dasharray="5,2" d="M2383.61,-147.8C2277.83,-147.8 2080.88,-147.8 2080.88,-147.8 2080.88,-147.8 2080.88,-168.55 2080.88,-168.55"/>
<polygon fill="black" stroke="black" points="2077.38,-168.55 2080.88,-178.55 2084.38,-168.55 2077.38,-168.55"/>
</g>
<!-- PanelActivitiesComponent  -->
<g id="node48" class="node">
<title>PanelActivitiesComponent </title>
<polygon fill="#fb8072" stroke="black" points="1923.37,-214.8 1752.63,-214.8 1752.63,-178.8 1923.37,-178.8 1923.37,-214.8"/>
<text text-anchor="middle" x="1838" y="-192.6" font-family="Times,serif" font-size="14.00">PanelActivitiesComponent </text>
</g>
<!-- ComponentsModule&#45;&gt;PanelActivitiesComponent  -->
<g id="edge47" class="edge">
<title>ComponentsModule&#45;&gt;PanelActivitiesComponent </title>
<path fill="none" stroke="black" stroke-dasharray="5,2" d="M2383.76,-146.8C2233.91,-146.8 1877.88,-146.8 1877.88,-146.8 1877.88,-146.8 1877.88,-168.75 1877.88,-168.75"/>
<polygon fill="black" stroke="black" points="1874.38,-168.75 1877.88,-178.75 1881.38,-168.75 1874.38,-168.75"/>
</g>
<!-- PopupComponent  -->
<g id="node49" class="node">
<title>PopupComponent </title>
<polygon fill="#fb8072" stroke="black" points="1735.12,-214.8 1614.88,-214.8 1614.88,-178.8 1735.12,-178.8 1735.12,-214.8"/>
<text text-anchor="middle" x="1675" y="-192.6" font-family="Times,serif" font-size="14.00">PopupComponent </text>
</g>
<!-- ComponentsModule&#45;&gt;PopupComponent  -->
<g id="edge48" class="edge">
<title>ComponentsModule&#45;&gt;PopupComponent </title>
<path fill="none" stroke="black" stroke-dasharray="5,2" d="M2383.66,-144.8C2204.1,-144.8 1716.38,-144.8 1716.38,-144.8 1716.38,-144.8 1716.38,-168.61 1716.38,-168.61"/>
<polygon fill="black" stroke="black" points="1712.88,-168.61 1716.38,-178.61 1719.88,-168.61 1712.88,-168.61"/>
</g>
<!-- ProgressionBarComponent  -->
<g id="node50" class="node">
<title>ProgressionBarComponent </title>
<polygon fill="#fb8072" stroke="black" points="1596.66,-214.8 1425.34,-214.8 1425.34,-178.8 1596.66,-178.8 1596.66,-214.8"/>
<text text-anchor="middle" x="1511" y="-192.6" font-family="Times,serif" font-size="14.00">ProgressionBarComponent </text>
</g>
<!-- ComponentsModule&#45;&gt;ProgressionBarComponent  -->
<g id="edge49" class="edge">
<title>ComponentsModule&#45;&gt;ProgressionBarComponent </title>
<path fill="none" stroke="black" stroke-dasharray="5,2" d="M2383.58,-143.8C2177.34,-143.8 1554.38,-143.8 1554.38,-143.8 1554.38,-143.8 1554.38,-168.56 1554.38,-168.56"/>
<polygon fill="black" stroke="black" points="1550.88,-168.56 1554.38,-178.56 1557.88,-168.56 1550.88,-168.56"/>
</g>
<!-- RadioButtonComponent  -->
<g id="node51" class="node">
<title>RadioButtonComponent </title>
<polygon fill="#fb8072" stroke="black" points="1407.39,-214.8 1250.61,-214.8 1250.61,-178.8 1407.39,-178.8 1407.39,-214.8"/>
<text text-anchor="middle" x="1329" y="-192.6" font-family="Times,serif" font-size="14.00">RadioButtonComponent </text>
</g>
<!-- ComponentsModule&#45;&gt;RadioButtonComponent  -->
<g id="edge50" class="edge">
<title>ComponentsModule&#45;&gt;RadioButtonComponent </title>
<path fill="none" stroke="black" stroke-dasharray="5,2" d="M2383.8,-142.8C2150.97,-142.8 1374.38,-142.8 1374.38,-142.8 1374.38,-142.8 1374.38,-168.52 1374.38,-168.52"/>
<polygon fill="black" stroke="black" points="1370.88,-168.52 1374.38,-178.52 1377.88,-168.52 1370.88,-168.52"/>
</g>
<!-- SelectCheckAllComponent  -->
<g id="node52" class="node">
<title>SelectCheckAllComponent </title>
<polygon fill="#fb8072" stroke="black" points="1232.19,-214.8 1059.81,-214.8 1059.81,-178.8 1232.19,-178.8 1232.19,-214.8"/>
<text text-anchor="middle" x="1146" y="-192.6" font-family="Times,serif" font-size="14.00">SelectCheckAllComponent </text>
</g>
<!-- ComponentsModule&#45;&gt;SelectCheckAllComponent  -->
<g id="edge51" class="edge">
<title>ComponentsModule&#45;&gt;SelectCheckAllComponent </title>
<path fill="none" stroke="black" stroke-dasharray="5,2" d="M2383.7,-140.8C2125.96,-140.8 1193.38,-140.8 1193.38,-140.8 1193.38,-140.8 1193.38,-168.77 1193.38,-168.77"/>
<polygon fill="black" stroke="black" points="1189.88,-168.77 1193.38,-178.77 1196.88,-168.77 1189.88,-168.77"/>
</g>
<!-- SelectComponent  -->
<g id="node53" class="node">
<title>SelectComponent </title>
<polygon fill="#fb8072" stroke="black" points="1041.54,-214.8 922.46,-214.8 922.46,-178.8 1041.54,-178.8 1041.54,-214.8"/>
<text text-anchor="middle" x="982" y="-192.6" font-family="Times,serif" font-size="14.00">SelectComponent </text>
</g>
<!-- ComponentsModule&#45;&gt;SelectComponent  -->
<g id="edge52" class="edge">
<title>ComponentsModule&#45;&gt;SelectComponent </title>
<path fill="none" stroke="black" stroke-dasharray="5,2" d="M2383.47,-139.8C2104.66,-139.8 1031.38,-139.8 1031.38,-139.8 1031.38,-139.8 1031.38,-168.76 1031.38,-168.76"/>
<polygon fill="black" stroke="black" points="1027.88,-168.76 1031.38,-178.76 1034.88,-168.76 1027.88,-168.76"/>
</g>
<!-- SpeedometerComponent  -->
<g id="node54" class="node">
<title>SpeedometerComponent </title>
<polygon fill="#fb8072" stroke="black" points="904.91,-214.8 747.09,-214.8 747.09,-178.8 904.91,-178.8 904.91,-214.8"/>
<text text-anchor="middle" x="826" y="-192.6" font-family="Times,serif" font-size="14.00">SpeedometerComponent </text>
</g>
<!-- ComponentsModule&#45;&gt;SpeedometerComponent  -->
<g id="edge53" class="edge">
<title>ComponentsModule&#45;&gt;SpeedometerComponent </title>
<path fill="none" stroke="black" stroke-dasharray="5,2" d="M2383.45,-138.8C2085.91,-138.8 876.88,-138.8 876.88,-138.8 876.88,-138.8 876.88,-168.77 876.88,-168.77"/>
<polygon fill="black" stroke="black" points="873.38,-168.77 876.88,-178.77 880.38,-168.77 873.38,-168.77"/>
</g>
<!-- TimeSelectorComponent  -->
<g id="node55" class="node">
<title>TimeSelectorComponent </title>
<polygon fill="#fb8072" stroke="black" points="729.25,-214.8 568.75,-214.8 568.75,-178.8 729.25,-178.8 729.25,-214.8"/>
<text text-anchor="middle" x="649" y="-192.6" font-family="Times,serif" font-size="14.00">TimeSelectorComponent </text>
</g>
<!-- ComponentsModule&#45;&gt;TimeSelectorComponent  -->
<g id="edge54" class="edge">
<title>ComponentsModule&#45;&gt;TimeSelectorComponent </title>
<path fill="none" stroke="black" stroke-dasharray="5,2" d="M2383.68,-137.8C2066.42,-137.8 701.38,-137.8 701.38,-137.8 701.38,-137.8 701.38,-168.78 701.38,-168.78"/>
<polygon fill="black" stroke="black" points="697.88,-168.78 701.38,-178.78 704.88,-168.78 697.88,-168.78"/>
</g>
<!-- TooltipsComponent  -->
<g id="node56" class="node">
<title>TooltipsComponent </title>
<polygon fill="#fb8072" stroke="black" points="550.5,-214.8 419.5,-214.8 419.5,-178.8 550.5,-178.8 550.5,-214.8"/>
<text text-anchor="middle" x="485" y="-192.6" font-family="Times,serif" font-size="14.00">TooltipsComponent </text>
</g>
<!-- ComponentsModule&#45;&gt;TooltipsComponent  -->
<g id="edge55" class="edge">
<title>ComponentsModule&#45;&gt;TooltipsComponent </title>
<path fill="none" stroke="black" stroke-dasharray="5,2" d="M2383.82,-135.8C2049.14,-135.8 539.38,-135.8 539.38,-135.8 539.38,-135.8 539.38,-168.5 539.38,-168.5"/>
<polygon fill="black" stroke="black" points="535.88,-168.5 539.38,-178.5 542.88,-168.5 535.88,-168.5"/>
</g>
<!-- WrapperComponent  -->
<g id="node57" class="node">
<title>WrapperComponent </title>
<polygon fill="#fb8072" stroke="black" points="400.8,-214.8 267.2,-214.8 267.2,-178.8 400.8,-178.8 400.8,-214.8"/>
<text text-anchor="middle" x="334" y="-192.6" font-family="Times,serif" font-size="14.00">WrapperComponent </text>
</g>
<!-- ComponentsModule&#45;&gt;WrapperComponent  -->
<g id="edge56" class="edge">
<title>ComponentsModule&#45;&gt;WrapperComponent </title>
<path fill="none" stroke="black" stroke-dasharray="5,2" d="M2383.7,-134.8C2033.17,-134.8 390.38,-134.8 390.38,-134.8 390.38,-134.8 390.38,-168.53 390.38,-168.53"/>
<polygon fill="black" stroke="black" points="386.88,-168.53 390.38,-178.53 393.88,-168.53 386.88,-168.53"/>
</g>
<!-- WrapperNoConnectedComponent  -->
<g id="node58" class="node">
<title>WrapperNoConnectedComponent </title>
<polygon fill="#fb8072" stroke="black" points="249.28,-214.8 38.72,-214.8 38.72,-178.8 249.28,-178.8 249.28,-214.8"/>
<text text-anchor="middle" x="144" y="-192.6" font-family="Times,serif" font-size="14.00">WrapperNoConnectedComponent </text>
</g>
<!-- ComponentsModule&#45;&gt;WrapperNoConnectedComponent  -->
<g id="edge57" class="edge">
<title>ComponentsModule&#45;&gt;WrapperNoConnectedComponent </title>
<path fill="none" stroke="black" stroke-dasharray="5,2" d="M2383.57,-133.8C2013.76,-133.8 201.88,-133.8 201.88,-133.8 201.88,-133.8 201.88,-168.58 201.88,-168.58"/>
<polygon fill="black" stroke="black" points="198.38,-168.58 201.88,-178.58 205.38,-168.58 198.38,-168.58"/>
</g>
<!-- MaterialModule -->
<g id="node30" class="node">
<title>MaterialModule</title>
<polygon fill="#8dd3c7" stroke="black" points="130.47,-84.8 127.47,-88.8 106.47,-88.8 103.47,-84.8 23.53,-84.8 23.53,-48.8 130.47,-48.8 130.47,-84.8"/>
<text text-anchor="middle" x="77" y="-62.6" font-family="Times,serif" font-size="14.00">MaterialModule</text>
</g>
<!-- MaterialModule&#45;&gt;ComponentsModule -->
<g id="edge29" class="edge">
<title>MaterialModule&#45;&gt;ComponentsModule</title>
<path fill="none" stroke="black" d="M84.55,-84.91C84.55,-104.14 84.55,-131.8 84.55,-131.8 84.55,-131.8 2373.6,-131.8 2373.6,-131.8"/>
<polygon fill="black" stroke="black" points="2373.6,-135.3 2383.6,-131.8 2373.6,-128.3 2373.6,-135.3"/>
</g>
</g>
</svg>
