<?xml version="1.0" encoding="UTF-8" standalone="no"?>
<!DOCTYPE svg PUBLIC "-//W3C//DTD SVG 1.1//EN"
 "http://www.w3.org/Graphics/SVG/1.1/DTD/svg11.dtd">
<!-- Generated by graphviz version 3.0.0 (20220226.1711)
 -->
<!-- Title: dependencies Pages: 1 -->
<svg width="4658pt" height="247pt"
 viewBox="0.00 0.00 4658.00 246.80" xmlns="http://www.w3.org/2000/svg" xmlns:xlink="http://www.w3.org/1999/xlink">
<g id="graph0" class="graph" transform="scale(1 1) rotate(0) translate(4 242.8)">
<title>dependencies</title>
<polygon fill="white" stroke="transparent" points="-4,4 -4,-242.8 4654,-242.8 4654,4 -4,4"/>
<text text-anchor="middle" x="2325" y="-8.2" font-family="sans-serif" font-size="14.00">dependencies</text>
<g id="clust1" class="cluster">
<title>cluster_ComponentsModule</title>
<polygon fill="none" stroke="black" stroke-dasharray="1,5" points="8,-32.8 8,-230.8 4642,-230.8 4642,-32.8 8,-32.8"/>
</g>
<g id="clust29" class="cluster">
<title>cluster_ComponentsModule_imports</title>
<polygon fill="none" stroke="black" points="4512,-40.8 4512,-92.8 4634,-92.8 4634,-40.8 4512,-40.8"/>
</g>
<g id="clust30" class="cluster">
<title>cluster_ComponentsModule_exports</title>
<polygon fill="none" stroke="black" points="35,-170.8 35,-222.8 4616,-222.8 4616,-170.8 35,-170.8"/>
</g>
<g id="clust2" class="cluster">
<title>cluster_ComponentsModule_declarations</title>
<polygon fill="none" stroke="black" points="16,-40.8 16,-92.8 4504,-92.8 4504,-40.8 16,-40.8"/>
</g>
<!-- CoveragePreviewComponent -->
<g id="node1" class="node">
<title>CoveragePreviewComponent</title>
<polygon fill="#ffffb3" stroke="black" points="4496.35,-84.8 4315.65,-84.8 4315.65,-48.8 4496.35,-48.8 4496.35,-84.8"/>
<text text-anchor="middle" x="4406" y="-62.6" font-family="Times,serif" font-size="14.00">CoveragePreviewComponent</text>
</g>
<!-- ComponentsModule -->
<g id="node27" class="node">
<title>ComponentsModule</title>
<polygon fill="#8dd3c7" stroke="black" points="2427.33,-149.8 2424.33,-153.8 2403.33,-153.8 2400.33,-149.8 2296.67,-149.8 2296.67,-113.8 2427.33,-113.8 2427.33,-149.8"/>
<text text-anchor="middle" x="2362" y="-127.6" font-family="Times,serif" font-size="14.00">ComponentsModule</text>
</g>
<!-- CoveragePreviewComponent&#45;&gt;ComponentsModule -->
<g id="edge1" class="edge">
<title>CoveragePreviewComponent&#45;&gt;ComponentsModule</title>
<path fill="none" stroke="black" d="M4360.76,-84.97C4360.76,-103.89 4360.76,-130.8 4360.76,-130.8 4360.76,-130.8 2437.37,-130.8 2437.37,-130.8"/>
<polygon fill="black" stroke="black" points="2437.37,-127.3 2427.37,-130.8 2437.37,-134.3 2437.37,-127.3"/>
</g>
<!-- DateSelectBlueComponent -->
<g id="node2" class="node">
<title>DateSelectBlueComponent</title>
<polygon fill="#ffffb3" stroke="black" points="4297.41,-84.8 4128.59,-84.8 4128.59,-48.8 4297.41,-48.8 4297.41,-84.8"/>
<text text-anchor="middle" x="4213" y="-62.6" font-family="Times,serif" font-size="14.00">DateSelectBlueComponent</text>
</g>
<!-- DateSelectBlueComponent&#45;&gt;ComponentsModule -->
<g id="edge2" class="edge">
<title>DateSelectBlueComponent&#45;&gt;ComponentsModule</title>
<path fill="none" stroke="black" d="M4172.26,-85.02C4172.26,-103.63 4172.26,-129.8 4172.26,-129.8 4172.26,-129.8 2437.23,-129.8 2437.23,-129.8"/>
<polygon fill="black" stroke="black" points="2437.23,-126.3 2427.23,-129.8 2437.23,-133.3 2437.23,-126.3"/>
</g>
<!-- DateSelectComponent -->
<g id="node3" class="node">
<title>DateSelectComponent</title>
<polygon fill="#ffffb3" stroke="black" points="4110.97,-84.8 3969.03,-84.8 3969.03,-48.8 4110.97,-48.8 4110.97,-84.8"/>
<text text-anchor="middle" x="4040" y="-62.6" font-family="Times,serif" font-size="14.00">DateSelectComponent</text>
</g>
<!-- DateSelectComponent&#45;&gt;ComponentsModule -->
<g id="edge3" class="edge">
<title>DateSelectComponent&#45;&gt;ComponentsModule</title>
<path fill="none" stroke="black" d="M4010.54,-85.1C4010.54,-103.07 4010.54,-127.8 4010.54,-127.8 4010.54,-127.8 2437.39,-127.8 2437.39,-127.8"/>
<polygon fill="black" stroke="black" points="2437.39,-124.3 2427.39,-127.8 2437.39,-131.3 2437.39,-124.3"/>
</g>
<!-- DialWidgetComponent -->
<g id="node4" class="node">
<title>DialWidgetComponent</title>
<polygon fill="#ffffb3" stroke="black" points="3951.14,-84.8 3804.86,-84.8 3804.86,-48.8 3951.14,-48.8 3951.14,-84.8"/>
<text text-anchor="middle" x="3878" y="-62.6" font-family="Times,serif" font-size="14.00">DialWidgetComponent</text>
</g>
<!-- DialWidgetComponent&#45;&gt;ComponentsModule -->
<g id="edge4" class="edge">
<title>DialWidgetComponent&#45;&gt;ComponentsModule</title>
<path fill="none" stroke="black" d="M3844.24,-84.8C3844.24,-102.48 3844.24,-126.8 3844.24,-126.8 3844.24,-126.8 2437.6,-126.8 2437.6,-126.8"/>
<polygon fill="black" stroke="black" points="2437.6,-123.3 2427.6,-126.8 2437.6,-130.3 2437.6,-123.3"/>
</g>
<!-- DtesChartComponent -->
<g id="node5" class="node">
<title>DtesChartComponent</title>
<polygon fill="#ffffb3" stroke="black" points="3787.1,-84.8 3648.9,-84.8 3648.9,-48.8 3787.1,-48.8 3787.1,-84.8"/>
<text text-anchor="middle" x="3718" y="-62.6" font-family="Times,serif" font-size="14.00">DtesChartComponent</text>
</g>
<!-- DtesChartComponent&#45;&gt;ComponentsModule -->
<g id="edge5" class="edge">
<title>DtesChartComponent&#45;&gt;ComponentsModule</title>
<path fill="none" stroke="black" d="M3686.82,-84.82C3686.82,-102.17 3686.82,-125.8 3686.82,-125.8 3686.82,-125.8 2437.25,-125.8 2437.25,-125.8"/>
<polygon fill="black" stroke="black" points="2437.25,-122.3 2427.25,-125.8 2437.25,-129.3 2437.25,-122.3"/>
</g>
<!-- EtpChartComponent -->
<g id="node6" class="node">
<title>EtpChartComponent</title>
<polygon fill="#ffffb3" stroke="black" points="3630.88,-84.8 3499.12,-84.8 3499.12,-48.8 3630.88,-48.8 3630.88,-84.8"/>
<text text-anchor="middle" x="3565" y="-62.6" font-family="Times,serif" font-size="14.00">EtpChartComponent</text>
</g>
<!-- EtpChartComponent&#45;&gt;ComponentsModule -->
<g id="edge6" class="edge">
<title>EtpChartComponent&#45;&gt;ComponentsModule</title>
<path fill="none" stroke="black" d="M3535.07,-84.84C3535.07,-101.53 3535.07,-123.8 3535.07,-123.8 3535.07,-123.8 2437.58,-123.8 2437.58,-123.8"/>
<polygon fill="black" stroke="black" points="2437.58,-120.3 2427.58,-123.8 2437.58,-127.3 2437.58,-120.3"/>
</g>
<!-- EtpPreviewComponent -->
<g id="node7" class="node">
<title>EtpPreviewComponent</title>
<polygon fill="#ffffb3" stroke="black" points="3481.15,-84.8 3334.85,-84.8 3334.85,-48.8 3481.15,-48.8 3481.15,-84.8"/>
<text text-anchor="middle" x="3408" y="-62.6" font-family="Times,serif" font-size="14.00">EtpPreviewComponent</text>
</g>
<!-- EtpPreviewComponent&#45;&gt;ComponentsModule -->
<g id="edge7" class="edge">
<title>EtpPreviewComponent&#45;&gt;ComponentsModule</title>
<path fill="none" stroke="black" d="M3368.85,-84.83C3368.85,-101.2 3368.85,-122.8 3368.85,-122.8 3368.85,-122.8 2437.29,-122.8 2437.29,-122.8"/>
<polygon fill="black" stroke="black" points="2437.29,-119.3 2427.29,-122.8 2437.29,-126.3 2437.29,-119.3"/>
</g>
<!-- FiguresWidgetComponent -->
<g id="node8" class="node">
<title>FiguresWidgetComponent</title>
<polygon fill="#ffffb3" stroke="black" points="3316.04,-84.8 3151.96,-84.8 3151.96,-48.8 3316.04,-48.8 3316.04,-84.8"/>
<text text-anchor="middle" x="3234" y="-62.6" font-family="Times,serif" font-size="14.00">FiguresWidgetComponent</text>
</g>
<!-- FiguresWidgetComponent&#45;&gt;ComponentsModule -->
<g id="edge8" class="edge">
<title>FiguresWidgetComponent&#45;&gt;ComponentsModule</title>
<path fill="none" stroke="black" d="M3184.51,-85.08C3184.51,-100.75 3184.51,-120.8 3184.51,-120.8 3184.51,-120.8 2437.23,-120.8 2437.23,-120.8"/>
<polygon fill="black" stroke="black" points="2437.23,-117.3 2427.23,-120.8 2437.23,-124.3 2437.23,-117.3"/>
</g>
<!-- InOutChartComponent -->
<g id="node9" class="node">
<title>InOutChartComponent</title>
<polygon fill="#ffffb3" stroke="black" points="3133.6,-84.8 2988.4,-84.8 2988.4,-48.8 3133.6,-48.8 3133.6,-84.8"/>
<text text-anchor="middle" x="3061" y="-62.6" font-family="Times,serif" font-size="14.00">InOutChartComponent</text>
</g>
<!-- InOutChartComponent&#45;&gt;ComponentsModule -->
<g id="edge9" class="edge">
<title>InOutChartComponent&#45;&gt;ComponentsModule</title>
<path fill="none" stroke="black" d="M3019.35,-85.04C3019.35,-100.37 3019.35,-119.8 3019.35,-119.8 3019.35,-119.8 2437.43,-119.8 2437.43,-119.8"/>
<polygon fill="black" stroke="black" points="2437.43,-116.3 2427.43,-119.8 2437.43,-123.3 2437.43,-116.3"/>
</g>
<!-- InputButtonComponent -->
<g id="node10" class="node">
<title>InputButtonComponent</title>
<polygon fill="#ffffb3" stroke="black" points="2970.5,-84.8 2821.5,-84.8 2821.5,-48.8 2970.5,-48.8 2970.5,-84.8"/>
<text text-anchor="middle" x="2896" y="-62.6" font-family="Times,serif" font-size="14.00">InputButtonComponent</text>
</g>
<!-- InputButtonComponent&#45;&gt;ComponentsModule -->
<g id="edge10" class="edge">
<title>InputButtonComponent&#45;&gt;ComponentsModule</title>
<path fill="none" stroke="black" d="M2850.7,-84.99C2850.7,-99.98 2850.7,-118.8 2850.7,-118.8 2850.7,-118.8 2437.4,-118.8 2437.4,-118.8"/>
<polygon fill="black" stroke="black" points="2437.4,-115.3 2427.4,-118.8 2437.4,-122.3 2437.4,-115.3"/>
</g>
<!-- InputPercentageComponent -->
<g id="node11" class="node">
<title>InputPercentageComponent</title>
<polygon fill="#ffffb3" stroke="black" points="2803.29,-84.8 2630.71,-84.8 2630.71,-48.8 2803.29,-48.8 2803.29,-84.8"/>
<text text-anchor="middle" x="2717" y="-62.6" font-family="Times,serif" font-size="14.00">InputPercentageComponent</text>
</g>
<!-- InputPercentageComponent&#45;&gt;ComponentsModule -->
<g id="edge11" class="edge">
<title>InputPercentageComponent&#45;&gt;ComponentsModule</title>
<path fill="none" stroke="black" d="M2658.6,-84.85C2658.6,-99.17 2658.6,-116.8 2658.6,-116.8 2658.6,-116.8 2437.46,-116.8 2437.46,-116.8"/>
<polygon fill="black" stroke="black" points="2437.46,-113.3 2427.46,-116.8 2437.46,-120.3 2437.46,-113.3"/>
</g>
<!-- LegendLabelComponent -->
<g id="node12" class="node">
<title>LegendLabelComponent</title>
<polygon fill="#ffffb3" stroke="black" points="2612.68,-84.8 2457.32,-84.8 2457.32,-48.8 2612.68,-48.8 2612.68,-84.8"/>
<text text-anchor="middle" x="2535" y="-62.6" font-family="Times,serif" font-size="14.00">LegendLabelComponent</text>
</g>
<!-- LegendLabelComponent&#45;&gt;ComponentsModule -->
<g id="edge12" class="edge">
<title>LegendLabelComponent&#45;&gt;ComponentsModule</title>
<path fill="none" stroke="black" d="M2483.38,-85.05C2483.38,-98.98 2483.38,-115.8 2483.38,-115.8 2483.38,-115.8 2437.31,-115.8 2437.31,-115.8"/>
<polygon fill="black" stroke="black" points="2437.31,-112.3 2427.31,-115.8 2437.31,-119.3 2437.31,-112.3"/>
</g>
<!-- ListSelectionComponent -->
<g id="node13" class="node">
<title>ListSelectionComponent</title>
<polygon fill="#ffffb3" stroke="black" points="2439.71,-84.8 2284.29,-84.8 2284.29,-48.8 2439.71,-48.8 2439.71,-84.8"/>
<text text-anchor="middle" x="2362" y="-62.6" font-family="Times,serif" font-size="14.00">ListSelectionComponent</text>
</g>
<!-- ListSelectionComponent&#45;&gt;ComponentsModule -->
<g id="edge13" class="edge">
<title>ListSelectionComponent&#45;&gt;ComponentsModule</title>
<path fill="none" stroke="black" d="M2362,-84.91C2362,-84.91 2362,-103.79 2362,-103.79"/>
<polygon fill="black" stroke="black" points="2358.5,-103.79 2362,-113.79 2365.5,-103.79 2358.5,-103.79"/>
</g>
<!-- LoadersWidgetComponent -->
<g id="node14" class="node">
<title>LoadersWidgetComponent</title>
<polygon fill="#ffffb3" stroke="black" points="2266.63,-84.8 2099.37,-84.8 2099.37,-48.8 2266.63,-48.8 2266.63,-84.8"/>
<text text-anchor="middle" x="2183" y="-62.6" font-family="Times,serif" font-size="14.00">LoadersWidgetComponent</text>
</g>
<!-- LoadersWidgetComponent&#45;&gt;ComponentsModule -->
<g id="edge14" class="edge">
<title>LoadersWidgetComponent&#45;&gt;ComponentsModule</title>
<path fill="none" stroke="black" d="M2214.12,-85.05C2214.12,-98.98 2214.12,-115.8 2214.12,-115.8 2214.12,-115.8 2286.71,-115.8 2286.71,-115.8"/>
<polygon fill="black" stroke="black" points="2286.71,-119.3 2296.71,-115.8 2286.71,-112.3 2286.71,-119.3"/>
</g>
<!-- OptionsBackupPanelComponent -->
<g id="node15" class="node">
<title>OptionsBackupPanelComponent</title>
<polygon fill="#ffffb3" stroke="black" points="2080.54,-84.8 1881.46,-84.8 1881.46,-48.8 2080.54,-48.8 2080.54,-84.8"/>
<text text-anchor="middle" x="1981" y="-62.6" font-family="Times,serif" font-size="14.00">OptionsBackupPanelComponent</text>
</g>
<!-- OptionsBackupPanelComponent&#45;&gt;ComponentsModule -->
<g id="edge15" class="edge">
<title>OptionsBackupPanelComponent&#45;&gt;ComponentsModule</title>
<path fill="none" stroke="black" d="M2010.62,-84.85C2010.62,-99.17 2010.62,-116.8 2010.62,-116.8 2010.62,-116.8 2286.73,-116.8 2286.73,-116.8"/>
<polygon fill="black" stroke="black" points="2286.73,-120.3 2296.73,-116.8 2286.73,-113.3 2286.73,-120.3"/>
</g>
<!-- PanelActivitiesComponent -->
<g id="node16" class="node">
<title>PanelActivitiesComponent</title>
<polygon fill="#ffffb3" stroke="black" points="1863.37,-84.8 1696.63,-84.8 1696.63,-48.8 1863.37,-48.8 1863.37,-84.8"/>
<text text-anchor="middle" x="1780" y="-62.6" font-family="Times,serif" font-size="14.00">PanelActivitiesComponent</text>
</g>
<!-- PanelActivitiesComponent&#45;&gt;ComponentsModule -->
<g id="edge16" class="edge">
<title>PanelActivitiesComponent&#45;&gt;ComponentsModule</title>
<path fill="none" stroke="black" d="M1807.62,-84.99C1807.62,-99.98 1807.62,-118.8 1807.62,-118.8 1807.62,-118.8 2286.78,-118.8 2286.78,-118.8"/>
<polygon fill="black" stroke="black" points="2286.78,-122.3 2296.78,-118.8 2286.78,-115.3 2286.78,-122.3"/>
</g>
<!-- PopupComponent -->
<g id="node17" class="node">
<title>PopupComponent</title>
<polygon fill="#ffffb3" stroke="black" points="1678.62,-84.8 1561.38,-84.8 1561.38,-48.8 1678.62,-48.8 1678.62,-84.8"/>
<text text-anchor="middle" x="1620" y="-62.6" font-family="Times,serif" font-size="14.00">PopupComponent</text>
</g>
<!-- PopupComponent&#45;&gt;ComponentsModule -->
<g id="edge17" class="edge">
<title>PopupComponent&#45;&gt;ComponentsModule</title>
<path fill="none" stroke="black" d="M1646.12,-85.04C1646.12,-100.37 1646.12,-119.8 1646.12,-119.8 1646.12,-119.8 2286.57,-119.8 2286.57,-119.8"/>
<polygon fill="black" stroke="black" points="2286.57,-123.3 2296.57,-119.8 2286.57,-116.3 2286.57,-123.3"/>
</g>
<!-- ProgressionBarComponent -->
<g id="node18" class="node">
<title>ProgressionBarComponent</title>
<polygon fill="#ffffb3" stroke="black" points="1543.66,-84.8 1376.34,-84.8 1376.34,-48.8 1543.66,-48.8 1543.66,-84.8"/>
<text text-anchor="middle" x="1460" y="-62.6" font-family="Times,serif" font-size="14.00">ProgressionBarComponent</text>
</g>
<!-- ProgressionBarComponent&#45;&gt;ComponentsModule -->
<g id="edge18" class="edge">
<title>ProgressionBarComponent&#45;&gt;ComponentsModule</title>
<path fill="none" stroke="black" d="M1484.12,-85.08C1484.12,-100.75 1484.12,-120.8 1484.12,-120.8 1484.12,-120.8 2286.73,-120.8 2286.73,-120.8"/>
<polygon fill="black" stroke="black" points="2286.73,-124.3 2296.73,-120.8 2286.73,-117.3 2286.73,-124.3"/>
</g>
<!-- RadioButtonComponent -->
<g id="node19" class="node">
<title>RadioButtonComponent</title>
<polygon fill="#ffffb3" stroke="black" points="1358.39,-84.8 1205.61,-84.8 1205.61,-48.8 1358.39,-48.8 1358.39,-84.8"/>
<text text-anchor="middle" x="1282" y="-62.6" font-family="Times,serif" font-size="14.00">RadioButtonComponent</text>
</g>
<!-- RadioButtonComponent&#45;&gt;ComponentsModule -->
<g id="edge19" class="edge">
<title>RadioButtonComponent&#45;&gt;ComponentsModule</title>
<path fill="none" stroke="black" d="M1304.12,-84.83C1304.12,-101.2 1304.12,-122.8 1304.12,-122.8 1304.12,-122.8 2286.62,-122.8 2286.62,-122.8"/>
<polygon fill="black" stroke="black" points="2286.62,-126.3 2296.62,-122.8 2286.62,-119.3 2286.62,-126.3"/>
</g>
<!-- ReferentielCalculatorComponent -->
<g id="node20" class="node">
<title>ReferentielCalculatorComponent</title>
<polygon fill="#ffffb3" stroke="black" points="1187.83,-84.8 986.17,-84.8 986.17,-48.8 1187.83,-48.8 1187.83,-84.8"/>
<text text-anchor="middle" x="1087" y="-62.6" font-family="Times,serif" font-size="14.00">ReferentielCalculatorComponent</text>
</g>
<!-- ReferentielCalculatorComponent&#45;&gt;ComponentsModule -->
<g id="edge20" class="edge">
<title>ReferentielCalculatorComponent&#45;&gt;ComponentsModule</title>
<path fill="none" stroke="black" d="M1107.12,-84.84C1107.12,-101.53 1107.12,-123.8 1107.12,-123.8 1107.12,-123.8 2286.74,-123.8 2286.74,-123.8"/>
<polygon fill="black" stroke="black" points="2286.74,-127.3 2296.74,-123.8 2286.74,-120.3 2286.74,-127.3"/>
</g>
<!-- SelectCheckAllComponent -->
<g id="node21" class="node">
<title>SelectCheckAllComponent</title>
<polygon fill="#ffffb3" stroke="black" points="967.69,-84.8 798.31,-84.8 798.31,-48.8 967.69,-48.8 967.69,-84.8"/>
<text text-anchor="middle" x="883" y="-62.6" font-family="Times,serif" font-size="14.00">SelectCheckAllComponent</text>
</g>
<!-- SelectCheckAllComponent&#45;&gt;ComponentsModule -->
<g id="edge21" class="edge">
<title>SelectCheckAllComponent&#45;&gt;ComponentsModule</title>
<path fill="none" stroke="black" d="M901.62,-84.82C901.62,-102.17 901.62,-125.8 901.62,-125.8 901.62,-125.8 2286.41,-125.8 2286.41,-125.8"/>
<polygon fill="black" stroke="black" points="2286.41,-129.3 2296.41,-125.8 2286.41,-122.3 2286.41,-129.3"/>
</g>
<!-- SelectComponent -->
<g id="node22" class="node">
<title>SelectComponent</title>
<polygon fill="#ffffb3" stroke="black" points="780.54,-84.8 665.46,-84.8 665.46,-48.8 780.54,-48.8 780.54,-84.8"/>
<text text-anchor="middle" x="723" y="-62.6" font-family="Times,serif" font-size="14.00">SelectComponent</text>
</g>
<!-- SelectComponent&#45;&gt;ComponentsModule -->
<g id="edge22" class="edge">
<title>SelectComponent&#45;&gt;ComponentsModule</title>
<path fill="none" stroke="black" d="M739.62,-84.8C739.62,-102.48 739.62,-126.8 739.62,-126.8 739.62,-126.8 2286.64,-126.8 2286.64,-126.8"/>
<polygon fill="black" stroke="black" points="2286.64,-130.3 2296.64,-126.8 2286.64,-123.3 2286.64,-130.3"/>
</g>
<!-- SpeedometerComponent -->
<g id="node23" class="node">
<title>SpeedometerComponent</title>
<polygon fill="#ffffb3" stroke="black" points="647.41,-84.8 492.59,-84.8 492.59,-48.8 647.41,-48.8 647.41,-84.8"/>
<text text-anchor="middle" x="570" y="-62.6" font-family="Times,serif" font-size="14.00">SpeedometerComponent</text>
</g>
<!-- SpeedometerComponent&#45;&gt;ComponentsModule -->
<g id="edge23" class="edge">
<title>SpeedometerComponent&#45;&gt;ComponentsModule</title>
<path fill="none" stroke="black" d="M585.12,-85.1C585.12,-103.07 585.12,-127.8 585.12,-127.8 585.12,-127.8 2286.65,-127.8 2286.65,-127.8"/>
<polygon fill="black" stroke="black" points="2286.65,-131.3 2296.65,-127.8 2286.65,-124.3 2286.65,-131.3"/>
</g>
<!-- TimeSelectorComponent -->
<g id="node24" class="node">
<title>TimeSelectorComponent</title>
<polygon fill="#ffffb3" stroke="black" points="474.25,-84.8 317.75,-84.8 317.75,-48.8 474.25,-48.8 474.25,-84.8"/>
<text text-anchor="middle" x="396" y="-62.6" font-family="Times,serif" font-size="14.00">TimeSelectorComponent</text>
</g>
<!-- TimeSelectorComponent&#45;&gt;ComponentsModule -->
<g id="edge24" class="edge">
<title>TimeSelectorComponent&#45;&gt;ComponentsModule</title>
<path fill="none" stroke="black" d="M409.62,-85.02C409.62,-103.63 409.62,-129.8 409.62,-129.8 409.62,-129.8 2286.76,-129.8 2286.76,-129.8"/>
<polygon fill="black" stroke="black" points="2286.76,-133.3 2296.76,-129.8 2286.76,-126.3 2286.76,-133.3"/>
</g>
<!-- TooltipsComponent -->
<g id="node25" class="node">
<title>TooltipsComponent</title>
<polygon fill="#ffffb3" stroke="black" points="300,-84.8 172,-84.8 172,-48.8 300,-48.8 300,-84.8"/>
<text text-anchor="middle" x="236" y="-62.6" font-family="Times,serif" font-size="14.00">TooltipsComponent</text>
</g>
<!-- TooltipsComponent&#45;&gt;ComponentsModule -->
<g id="edge25" class="edge">
<title>TooltipsComponent&#45;&gt;ComponentsModule</title>
<path fill="none" stroke="black" d="M247.62,-84.97C247.62,-103.89 247.62,-130.8 247.62,-130.8 247.62,-130.8 2286.69,-130.8 2286.69,-130.8"/>
<polygon fill="black" stroke="black" points="2286.69,-134.3 2296.69,-130.8 2286.69,-127.3 2286.69,-134.3"/>
</g>
<!-- WrapperComponent -->
<g id="node26" class="node">
<title>WrapperComponent</title>
<polygon fill="#ffffb3" stroke="black" points="154.3,-84.8 23.7,-84.8 23.7,-48.8 154.3,-48.8 154.3,-84.8"/>
<text text-anchor="middle" x="89" y="-62.6" font-family="Times,serif" font-size="14.00">WrapperComponent</text>
</g>
<!-- WrapperComponent&#45;&gt;ComponentsModule -->
<g id="edge26" class="edge">
<title>WrapperComponent&#45;&gt;ComponentsModule</title>
<path fill="none" stroke="black" d="M98.62,-84.91C98.62,-104.14 98.62,-131.8 98.62,-131.8 98.62,-131.8 2286.7,-131.8 2286.7,-131.8"/>
<polygon fill="black" stroke="black" points="2286.7,-135.3 2296.7,-131.8 2286.7,-128.3 2286.7,-135.3"/>
</g>
<!-- CoveragePreviewComponent  -->
<g id="node29" class="node">
<title>CoveragePreviewComponent </title>
<polygon fill="#fb8072" stroke="black" points="4608.35,-214.8 4423.65,-214.8 4423.65,-178.8 4608.35,-178.8 4608.35,-214.8"/>
<text text-anchor="middle" x="4516" y="-192.6" font-family="Times,serif" font-size="14.00">CoveragePreviewComponent </text>
</g>
<!-- ComponentsModule&#45;&gt;CoveragePreviewComponent  -->
<g id="edge28" class="edge">
<title>ComponentsModule&#45;&gt;CoveragePreviewComponent </title>
<path fill="none" stroke="black" stroke-dasharray="5,2" d="M2427.38,-133.8C2782.15,-133.8 4460.12,-133.8 4460.12,-133.8 4460.12,-133.8 4460.12,-168.58 4460.12,-168.58"/>
<polygon fill="black" stroke="black" points="4456.63,-168.58 4460.12,-178.58 4463.63,-168.58 4456.63,-168.58"/>
</g>
<!-- DateSelectBlueComponent  -->
<g id="node30" class="node">
<title>DateSelectBlueComponent </title>
<polygon fill="#fb8072" stroke="black" points="4405.91,-214.8 4234.09,-214.8 4234.09,-178.8 4405.91,-178.8 4405.91,-214.8"/>
<text text-anchor="middle" x="4320" y="-192.6" font-family="Times,serif" font-size="14.00">DateSelectBlueComponent </text>
</g>
<!-- ComponentsModule&#45;&gt;DateSelectBlueComponent  -->
<g id="edge29" class="edge">
<title>ComponentsModule&#45;&gt;DateSelectBlueComponent </title>
<path fill="none" stroke="black" stroke-dasharray="5,2" d="M2427.25,-134.8C2761.43,-134.8 4265.62,-134.8 4265.62,-134.8 4265.62,-134.8 4265.62,-168.53 4265.62,-168.53"/>
<polygon fill="black" stroke="black" points="4262.13,-168.53 4265.62,-178.53 4269.13,-168.53 4262.13,-168.53"/>
</g>
<!-- DateSelectComponent  -->
<g id="node31" class="node">
<title>DateSelectComponent </title>
<polygon fill="#fb8072" stroke="black" points="4215.97,-214.8 4070.03,-214.8 4070.03,-178.8 4215.97,-178.8 4215.97,-214.8"/>
<text text-anchor="middle" x="4143" y="-192.6" font-family="Times,serif" font-size="14.00">DateSelectComponent </text>
</g>
<!-- ComponentsModule&#45;&gt;DateSelectComponent  -->
<g id="edge30" class="edge">
<title>ComponentsModule&#45;&gt;DateSelectComponent </title>
<path fill="none" stroke="black" stroke-dasharray="5,2" d="M2427.39,-136.8C2742.66,-136.8 4090.62,-136.8 4090.62,-136.8 4090.62,-136.8 4090.62,-168.8 4090.62,-168.8"/>
<polygon fill="black" stroke="black" points="4087.13,-168.8 4090.62,-178.8 4094.13,-168.8 4087.13,-168.8"/>
</g>
<!-- DialWidgetComponent  -->
<g id="node32" class="node">
<title>DialWidgetComponent </title>
<polygon fill="#fb8072" stroke="black" points="4052.14,-214.8 3901.86,-214.8 3901.86,-178.8 4052.14,-178.8 4052.14,-214.8"/>
<text text-anchor="middle" x="3977" y="-192.6" font-family="Times,serif" font-size="14.00">DialWidgetComponent </text>
</g>
<!-- ComponentsModule&#45;&gt;DialWidgetComponent  -->
<g id="edge31" class="edge">
<title>ComponentsModule&#45;&gt;DialWidgetComponent </title>
<path fill="none" stroke="black" stroke-dasharray="5,2" d="M2427.24,-137.8C2723.36,-137.8 3926.62,-137.8 3926.62,-137.8 3926.62,-137.8 3926.62,-168.78 3926.62,-168.78"/>
<polygon fill="black" stroke="black" points="3923.13,-168.78 3926.62,-178.78 3930.13,-168.78 3923.13,-168.78"/>
</g>
<!-- DtesChartComponent  -->
<g id="node33" class="node">
<title>DtesChartComponent </title>
<polygon fill="#fb8072" stroke="black" points="3883.6,-214.8 3742.4,-214.8 3742.4,-178.8 3883.6,-178.8 3883.6,-214.8"/>
<text text-anchor="middle" x="3813" y="-192.6" font-family="Times,serif" font-size="14.00">DtesChartComponent </text>
</g>
<!-- ComponentsModule&#45;&gt;DtesChartComponent  -->
<g id="edge32" class="edge">
<title>ComponentsModule&#45;&gt;DtesChartComponent </title>
<path fill="none" stroke="black" stroke-dasharray="5,2" d="M2427.3,-138.8C2703.88,-138.8 3764.62,-138.8 3764.62,-138.8 3764.62,-138.8 3764.62,-168.77 3764.62,-168.77"/>
<polygon fill="black" stroke="black" points="3761.13,-168.77 3764.62,-178.77 3768.13,-168.77 3761.13,-168.77"/>
</g>
<!-- EtpChartComponent  -->
<g id="node34" class="node">
<title>EtpChartComponent </title>
<polygon fill="#fb8072" stroke="black" points="3724.88,-214.8 3589.12,-214.8 3589.12,-178.8 3724.88,-178.8 3724.88,-214.8"/>
<text text-anchor="middle" x="3657" y="-192.6" font-family="Times,serif" font-size="14.00">EtpChartComponent </text>
</g>
<!-- ComponentsModule&#45;&gt;EtpChartComponent  -->
<g id="edge33" class="edge">
<title>ComponentsModule&#45;&gt;EtpChartComponent </title>
<path fill="none" stroke="black" stroke-dasharray="5,2" d="M2427.35,-140.8C2684.16,-140.8 3610.12,-140.8 3610.12,-140.8 3610.12,-140.8 3610.12,-168.77 3610.12,-168.77"/>
<polygon fill="black" stroke="black" points="3606.63,-168.77 3610.12,-178.77 3613.63,-168.77 3606.63,-168.77"/>
</g>
<!-- EtpPreviewComponent  -->
<g id="node35" class="node">
<title>EtpPreviewComponent </title>
<polygon fill="#fb8072" stroke="black" points="3571.15,-214.8 3420.85,-214.8 3420.85,-178.8 3571.15,-178.8 3571.15,-214.8"/>
<text text-anchor="middle" x="3496" y="-192.6" font-family="Times,serif" font-size="14.00">EtpPreviewComponent </text>
</g>
<!-- ComponentsModule&#45;&gt;EtpPreviewComponent  -->
<g id="edge34" class="edge">
<title>ComponentsModule&#45;&gt;EtpPreviewComponent </title>
<path fill="none" stroke="black" stroke-dasharray="5,2" d="M2427.27,-141.8C2662.24,-141.8 3451.12,-141.8 3451.12,-141.8 3451.12,-141.8 3451.12,-168.79 3451.12,-168.79"/>
<polygon fill="black" stroke="black" points="3447.63,-168.79 3451.12,-178.79 3454.63,-168.79 3447.63,-168.79"/>
</g>
<!-- FiguresWidgetComponent  -->
<g id="node36" class="node">
<title>FiguresWidgetComponent </title>
<polygon fill="#fb8072" stroke="black" points="3403.04,-214.8 3234.96,-214.8 3234.96,-178.8 3403.04,-178.8 3403.04,-214.8"/>
<text text-anchor="middle" x="3319" y="-192.6" font-family="Times,serif" font-size="14.00">FiguresWidgetComponent </text>
</g>
<!-- ComponentsModule&#45;&gt;FiguresWidgetComponent  -->
<g id="edge35" class="edge">
<title>ComponentsModule&#45;&gt;FiguresWidgetComponent </title>
<path fill="none" stroke="black" stroke-dasharray="5,2" d="M2427.34,-143.8C2636.45,-143.8 3275.62,-143.8 3275.62,-143.8 3275.62,-143.8 3275.62,-168.56 3275.62,-168.56"/>
<polygon fill="black" stroke="black" points="3272.13,-168.56 3275.62,-178.56 3279.13,-168.56 3272.13,-168.56"/>
</g>
<!-- InOutChartComponent  -->
<g id="node37" class="node">
<title>InOutChartComponent </title>
<polygon fill="#fb8072" stroke="black" points="3217.1,-214.8 3068.9,-214.8 3068.9,-178.8 3217.1,-178.8 3217.1,-214.8"/>
<text text-anchor="middle" x="3143" y="-192.6" font-family="Times,serif" font-size="14.00">InOutChartComponent </text>
</g>
<!-- ComponentsModule&#45;&gt;InOutChartComponent  -->
<g id="edge36" class="edge">
<title>ComponentsModule&#45;&gt;InOutChartComponent </title>
<path fill="none" stroke="black" stroke-dasharray="5,2" d="M2427.27,-144.8C2607.89,-144.8 3101.12,-144.8 3101.12,-144.8 3101.12,-144.8 3101.12,-168.61 3101.12,-168.61"/>
<polygon fill="black" stroke="black" points="3097.63,-168.61 3101.12,-178.61 3104.63,-168.61 3097.63,-168.61"/>
</g>
<!-- InputButtonComponent  -->
<g id="node38" class="node">
<title>InputButtonComponent </title>
<polygon fill="#fb8072" stroke="black" points="3050,-214.8 2898,-214.8 2898,-178.8 3050,-178.8 3050,-214.8"/>
<text text-anchor="middle" x="2974" y="-192.6" font-family="Times,serif" font-size="14.00">InputButtonComponent </text>
</g>
<!-- ComponentsModule&#45;&gt;InputButtonComponent  -->
<g id="edge37" class="edge">
<title>ComponentsModule&#45;&gt;InputButtonComponent </title>
<path fill="none" stroke="black" stroke-dasharray="5,2" d="M2427.35,-145.8C2577.47,-145.8 2934.12,-145.8 2934.12,-145.8 2934.12,-145.8 2934.12,-168.68 2934.12,-168.68"/>
<polygon fill="black" stroke="black" points="2930.63,-168.68 2934.12,-178.68 2937.63,-168.68 2930.63,-168.68"/>
</g>
<!-- InputPercentageComponent  -->
<g id="node39" class="node">
<title>InputPercentageComponent </title>
<polygon fill="#fb8072" stroke="black" points="2879.79,-214.8 2704.21,-214.8 2704.21,-178.8 2879.79,-178.8 2879.79,-214.8"/>
<text text-anchor="middle" x="2792" y="-192.6" font-family="Times,serif" font-size="14.00">InputPercentageComponent </text>
</g>
<!-- ComponentsModule&#45;&gt;InputPercentageComponent  -->
<g id="edge38" class="edge">
<title>ComponentsModule&#45;&gt;InputPercentageComponent </title>
<path fill="none" stroke="black" stroke-dasharray="5,2" d="M2427.55,-147.8C2539.04,-147.8 2753.62,-147.8 2753.62,-147.8 2753.62,-147.8 2753.62,-168.55 2753.62,-168.55"/>
<polygon fill="black" stroke="black" points="2750.13,-168.55 2753.62,-178.55 2757.13,-168.55 2750.13,-168.55"/>
</g>
<!-- LegendLabelComponent  -->
<g id="node40" class="node">
<title>LegendLabelComponent </title>
<polygon fill="#fb8072" stroke="black" points="2686.18,-214.8 2527.82,-214.8 2527.82,-178.8 2686.18,-178.8 2686.18,-214.8"/>
<text text-anchor="middle" x="2607" y="-192.6" font-family="Times,serif" font-size="14.00">LegendLabelComponent </text>
</g>
<!-- ComponentsModule&#45;&gt;LegendLabelComponent  -->
<g id="edge39" class="edge">
<title>ComponentsModule&#45;&gt;LegendLabelComponent </title>
<path fill="none" stroke="black" stroke-dasharray="5,2" d="M2427.28,-148.8C2488.32,-148.8 2570.12,-148.8 2570.12,-148.8 2570.12,-148.8 2570.12,-168.65 2570.12,-168.65"/>
<polygon fill="black" stroke="black" points="2566.63,-168.65 2570.12,-178.65 2573.63,-168.65 2566.63,-168.65"/>
</g>
<!-- ListSelectionComponent  -->
<g id="node41" class="node">
<title>ListSelectionComponent </title>
<polygon fill="#fb8072" stroke="black" points="2509.21,-214.8 2350.79,-214.8 2350.79,-178.8 2509.21,-178.8 2509.21,-214.8"/>
<text text-anchor="middle" x="2430" y="-192.6" font-family="Times,serif" font-size="14.00">ListSelectionComponent </text>
</g>
<!-- ComponentsModule&#45;&gt;ListSelectionComponent  -->
<g id="edge40" class="edge">
<title>ComponentsModule&#45;&gt;ListSelectionComponent </title>
<path fill="none" stroke="black" stroke-dasharray="5,2" d="M2388.91,-149.91C2388.91,-149.91 2388.91,-168.79 2388.91,-168.79"/>
<polygon fill="black" stroke="black" points="2385.41,-168.79 2388.91,-178.79 2392.41,-168.79 2385.41,-168.79"/>
</g>
<!-- LoadersWidgetComponent  -->
<g id="node42" class="node">
<title>LoadersWidgetComponent </title>
<polygon fill="#fb8072" stroke="black" points="2332.63,-214.8 2161.37,-214.8 2161.37,-178.8 2332.63,-178.8 2332.63,-214.8"/>
<text text-anchor="middle" x="2247" y="-192.6" font-family="Times,serif" font-size="14.00">LoadersWidgetComponent </text>
</g>
<!-- ComponentsModule&#45;&gt;LoadersWidgetComponent  -->
<g id="edge41" class="edge">
<title>ComponentsModule&#45;&gt;LoadersWidgetComponent </title>
<path fill="none" stroke="black" stroke-dasharray="5,2" d="M2314.7,-149.91C2314.7,-149.91 2314.7,-168.79 2314.7,-168.79"/>
<polygon fill="black" stroke="black" points="2311.2,-168.79 2314.7,-178.79 2318.2,-168.79 2311.2,-168.79"/>
</g>
<!-- OptionsBackupPanelComponent  -->
<g id="node43" class="node">
<title>OptionsBackupPanelComponent </title>
<polygon fill="#fb8072" stroke="black" points="2143.54,-214.8 1940.46,-214.8 1940.46,-178.8 2143.54,-178.8 2143.54,-214.8"/>
<text text-anchor="middle" x="2042" y="-192.6" font-family="Times,serif" font-size="14.00">OptionsBackupPanelComponent </text>
</g>
<!-- ComponentsModule&#45;&gt;OptionsBackupPanelComponent  -->
<g id="edge42" class="edge">
<title>ComponentsModule&#45;&gt;OptionsBackupPanelComponent </title>
<path fill="none" stroke="black" stroke-dasharray="5,2" d="M2296.56,-148.8C2225.3,-148.8 2121.35,-148.8 2121.35,-148.8 2121.35,-148.8 2121.35,-168.65 2121.35,-168.65"/>
<polygon fill="black" stroke="black" points="2117.85,-168.65 2121.35,-178.65 2124.85,-168.65 2117.85,-168.65"/>
</g>
<!-- PanelActivitiesComponent  -->
<g id="node44" class="node">
<title>PanelActivitiesComponent </title>
<polygon fill="#fb8072" stroke="black" points="1922.37,-214.8 1751.63,-214.8 1751.63,-178.8 1922.37,-178.8 1922.37,-214.8"/>
<text text-anchor="middle" x="1837" y="-192.6" font-family="Times,serif" font-size="14.00">PanelActivitiesComponent </text>
</g>
<!-- ComponentsModule&#45;&gt;PanelActivitiesComponent  -->
<g id="edge43" class="edge">
<title>ComponentsModule&#45;&gt;PanelActivitiesComponent </title>
<path fill="none" stroke="black" stroke-dasharray="5,2" d="M2296.54,-147.8C2169.46,-147.8 1901.71,-147.8 1901.71,-147.8 1901.71,-147.8 1901.71,-168.55 1901.71,-168.55"/>
<polygon fill="black" stroke="black" points="1898.21,-168.55 1901.71,-178.55 1905.21,-168.55 1898.21,-168.55"/>
</g>
<!-- PopupComponent  -->
<g id="node45" class="node">
<title>PopupComponent </title>
<polygon fill="#fb8072" stroke="black" points="1734.12,-214.8 1613.88,-214.8 1613.88,-178.8 1734.12,-178.8 1734.12,-214.8"/>
<text text-anchor="middle" x="1674" y="-192.6" font-family="Times,serif" font-size="14.00">PopupComponent </text>
</g>
<!-- ComponentsModule&#45;&gt;PopupComponent  -->
<g id="edge44" class="edge">
<title>ComponentsModule&#45;&gt;PopupComponent </title>
<path fill="none" stroke="black" stroke-dasharray="5,2" d="M2296.75,-145.8C2132.58,-145.8 1715.44,-145.8 1715.44,-145.8 1715.44,-145.8 1715.44,-168.68 1715.44,-168.68"/>
<polygon fill="black" stroke="black" points="1711.94,-168.68 1715.44,-178.68 1718.94,-168.68 1711.94,-168.68"/>
</g>
<!-- ProgressionBarComponent  -->
<g id="node46" class="node">
<title>ProgressionBarComponent </title>
<polygon fill="#fb8072" stroke="black" points="1595.66,-214.8 1424.34,-214.8 1424.34,-178.8 1595.66,-178.8 1595.66,-214.8"/>
<text text-anchor="middle" x="1510" y="-192.6" font-family="Times,serif" font-size="14.00">ProgressionBarComponent </text>
</g>
<!-- ComponentsModule&#45;&gt;ProgressionBarComponent  -->
<g id="edge45" class="edge">
<title>ComponentsModule&#45;&gt;ProgressionBarComponent </title>
<path fill="none" stroke="black" stroke-dasharray="5,2" d="M2296.55,-144.8C2108.24,-144.8 1578.51,-144.8 1578.51,-144.8 1578.51,-144.8 1578.51,-168.61 1578.51,-168.61"/>
<polygon fill="black" stroke="black" points="1575.01,-168.61 1578.51,-178.61 1582.01,-168.61 1575.01,-168.61"/>
</g>
<!-- RadioButtonComponent  -->
<g id="node47" class="node">
<title>RadioButtonComponent </title>
<polygon fill="#fb8072" stroke="black" points="1406.39,-214.8 1249.61,-214.8 1249.61,-178.8 1406.39,-178.8 1406.39,-214.8"/>
<text text-anchor="middle" x="1328" y="-192.6" font-family="Times,serif" font-size="14.00">RadioButtonComponent </text>
</g>
<!-- ComponentsModule&#45;&gt;RadioButtonComponent  -->
<g id="edge46" class="edge">
<title>ComponentsModule&#45;&gt;RadioButtonComponent </title>
<path fill="none" stroke="black" stroke-dasharray="5,2" d="M2296.79,-143.8C2079.13,-143.8 1391.18,-143.8 1391.18,-143.8 1391.18,-143.8 1391.18,-168.56 1391.18,-168.56"/>
<polygon fill="black" stroke="black" points="1387.68,-168.56 1391.18,-178.56 1394.68,-168.56 1387.68,-168.56"/>
</g>
<!-- ReferentielCalculatorComponent  -->
<g id="node48" class="node">
<title>ReferentielCalculatorComponent </title>
<polygon fill="#fb8072" stroke="black" points="1231.83,-214.8 1026.17,-214.8 1026.17,-178.8 1231.83,-178.8 1231.83,-214.8"/>
<text text-anchor="middle" x="1129" y="-192.6" font-family="Times,serif" font-size="14.00">ReferentielCalculatorComponent </text>
</g>
<!-- ComponentsModule&#45;&gt;ReferentielCalculatorComponent  -->
<g id="edge47" class="edge">
<title>ComponentsModule&#45;&gt;ReferentielCalculatorComponent </title>
<path fill="none" stroke="black" stroke-dasharray="5,2" d="M2296.42,-141.8C2053.46,-141.8 1218.61,-141.8 1218.61,-141.8 1218.61,-141.8 1218.61,-168.79 1218.61,-168.79"/>
<polygon fill="black" stroke="black" points="1215.11,-168.79 1218.61,-178.79 1222.11,-168.79 1215.11,-168.79"/>
</g>
<!-- SelectCheckAllComponent  -->
<g id="node49" class="node">
<title>SelectCheckAllComponent </title>
<polygon fill="#fb8072" stroke="black" points="1008.19,-214.8 835.81,-214.8 835.81,-178.8 1008.19,-178.8 1008.19,-214.8"/>
<text text-anchor="middle" x="922" y="-192.6" font-family="Times,serif" font-size="14.00">SelectCheckAllComponent </text>
</g>
<!-- ComponentsModule&#45;&gt;SelectCheckAllComponent  -->
<g id="edge48" class="edge">
<title>ComponentsModule&#45;&gt;SelectCheckAllComponent </title>
<path fill="none" stroke="black" stroke-dasharray="5,2" d="M2296.63,-140.8C2024.71,-140.8 997.22,-140.8 997.22,-140.8 997.22,-140.8 997.22,-168.77 997.22,-168.77"/>
<polygon fill="black" stroke="black" points="993.72,-168.77 997.22,-178.77 1000.72,-168.77 993.72,-168.77"/>
</g>
<!-- SelectComponent  -->
<g id="node50" class="node">
<title>SelectComponent </title>
<polygon fill="#fb8072" stroke="black" points="817.54,-214.8 698.46,-214.8 698.46,-178.8 817.54,-178.8 817.54,-214.8"/>
<text text-anchor="middle" x="758" y="-192.6" font-family="Times,serif" font-size="14.00">SelectComponent </text>
</g>
<!-- ComponentsModule&#45;&gt;SelectComponent  -->
<g id="edge49" class="edge">
<title>ComponentsModule&#45;&gt;SelectComponent </title>
<path fill="none" stroke="black" stroke-dasharray="5,2" d="M2296.71,-138.8C2001.76,-138.8 807.96,-138.8 807.96,-138.8 807.96,-138.8 807.96,-168.77 807.96,-168.77"/>
<polygon fill="black" stroke="black" points="804.46,-168.77 807.96,-178.77 811.46,-168.77 804.46,-168.77"/>
</g>
<!-- SpeedometerComponent  -->
<g id="node51" class="node">
<title>SpeedometerComponent </title>
<polygon fill="#fb8072" stroke="black" points="680.91,-214.8 523.09,-214.8 523.09,-178.8 680.91,-178.8 680.91,-214.8"/>
<text text-anchor="middle" x="602" y="-192.6" font-family="Times,serif" font-size="14.00">SpeedometerComponent </text>
</g>
<!-- ComponentsModule&#45;&gt;SpeedometerComponent  -->
<g id="edge50" class="edge">
<title>ComponentsModule&#45;&gt;SpeedometerComponent </title>
<path fill="none" stroke="black" stroke-dasharray="5,2" d="M2296.83,-137.8C1986.45,-137.8 673.09,-137.8 673.09,-137.8 673.09,-137.8 673.09,-168.78 673.09,-168.78"/>
<polygon fill="black" stroke="black" points="669.59,-168.78 673.09,-178.78 676.59,-168.78 669.59,-168.78"/>
</g>
<!-- TimeSelectorComponent  -->
<g id="node52" class="node">
<title>TimeSelectorComponent </title>
<polygon fill="#fb8072" stroke="black" points="505.25,-214.8 344.75,-214.8 344.75,-178.8 505.25,-178.8 505.25,-214.8"/>
<text text-anchor="middle" x="425" y="-192.6" font-family="Times,serif" font-size="14.00">TimeSelectorComponent </text>
</g>
<!-- ComponentsModule&#45;&gt;TimeSelectorComponent  -->
<g id="edge51" class="edge">
<title>ComponentsModule&#45;&gt;TimeSelectorComponent </title>
<path fill="none" stroke="black" stroke-dasharray="5,2" d="M2296.79,-136.8C1967.04,-136.8 498.96,-136.8 498.96,-136.8 498.96,-136.8 498.96,-168.8 498.96,-168.8"/>
<polygon fill="black" stroke="black" points="495.46,-168.8 498.96,-178.8 502.46,-168.8 495.46,-168.8"/>
</g>
<!-- TooltipsComponent  -->
<g id="node53" class="node">
<title>TooltipsComponent </title>
<polygon fill="#fb8072" stroke="black" points="326.5,-214.8 195.5,-214.8 195.5,-178.8 326.5,-178.8 326.5,-214.8"/>
<text text-anchor="middle" x="261" y="-192.6" font-family="Times,serif" font-size="14.00">TooltipsComponent </text>
</g>
<!-- ComponentsModule&#45;&gt;TooltipsComponent  -->
<g id="edge52" class="edge">
<title>ComponentsModule&#45;&gt;TooltipsComponent </title>
<path fill="none" stroke="black" stroke-dasharray="5,2" d="M2296.73,-134.8C1948.19,-134.8 322.19,-134.8 322.19,-134.8 322.19,-134.8 322.19,-168.53 322.19,-168.53"/>
<polygon fill="black" stroke="black" points="318.69,-168.53 322.19,-178.53 325.69,-168.53 318.69,-168.53"/>
</g>
<!-- WrapperComponent  -->
<g id="node54" class="node">
<title>WrapperComponent </title>
<polygon fill="#fb8072" stroke="black" points="176.8,-214.8 43.2,-214.8 43.2,-178.8 176.8,-178.8 176.8,-214.8"/>
<text text-anchor="middle" x="110" y="-192.6" font-family="Times,serif" font-size="14.00">WrapperComponent </text>
</g>
<!-- ComponentsModule&#45;&gt;WrapperComponent  -->
<g id="edge53" class="edge">
<title>ComponentsModule&#45;&gt;WrapperComponent </title>
<path fill="none" stroke="black" stroke-dasharray="5,2" d="M2296.79,-133.8C1932.24,-133.8 163.07,-133.8 163.07,-133.8 163.07,-133.8 163.07,-168.58 163.07,-168.58"/>
<polygon fill="black" stroke="black" points="159.57,-168.58 163.07,-178.58 166.57,-168.58 159.57,-168.58"/>
</g>
<!-- MaterialModule -->
<g id="node28" class="node">
<title>MaterialModule</title>
<polygon fill="#8dd3c7" stroke="black" points="4626.47,-84.8 4623.47,-88.8 4602.47,-88.8 4599.47,-84.8 4519.53,-84.8 4519.53,-48.8 4626.47,-48.8 4626.47,-84.8"/>
<text text-anchor="middle" x="4573" y="-62.6" font-family="Times,serif" font-size="14.00">MaterialModule</text>
</g>
<!-- MaterialModule&#45;&gt;ComponentsModule -->
<g id="edge27" class="edge">
<title>MaterialModule&#45;&gt;ComponentsModule</title>
<path fill="none" stroke="black" d="M4563.84,-84.91C4563.84,-104.14 4563.84,-131.8 4563.84,-131.8 4563.84,-131.8 2437.3,-131.8 2437.3,-131.8"/>
<polygon fill="black" stroke="black" points="2437.3,-128.3 2427.3,-131.8 2437.3,-135.3 2437.3,-128.3"/>
</g>
</g>
</svg>
