<?xml version="1.0" encoding="UTF-8" standalone="no"?>
<!DOCTYPE svg PUBLIC "-//W3C//DTD SVG 1.1//EN"
 "http://www.w3.org/Graphics/SVG/1.1/DTD/svg11.dtd">
<!-- Generated by graphviz version 3.0.0 (20220226.1711)
 -->
<!-- Title: dependencies Pages: 1 -->
<svg width="832pt" height="247pt"
 viewBox="0.00 0.00 832.00 246.80" xmlns="http://www.w3.org/2000/svg" xmlns:xlink="http://www.w3.org/1999/xlink">
<g id="graph0" class="graph" transform="scale(1 1) rotate(0) translate(4 242.8)">
<title>dependencies</title>
<polygon fill="white" stroke="transparent" points="-4,4 -4,-242.8 828,-242.8 828,4 -4,4"/>
<text text-anchor="middle" x="412" y="-8.2" font-family="sans-serif" font-size="14.00">dependencies</text>
<g id="clust1" class="cluster">
<title>cluster_ComponentsModule</title>
<polygon fill="none" stroke="black" stroke-dasharray="1,5" points="8,-32.8 8,-230.8 816,-230.8 816,-32.8 8,-32.8"/>
</g>
<g id="clust8" class="cluster">
<title>cluster_ComponentsModule_imports</title>
<polygon fill="none" stroke="black" points="686,-40.8 686,-92.8 808,-92.8 808,-40.8 686,-40.8"/>
</g>
<g id="clust9" class="cluster">
<title>cluster_ComponentsModule_exports</title>
<polygon fill="none" stroke="black" points="73,-170.8 73,-222.8 751,-222.8 751,-170.8 73,-170.8"/>
</g>
<g id="clust2" class="cluster">
<title>cluster_ComponentsModule_declarations</title>
<polygon fill="none" stroke="black" points="16,-40.8 16,-92.8 678,-92.8 678,-40.8 16,-40.8"/>
</g>
<!-- SanitizeHtmlPipe -->
<g id="node1" class="node">
<title>SanitizeHtmlPipe</title>
<polygon fill="#ffffb3" stroke="black" points="670.27,-84.8 555.73,-84.8 555.73,-48.8 670.27,-48.8 670.27,-84.8"/>
<text text-anchor="middle" x="613" y="-62.6" font-family="Times,serif" font-size="14.00">SanitizeHtmlPipe</text>
</g>
<!-- ComponentsModule -->
<g id="node6" class="node">
<title>ComponentsModule</title>
<polygon fill="#8dd3c7" stroke="black" points="435.33,-149.8 432.33,-153.8 411.33,-153.8 408.33,-149.8 304.67,-149.8 304.67,-113.8 435.33,-113.8 435.33,-149.8"/>
<text text-anchor="middle" x="370" y="-127.6" font-family="Times,serif" font-size="14.00">ComponentsModule</text>
</g>
<!-- SanitizeHtmlPipe&#45;&gt;ComponentsModule -->
<g id="edge1" class="edge">
<title>SanitizeHtmlPipe&#45;&gt;ComponentsModule</title>
<path fill="none" stroke="black" d="M581.37,-84.81C581.37,-100.85 581.37,-121.8 581.37,-121.8 581.37,-121.8 445.43,-121.8 445.43,-121.8"/>
<polygon fill="black" stroke="black" points="445.43,-118.3 435.43,-121.8 445.43,-125.3 445.43,-118.3"/>
</g>
<!-- SanitizeResourceUrlPipe -->
<g id="node2" class="node">
<title>SanitizeResourceUrlPipe</title>
<polygon fill="#ffffb3" stroke="black" points="537.24,-84.8 380.76,-84.8 380.76,-48.8 537.24,-48.8 537.24,-84.8"/>
<text text-anchor="middle" x="459" y="-62.6" font-family="Times,serif" font-size="14.00">SanitizeResourceUrlPipe</text>
</g>
<!-- SanitizeResourceUrlPipe&#45;&gt;ComponentsModule -->
<g id="edge2" class="edge">
<title>SanitizeResourceUrlPipe&#45;&gt;ComponentsModule</title>
<path fill="none" stroke="black" d="M407.9,-84.91C407.9,-84.91 407.9,-103.79 407.9,-103.79"/>
<polygon fill="black" stroke="black" points="404.4,-103.79 407.9,-113.79 411.4,-103.79 404.4,-103.79"/>
</g>
<!-- SanitizeStylePipe -->
<g id="node3" class="node">
<title>SanitizeStylePipe</title>
<polygon fill="#ffffb3" stroke="black" points="362.27,-84.8 247.73,-84.8 247.73,-48.8 362.27,-48.8 362.27,-84.8"/>
<text text-anchor="middle" x="305" y="-62.6" font-family="Times,serif" font-size="14.00">SanitizeStylePipe</text>
</g>
<!-- SanitizeStylePipe&#45;&gt;ComponentsModule -->
<g id="edge3" class="edge">
<title>SanitizeStylePipe&#45;&gt;ComponentsModule</title>
<path fill="none" stroke="black" d="M333.61,-84.91C333.61,-84.91 333.61,-103.79 333.61,-103.79"/>
<polygon fill="black" stroke="black" points="330.11,-103.79 333.61,-113.79 337.11,-103.79 330.11,-103.79"/>
</g>
<!-- SanitizeUrlPipe -->
<g id="node4" class="node">
<title>SanitizeUrlPipe</title>
<polygon fill="#ffffb3" stroke="black" points="229.15,-84.8 124.85,-84.8 124.85,-48.8 229.15,-48.8 229.15,-84.8"/>
<text text-anchor="middle" x="177" y="-62.6" font-family="Times,serif" font-size="14.00">SanitizeUrlPipe</text>
</g>
<!-- SanitizeUrlPipe&#45;&gt;ComponentsModule -->
<g id="edge4" class="edge">
<title>SanitizeUrlPipe&#45;&gt;ComponentsModule</title>
<path fill="none" stroke="black" d="M207.12,-84.81C207.12,-100.85 207.12,-121.8 207.12,-121.8 207.12,-121.8 294.69,-121.8 294.69,-121.8"/>
<polygon fill="black" stroke="black" points="294.69,-125.3 304.69,-121.8 294.69,-118.3 294.69,-125.3"/>
</g>
<!-- UcFirstPipe -->
<g id="node5" class="node">
<title>UcFirstPipe</title>
<polygon fill="#ffffb3" stroke="black" points="106.39,-84.8 23.61,-84.8 23.61,-48.8 106.39,-48.8 106.39,-84.8"/>
<text text-anchor="middle" x="65" y="-62.6" font-family="Times,serif" font-size="14.00">UcFirstPipe</text>
</g>
<!-- UcFirstPipe&#45;&gt;ComponentsModule -->
<g id="edge5" class="edge">
<title>UcFirstPipe&#45;&gt;ComponentsModule</title>
<path fill="none" stroke="black" d="M93.62,-85.07C93.62,-103.36 93.62,-128.8 93.62,-128.8 93.62,-128.8 294.5,-128.8 294.5,-128.8"/>
<polygon fill="black" stroke="black" points="294.5,-132.3 304.5,-128.8 294.5,-125.3 294.5,-132.3"/>
</g>
<!-- SanitizeHtmlPipe  -->
<g id="node8" class="node">
<title>SanitizeHtmlPipe </title>
<polygon fill="#fb8072" stroke="black" points="743.27,-214.8 624.73,-214.8 624.73,-178.8 743.27,-178.8 743.27,-214.8"/>
<text text-anchor="middle" x="684" y="-192.6" font-family="Times,serif" font-size="14.00">SanitizeHtmlPipe </text>
</g>
<!-- ComponentsModule&#45;&gt;SanitizeHtmlPipe  -->
<g id="edge7" class="edge">
<title>ComponentsModule&#45;&gt;SanitizeHtmlPipe </title>
<path fill="none" stroke="black" stroke-dasharray="5,2" d="M435.44,-135.8C517.52,-135.8 647.62,-135.8 647.62,-135.8 647.62,-135.8 647.62,-168.5 647.62,-168.5"/>
<polygon fill="black" stroke="black" points="644.13,-168.5 647.62,-178.5 651.13,-168.5 644.13,-168.5"/>
</g>
<!-- SanitizeResourceUrlPipe  -->
<g id="node9" class="node">
<title>SanitizeResourceUrlPipe </title>
<polygon fill="#fb8072" stroke="black" points="607.24,-214.8 446.76,-214.8 446.76,-178.8 607.24,-178.8 607.24,-214.8"/>
<text text-anchor="middle" x="527" y="-192.6" font-family="Times,serif" font-size="14.00">SanitizeResourceUrlPipe </text>
</g>
<!-- ComponentsModule&#45;&gt;SanitizeResourceUrlPipe  -->
<g id="edge8" class="edge">
<title>ComponentsModule&#45;&gt;SanitizeResourceUrlPipe </title>
<path fill="none" stroke="black" stroke-dasharray="5,2" d="M435.35,-142.8C464.39,-142.8 492.12,-142.8 492.12,-142.8 492.12,-142.8 492.12,-168.52 492.12,-168.52"/>
<polygon fill="black" stroke="black" points="488.63,-168.52 492.12,-178.52 495.63,-168.52 488.63,-168.52"/>
</g>
<!-- SanitizeStylePipe  -->
<g id="node10" class="node">
<title>SanitizeStylePipe </title>
<polygon fill="#fb8072" stroke="black" points="429.27,-214.8 310.73,-214.8 310.73,-178.8 429.27,-178.8 429.27,-214.8"/>
<text text-anchor="middle" x="370" y="-192.6" font-family="Times,serif" font-size="14.00">SanitizeStylePipe </text>
</g>
<!-- ComponentsModule&#45;&gt;SanitizeStylePipe  -->
<g id="edge9" class="edge">
<title>ComponentsModule&#45;&gt;SanitizeStylePipe </title>
<path fill="none" stroke="black" stroke-dasharray="5,2" d="M370,-149.91C370,-149.91 370,-168.79 370,-168.79"/>
<polygon fill="black" stroke="black" points="366.5,-168.79 370,-178.79 373.5,-168.79 366.5,-168.79"/>
</g>
<!-- SanitizeUrlPipe  -->
<g id="node11" class="node">
<title>SanitizeUrlPipe </title>
<polygon fill="#fb8072" stroke="black" points="293.15,-214.8 184.85,-214.8 184.85,-178.8 293.15,-178.8 293.15,-214.8"/>
<text text-anchor="middle" x="239" y="-192.6" font-family="Times,serif" font-size="14.00">SanitizeUrlPipe </text>
</g>
<!-- ComponentsModule&#45;&gt;SanitizeUrlPipe  -->
<g id="edge10" class="edge">
<title>ComponentsModule&#45;&gt;SanitizeUrlPipe </title>
<path fill="none" stroke="black" stroke-dasharray="5,2" d="M304.64,-142.8C285.86,-142.8 270.35,-142.8 270.35,-142.8 270.35,-142.8 270.35,-168.52 270.35,-168.52"/>
<polygon fill="black" stroke="black" points="266.85,-168.52 270.35,-178.52 273.85,-168.52 266.85,-168.52"/>
</g>
<!-- UcFirstPipe  -->
<g id="node12" class="node">
<title>UcFirstPipe </title>
<polygon fill="#fb8072" stroke="black" points="167.39,-214.8 80.61,-214.8 80.61,-178.8 167.39,-178.8 167.39,-214.8"/>
<text text-anchor="middle" x="124" y="-192.6" font-family="Times,serif" font-size="14.00">UcFirstPipe </text>
</g>
<!-- ComponentsModule&#45;&gt;UcFirstPipe  -->
<g id="edge11" class="edge">
<title>ComponentsModule&#45;&gt;UcFirstPipe </title>
<path fill="none" stroke="black" stroke-dasharray="5,2" d="M304.59,-135.8C238.45,-135.8 145.94,-135.8 145.94,-135.8 145.94,-135.8 145.94,-168.5 145.94,-168.5"/>
<polygon fill="black" stroke="black" points="142.44,-168.5 145.94,-178.5 149.44,-168.5 142.44,-168.5"/>
</g>
<!-- MaterialModule -->
<g id="node7" class="node">
<title>MaterialModule</title>
<polygon fill="#8dd3c7" stroke="black" points="800.47,-84.8 797.47,-88.8 776.47,-88.8 773.47,-84.8 693.53,-84.8 693.53,-48.8 800.47,-48.8 800.47,-84.8"/>
<text text-anchor="middle" x="747" y="-62.6" font-family="Times,serif" font-size="14.00">MaterialModule</text>
</g>
<!-- MaterialModule&#45;&gt;ComponentsModule -->
<g id="edge6" class="edge">
<title>MaterialModule&#45;&gt;ComponentsModule</title>
<path fill="none" stroke="black" d="M718.32,-85.07C718.32,-103.36 718.32,-128.8 718.32,-128.8 718.32,-128.8 445.52,-128.8 445.52,-128.8"/>
<polygon fill="black" stroke="black" points="445.52,-125.3 435.52,-128.8 445.52,-132.3 445.52,-125.3"/>
</g>
</g>
</svg>
