<?xml version="1.0" encoding="UTF-8" standalone="no"?>
<!DOCTYPE svg PUBLIC "-//W3C//DTD SVG 1.1//EN"
 "http://www.w3.org/Graphics/SVG/1.1/DTD/svg11.dtd">
<!-- Generated by graphviz version 3.0.0 (20220226.1711)
 -->
<!-- Title: dependencies Pages: 1 -->
<svg width="832pt" height="247pt"
 viewBox="0.00 0.00 832.00 246.80" xmlns="http://www.w3.org/2000/svg" xmlns:xlink="http://www.w3.org/1999/xlink">
<g id="graph0" class="graph" transform="scale(1 1) rotate(0) translate(4 242.8)">
<title>dependencies</title>
<polygon fill="white" stroke="transparent" points="-4,4 -4,-242.8 828,-242.8 828,4 -4,4"/>
<text text-anchor="middle" x="412" y="-8.2" font-family="sans-serif" font-size="14.00">dependencies</text>
<g id="clust1" class="cluster">
<title>cluster_ComponentsModule</title>
<polygon fill="none" stroke="black" stroke-dasharray="1,5" points="8,-32.8 8,-230.8 816,-230.8 816,-32.8 8,-32.8"/>
</g>
<g id="clust2" class="cluster">
<title>cluster_ComponentsModule_declarations</title>
<polygon fill="none" stroke="black" points="146,-40.8 146,-92.8 808,-92.8 808,-40.8 146,-40.8"/>
</g>
<g id="clust9" class="cluster">
<title>cluster_ComponentsModule_exports</title>
<polygon fill="none" stroke="black" points="73,-170.8 73,-222.8 751,-222.8 751,-170.8 73,-170.8"/>
</g>
<g id="clust8" class="cluster">
<title>cluster_ComponentsModule_imports</title>
<polygon fill="none" stroke="black" points="16,-40.8 16,-92.8 138,-92.8 138,-40.8 16,-40.8"/>
</g>
<!-- SanitizeHtmlPipe -->
<g id="node1" class="node">
<title>SanitizeHtmlPipe</title>
<polygon fill="#ffffb3" stroke="black" points="800.27,-84.8 685.73,-84.8 685.73,-48.8 800.27,-48.8 800.27,-84.8"/>
<text text-anchor="middle" x="743" y="-62.6" font-family="Times,serif" font-size="14.00">SanitizeHtmlPipe</text>
</g>
<!-- ComponentsModule -->
<g id="node6" class="node">
<title>ComponentsModule</title>
<polygon fill="#8dd3c7" stroke="black" points="435.33,-149.8 432.33,-153.8 411.33,-153.8 408.33,-149.8 304.67,-149.8 304.67,-113.8 435.33,-113.8 435.33,-149.8"/>
<text text-anchor="middle" x="370" y="-127.6" font-family="Times,serif" font-size="14.00">ComponentsModule</text>
</g>
<!-- SanitizeHtmlPipe&#45;&gt;ComponentsModule -->
<g id="edge1" class="edge">
<title>SanitizeHtmlPipe&#45;&gt;ComponentsModule</title>
<path fill="none" stroke="black" d="M714.38,-85.07C714.38,-103.36 714.38,-128.8 714.38,-128.8 714.38,-128.8 445.18,-128.8 445.18,-128.8"/>
<polygon fill="black" stroke="black" points="445.18,-125.3 435.18,-128.8 445.18,-132.3 445.18,-125.3"/>
</g>
<!-- SanitizeResourceUrlPipe -->
<g id="node2" class="node">
<title>SanitizeResourceUrlPipe</title>
<polygon fill="#ffffb3" stroke="black" points="667.24,-84.8 510.76,-84.8 510.76,-48.8 667.24,-48.8 667.24,-84.8"/>
<text text-anchor="middle" x="589" y="-62.6" font-family="Times,serif" font-size="14.00">SanitizeResourceUrlPipe</text>
</g>
<!-- SanitizeResourceUrlPipe&#45;&gt;ComponentsModule -->
<g id="edge2" class="edge">
<title>SanitizeResourceUrlPipe&#45;&gt;ComponentsModule</title>
<path fill="none" stroke="black" d="M558.88,-84.81C558.88,-100.85 558.88,-121.8 558.88,-121.8 558.88,-121.8 445.26,-121.8 445.26,-121.8"/>
<polygon fill="black" stroke="black" points="445.26,-118.3 435.26,-121.8 445.26,-125.3 445.26,-118.3"/>
</g>
<!-- SanitizeStylePipe -->
<g id="node3" class="node">
<title>SanitizeStylePipe</title>
<polygon fill="#ffffb3" stroke="black" points="492.27,-84.8 377.73,-84.8 377.73,-48.8 492.27,-48.8 492.27,-84.8"/>
<text text-anchor="middle" x="435" y="-62.6" font-family="Times,serif" font-size="14.00">SanitizeStylePipe</text>
</g>
<!-- SanitizeStylePipe&#45;&gt;ComponentsModule -->
<g id="edge3" class="edge">
<title>SanitizeStylePipe&#45;&gt;ComponentsModule</title>
<path fill="none" stroke="black" d="M406.39,-84.91C406.39,-84.91 406.39,-103.79 406.39,-103.79"/>
<polygon fill="black" stroke="black" points="402.89,-103.79 406.39,-113.79 409.89,-103.79 402.89,-103.79"/>
</g>
<!-- SanitizeUrlPipe -->
<g id="node4" class="node">
<title>SanitizeUrlPipe</title>
<polygon fill="#ffffb3" stroke="black" points="359.15,-84.8 254.85,-84.8 254.85,-48.8 359.15,-48.8 359.15,-84.8"/>
<text text-anchor="middle" x="307" y="-62.6" font-family="Times,serif" font-size="14.00">SanitizeUrlPipe</text>
</g>
<!-- SanitizeUrlPipe&#45;&gt;ComponentsModule -->
<g id="edge4" class="edge">
<title>SanitizeUrlPipe&#45;&gt;ComponentsModule</title>
<path fill="none" stroke="black" d="M332.08,-84.91C332.08,-84.91 332.08,-103.79 332.08,-103.79"/>
<polygon fill="black" stroke="black" points="328.58,-103.79 332.08,-113.79 335.58,-103.79 328.58,-103.79"/>
</g>
<!-- UcFirstPipe -->
<g id="node5" class="node">
<title>UcFirstPipe</title>
<polygon fill="#ffffb3" stroke="black" points="236.39,-84.8 153.61,-84.8 153.61,-48.8 236.39,-48.8 236.39,-84.8"/>
<text text-anchor="middle" x="195" y="-62.6" font-family="Times,serif" font-size="14.00">UcFirstPipe</text>
</g>
<!-- UcFirstPipe&#45;&gt;ComponentsModule -->
<g id="edge5" class="edge">
<title>UcFirstPipe&#45;&gt;ComponentsModule</title>
<path fill="none" stroke="black" d="M210.69,-84.81C210.69,-100.85 210.69,-121.8 210.69,-121.8 210.69,-121.8 294.74,-121.8 294.74,-121.8"/>
<polygon fill="black" stroke="black" points="294.74,-125.3 304.74,-121.8 294.74,-118.3 294.74,-125.3"/>
</g>
<!-- SanitizeHtmlPipe  -->
<g id="node8" class="node">
<title>SanitizeHtmlPipe </title>
<polygon fill="#fb8072" stroke="black" points="743.27,-214.8 624.73,-214.8 624.73,-178.8 743.27,-178.8 743.27,-214.8"/>
<text text-anchor="middle" x="684" y="-192.6" font-family="Times,serif" font-size="14.00">SanitizeHtmlPipe </text>
</g>
<!-- ComponentsModule&#45;&gt;SanitizeHtmlPipe  -->
<g id="edge7" class="edge">
<title>ComponentsModule&#45;&gt;SanitizeHtmlPipe </title>
<path fill="none" stroke="black" stroke-dasharray="5,2" d="M435.44,-135.8C517.09,-135.8 646.12,-135.8 646.12,-135.8 646.12,-135.8 646.12,-168.5 646.12,-168.5"/>
<polygon fill="black" stroke="black" points="642.62,-168.5 646.12,-178.5 649.62,-168.5 642.62,-168.5"/>
</g>
<!-- SanitizeResourceUrlPipe  -->
<g id="node9" class="node">
<title>SanitizeResourceUrlPipe </title>
<polygon fill="#fb8072" stroke="black" points="607.24,-214.8 446.76,-214.8 446.76,-178.8 607.24,-178.8 607.24,-214.8"/>
<text text-anchor="middle" x="527" y="-192.6" font-family="Times,serif" font-size="14.00">SanitizeResourceUrlPipe </text>
</g>
<!-- ComponentsModule&#45;&gt;SanitizeResourceUrlPipe  -->
<g id="edge8" class="edge">
<title>ComponentsModule&#45;&gt;SanitizeResourceUrlPipe </title>
<path fill="none" stroke="black" stroke-dasharray="5,2" d="M435.34,-142.8C454.12,-142.8 469.63,-142.8 469.63,-142.8 469.63,-142.8 469.63,-168.52 469.63,-168.52"/>
<polygon fill="black" stroke="black" points="466.13,-168.52 469.63,-178.52 473.13,-168.52 466.13,-168.52"/>
</g>
<!-- SanitizeStylePipe  -->
<g id="node10" class="node">
<title>SanitizeStylePipe </title>
<polygon fill="#fb8072" stroke="black" points="429.27,-214.8 310.73,-214.8 310.73,-178.8 429.27,-178.8 429.27,-214.8"/>
<text text-anchor="middle" x="370" y="-192.6" font-family="Times,serif" font-size="14.00">SanitizeStylePipe </text>
</g>
<!-- ComponentsModule&#45;&gt;SanitizeStylePipe  -->
<g id="edge9" class="edge">
<title>ComponentsModule&#45;&gt;SanitizeStylePipe </title>
<path fill="none" stroke="black" stroke-dasharray="5,2" d="M370,-149.91C370,-149.91 370,-168.79 370,-168.79"/>
<polygon fill="black" stroke="black" points="366.5,-168.79 370,-178.79 373.5,-168.79 366.5,-168.79"/>
</g>
<!-- SanitizeUrlPipe  -->
<g id="node11" class="node">
<title>SanitizeUrlPipe </title>
<polygon fill="#fb8072" stroke="black" points="293.15,-214.8 184.85,-214.8 184.85,-178.8 293.15,-178.8 293.15,-214.8"/>
<text text-anchor="middle" x="239" y="-192.6" font-family="Times,serif" font-size="14.00">SanitizeUrlPipe </text>
</g>
<!-- ComponentsModule&#45;&gt;SanitizeUrlPipe  -->
<g id="edge10" class="edge">
<title>ComponentsModule&#45;&gt;SanitizeUrlPipe </title>
<path fill="none" stroke="black" stroke-dasharray="5,2" d="M304.82,-142.8C287.68,-142.8 273.88,-142.8 273.88,-142.8 273.88,-142.8 273.88,-168.52 273.88,-168.52"/>
<polygon fill="black" stroke="black" points="270.38,-168.52 273.88,-178.52 277.38,-168.52 270.38,-168.52"/>
</g>
<!-- UcFirstPipe  -->
<g id="node12" class="node">
<title>UcFirstPipe </title>
<polygon fill="#fb8072" stroke="black" points="167.39,-214.8 80.61,-214.8 80.61,-178.8 167.39,-178.8 167.39,-214.8"/>
<text text-anchor="middle" x="124" y="-192.6" font-family="Times,serif" font-size="14.00">UcFirstPipe </text>
</g>
<!-- ComponentsModule&#45;&gt;UcFirstPipe  -->
<g id="edge11" class="edge">
<title>ComponentsModule&#45;&gt;UcFirstPipe </title>
<path fill="none" stroke="black" stroke-dasharray="5,2" d="M304.82,-135.8C243.29,-135.8 160.38,-135.8 160.38,-135.8 160.38,-135.8 160.38,-168.5 160.38,-168.5"/>
<polygon fill="black" stroke="black" points="156.88,-168.5 160.38,-178.5 163.88,-168.5 156.88,-168.5"/>
</g>
<!-- MaterialModule -->
<g id="node7" class="node">
<title>MaterialModule</title>
<polygon fill="#8dd3c7" stroke="black" points="130.47,-84.8 127.47,-88.8 106.47,-88.8 103.47,-84.8 23.53,-84.8 23.53,-48.8 130.47,-48.8 130.47,-84.8"/>
<text text-anchor="middle" x="77" y="-62.6" font-family="Times,serif" font-size="14.00">MaterialModule</text>
</g>
<!-- MaterialModule&#45;&gt;ComponentsModule -->
<g id="edge6" class="edge">
<title>MaterialModule&#45;&gt;ComponentsModule</title>
<path fill="none" stroke="black" d="M105.65,-85.07C105.65,-103.36 105.65,-128.8 105.65,-128.8 105.65,-128.8 294.65,-128.8 294.65,-128.8"/>
<polygon fill="black" stroke="black" points="294.65,-132.3 304.65,-128.8 294.65,-125.3 294.65,-132.3"/>
</g>
</g>
</svg>
