<?xml version="1.0" encoding="UTF-8" standalone="no"?>
<!DOCTYPE svg PUBLIC "-//W3C//DTD SVG 1.1//EN"
 "http://www.w3.org/Graphics/SVG/1.1/DTD/svg11.dtd">
<!-- Generated by graphviz version 3.0.0 (20220226.1711)
 -->
<!-- Title: dependencies Pages: 1 -->
<svg width="5097pt" height="247pt"
 viewBox="0.00 0.00 5097.00 246.80" xmlns="http://www.w3.org/2000/svg" xmlns:xlink="http://www.w3.org/1999/xlink">
<g id="graph0" class="graph" transform="scale(1 1) rotate(0) translate(4 242.8)">
<title>dependencies</title>
<polygon fill="white" stroke="transparent" points="-4,4 -4,-242.8 5093,-242.8 5093,4 -4,4"/>
<text text-anchor="middle" x="2544.5" y="-8.2" font-family="sans-serif" font-size="14.00">dependencies</text>
<g id="clust1" class="cluster">
<title>cluster_ComponentsModule</title>
<polygon fill="none" stroke="black" stroke-dasharray="1,5" points="8,-32.8 8,-230.8 5081,-230.8 5081,-32.8 8,-32.8"/>
</g>
<g id="clust2" class="cluster">
<title>cluster_ComponentsModule_declarations</title>
<polygon fill="none" stroke="black" points="146,-40.8 146,-92.8 5073,-92.8 5073,-40.8 146,-40.8"/>
</g>
<g id="clust32" class="cluster">
<title>cluster_ComponentsModule_exports</title>
<polygon fill="none" stroke="black" points="32,-170.8 32,-222.8 5057,-222.8 5057,-170.8 32,-170.8"/>
</g>
<g id="clust31" class="cluster">
<title>cluster_ComponentsModule_imports</title>
<polygon fill="none" stroke="black" points="16,-40.8 16,-92.8 138,-92.8 138,-40.8 16,-40.8"/>
</g>
<!-- CoveragePreviewComponent -->
<g id="node1" class="node">
<title>CoveragePreviewComponent</title>
<polygon fill="#ffffb3" stroke="black" points="5065.35,-84.8 4884.65,-84.8 4884.65,-48.8 5065.35,-48.8 5065.35,-84.8"/>
<text text-anchor="middle" x="4975" y="-62.6" font-family="Times,serif" font-size="14.00">CoveragePreviewComponent</text>
</g>
<!-- ComponentsModule -->
<g id="node29" class="node">
<title>ComponentsModule</title>
<polygon fill="#8dd3c7" stroke="black" points="2604.33,-149.8 2601.33,-153.8 2580.33,-153.8 2577.33,-149.8 2473.67,-149.8 2473.67,-113.8 2604.33,-113.8 2604.33,-149.8"/>
<text text-anchor="middle" x="2539" y="-127.6" font-family="Times,serif" font-size="14.00">ComponentsModule</text>
</g>
<!-- CoveragePreviewComponent&#45;&gt;ComponentsModule -->
<g id="edge1" class="edge">
<title>CoveragePreviewComponent&#45;&gt;ComponentsModule</title>
<path fill="none" stroke="black" d="M4966.88,-84.91C4966.88,-104.14 4966.88,-131.8 4966.88,-131.8 4966.88,-131.8 2614.25,-131.8 2614.25,-131.8"/>
<polygon fill="black" stroke="black" points="2614.25,-128.3 2604.25,-131.8 2614.25,-135.3 2614.25,-128.3"/>
</g>
<!-- DateSelectBlueComponent -->
<g id="node2" class="node">
<title>DateSelectBlueComponent</title>
<polygon fill="#ffffb3" stroke="black" points="4866.41,-84.8 4697.59,-84.8 4697.59,-48.8 4866.41,-48.8 4866.41,-84.8"/>
<text text-anchor="middle" x="4782" y="-62.6" font-family="Times,serif" font-size="14.00">DateSelectBlueComponent</text>
</g>
<!-- DateSelectBlueComponent&#45;&gt;ComponentsModule -->
<g id="edge2" class="edge">
<title>DateSelectBlueComponent&#45;&gt;ComponentsModule</title>
<path fill="none" stroke="black" d="M4772.38,-84.97C4772.38,-103.89 4772.38,-130.8 4772.38,-130.8 4772.38,-130.8 2614.33,-130.8 2614.33,-130.8"/>
<polygon fill="black" stroke="black" points="2614.33,-127.3 2604.33,-130.8 2614.33,-134.3 2614.33,-127.3"/>
</g>
<!-- DateSelectComponent -->
<g id="node3" class="node">
<title>DateSelectComponent</title>
<polygon fill="#ffffb3" stroke="black" points="4679.97,-84.8 4538.03,-84.8 4538.03,-48.8 4679.97,-48.8 4679.97,-84.8"/>
<text text-anchor="middle" x="4609" y="-62.6" font-family="Times,serif" font-size="14.00">DateSelectComponent</text>
</g>
<!-- DateSelectComponent&#45;&gt;ComponentsModule -->
<g id="edge3" class="edge">
<title>DateSelectComponent&#45;&gt;ComponentsModule</title>
<path fill="none" stroke="black" d="M4597.38,-85.02C4597.38,-103.63 4597.38,-129.8 4597.38,-129.8 4597.38,-129.8 2614.29,-129.8 2614.29,-129.8"/>
<polygon fill="black" stroke="black" points="2614.29,-126.3 2604.29,-129.8 2614.29,-133.3 2614.29,-126.3"/>
</g>
<!-- DialWidgetComponent -->
<g id="node4" class="node">
<title>DialWidgetComponent</title>
<polygon fill="#ffffb3" stroke="black" points="4520.14,-84.8 4373.86,-84.8 4373.86,-48.8 4520.14,-48.8 4520.14,-84.8"/>
<text text-anchor="middle" x="4447" y="-62.6" font-family="Times,serif" font-size="14.00">DialWidgetComponent</text>
</g>
<!-- DialWidgetComponent&#45;&gt;ComponentsModule -->
<g id="edge4" class="edge">
<title>DialWidgetComponent&#45;&gt;ComponentsModule</title>
<path fill="none" stroke="black" d="M4433.38,-85.07C4433.38,-103.36 4433.38,-128.8 4433.38,-128.8 4433.38,-128.8 2614.21,-128.8 2614.21,-128.8"/>
<polygon fill="black" stroke="black" points="2614.21,-125.3 2604.21,-128.8 2614.21,-132.3 2614.21,-125.3"/>
</g>
<!-- DtesChartComponent -->
<g id="node5" class="node">
<title>DtesChartComponent</title>
<polygon fill="#ffffb3" stroke="black" points="4356.1,-84.8 4217.9,-84.8 4217.9,-48.8 4356.1,-48.8 4356.1,-84.8"/>
<text text-anchor="middle" x="4287" y="-62.6" font-family="Times,serif" font-size="14.00">DtesChartComponent</text>
</g>
<!-- DtesChartComponent&#45;&gt;ComponentsModule -->
<g id="edge5" class="edge">
<title>DtesChartComponent&#45;&gt;ComponentsModule</title>
<path fill="none" stroke="black" d="M4271.38,-84.8C4271.38,-102.48 4271.38,-126.8 4271.38,-126.8 4271.38,-126.8 2614.27,-126.8 2614.27,-126.8"/>
<polygon fill="black" stroke="black" points="2614.27,-123.3 2604.27,-126.8 2614.27,-130.3 2614.27,-123.3"/>
</g>
<!-- EtpChartComponent -->
<g id="node6" class="node">
<title>EtpChartComponent</title>
<polygon fill="#ffffb3" stroke="black" points="4199.88,-84.8 4068.12,-84.8 4068.12,-48.8 4199.88,-48.8 4199.88,-84.8"/>
<text text-anchor="middle" x="4134" y="-62.6" font-family="Times,serif" font-size="14.00">EtpChartComponent</text>
</g>
<!-- EtpChartComponent&#45;&gt;ComponentsModule -->
<g id="edge6" class="edge">
<title>EtpChartComponent&#45;&gt;ComponentsModule</title>
<path fill="none" stroke="black" d="M4116.88,-84.82C4116.88,-102.17 4116.88,-125.8 4116.88,-125.8 4116.88,-125.8 2614.29,-125.8 2614.29,-125.8"/>
<polygon fill="black" stroke="black" points="2614.29,-122.3 2604.29,-125.8 2614.29,-129.3 2614.29,-122.3"/>
</g>
<!-- EtpPreviewComponent -->
<g id="node7" class="node">
<title>EtpPreviewComponent</title>
<polygon fill="#ffffb3" stroke="black" points="4050.15,-84.8 3903.85,-84.8 3903.85,-48.8 4050.15,-48.8 4050.15,-84.8"/>
<text text-anchor="middle" x="3977" y="-62.6" font-family="Times,serif" font-size="14.00">EtpPreviewComponent</text>
</g>
<!-- EtpPreviewComponent&#45;&gt;ComponentsModule -->
<g id="edge7" class="edge">
<title>EtpPreviewComponent&#45;&gt;ComponentsModule</title>
<path fill="none" stroke="black" d="M3957.88,-84.83C3957.88,-101.86 3957.88,-124.8 3957.88,-124.8 3957.88,-124.8 2614.59,-124.8 2614.59,-124.8"/>
<polygon fill="black" stroke="black" points="2614.59,-121.3 2604.59,-124.8 2614.59,-128.3 2614.59,-121.3"/>
</g>
<!-- FiguresWidgetComponent -->
<g id="node8" class="node">
<title>FiguresWidgetComponent</title>
<polygon fill="#ffffb3" stroke="black" points="3885.04,-84.8 3720.96,-84.8 3720.96,-48.8 3885.04,-48.8 3885.04,-84.8"/>
<text text-anchor="middle" x="3803" y="-62.6" font-family="Times,serif" font-size="14.00">FiguresWidgetComponent</text>
</g>
<!-- FiguresWidgetComponent&#45;&gt;ComponentsModule -->
<g id="edge8" class="edge">
<title>FiguresWidgetComponent&#45;&gt;ComponentsModule</title>
<path fill="none" stroke="black" d="M3782.38,-84.83C3782.38,-101.2 3782.38,-122.8 3782.38,-122.8 3782.38,-122.8 2614.53,-122.8 2614.53,-122.8"/>
<polygon fill="black" stroke="black" points="2614.53,-119.3 2604.53,-122.8 2614.53,-126.3 2614.53,-119.3"/>
</g>
<!-- FooterNoConnectedComponent -->
<g id="node9" class="node">
<title>FooterNoConnectedComponent</title>
<polygon fill="#ffffb3" stroke="black" points="3702.36,-84.8 3507.64,-84.8 3507.64,-48.8 3702.36,-48.8 3702.36,-84.8"/>
<text text-anchor="middle" x="3605" y="-62.6" font-family="Times,serif" font-size="14.00">FooterNoConnectedComponent</text>
</g>
<!-- FooterNoConnectedComponent&#45;&gt;ComponentsModule -->
<g id="edge9" class="edge">
<title>FooterNoConnectedComponent&#45;&gt;ComponentsModule</title>
<path fill="none" stroke="black" d="M3582.88,-84.81C3582.88,-100.85 3582.88,-121.8 3582.88,-121.8 3582.88,-121.8 2614.3,-121.8 2614.3,-121.8"/>
<polygon fill="black" stroke="black" points="2614.3,-118.3 2604.3,-121.8 2614.3,-125.3 2614.3,-118.3"/>
</g>
<!-- InOutChartComponent -->
<g id="node10" class="node">
<title>InOutChartComponent</title>
<polygon fill="#ffffb3" stroke="black" points="3489.6,-84.8 3344.4,-84.8 3344.4,-48.8 3489.6,-48.8 3489.6,-84.8"/>
<text text-anchor="middle" x="3417" y="-62.6" font-family="Times,serif" font-size="14.00">InOutChartComponent</text>
</g>
<!-- InOutChartComponent&#45;&gt;ComponentsModule -->
<g id="edge10" class="edge">
<title>InOutChartComponent&#45;&gt;ComponentsModule</title>
<path fill="none" stroke="black" d="M3393.38,-85.08C3393.38,-100.75 3393.38,-120.8 3393.38,-120.8 3393.38,-120.8 2614.27,-120.8 2614.27,-120.8"/>
<polygon fill="black" stroke="black" points="2614.27,-117.3 2604.27,-120.8 2614.27,-124.3 2614.27,-117.3"/>
</g>
<!-- InputButtonComponent -->
<g id="node11" class="node">
<title>InputButtonComponent</title>
<polygon fill="#ffffb3" stroke="black" points="3326.5,-84.8 3177.5,-84.8 3177.5,-48.8 3326.5,-48.8 3326.5,-84.8"/>
<text text-anchor="middle" x="3252" y="-62.6" font-family="Times,serif" font-size="14.00">InputButtonComponent</text>
</g>
<!-- InputButtonComponent&#45;&gt;ComponentsModule -->
<g id="edge11" class="edge">
<title>InputButtonComponent&#45;&gt;ComponentsModule</title>
<path fill="none" stroke="black" d="M3226.38,-85.04C3226.38,-100.37 3226.38,-119.8 3226.38,-119.8 3226.38,-119.8 2614.29,-119.8 2614.29,-119.8"/>
<polygon fill="black" stroke="black" points="2614.29,-116.3 2604.29,-119.8 2614.29,-123.3 2614.29,-116.3"/>
</g>
<!-- InputPercentageComponent -->
<g id="node12" class="node">
<title>InputPercentageComponent</title>
<polygon fill="#ffffb3" stroke="black" points="3159.29,-84.8 2986.71,-84.8 2986.71,-48.8 3159.29,-48.8 3159.29,-84.8"/>
<text text-anchor="middle" x="3073" y="-62.6" font-family="Times,serif" font-size="14.00">InputPercentageComponent</text>
</g>
<!-- InputPercentageComponent&#45;&gt;ComponentsModule -->
<g id="edge12" class="edge">
<title>InputPercentageComponent&#45;&gt;ComponentsModule</title>
<path fill="none" stroke="black" d="M3045.88,-84.92C3045.88,-99.58 3045.88,-117.8 3045.88,-117.8 3045.88,-117.8 2614.23,-117.8 2614.23,-117.8"/>
<polygon fill="black" stroke="black" points="2614.23,-114.3 2604.23,-117.8 2614.23,-121.3 2614.23,-114.3"/>
</g>
<!-- LegendLabelComponent -->
<g id="node13" class="node">
<title>LegendLabelComponent</title>
<polygon fill="#ffffb3" stroke="black" points="2968.68,-84.8 2813.32,-84.8 2813.32,-48.8 2968.68,-48.8 2968.68,-84.8"/>
<text text-anchor="middle" x="2891" y="-62.6" font-family="Times,serif" font-size="14.00">LegendLabelComponent</text>
</g>
<!-- LegendLabelComponent&#45;&gt;ComponentsModule -->
<g id="edge13" class="edge">
<title>LegendLabelComponent&#45;&gt;ComponentsModule</title>
<path fill="none" stroke="black" d="M2862.38,-84.85C2862.38,-99.17 2862.38,-116.8 2862.38,-116.8 2862.38,-116.8 2614.44,-116.8 2614.44,-116.8"/>
<polygon fill="black" stroke="black" points="2614.44,-113.3 2604.44,-116.8 2614.44,-120.3 2614.44,-113.3"/>
</g>
<!-- ListSelectionComponent -->
<g id="node14" class="node">
<title>ListSelectionComponent</title>
<polygon fill="#ffffb3" stroke="black" points="2795.71,-84.8 2640.29,-84.8 2640.29,-48.8 2795.71,-48.8 2795.71,-84.8"/>
<text text-anchor="middle" x="2718" y="-62.6" font-family="Times,serif" font-size="14.00">ListSelectionComponent</text>
</g>
<!-- ListSelectionComponent&#45;&gt;ComponentsModule -->
<g id="edge14" class="edge">
<title>ListSelectionComponent&#45;&gt;ComponentsModule</title>
<path fill="none" stroke="black" d="M2687.38,-85.05C2687.38,-98.98 2687.38,-115.8 2687.38,-115.8 2687.38,-115.8 2614.51,-115.8 2614.51,-115.8"/>
<polygon fill="black" stroke="black" points="2614.51,-112.3 2604.51,-115.8 2614.51,-119.3 2614.51,-112.3"/>
</g>
<!-- LoadersWidgetComponent -->
<g id="node15" class="node">
<title>LoadersWidgetComponent</title>
<polygon fill="#ffffb3" stroke="black" points="2622.63,-84.8 2455.37,-84.8 2455.37,-48.8 2622.63,-48.8 2622.63,-84.8"/>
<text text-anchor="middle" x="2539" y="-62.6" font-family="Times,serif" font-size="14.00">LoadersWidgetComponent</text>
</g>
<!-- LoadersWidgetComponent&#45;&gt;ComponentsModule -->
<g id="edge15" class="edge">
<title>LoadersWidgetComponent&#45;&gt;ComponentsModule</title>
<path fill="none" stroke="black" d="M2539,-84.91C2539,-84.91 2539,-103.79 2539,-103.79"/>
<polygon fill="black" stroke="black" points="2535.5,-103.79 2539,-113.79 2542.5,-103.79 2535.5,-103.79"/>
</g>
<!-- OptionsBackupPanelComponent -->
<g id="node16" class="node">
<title>OptionsBackupPanelComponent</title>
<polygon fill="#ffffb3" stroke="black" points="2436.54,-84.8 2237.46,-84.8 2237.46,-48.8 2436.54,-48.8 2436.54,-84.8"/>
<text text-anchor="middle" x="2337" y="-62.6" font-family="Times,serif" font-size="14.00">OptionsBackupPanelComponent</text>
</g>
<!-- OptionsBackupPanelComponent&#45;&gt;ComponentsModule -->
<g id="edge16" class="edge">
<title>OptionsBackupPanelComponent&#45;&gt;ComponentsModule</title>
<path fill="none" stroke="black" d="M2411.6,-85.05C2411.6,-98.98 2411.6,-115.8 2411.6,-115.8 2411.6,-115.8 2463.81,-115.8 2463.81,-115.8"/>
<polygon fill="black" stroke="black" points="2463.81,-119.3 2473.81,-115.8 2463.81,-112.3 2463.81,-119.3"/>
</g>
<!-- PanelActivitiesComponent -->
<g id="node17" class="node">
<title>PanelActivitiesComponent</title>
<polygon fill="#ffffb3" stroke="black" points="2219.37,-84.8 2052.63,-84.8 2052.63,-48.8 2219.37,-48.8 2219.37,-84.8"/>
<text text-anchor="middle" x="2136" y="-62.6" font-family="Times,serif" font-size="14.00">PanelActivitiesComponent</text>
</g>
<!-- PanelActivitiesComponent&#45;&gt;ComponentsModule -->
<g id="edge17" class="edge">
<title>PanelActivitiesComponent&#45;&gt;ComponentsModule</title>
<path fill="none" stroke="black" d="M2192.46,-84.85C2192.46,-99.17 2192.46,-116.8 2192.46,-116.8 2192.46,-116.8 2463.82,-116.8 2463.82,-116.8"/>
<polygon fill="black" stroke="black" points="2463.82,-120.3 2473.82,-116.8 2463.82,-113.3 2463.82,-120.3"/>
</g>
<!-- PopupComponent -->
<g id="node18" class="node">
<title>PopupComponent</title>
<polygon fill="#ffffb3" stroke="black" points="2034.62,-84.8 1917.38,-84.8 1917.38,-48.8 2034.62,-48.8 2034.62,-84.8"/>
<text text-anchor="middle" x="1976" y="-62.6" font-family="Times,serif" font-size="14.00">PopupComponent</text>
</g>
<!-- PopupComponent&#45;&gt;ComponentsModule -->
<g id="edge18" class="edge">
<title>PopupComponent&#45;&gt;ComponentsModule</title>
<path fill="none" stroke="black" d="M2005.69,-84.92C2005.69,-99.58 2005.69,-117.8 2005.69,-117.8 2005.69,-117.8 2463.61,-117.8 2463.61,-117.8"/>
<polygon fill="black" stroke="black" points="2463.61,-121.3 2473.61,-117.8 2463.61,-114.3 2463.61,-121.3"/>
</g>
<!-- ProgressionBarComponent -->
<g id="node19" class="node">
<title>ProgressionBarComponent</title>
<polygon fill="#ffffb3" stroke="black" points="1899.66,-84.8 1732.34,-84.8 1732.34,-48.8 1899.66,-48.8 1899.66,-84.8"/>
<text text-anchor="middle" x="1816" y="-62.6" font-family="Times,serif" font-size="14.00">ProgressionBarComponent</text>
</g>
<!-- ProgressionBarComponent&#45;&gt;ComponentsModule -->
<g id="edge19" class="edge">
<title>ProgressionBarComponent&#45;&gt;ComponentsModule</title>
<path fill="none" stroke="black" d="M1869.26,-85.04C1869.26,-100.37 1869.26,-119.8 1869.26,-119.8 1869.26,-119.8 2463.56,-119.8 2463.56,-119.8"/>
<polygon fill="black" stroke="black" points="2463.56,-123.3 2473.56,-119.8 2463.56,-116.3 2463.56,-123.3"/>
</g>
<!-- RadioButtonComponent -->
<g id="node20" class="node">
<title>RadioButtonComponent</title>
<polygon fill="#ffffb3" stroke="black" points="1714.39,-84.8 1561.61,-84.8 1561.61,-48.8 1714.39,-48.8 1714.39,-84.8"/>
<text text-anchor="middle" x="1638" y="-62.6" font-family="Times,serif" font-size="14.00">RadioButtonComponent</text>
</g>
<!-- RadioButtonComponent&#45;&gt;ComponentsModule -->
<g id="edge20" class="edge">
<title>RadioButtonComponent&#45;&gt;ComponentsModule</title>
<path fill="none" stroke="black" d="M1681.93,-85.08C1681.93,-100.75 1681.93,-120.8 1681.93,-120.8 1681.93,-120.8 2463.52,-120.8 2463.52,-120.8"/>
<polygon fill="black" stroke="black" points="2463.52,-124.3 2473.52,-120.8 2463.52,-117.3 2463.52,-124.3"/>
</g>
<!-- ReferentielCalculatorComponent -->
<g id="node21" class="node">
<title>ReferentielCalculatorComponent</title>
<polygon fill="#ffffb3" stroke="black" points="1543.83,-84.8 1342.17,-84.8 1342.17,-48.8 1543.83,-48.8 1543.83,-84.8"/>
<text text-anchor="middle" x="1443" y="-62.6" font-family="Times,serif" font-size="14.00">ReferentielCalculatorComponent</text>
</g>
<!-- ReferentielCalculatorComponent&#45;&gt;ComponentsModule -->
<g id="edge21" class="edge">
<title>ReferentielCalculatorComponent&#45;&gt;ComponentsModule</title>
<path fill="none" stroke="black" d="M1509.36,-84.81C1509.36,-100.85 1509.36,-121.8 1509.36,-121.8 1509.36,-121.8 2463.81,-121.8 2463.81,-121.8"/>
<polygon fill="black" stroke="black" points="2463.81,-125.3 2473.81,-121.8 2463.81,-118.3 2463.81,-125.3"/>
</g>
<!-- SelectCheckAllComponent -->
<g id="node22" class="node">
<title>SelectCheckAllComponent</title>
<polygon fill="#ffffb3" stroke="black" points="1323.69,-84.8 1154.31,-84.8 1154.31,-48.8 1323.69,-48.8 1323.69,-84.8"/>
<text text-anchor="middle" x="1239" y="-62.6" font-family="Times,serif" font-size="14.00">SelectCheckAllComponent</text>
</g>
<!-- SelectCheckAllComponent&#45;&gt;ComponentsModule -->
<g id="edge22" class="edge">
<title>SelectCheckAllComponent&#45;&gt;ComponentsModule</title>
<path fill="none" stroke="black" d="M1287.47,-84.83C1287.47,-101.2 1287.47,-122.8 1287.47,-122.8 1287.47,-122.8 2463.47,-122.8 2463.47,-122.8"/>
<polygon fill="black" stroke="black" points="2463.47,-126.3 2473.47,-122.8 2463.47,-119.3 2463.47,-126.3"/>
</g>
<!-- SelectComponent -->
<g id="node23" class="node">
<title>SelectComponent</title>
<polygon fill="#ffffb3" stroke="black" points="1136.54,-84.8 1021.46,-84.8 1021.46,-48.8 1136.54,-48.8 1136.54,-84.8"/>
<text text-anchor="middle" x="1079" y="-62.6" font-family="Times,serif" font-size="14.00">SelectComponent</text>
</g>
<!-- SelectComponent&#45;&gt;ComponentsModule -->
<g id="edge23" class="edge">
<title>SelectComponent&#45;&gt;ComponentsModule</title>
<path fill="none" stroke="black" d="M1098.71,-84.83C1098.71,-101.86 1098.71,-124.8 1098.71,-124.8 1098.71,-124.8 2463.37,-124.8 2463.37,-124.8"/>
<polygon fill="black" stroke="black" points="2463.37,-128.3 2473.37,-124.8 2463.37,-121.3 2463.37,-128.3"/>
</g>
<!-- SpeedometerComponent -->
<g id="node24" class="node">
<title>SpeedometerComponent</title>
<polygon fill="#ffffb3" stroke="black" points="1003.41,-84.8 848.59,-84.8 848.59,-48.8 1003.41,-48.8 1003.41,-84.8"/>
<text text-anchor="middle" x="926" y="-62.6" font-family="Times,serif" font-size="14.00">SpeedometerComponent</text>
</g>
<!-- SpeedometerComponent&#45;&gt;ComponentsModule -->
<g id="edge24" class="edge">
<title>SpeedometerComponent&#45;&gt;ComponentsModule</title>
<path fill="none" stroke="black" d="M963.34,-84.82C963.34,-102.17 963.34,-125.8 963.34,-125.8 963.34,-125.8 2463.8,-125.8 2463.8,-125.8"/>
<polygon fill="black" stroke="black" points="2463.8,-129.3 2473.8,-125.8 2463.8,-122.3 2463.8,-129.3"/>
</g>
<!-- TimeSelectorComponent -->
<g id="node25" class="node">
<title>TimeSelectorComponent</title>
<polygon fill="#ffffb3" stroke="black" points="830.25,-84.8 673.75,-84.8 673.75,-48.8 830.25,-48.8 830.25,-84.8"/>
<text text-anchor="middle" x="752" y="-62.6" font-family="Times,serif" font-size="14.00">TimeSelectorComponent</text>
</g>
<!-- TimeSelectorComponent&#45;&gt;ComponentsModule -->
<g id="edge25" class="edge">
<title>TimeSelectorComponent&#45;&gt;ComponentsModule</title>
<path fill="none" stroke="black" d="M789.21,-84.8C789.21,-102.48 789.21,-126.8 789.21,-126.8 789.21,-126.8 2463.6,-126.8 2463.6,-126.8"/>
<polygon fill="black" stroke="black" points="2463.6,-130.3 2473.6,-126.8 2463.6,-123.3 2463.6,-130.3"/>
</g>
<!-- TooltipsComponent -->
<g id="node26" class="node">
<title>TooltipsComponent</title>
<polygon fill="#ffffb3" stroke="black" points="656,-84.8 528,-84.8 528,-48.8 656,-48.8 656,-84.8"/>
<text text-anchor="middle" x="592" y="-62.6" font-family="Times,serif" font-size="14.00">TooltipsComponent</text>
</g>
<!-- TooltipsComponent&#45;&gt;ComponentsModule -->
<g id="edge26" class="edge">
<title>TooltipsComponent&#45;&gt;ComponentsModule</title>
<path fill="none" stroke="black" d="M612.94,-85.07C612.94,-103.36 612.94,-128.8 612.94,-128.8 612.94,-128.8 2463.81,-128.8 2463.81,-128.8"/>
<polygon fill="black" stroke="black" points="2463.81,-132.3 2473.81,-128.8 2463.81,-125.3 2463.81,-132.3"/>
</g>
<!-- WrapperComponent -->
<g id="node27" class="node">
<title>WrapperComponent</title>
<polygon fill="#ffffb3" stroke="black" points="510.3,-84.8 379.7,-84.8 379.7,-48.8 510.3,-48.8 510.3,-84.8"/>
<text text-anchor="middle" x="445" y="-62.6" font-family="Times,serif" font-size="14.00">WrapperComponent</text>
</g>
<!-- WrapperComponent&#45;&gt;ComponentsModule -->
<g id="edge27" class="edge">
<title>WrapperComponent&#45;&gt;ComponentsModule</title>
<path fill="none" stroke="black" d="M465.2,-85.02C465.2,-103.63 465.2,-129.8 465.2,-129.8 465.2,-129.8 2463.8,-129.8 2463.8,-129.8"/>
<polygon fill="black" stroke="black" points="2463.8,-133.3 2473.8,-129.8 2463.8,-126.3 2463.8,-133.3"/>
</g>
<!-- WrapperNoConnectedComponent -->
<g id="node28" class="node">
<title>WrapperNoConnectedComponent</title>
<polygon fill="#ffffb3" stroke="black" points="361.78,-84.8 154.22,-84.8 154.22,-48.8 361.78,-48.8 361.78,-84.8"/>
<text text-anchor="middle" x="258" y="-62.6" font-family="Times,serif" font-size="14.00">WrapperNoConnectedComponent</text>
</g>
<!-- WrapperNoConnectedComponent&#45;&gt;ComponentsModule -->
<g id="edge28" class="edge">
<title>WrapperNoConnectedComponent&#45;&gt;ComponentsModule</title>
<path fill="none" stroke="black" d="M314.87,-84.97C314.87,-103.89 314.87,-130.8 314.87,-130.8 314.87,-130.8 2463.64,-130.8 2463.64,-130.8"/>
<polygon fill="black" stroke="black" points="2463.64,-134.3 2473.64,-130.8 2463.64,-127.3 2463.64,-134.3"/>
</g>
<!-- CoveragePreviewComponent  -->
<g id="node31" class="node">
<title>CoveragePreviewComponent </title>
<polygon fill="#fb8072" stroke="black" points="5049.35,-214.8 4864.65,-214.8 4864.65,-178.8 5049.35,-178.8 5049.35,-214.8"/>
<text text-anchor="middle" x="4957" y="-192.6" font-family="Times,serif" font-size="14.00">CoveragePreviewComponent </text>
</g>
<!-- ComponentsModule&#45;&gt;CoveragePreviewComponent  -->
<g id="edge30" class="edge">
<title>ComponentsModule&#45;&gt;CoveragePreviewComponent </title>
<path fill="none" stroke="black" stroke-dasharray="5,2" d="M2604.23,-133.8C2982.3,-133.8 4875.39,-133.8 4875.39,-133.8 4875.39,-133.8 4875.39,-168.58 4875.39,-168.58"/>
<polygon fill="black" stroke="black" points="4871.89,-168.58 4875.39,-178.58 4878.89,-168.58 4871.89,-168.58"/>
</g>
<!-- DateSelectBlueComponent  -->
<g id="node32" class="node">
<title>DateSelectBlueComponent </title>
<polygon fill="#fb8072" stroke="black" points="4846.91,-214.8 4675.09,-214.8 4675.09,-178.8 4846.91,-178.8 4846.91,-214.8"/>
<text text-anchor="middle" x="4761" y="-192.6" font-family="Times,serif" font-size="14.00">DateSelectBlueComponent </text>
</g>
<!-- ComponentsModule&#45;&gt;DateSelectBlueComponent  -->
<g id="edge31" class="edge">
<title>ComponentsModule&#45;&gt;DateSelectBlueComponent </title>
<path fill="none" stroke="black" stroke-dasharray="5,2" d="M2604.22,-134.8C2963.88,-134.8 4688.89,-134.8 4688.89,-134.8 4688.89,-134.8 4688.89,-168.53 4688.89,-168.53"/>
<polygon fill="black" stroke="black" points="4685.39,-168.53 4688.89,-178.53 4692.39,-168.53 4685.39,-168.53"/>
</g>
<!-- DateSelectComponent  -->
<g id="node33" class="node">
<title>DateSelectComponent </title>
<polygon fill="#fb8072" stroke="black" points="4656.97,-214.8 4511.03,-214.8 4511.03,-178.8 4656.97,-178.8 4656.97,-214.8"/>
<text text-anchor="middle" x="4584" y="-192.6" font-family="Times,serif" font-size="14.00">DateSelectComponent </text>
</g>
<!-- ComponentsModule&#45;&gt;DateSelectComponent  -->
<g id="edge32" class="edge">
<title>ComponentsModule&#45;&gt;DateSelectComponent </title>
<path fill="none" stroke="black" stroke-dasharray="5,2" d="M2604.21,-135.8C2946.06,-135.8 4515.79,-135.8 4515.79,-135.8 4515.79,-135.8 4515.79,-168.5 4515.79,-168.5"/>
<polygon fill="black" stroke="black" points="4512.29,-168.5 4515.79,-178.5 4519.29,-168.5 4512.29,-168.5"/>
</g>
<!-- DialWidgetComponent  -->
<g id="node34" class="node">
<title>DialWidgetComponent </title>
<polygon fill="#fb8072" stroke="black" points="4493.14,-214.8 4342.86,-214.8 4342.86,-178.8 4493.14,-178.8 4493.14,-214.8"/>
<text text-anchor="middle" x="4418" y="-192.6" font-family="Times,serif" font-size="14.00">DialWidgetComponent </text>
</g>
<!-- ComponentsModule&#45;&gt;DialWidgetComponent  -->
<g id="edge33" class="edge">
<title>ComponentsModule&#45;&gt;DialWidgetComponent </title>
<path fill="none" stroke="black" stroke-dasharray="5,2" d="M2604.24,-137.8C2928.31,-137.8 4349.49,-137.8 4349.49,-137.8 4349.49,-137.8 4349.49,-168.78 4349.49,-168.78"/>
<polygon fill="black" stroke="black" points="4345.99,-168.78 4349.49,-178.78 4352.99,-168.78 4345.99,-168.78"/>
</g>
<!-- DtesChartComponent  -->
<g id="node35" class="node">
<title>DtesChartComponent </title>
<polygon fill="#fb8072" stroke="black" points="4324.6,-214.8 4183.4,-214.8 4183.4,-178.8 4324.6,-178.8 4324.6,-214.8"/>
<text text-anchor="middle" x="4254" y="-192.6" font-family="Times,serif" font-size="14.00">DtesChartComponent </text>
</g>
<!-- ComponentsModule&#45;&gt;DtesChartComponent  -->
<g id="edge34" class="edge">
<title>ComponentsModule&#45;&gt;DtesChartComponent </title>
<path fill="none" stroke="black" stroke-dasharray="5,2" d="M2604.29,-138.8C2910.74,-138.8 4191.57,-138.8 4191.57,-138.8 4191.57,-138.8 4191.57,-168.77 4191.57,-168.77"/>
<polygon fill="black" stroke="black" points="4188.07,-168.77 4191.57,-178.77 4195.07,-168.77 4188.07,-168.77"/>
</g>
<!-- EtpChartComponent  -->
<g id="node36" class="node">
<title>EtpChartComponent </title>
<polygon fill="#fb8072" stroke="black" points="4165.88,-214.8 4030.12,-214.8 4030.12,-178.8 4165.88,-178.8 4165.88,-214.8"/>
<text text-anchor="middle" x="4098" y="-192.6" font-family="Times,serif" font-size="14.00">EtpChartComponent </text>
</g>
<!-- ComponentsModule&#45;&gt;EtpChartComponent  -->
<g id="edge35" class="edge">
<title>ComponentsModule&#45;&gt;EtpChartComponent </title>
<path fill="none" stroke="black" stroke-dasharray="5,2" d="M2604.48,-139.8C2893.44,-139.8 4040.32,-139.8 4040.32,-139.8 4040.32,-139.8 4040.32,-168.76 4040.32,-168.76"/>
<polygon fill="black" stroke="black" points="4036.82,-168.76 4040.32,-178.76 4043.82,-168.76 4036.82,-168.76"/>
</g>
<!-- EtpPreviewComponent  -->
<g id="node37" class="node">
<title>EtpPreviewComponent </title>
<polygon fill="#fb8072" stroke="black" points="4012.15,-214.8 3861.85,-214.8 3861.85,-178.8 4012.15,-178.8 4012.15,-214.8"/>
<text text-anchor="middle" x="3937" y="-192.6" font-family="Times,serif" font-size="14.00">EtpPreviewComponent </text>
</g>
<!-- ComponentsModule&#45;&gt;EtpPreviewComponent  -->
<g id="edge36" class="edge">
<title>ComponentsModule&#45;&gt;EtpPreviewComponent </title>
<path fill="none" stroke="black" stroke-dasharray="5,2" d="M2604.27,-140.8C2872.22,-140.8 3873.6,-140.8 3873.6,-140.8 3873.6,-140.8 3873.6,-168.77 3873.6,-168.77"/>
<polygon fill="black" stroke="black" points="3870.1,-168.77 3873.6,-178.77 3877.1,-168.77 3870.1,-168.77"/>
</g>
<!-- FiguresWidgetComponent  -->
<g id="node38" class="node">
<title>FiguresWidgetComponent </title>
<polygon fill="#fb8072" stroke="black" points="3844.04,-214.8 3675.96,-214.8 3675.96,-178.8 3844.04,-178.8 3844.04,-214.8"/>
<text text-anchor="middle" x="3760" y="-192.6" font-family="Times,serif" font-size="14.00">FiguresWidgetComponent </text>
</g>
<!-- ComponentsModule&#45;&gt;FiguresWidgetComponent  -->
<g id="edge37" class="edge">
<title>ComponentsModule&#45;&gt;FiguresWidgetComponent </title>
<path fill="none" stroke="black" stroke-dasharray="5,2" d="M2604.55,-142.8C2848.42,-142.8 3689.21,-142.8 3689.21,-142.8 3689.21,-142.8 3689.21,-168.52 3689.21,-168.52"/>
<polygon fill="black" stroke="black" points="3685.71,-168.52 3689.21,-178.52 3692.71,-168.52 3685.71,-168.52"/>
</g>
<!-- FooterNoConnectedComponent  -->
<g id="node39" class="node">
<title>FooterNoConnectedComponent </title>
<polygon fill="#fb8072" stroke="black" points="3658.36,-214.8 3459.64,-214.8 3459.64,-178.8 3658.36,-178.8 3658.36,-214.8"/>
<text text-anchor="middle" x="3559" y="-192.6" font-family="Times,serif" font-size="14.00">FooterNoConnectedComponent </text>
</g>
<!-- ComponentsModule&#45;&gt;FooterNoConnectedComponent  -->
<g id="edge38" class="edge">
<title>ComponentsModule&#45;&gt;FooterNoConnectedComponent </title>
<path fill="none" stroke="black" stroke-dasharray="5,2" d="M2604.42,-143.8C2817.01,-143.8 3474.68,-143.8 3474.68,-143.8 3474.68,-143.8 3474.68,-168.56 3474.68,-168.56"/>
<polygon fill="black" stroke="black" points="3471.18,-168.56 3474.68,-178.56 3478.18,-168.56 3471.18,-168.56"/>
</g>
<!-- InOutChartComponent  -->
<g id="node40" class="node">
<title>InOutChartComponent </title>
<polygon fill="#fb8072" stroke="black" points="3442.1,-214.8 3293.9,-214.8 3293.9,-178.8 3442.1,-178.8 3442.1,-214.8"/>
<text text-anchor="middle" x="3368" y="-192.6" font-family="Times,serif" font-size="14.00">InOutChartComponent </text>
</g>
<!-- ComponentsModule&#45;&gt;InOutChartComponent  -->
<g id="edge39" class="edge">
<title>ComponentsModule&#45;&gt;InOutChartComponent </title>
<path fill="none" stroke="black" stroke-dasharray="5,2" d="M2604.41,-144.8C2790.6,-144.8 3310.1,-144.8 3310.1,-144.8 3310.1,-144.8 3310.1,-168.61 3310.1,-168.61"/>
<polygon fill="black" stroke="black" points="3306.6,-168.61 3310.1,-178.61 3313.6,-168.61 3306.6,-168.61"/>
</g>
<!-- InputButtonComponent  -->
<g id="node41" class="node">
<title>InputButtonComponent </title>
<polygon fill="#fb8072" stroke="black" points="3275,-214.8 3123,-214.8 3123,-178.8 3275,-178.8 3275,-214.8"/>
<text text-anchor="middle" x="3199" y="-192.6" font-family="Times,serif" font-size="14.00">InputButtonComponent </text>
</g>
<!-- ComponentsModule&#45;&gt;InputButtonComponent  -->
<g id="edge40" class="edge">
<title>ComponentsModule&#45;&gt;InputButtonComponent </title>
<path fill="none" stroke="black" stroke-dasharray="5,2" d="M2604.28,-146.8C2760.11,-146.8 3140.95,-146.8 3140.95,-146.8 3140.95,-146.8 3140.95,-168.75 3140.95,-168.75"/>
<polygon fill="black" stroke="black" points="3137.45,-168.75 3140.95,-178.75 3144.45,-168.75 3137.45,-168.75"/>
</g>
<!-- InputPercentageComponent  -->
<g id="node42" class="node">
<title>InputPercentageComponent </title>
<polygon fill="#fb8072" stroke="black" points="3104.79,-214.8 2929.21,-214.8 2929.21,-178.8 3104.79,-178.8 3104.79,-214.8"/>
<text text-anchor="middle" x="3017" y="-192.6" font-family="Times,serif" font-size="14.00">InputPercentageComponent </text>
</g>
<!-- ComponentsModule&#45;&gt;InputPercentageComponent  -->
<g id="edge41" class="edge">
<title>ComponentsModule&#45;&gt;InputPercentageComponent </title>
<path fill="none" stroke="black" stroke-dasharray="5,2" d="M2604.39,-147.8C2720.11,-147.8 2948.85,-147.8 2948.85,-147.8 2948.85,-147.8 2948.85,-168.55 2948.85,-168.55"/>
<polygon fill="black" stroke="black" points="2945.35,-168.55 2948.85,-178.55 2952.35,-168.55 2945.35,-168.55"/>
</g>
<!-- LegendLabelComponent  -->
<g id="node43" class="node">
<title>LegendLabelComponent </title>
<polygon fill="#fb8072" stroke="black" points="2911.18,-214.8 2752.82,-214.8 2752.82,-178.8 2911.18,-178.8 2911.18,-214.8"/>
<text text-anchor="middle" x="2832" y="-192.6" font-family="Times,serif" font-size="14.00">LegendLabelComponent </text>
</g>
<!-- ComponentsModule&#45;&gt;LegendLabelComponent  -->
<g id="edge42" class="edge">
<title>ComponentsModule&#45;&gt;LegendLabelComponent </title>
<path fill="none" stroke="black" stroke-dasharray="5,2" d="M2604.19,-148.8C2673.77,-148.8 2774.13,-148.8 2774.13,-148.8 2774.13,-148.8 2774.13,-168.65 2774.13,-168.65"/>
<polygon fill="black" stroke="black" points="2770.63,-168.65 2774.13,-178.65 2777.63,-168.65 2770.63,-168.65"/>
</g>
<!-- ListSelectionComponent  -->
<g id="node44" class="node">
<title>ListSelectionComponent </title>
<polygon fill="#fb8072" stroke="black" points="2734.21,-214.8 2575.79,-214.8 2575.79,-178.8 2734.21,-178.8 2734.21,-214.8"/>
<text text-anchor="middle" x="2655" y="-192.6" font-family="Times,serif" font-size="14.00">ListSelectionComponent </text>
</g>
<!-- ComponentsModule&#45;&gt;ListSelectionComponent  -->
<g id="edge43" class="edge">
<title>ComponentsModule&#45;&gt;ListSelectionComponent </title>
<path fill="none" stroke="black" stroke-dasharray="5,2" d="M2589.91,-149.91C2589.91,-149.91 2589.91,-168.79 2589.91,-168.79"/>
<polygon fill="black" stroke="black" points="2586.41,-168.79 2589.91,-178.79 2593.41,-168.79 2586.41,-168.79"/>
</g>
<!-- LoadersWidgetComponent  -->
<g id="node45" class="node">
<title>LoadersWidgetComponent </title>
<polygon fill="#fb8072" stroke="black" points="2557.63,-214.8 2386.37,-214.8 2386.37,-178.8 2557.63,-178.8 2557.63,-214.8"/>
<text text-anchor="middle" x="2472" y="-192.6" font-family="Times,serif" font-size="14.00">LoadersWidgetComponent </text>
</g>
<!-- ComponentsModule&#45;&gt;LoadersWidgetComponent  -->
<g id="edge44" class="edge">
<title>ComponentsModule&#45;&gt;LoadersWidgetComponent </title>
<path fill="none" stroke="black" stroke-dasharray="5,2" d="M2515.7,-149.91C2515.7,-149.91 2515.7,-168.79 2515.7,-168.79"/>
<polygon fill="black" stroke="black" points="2512.2,-168.79 2515.7,-178.79 2519.2,-168.79 2512.2,-168.79"/>
</g>
<!-- OptionsBackupPanelComponent  -->
<g id="node46" class="node">
<title>OptionsBackupPanelComponent </title>
<polygon fill="#fb8072" stroke="black" points="2368.54,-214.8 2165.46,-214.8 2165.46,-178.8 2368.54,-178.8 2368.54,-214.8"/>
<text text-anchor="middle" x="2267" y="-192.6" font-family="Times,serif" font-size="14.00">OptionsBackupPanelComponent </text>
</g>
<!-- ComponentsModule&#45;&gt;OptionsBackupPanelComponent  -->
<g id="edge45" class="edge">
<title>ComponentsModule&#45;&gt;OptionsBackupPanelComponent </title>
<path fill="none" stroke="black" stroke-dasharray="5,2" d="M2473.54,-148.8C2403.66,-148.8 2302.88,-148.8 2302.88,-148.8 2302.88,-148.8 2302.88,-168.65 2302.88,-168.65"/>
<polygon fill="black" stroke="black" points="2299.38,-168.65 2302.88,-178.65 2306.38,-168.65 2299.38,-168.65"/>
</g>
<!-- PanelActivitiesComponent  -->
<g id="node47" class="node">
<title>PanelActivitiesComponent </title>
<polygon fill="#fb8072" stroke="black" points="2147.37,-214.8 1976.63,-214.8 1976.63,-178.8 2147.37,-178.8 2147.37,-214.8"/>
<text text-anchor="middle" x="2062" y="-192.6" font-family="Times,serif" font-size="14.00">PanelActivitiesComponent </text>
</g>
<!-- ComponentsModule&#45;&gt;PanelActivitiesComponent  -->
<g id="edge46" class="edge">
<title>ComponentsModule&#45;&gt;PanelActivitiesComponent </title>
<path fill="none" stroke="black" stroke-dasharray="5,2" d="M2473.73,-147.8C2351.41,-147.8 2099.88,-147.8 2099.88,-147.8 2099.88,-147.8 2099.88,-168.55 2099.88,-168.55"/>
<polygon fill="black" stroke="black" points="2096.38,-168.55 2099.88,-178.55 2103.38,-168.55 2096.38,-168.55"/>
</g>
<!-- PopupComponent  -->
<g id="node48" class="node">
<title>PopupComponent </title>
<polygon fill="#fb8072" stroke="black" points="1959.12,-214.8 1838.88,-214.8 1838.88,-178.8 1959.12,-178.8 1959.12,-214.8"/>
<text text-anchor="middle" x="1899" y="-192.6" font-family="Times,serif" font-size="14.00">PopupComponent </text>
</g>
<!-- ComponentsModule&#45;&gt;PopupComponent  -->
<g id="edge47" class="edge">
<title>ComponentsModule&#45;&gt;PopupComponent </title>
<path fill="none" stroke="black" stroke-dasharray="5,2" d="M2473.58,-146.8C2317.91,-146.8 1938.38,-146.8 1938.38,-146.8 1938.38,-146.8 1938.38,-168.75 1938.38,-168.75"/>
<polygon fill="black" stroke="black" points="1934.88,-168.75 1938.38,-178.75 1941.88,-168.75 1934.88,-168.75"/>
</g>
<!-- ProgressionBarComponent  -->
<g id="node49" class="node">
<title>ProgressionBarComponent </title>
<polygon fill="#fb8072" stroke="black" points="1820.66,-214.8 1649.34,-214.8 1649.34,-178.8 1820.66,-178.8 1820.66,-214.8"/>
<text text-anchor="middle" x="1735" y="-192.6" font-family="Times,serif" font-size="14.00">ProgressionBarComponent </text>
</g>
<!-- ComponentsModule&#45;&gt;ProgressionBarComponent  -->
<g id="edge48" class="edge">
<title>ComponentsModule&#45;&gt;ProgressionBarComponent </title>
<path fill="none" stroke="black" stroke-dasharray="5,2" d="M2473.65,-144.8C2288.94,-144.8 1776.38,-144.8 1776.38,-144.8 1776.38,-144.8 1776.38,-168.61 1776.38,-168.61"/>
<polygon fill="black" stroke="black" points="1772.88,-168.61 1776.38,-178.61 1779.88,-168.61 1772.88,-168.61"/>
</g>
<!-- RadioButtonComponent  -->
<g id="node50" class="node">
<title>RadioButtonComponent </title>
<polygon fill="#fb8072" stroke="black" points="1631.39,-214.8 1474.61,-214.8 1474.61,-178.8 1631.39,-178.8 1631.39,-214.8"/>
<text text-anchor="middle" x="1553" y="-192.6" font-family="Times,serif" font-size="14.00">RadioButtonComponent </text>
</g>
<!-- ComponentsModule&#45;&gt;RadioButtonComponent  -->
<g id="edge49" class="edge">
<title>ComponentsModule&#45;&gt;RadioButtonComponent </title>
<path fill="none" stroke="black" stroke-dasharray="5,2" d="M2473.46,-143.8C2259.7,-143.8 1596.38,-143.8 1596.38,-143.8 1596.38,-143.8 1596.38,-168.56 1596.38,-168.56"/>
<polygon fill="black" stroke="black" points="1592.88,-168.56 1596.38,-178.56 1599.88,-168.56 1592.88,-168.56"/>
</g>
<!-- ReferentielCalculatorComponent  -->
<g id="node51" class="node">
<title>ReferentielCalculatorComponent </title>
<polygon fill="#fb8072" stroke="black" points="1456.83,-214.8 1251.17,-214.8 1251.17,-178.8 1456.83,-178.8 1456.83,-214.8"/>
<text text-anchor="middle" x="1354" y="-192.6" font-family="Times,serif" font-size="14.00">ReferentielCalculatorComponent </text>
</g>
<!-- ComponentsModule&#45;&gt;ReferentielCalculatorComponent  -->
<g id="edge50" class="edge">
<title>ComponentsModule&#45;&gt;ReferentielCalculatorComponent </title>
<path fill="none" stroke="black" stroke-dasharray="5,2" d="M2473.64,-142.8C2231.48,-142.8 1399.38,-142.8 1399.38,-142.8 1399.38,-142.8 1399.38,-168.52 1399.38,-168.52"/>
<polygon fill="black" stroke="black" points="1395.88,-168.52 1399.38,-178.52 1402.88,-168.52 1395.88,-168.52"/>
</g>
<!-- SelectCheckAllComponent  -->
<g id="node52" class="node">
<title>SelectCheckAllComponent </title>
<polygon fill="#fb8072" stroke="black" points="1233.19,-214.8 1060.81,-214.8 1060.81,-178.8 1233.19,-178.8 1233.19,-214.8"/>
<text text-anchor="middle" x="1147" y="-192.6" font-family="Times,serif" font-size="14.00">SelectCheckAllComponent </text>
</g>
<!-- ComponentsModule&#45;&gt;SelectCheckAllComponent  -->
<g id="edge51" class="edge">
<title>ComponentsModule&#45;&gt;SelectCheckAllComponent </title>
<path fill="none" stroke="black" stroke-dasharray="5,2" d="M2473.67,-140.8C2204.29,-140.8 1193.88,-140.8 1193.88,-140.8 1193.88,-140.8 1193.88,-168.77 1193.88,-168.77"/>
<polygon fill="black" stroke="black" points="1190.38,-168.77 1193.88,-178.77 1197.38,-168.77 1190.38,-168.77"/>
</g>
<!-- SelectComponent  -->
<g id="node53" class="node">
<title>SelectComponent </title>
<polygon fill="#fb8072" stroke="black" points="1042.54,-214.8 923.46,-214.8 923.46,-178.8 1042.54,-178.8 1042.54,-214.8"/>
<text text-anchor="middle" x="983" y="-192.6" font-family="Times,serif" font-size="14.00">SelectComponent </text>
</g>
<!-- ComponentsModule&#45;&gt;SelectComponent  -->
<g id="edge52" class="edge">
<title>ComponentsModule&#45;&gt;SelectComponent </title>
<path fill="none" stroke="black" stroke-dasharray="5,2" d="M2473.76,-139.8C2184.48,-139.8 1031.88,-139.8 1031.88,-139.8 1031.88,-139.8 1031.88,-168.76 1031.88,-168.76"/>
<polygon fill="black" stroke="black" points="1028.38,-168.76 1031.88,-178.76 1035.38,-168.76 1028.38,-168.76"/>
</g>
<!-- SpeedometerComponent  -->
<g id="node54" class="node">
<title>SpeedometerComponent </title>
<polygon fill="#fb8072" stroke="black" points="905.91,-214.8 748.09,-214.8 748.09,-178.8 905.91,-178.8 905.91,-214.8"/>
<text text-anchor="middle" x="827" y="-192.6" font-family="Times,serif" font-size="14.00">SpeedometerComponent </text>
</g>
<!-- ComponentsModule&#45;&gt;SpeedometerComponent  -->
<g id="edge53" class="edge">
<title>ComponentsModule&#45;&gt;SpeedometerComponent </title>
<path fill="none" stroke="black" stroke-dasharray="5,2" d="M2473.61,-138.8C2165.94,-138.8 877.38,-138.8 877.38,-138.8 877.38,-138.8 877.38,-168.77 877.38,-168.77"/>
<polygon fill="black" stroke="black" points="873.88,-168.77 877.38,-178.77 880.88,-168.77 873.88,-168.77"/>
</g>
<!-- TimeSelectorComponent  -->
<g id="node55" class="node">
<title>TimeSelectorComponent </title>
<polygon fill="#fb8072" stroke="black" points="730.25,-214.8 569.75,-214.8 569.75,-178.8 730.25,-178.8 730.25,-214.8"/>
<text text-anchor="middle" x="650" y="-192.6" font-family="Times,serif" font-size="14.00">TimeSelectorComponent </text>
</g>
<!-- ComponentsModule&#45;&gt;TimeSelectorComponent  -->
<g id="edge54" class="edge">
<title>ComponentsModule&#45;&gt;TimeSelectorComponent </title>
<path fill="none" stroke="black" stroke-dasharray="5,2" d="M2473.62,-137.8C2146.35,-137.8 701.88,-137.8 701.88,-137.8 701.88,-137.8 701.88,-168.78 701.88,-168.78"/>
<polygon fill="black" stroke="black" points="698.38,-168.78 701.88,-178.78 705.38,-168.78 698.38,-168.78"/>
</g>
<!-- TooltipsComponent  -->
<g id="node56" class="node">
<title>TooltipsComponent </title>
<polygon fill="#fb8072" stroke="black" points="551.5,-214.8 420.5,-214.8 420.5,-178.8 551.5,-178.8 551.5,-214.8"/>
<text text-anchor="middle" x="486" y="-192.6" font-family="Times,serif" font-size="14.00">TooltipsComponent </text>
</g>
<!-- ComponentsModule&#45;&gt;TooltipsComponent  -->
<g id="edge55" class="edge">
<title>ComponentsModule&#45;&gt;TooltipsComponent </title>
<path fill="none" stroke="black" stroke-dasharray="5,2" d="M2473.62,-135.8C2129.09,-135.8 539.88,-135.8 539.88,-135.8 539.88,-135.8 539.88,-168.5 539.88,-168.5"/>
<polygon fill="black" stroke="black" points="536.38,-168.5 539.88,-178.5 543.38,-168.5 536.38,-168.5"/>
</g>
<!-- WrapperComponent  -->
<g id="node57" class="node">
<title>WrapperComponent </title>
<polygon fill="#fb8072" stroke="black" points="401.8,-214.8 268.2,-214.8 268.2,-178.8 401.8,-178.8 401.8,-214.8"/>
<text text-anchor="middle" x="335" y="-192.6" font-family="Times,serif" font-size="14.00">WrapperComponent </text>
</g>
<!-- ComponentsModule&#45;&gt;WrapperComponent  -->
<g id="edge56" class="edge">
<title>ComponentsModule&#45;&gt;WrapperComponent </title>
<path fill="none" stroke="black" stroke-dasharray="5,2" d="M2473.83,-134.8C2114.47,-134.8 390.88,-134.8 390.88,-134.8 390.88,-134.8 390.88,-168.53 390.88,-168.53"/>
<polygon fill="black" stroke="black" points="387.38,-168.53 390.88,-178.53 394.38,-168.53 387.38,-168.53"/>
</g>
<!-- WrapperNoConnectedComponent  -->
<g id="node58" class="node">
<title>WrapperNoConnectedComponent </title>
<polygon fill="#fb8072" stroke="black" points="250.28,-214.8 39.72,-214.8 39.72,-178.8 250.28,-178.8 250.28,-214.8"/>
<text text-anchor="middle" x="145" y="-192.6" font-family="Times,serif" font-size="14.00">WrapperNoConnectedComponent </text>
</g>
<!-- ComponentsModule&#45;&gt;WrapperNoConnectedComponent  -->
<g id="edge57" class="edge">
<title>ComponentsModule&#45;&gt;WrapperNoConnectedComponent </title>
<path fill="none" stroke="black" stroke-dasharray="5,2" d="M2473.76,-133.8C2095.66,-133.8 202.38,-133.8 202.38,-133.8 202.38,-133.8 202.38,-168.58 202.38,-168.58"/>
<polygon fill="black" stroke="black" points="198.88,-168.58 202.38,-178.58 205.88,-168.58 198.88,-168.58"/>
</g>
<!-- MaterialModule -->
<g id="node30" class="node">
<title>MaterialModule</title>
<polygon fill="#8dd3c7" stroke="black" points="130.47,-84.8 127.47,-88.8 106.47,-88.8 103.47,-84.8 23.53,-84.8 23.53,-48.8 130.47,-48.8 130.47,-84.8"/>
<text text-anchor="middle" x="77" y="-62.6" font-family="Times,serif" font-size="14.00">MaterialModule</text>
</g>
<!-- MaterialModule&#45;&gt;ComponentsModule -->
<g id="edge29" class="edge">
<title>MaterialModule&#45;&gt;ComponentsModule</title>
<path fill="none" stroke="black" d="M85.05,-84.91C85.05,-104.14 85.05,-131.8 85.05,-131.8 85.05,-131.8 2463.68,-131.8 2463.68,-131.8"/>
<polygon fill="black" stroke="black" points="2463.68,-135.3 2473.68,-131.8 2463.68,-128.3 2463.68,-135.3"/>
</g>
</g>
</svg>
