<?xml version="1.0" encoding="UTF-8" standalone="no"?>
<!DOCTYPE svg PUBLIC "-//W3C//DTD SVG 1.1//EN"
 "http://www.w3.org/Graphics/SVG/1.1/DTD/svg11.dtd">
<!-- Generated by graphviz version 3.0.0 (20220226.1711)
 -->
<!-- Title: dependencies Pages: 1 -->
<svg width="444pt" height="174pt"
 viewBox="0.00 0.00 444.00 173.80" xmlns="http://www.w3.org/2000/svg" xmlns:xlink="http://www.w3.org/1999/xlink">
<g id="graph0" class="graph" transform="scale(1 1) rotate(0) translate(4 169.8)">
<title>dependencies</title>
<polygon fill="white" stroke="transparent" points="-4,4 -4,-169.8 440,-169.8 440,4 -4,4"/>
<text text-anchor="middle" x="218" y="-8.2" font-family="sans-serif" font-size="14.00">dependencies</text>
<g id="clust1" class="cluster">
<title>cluster_SimulatorModule</title>
<polygon fill="none" stroke="black" stroke-dasharray="1,5" points="8,-32.8 8,-157.8 428,-157.8 428,-32.8 8,-32.8"/>
</g>
<g id="clust2" class="cluster">
<title>cluster_SimulatorModule_declarations</title>
<polygon fill="none" stroke="black" points="306,-40.8 306,-92.8 420,-92.8 420,-40.8 306,-40.8"/>
</g>
<g id="clust4" class="cluster">
<title>cluster_SimulatorModule_imports</title>
<polygon fill="none" stroke="black" points="16,-40.8 16,-92.8 298,-92.8 298,-40.8 16,-40.8"/>
</g>
<!-- SimulatorPage -->
<g id="node1" class="node">
<title>SimulatorPage</title>
<polygon fill="#ffffb3" stroke="black" points="412.44,-84.8 313.56,-84.8 313.56,-48.8 412.44,-48.8 412.44,-84.8"/>
<text text-anchor="middle" x="363" y="-62.6" font-family="Times,serif" font-size="14.00">SimulatorPage</text>
</g>
<!-- SimulatorModule -->
<g id="node2" class="node">
<title>SimulatorModule</title>
<polygon fill="#8dd3c7" stroke="black" points="294.27,-149.8 291.27,-153.8 270.27,-153.8 267.27,-149.8 179.73,-149.8 179.73,-113.8 294.27,-113.8 294.27,-149.8"/>
<text text-anchor="middle" x="237" y="-127.6" font-family="Times,serif" font-size="14.00">SimulatorModule</text>
</g>
<!-- SimulatorPage&#45;&gt;SimulatorModule -->
<g id="edge1" class="edge">
<title>SimulatorPage&#45;&gt;SimulatorModule</title>
<path fill="none" stroke="black" d="M363,-84.91C363,-104.14 363,-131.8 363,-131.8 363,-131.8 304.47,-131.8 304.47,-131.8"/>
<polygon fill="black" stroke="black" points="304.47,-128.3 294.47,-131.8 304.47,-135.3 304.47,-128.3"/>
</g>
<!-- MaterialModule -->
<g id="node3" class="node">
<title>MaterialModule</title>
<polygon fill="#8dd3c7" stroke="black" points="290.47,-84.8 287.47,-88.8 266.47,-88.8 263.47,-84.8 183.53,-84.8 183.53,-48.8 290.47,-48.8 290.47,-84.8"/>
<text text-anchor="middle" x="237" y="-62.6" font-family="Times,serif" font-size="14.00">MaterialModule</text>
</g>
<!-- MaterialModule&#45;&gt;SimulatorModule -->
<g id="edge2" class="edge">
<title>MaterialModule&#45;&gt;SimulatorModule</title>
<path fill="none" stroke="black" d="M237,-84.91C237,-84.91 237,-103.79 237,-103.79"/>
<polygon fill="black" stroke="black" points="233.5,-103.79 237,-113.79 240.5,-103.79 233.5,-103.79"/>
</g>
<!-- SimulatorPageModule -->
<g id="node4" class="node">
<title>SimulatorPageModule</title>
<polygon fill="#8dd3c7" stroke="black" points="165.99,-84.8 162.99,-88.8 141.99,-88.8 138.99,-84.8 24.01,-84.8 24.01,-48.8 165.99,-48.8 165.99,-84.8"/>
<text text-anchor="middle" x="95" y="-62.6" font-family="Times,serif" font-size="14.00">SimulatorPageModule</text>
</g>
<!-- SimulatorPageModule&#45;&gt;SimulatorModule -->
<g id="edge3" class="edge">
<title>SimulatorPageModule&#45;&gt;SimulatorModule</title>
<path fill="none" stroke="black" d="M95,-84.91C95,-104.14 95,-131.8 95,-131.8 95,-131.8 169.65,-131.8 169.65,-131.8"/>
<polygon fill="black" stroke="black" points="169.65,-135.3 179.65,-131.8 169.65,-128.3 169.65,-135.3"/>
</g>
</g>
</svg>
