<?xml version="1.0" encoding="UTF-8" standalone="no"?>
<!DOCTYPE svg PUBLIC "-//W3C//DTD SVG 1.1//EN"
 "http://www.w3.org/Graphics/SVG/1.1/DTD/svg11.dtd">
<!-- Generated by graphviz version 3.0.0 (20220226.1711)
 -->
<!-- Title: dependencies Pages: 1 -->
<svg width="366pt" height="174pt"
 viewBox="0.00 0.00 366.00 173.80" xmlns="http://www.w3.org/2000/svg" xmlns:xlink="http://www.w3.org/1999/xlink">
<g id="graph0" class="graph" transform="scale(1 1) rotate(0) translate(4 169.8)">
<title>dependencies</title>
<polygon fill="white" stroke="transparent" points="-4,4 -4,-169.8 362,-169.8 362,4 -4,4"/>
<text text-anchor="middle" x="179" y="-8.2" font-family="sans-serif" font-size="14.00">dependencies</text>
<g id="clust1" class="cluster">
<title>cluster_ForgotPasswordModule</title>
<polygon fill="none" stroke="black" stroke-dasharray="1,5" points="8,-32.8 8,-157.8 350,-157.8 350,-32.8 8,-32.8"/>
</g>
<g id="clust4" class="cluster">
<title>cluster_ForgotPasswordModule_imports</title>
<polygon fill="none" stroke="black" points="148,-40.8 148,-92.8 342,-92.8 342,-40.8 148,-40.8"/>
</g>
<g id="clust2" class="cluster">
<title>cluster_ForgotPasswordModule_declarations</title>
<polygon fill="none" stroke="black" points="16,-40.8 16,-92.8 140,-92.8 140,-40.8 16,-40.8"/>
</g>
<!-- ForgotPassword -->
<g id="node1" class="node">
<title>ForgotPassword</title>
<polygon fill="#ffffb3" stroke="black" points="131.51,-84.8 24.49,-84.8 24.49,-48.8 131.51,-48.8 131.51,-84.8"/>
<text text-anchor="middle" x="78" y="-62.6" font-family="Times,serif" font-size="14.00">ForgotPassword</text>
</g>
<!-- ForgotPasswordModule -->
<g id="node2" class="node">
<title>ForgotPasswordModule</title>
<polygon fill="#8dd3c7" stroke="black" points="243.06,-149.8 240.06,-153.8 219.06,-153.8 216.06,-149.8 92.94,-149.8 92.94,-113.8 243.06,-113.8 243.06,-149.8"/>
<text text-anchor="middle" x="168" y="-127.6" font-family="Times,serif" font-size="14.00">ForgotPasswordModule</text>
</g>
<!-- ForgotPassword&#45;&gt;ForgotPasswordModule -->
<g id="edge1" class="edge">
<title>ForgotPassword&#45;&gt;ForgotPasswordModule</title>
<path fill="none" stroke="black" d="M112.11,-84.91C112.11,-84.91 112.11,-103.79 112.11,-103.79"/>
<polygon fill="black" stroke="black" points="108.61,-103.79 112.11,-113.79 115.61,-103.79 108.61,-103.79"/>
</g>
<!-- ForgotPasswordPageModule -->
<g id="node3" class="node">
<title>ForgotPasswordPageModule</title>
<polygon fill="#8dd3c7" stroke="black" points="333.77,-84.8 330.77,-88.8 309.77,-88.8 306.77,-84.8 156.23,-84.8 156.23,-48.8 333.77,-48.8 333.77,-84.8"/>
<text text-anchor="middle" x="245" y="-62.6" font-family="Times,serif" font-size="14.00">ForgotPasswordPageModule</text>
</g>
<!-- ForgotPasswordPageModule&#45;&gt;ForgotPasswordModule -->
<g id="edge2" class="edge">
<title>ForgotPasswordPageModule&#45;&gt;ForgotPasswordModule</title>
<path fill="none" stroke="black" d="M199.7,-84.91C199.7,-84.91 199.7,-103.79 199.7,-103.79"/>
<polygon fill="black" stroke="black" points="196.2,-103.79 199.7,-113.79 203.2,-103.79 196.2,-103.79"/>
</g>
</g>
</svg>
