<?xml version="1.0" encoding="UTF-8" standalone="no"?>
<!DOCTYPE svg PUBLIC "-//W3C//DTD SVG 1.1//EN"
 "http://www.w3.org/Graphics/SVG/1.1/DTD/svg11.dtd">
<!-- Generated by graphviz version 3.0.0 (20220226.1711)
 -->
<!-- Title: dependencies Pages: 1 -->
<svg width="186pt" height="247pt"
 viewBox="0.00 0.00 186.00 246.80" xmlns="http://www.w3.org/2000/svg" xmlns:xlink="http://www.w3.org/1999/xlink">
<g id="graph0" class="graph" transform="scale(1 1) rotate(0) translate(4 242.8)">
<title>dependencies</title>
<polygon fill="white" stroke="transparent" points="-4,4 -4,-242.8 182,-242.8 182,4 -4,4"/>
<text text-anchor="middle" x="89" y="-8.2" font-family="sans-serif" font-size="14.00">dependencies</text>
<g id="clust1" class="cluster">
<title>cluster_CalculatorPageModule</title>
<polygon fill="none" stroke="black" stroke-dasharray="1,5" points="8,-32.8 8,-230.8 170,-230.8 170,-32.8 8,-32.8"/>
</g>
<g id="clust4" class="cluster">
<title>cluster_CalculatorPageModule_exports</title>
<polygon fill="none" stroke="black" points="30,-170.8 30,-222.8 148,-222.8 148,-170.8 30,-170.8"/>
</g>
<g id="clust3" class="cluster">
<title>cluster_CalculatorPageModule_imports</title>
<polygon fill="none" stroke="black" points="32,-40.8 32,-92.8 146,-92.8 146,-40.8 32,-40.8"/>
</g>
<!-- RouterModule -->
<g id="node1" class="node">
<title>RouterModule</title>
<polygon fill="#8dd3c7" stroke="black" points="137.66,-84.8 134.66,-88.8 113.66,-88.8 110.66,-84.8 40.34,-84.8 40.34,-48.8 137.66,-48.8 137.66,-84.8"/>
<text text-anchor="middle" x="89" y="-62.6" font-family="Times,serif" font-size="14.00">RouterModule</text>
</g>
<!-- CalculatorPageModule -->
<g id="node2" class="node">
<title>CalculatorPageModule</title>
<polygon fill="#8dd3c7" stroke="black" points="161.58,-149.8 158.58,-153.8 137.58,-153.8 134.58,-149.8 16.42,-149.8 16.42,-113.8 161.58,-113.8 161.58,-149.8"/>
<text text-anchor="middle" x="89" y="-127.6" font-family="Times,serif" font-size="14.00">CalculatorPageModule</text>
</g>
<!-- RouterModule&#45;&gt;CalculatorPageModule -->
<g id="edge1" class="edge">
<title>RouterModule&#45;&gt;CalculatorPageModule</title>
<path fill="none" stroke="black" d="M89,-84.91C89,-84.91 89,-103.79 89,-103.79"/>
<polygon fill="black" stroke="black" points="85.5,-103.79 89,-113.79 92.5,-103.79 85.5,-103.79"/>
</g>
<!-- RouterModule  -->
<g id="node3" class="node">
<title>RouterModule </title>
<polygon fill="#fb8072" stroke="black" points="139.66,-214.8 38.34,-214.8 38.34,-178.8 139.66,-178.8 139.66,-214.8"/>
<text text-anchor="middle" x="89" y="-192.6" font-family="Times,serif" font-size="14.00">RouterModule </text>
</g>
<!-- CalculatorPageModule&#45;&gt;RouterModule  -->
<g id="edge2" class="edge">
<title>CalculatorPageModule&#45;&gt;RouterModule </title>
<path fill="none" stroke="black" stroke-dasharray="5,2" d="M89,-149.91C89,-149.91 89,-168.79 89,-168.79"/>
<polygon fill="black" stroke="black" points="85.5,-168.79 89,-178.79 92.5,-168.79 85.5,-168.79"/>
</g>
</g>
</svg>
