<?xml version="1.0" encoding="UTF-8"?>
<svg width="64px" height="45px" viewBox="0 0 64 45" version="1.1" xmlns="http://www.w3.org/2000/svg" xmlns:xlink="http://www.w3.org/1999/xlink">
    <title>Path 2</title>
    <g id="Page-1" stroke="none" stroke-width="1" fill="none" fill-rule="evenodd">
        <g id="Fiche_Individuelle" transform="translate(-679.000000, -129.000000)" fill="#E4794A" fill-rule="nonzero">
            <g id="Group" transform="translate(222.000000, 102.000000)">
                <g id="Group-2" transform="translate(365.000000, 3.000000)">
                    <g id="Group-8" transform="translate(37.000000, 29.000000)">
                        <path id="Path-2" d="M109.5,-4.5 L118.5,0 L109.5,4.5 L109.499,0.5 L103.291,0.5 L63.2666583,32.5923739 C64.4800121,34.5033329 64.0865151,37.0618651 62.2794427,38.510801 C60.3404809,40.0654876 57.5083192,39.753971 55.9536326,37.8150092 C54.3989459,35.8760473 54.7104625,33.0438857 56.6494244,31.489199 C58.4566521,30.0401387 61.0398336,30.212314 62.6413463,31.8123998 L102.802679,-0.390088997 L102.939757,-0.5 L109.499,-0.5 L109.5,-4.5 Z M57.274982,32.269377 C55.7669005,33.4785777 55.5246098,35.6813701 56.7338106,37.1894516 C57.9430113,38.697533 60.1458037,38.9398237 61.6538851,37.730623 C63.1619665,36.5214223 63.4042572,34.3186299 62.1950565,32.8105484 C60.9858558,31.302467 58.7830634,31.0601763 57.274982,32.269377 Z"></path>
                    </g>
                </g>
            </g>
        </g>
    </g>
</svg>