<?xml version="1.0" encoding="UTF-8"?>
<svg width="100px" height="101px" viewBox="0 0 100 101" version="1.1" xmlns="http://www.w3.org/2000/svg" xmlns:xlink="http://www.w3.org/1999/xlink">
    <title>Digital/coding</title>
    <g id="X---Documentation" stroke="none" stroke-width="1" fill="none" fill-rule="evenodd">
        <g id="Outils_v1.1_1200_V0.3_Pictos_Left" transform="translate(-764, -528)">
            <g id="Content" transform="translate(222, 90)">
                <g id="Les-outils-Copy" transform="translate(498, 323)">
                    <g id="Group-22" transform="translate(32, 78)">
                        <g id="Picto_guideUtilisateur" transform="translate(1, 1)">
                            <g id="Digital/coding" transform="translate(11, 36.2081)">
                                <rect id="Rectangle" x="0" y="0" width="100" height="100.578035"></rect>
                                <g id="Group" transform="translate(20, 12.5723)" fill-rule="nonzero">
                                    <path d="M50,0 C55.5228475,0 60,4.503032 60,10.0578035 L60,65.3757225 C60,70.930494 55.5228475,75.433526 50,75.433526 L10,75.433526 C4.4771525,75.433526 0,70.930494 0,65.3757225 L0,10.0578035 C0,4.503032 4.4771525,0 10,0 L50,0 Z M50,2.51445087 L10,2.51445087 C5.85786438,2.51445087 2.5,5.89172486 2.5,10.0578035 L2.5,65.3757225 C2.5,69.5418011 5.85786438,72.9190751 10,72.9190751 L50,72.9190751 C54.1421356,72.9190751 57.5,69.5418011 57.5,65.3757225 L57.5,10.0578035 C57.5,5.89172486 54.1421356,2.51445087 50,2.51445087 Z" id="Rectangle" fill="#000091"></path>
                                    <path d="M48.75,7.5433526 C50.8210678,7.5433526 52.5,9.2319896 52.5,11.3150289 L52.5,18.8583815 C52.5,20.9414208 50.8210678,22.6300578 48.75,22.6300578 L12.5,22.6300578 C10.4289322,22.6300578 8.75,20.9414208 8.75,18.8583815 L8.75,15.0867052 C8.75,14.3923588 9.30964406,13.8294798 10,13.8294798 C10.6903559,13.8294798 11.25,14.3923588 11.25,15.0867052 L11.25,18.8583815 C11.25,19.5527279 11.8096441,20.1156069 12.5,20.1156069 L48.75,20.1156069 C49.4403559,20.1156069 50,19.5527279 50,18.8583815 L50,11.3150289 C50,10.6206825 49.4403559,10.0578035 48.75,10.0578035 L12.5,10.0578035 C11.8096441,10.0578035 11.25,9.49492447 11.25,8.80057803 C11.25,8.1062316 11.8096441,7.5433526 12.5,7.5433526 L48.75,7.5433526 Z" id="Rectangle" fill="#000091"></path>
                                    <path d="M20,25.1445087 C21.3807119,25.1445087 22.5,26.2702667 22.5,27.6589595 L22.5,35.2023121 C22.5,36.591005 21.3807119,37.716763 20,37.716763 L11.25,37.716763 C9.86928813,37.716763 8.75,36.591005 8.75,35.2023121 L8.75,27.6589595 C8.75,26.2702667 9.86928813,25.1445087 11.25,25.1445087 L20,25.1445087 Z M20,27.6589595 L11.25,27.6589595 L11.25,35.2023121 L20,35.2023121 L20,27.6589595 Z" id="Rectangle-Copy" fill="#000091"></path>
                                    <path d="M20,40.2312139 C21.3807119,40.2312139 22.5,41.3569719 22.5,42.7456647 L22.5,50.2890173 C22.5,51.6777102 21.3807119,52.8034682 20,52.8034682 L11.25,52.8034682 C9.86928813,52.8034682 8.75,51.6777102 8.75,50.2890173 L8.75,42.7456647 C8.75,41.3569719 9.86928813,40.2312139 11.25,40.2312139 L20,40.2312139 Z M20,42.7456647 L11.25,42.7456647 L11.25,50.2890173 L20,50.2890173 L20,42.7456647 Z" id="Rectangle-Copy-4" fill="#000091"></path>
                                    <path d="M20,55.3179191 C21.3807119,55.3179191 22.5,56.4436771 22.5,57.8323699 L22.5,65.3757225 C22.5,66.7644154 21.3807119,67.8901734 20,67.8901734 L11.25,67.8901734 C9.86928813,67.8901734 8.75,66.7644154 8.75,65.3757225 L8.75,57.8323699 C8.75,56.4436771 9.86928813,55.3179191 11.25,55.3179191 L20,55.3179191 Z M20,57.8323699 L11.25,57.8323699 L11.25,65.3757225 L20,65.3757225 L20,57.8323699 Z" id="Rectangle-Copy-7" fill="#000091"></path>
                                    <path d="M35,25.1445087 C36.3807119,25.1445087 37.5,26.2702667 37.5,27.6589595 L37.5,35.2023121 C37.5,36.591005 36.3807119,37.716763 35,37.716763 L26.25,37.716763 C24.8692881,37.716763 23.75,36.591005 23.75,35.2023121 L23.75,27.6589595 C23.75,26.2702667 24.8692881,25.1445087 26.25,25.1445087 L35,25.1445087 Z M35,27.6589595 L26.25,27.6589595 L26.25,35.2023121 L35,35.2023121 L35,27.6589595 Z" id="Rectangle-Copy-2" fill="#000091"></path>
                                    <path d="M35,40.2312139 C36.3807119,40.2312139 37.5,41.3569719 37.5,42.7456647 L37.5,50.2890173 C37.5,51.6777102 36.3807119,52.8034682 35,52.8034682 L26.25,52.8034682 C24.8692881,52.8034682 23.75,51.6777102 23.75,50.2890173 L23.75,42.7456647 C23.75,41.3569719 24.8692881,40.2312139 26.25,40.2312139 L35,40.2312139 Z M35,42.7456647 L26.25,42.7456647 L26.25,50.2890173 L35,50.2890173 L35,42.7456647 Z" id="Rectangle-Copy-5" fill="#000091"></path>
                                    <path d="M35,55.3179191 C36.3807119,55.3179191 37.5,56.4436771 37.5,57.8323699 L37.5,65.3757225 C37.5,66.7644154 36.3807119,67.8901734 35,67.8901734 L26.25,67.8901734 C24.8692881,67.8901734 23.75,66.7644154 23.75,65.3757225 L23.75,57.8323699 C23.75,56.4436771 24.8692881,55.3179191 26.25,55.3179191 L35,55.3179191 Z M35,57.8323699 L26.25,57.8323699 L26.25,65.3757225 L35,65.3757225 L35,57.8323699 Z" id="Rectangle-Copy-8" fill="#000091"></path>
                                    <path d="M50,25.1445087 C51.3807119,25.1445087 52.5,26.2702667 52.5,27.6589595 L52.5,35.2023121 C52.5,36.591005 51.3807119,37.716763 50,37.716763 L41.25,37.716763 C39.8692881,37.716763 38.75,36.591005 38.75,35.2023121 L38.75,27.6589595 C38.75,26.2702667 39.8692881,25.1445087 41.25,25.1445087 L50,25.1445087 Z M50,27.6589595 L41.25,27.6589595 L41.25,35.2023121 L50,35.2023121 L50,27.6589595 Z" id="Rectangle-Copy-3" fill="#000091"></path>
                                    <path d="M50,40.2312139 C52.0710678,40.2312139 53.75,41.9198509 53.75,44.0028902 L53.75,64.1184971 C53.75,66.2015364 52.0710678,67.8901734 50,67.8901734 L42.5,67.8901734 C40.4289322,67.8901734 38.75,66.2015364 38.75,64.1184971 C38.75,63.4241507 39.3096441,62.8612717 40,62.8612717 C40.6903559,62.8612717 41.25,63.4241507 41.25,64.1184971 C41.25,64.8128435 41.8096441,65.3757225 42.5,65.3757225 L50,65.3757225 C50.6903559,65.3757225 51.25,64.8128435 51.25,64.1184971 L51.25,44.0028902 C51.25,43.3085437 50.6903559,42.7456647 50,42.7456647 L42.5,42.7456647 C41.8096441,42.7456647 41.25,42.1827857 41.25,41.4884393 C41.25,40.7940929 41.8096441,40.2312139 42.5,40.2312139 L50,40.2312139 Z" id="Rectangle-Copy-6" fill="#E1000F"></path>
                                </g>
                            </g>
                        </g>
                    </g>
                </g>
            </g>
        </g>
    </g>
</svg>