<?xml version="1.0" encoding="UTF-8"?>
<svg width="100px" height="100px" viewBox="0 0 100 100" version="1.1" xmlns="http://www.w3.org/2000/svg" xmlns:xlink="http://www.w3.org/1999/xlink">
    <title>Leisure/community</title>
    <g id="X---Documentation" stroke="none" stroke-width="1" fill="none" fill-rule="evenodd">
        <g id="Outils_v1.1_1200_V0.3_Pictos_Left" transform="translate(-661, -121)">
            <g id="Content" transform="translate(222, 90)">
                <g id="Group-2" transform="translate(239, 31)">
                    <g id="Leisure/community" transform="translate(210, 12.5)">
                        <path d="M63.75,82.5 C63.0607499,82.5 62.5,81.9392501 62.5,81.25 C62.5,80.5606911 63.0607499,80 63.75,80 C64.4392501,80 65,80.5606911 65,81.25 C65,81.9392501 64.4392501,82.5 63.75,82.5 Z M73.75,2.5 C73.0607499,2.5 72.5,1.93925014 72.5,1.25 C72.5,0.560691129 73.0607499,0 73.75,0 C74.4392501,0 75,0.560691129 75,1.25 C75,1.93925014 74.4392501,2.5 73.75,2.5 Z M1.25,7.5 C0.560749859,7.5 0,6.93925014 0,6.25 C0,5.56069113 0.560749859,5 1.25,5 C1.93925014,5 2.5,5.56069113 2.5,6.25 C2.5,6.93925014 1.93925014,7.5 1.25,7.5 Z" id="Couleur-décorative" fill="#ECECFE"></path>
                        <path d="M35,37.5 C36.3807119,37.5 37.5,38.6192881 37.5,40 C37.5,41.1268803 36.7544249,42.0796223 35.7296579,42.3918427 C35.848493,42.4513574 35.982858,42.4846974 36.1323868,42.4957858 L36.25,42.5 C36.9403559,42.5 37.5,43.0596441 37.5,43.75 C37.5,44.4403559 36.9403559,45 36.25,45 C33.7608048,45 32.5,43.1087927 32.5,40 L32.5053177,39.8356243 C32.5899613,38.5315359 33.6745166,37.5 35,37.5 Z M42.5,37.5 C43.8807119,37.5 45,38.6192881 45,40 C45,41.1268803 44.2544249,42.0796223 43.2296579,42.3918427 C43.348493,42.4513574 43.482858,42.4846974 43.6323868,42.4957858 L43.75,42.5 C44.4403559,42.5 45,43.0596441 45,43.75 C45,44.4403559 44.4403559,45 43.75,45 C41.2608048,45 40,43.1087927 40,40 L40.0053177,39.8356243 C40.0899613,38.5315359 41.1745166,37.5 42.5,37.5 Z M31.25,15 C31.9403559,15 32.5,15.5596441 32.5,16.25 C32.5,16.8910448 32.0174498,17.419384 31.3957764,17.4915903 L31.25,17.5 L16.25,17.5 C15.5596441,17.5 15,16.9403559 15,16.25 C15,15.6089552 15.4825502,15.080616 16.1042236,15.0084097 L16.25,15 L31.25,15 Z M28.75,20 C29.4403559,20 30,20.5596441 30,21.25 C30,21.8910448 29.5174498,22.419384 28.8957764,22.4915903 L28.75,22.5 L16.25,22.5 C15.5596441,22.5 15,21.9403559 15,21.25 C15,20.6089552 15.4825502,20.080616 16.1042236,20.0084097 L16.25,20 L28.75,20 Z M23.75,25 C24.4403559,25 25,25.5596441 25,26.25 C25,26.8910448 24.5174498,27.419384 23.8957764,27.4915903 L23.75,27.5 L16.25,27.5 C15.5596441,27.5 15,26.9403559 15,26.25 C15,25.6089552 15.4825502,25.080616 16.1042236,25.0084097 L16.25,25 L23.75,25 Z M56.25,50 C56.9403559,50 57.5,50.5596441 57.5,51.25 C57.5,51.8910448 57.0174498,52.419384 56.3957764,52.4915903 L56.25,52.5 L33.75,52.5 C33.0596441,52.5 32.5,51.9403559 32.5,51.25 C32.5,50.6089552 32.9825502,50.080616 33.6042236,50.0084097 L33.75,50 L56.25,50 Z M51.25,55 C51.9403559,55 52.5,55.5596441 52.5,56.25 C52.5,56.8910448 52.0174498,57.419384 51.3957764,57.4915903 L51.25,57.5 L33.75,57.5 C33.0596441,57.5 32.5,56.9403559 32.5,56.25 C32.5,55.6089552 32.9825502,55.080616 33.6042236,55.0084097 L33.75,55 L51.25,55 Z" id="🎨Couleur-mineure-(Indice--main)" fill="#E1000F"></path>
                        <path d="M47.5,22.5 C61.3071187,22.5 72.5,33.6928813 72.5,47.5 C72.5,51.4133085 71.5992036,55.2005421 69.8921586,58.6289379 C69.5844539,59.2469259 68.8340318,59.4984603 68.2160438,59.1907556 C67.5980558,58.883051 67.3465214,58.1326288 67.654226,57.5146408 C69.1898627,54.4304981 70,51.0244244 70,47.5 C70,35.0735931 59.9264069,25 47.5,25 C35.0735931,25 25,35.0735931 25,47.5 C25,59.7883357 34.8509792,69.7758519 47.0866684,69.9962796 L47.5,70 L68.91375,70 L65.2099371,64.4433752 C64.8543495,63.9099937 64.9627857,63.2027183 65.4399963,62.7977966 L65.5566248,62.7099371 C66.0900063,62.3543495 66.7972817,62.4627857 67.2022034,62.9399963 L67.2900629,63.0566248 L72.2900629,70.5566248 C72.8174873,71.3477613 72.3024764,72.3946697 71.3898029,72.4925813 L71.25,72.5 L47.5,72.5 C33.6928813,72.5 22.5,61.3071187 22.5,47.5 C22.5,33.6928813 33.6928813,22.5 47.5,22.5 Z M8.75,60 C9.44035594,60 10,60.5596441 10,61.25 C10,61.8910448 9.51744976,62.419384 8.89577641,62.4915903 L8.75,62.5 L3.75,62.5 C3.05964406,62.5 2.5,61.9403559 2.5,61.25 C2.5,60.6089552 2.98255024,60.080616 3.60422359,60.0084097 L3.75,60 L8.75,60 Z M13.75,60 C14.4392501,60 15,60.5606911 15,61.25 C15,61.9392501 14.4392501,62.5 13.75,62.5 C13.0607499,62.5 12.5,61.9392501 12.5,61.25 C12.5,60.5606911 13.0607499,60 13.75,60 Z M18.75,60 C19.4392501,60 20,60.5606911 20,61.25 C20,61.9392501 19.4392501,62.5 18.75,62.5 C18.0607499,62.5 17.5,61.9392501 17.5,61.25 C17.5,60.5606911 18.0607499,60 18.75,60 Z M28.75,2.5 C37.3175725,2.5 44.1099234,7.57139138 47.4098677,15.7839454 C47.6672626,16.4245226 47.3566319,17.1524728 46.7160546,17.4098677 C46.0754774,17.6672626 45.3475272,17.3566319 45.0901323,16.7160546 C42.1547898,9.41088319 36.2470883,5 28.75,5 C18.3946609,5 10,13.3946609 10,23.75 C10,27.7697909 11.2666216,31.5952866 13.5821825,34.7750904 C13.8757501,35.1782269 13.8989227,35.7120041 13.6547231,36.1352071 L13.5634248,36.2718485 L8.78375,42.5 L16.25,42.5 C16.8910448,42.5 17.419384,42.9825502 17.4915903,43.6042236 L17.5,43.75 C17.5,44.3910448 17.0174498,44.919384 16.3957764,44.9915903 L16.25,45 L6.25,45 C5.26072404,45 4.68162167,43.9169176 5.17972954,43.1033234 L5.25828779,42.989075 L11.025,35.4725 L10.9543273,35.3679746 C8.81350377,32.0959252 7.6076878,28.2863304 7.50688116,24.2953198 L7.5,23.75 C7.5,12.0139491 17.0139491,2.5 28.75,2.5 Z M73.75,5 C74.4403559,5 75,5.55964406 75,6.25 L75,16.25 C75,16.9403559 74.4403559,17.5 73.75,17.5 L70,17.5 L70,21.25 C70,22.3152123 68.768108,22.8717923 67.9718416,22.2290315 L67.8661165,22.1338835 L63.23125,17.5 L53.75,17.5 C53.1089552,17.5 52.580616,17.0174498 52.5084097,16.3957764 L52.5,16.25 L52.5,6.25 C52.5,5.55964406 53.0596441,5 53.75,5 L73.75,5 Z M72.5,7.5 L55,7.5 L55,15 L63.75,15 C64.0262672,15 64.293105,15.0914556 64.5100369,15.2576008 L64.6338835,15.3661165 L67.5,18.23125 L67.5,16.25 C67.5,15.6089552 67.9825502,15.080616 68.6042236,15.0084097 L68.75,15 L72.5,15 L72.5,7.5 Z M58.75,10 C59.4392501,10 60,10.5606911 60,11.25 C60,11.9392501 59.4392501,12.5 58.75,12.5 C58.0607499,12.5 57.5,11.9392501 57.5,11.25 C57.5,10.5606911 58.0607499,10 58.75,10 Z M63.75,10 C64.4392501,10 65,10.5606911 65,11.25 C65,11.9392501 64.4392501,12.5 63.75,12.5 C63.0607499,12.5 62.5,11.9392501 62.5,11.25 C62.5,10.5606911 63.0607499,10 63.75,10 Z M68.75,10 C69.4392501,10 70,10.5606911 70,11.25 C70,11.9392501 69.4392501,12.5 68.75,12.5 C68.0607499,12.5 67.5,11.9392501 67.5,11.25 C67.5,10.5606911 68.0607499,10 68.75,10 Z" id="Couleur-majeure" fill="#000091"></path>
                    </g>
                </g>
            </g>
        </g>
    </g>
</svg>