<?xml version="1.0" encoding="UTF-8"?>
<svg width="100px" height="100px" viewBox="0 0 100 100" version="1.1" xmlns="http://www.w3.org/2000/svg" xmlns:xlink="http://www.w3.org/1999/xlink">
    <title>Digital/data-visualization</title>
    <g id="X---Documentation" stroke="none" stroke-width="1" fill="none" fill-rule="evenodd">
        <g id="Outils_v1.1_1200_V0.3_Pictos_Left" transform="translate(-291, -851)">
            <g id="Content" transform="translate(222, 90)">
                <g id="Les-outils" transform="translate(24, 323)">
                    <g id="Group-20" transform="translate(32, 330)">
                        <g id="Picto_guideUtilisateur" transform="translate(1, 1)">
                            <g id="Digital/data-visualization" transform="translate(19.5, 112)">
                                <path d="M83.75,17.5 C83.0607499,17.5 82.5,16.9392501 82.5,16.25 C82.5,15.5606911 83.0607499,15 83.75,15 C84.4392501,15 85,15.5606911 85,16.25 C85,16.9392501 84.4392501,17.5 83.75,17.5 Z M1.25,17.5 C0.560749859,17.5 0,16.9392501 0,16.25 C0,15.5606911 0.560749859,15 1.25,15 C1.93925014,15 2.5,15.5606911 2.5,16.25 C2.5,16.9392501 1.93925014,17.5 1.25,17.5 Z M6.25,80 C5.56074986,80 5,79.4392501 5,78.75 C5,78.0606911 5.56074986,77.5 6.25,77.5 C6.93925014,77.5 7.5,78.0606911 7.5,78.75 C7.5,79.4392501 6.93925014,80 6.25,80 Z M73.75,85 C73.0607499,85 72.5,84.4392501 72.5,83.75 C72.5,83.0606911 73.0607499,82.5 73.75,82.5 C74.4392501,82.5 75,83.0606911 75,83.75 C75,84.4392501 74.4392501,85 73.75,85 Z M16.25,2.5 C15.5607499,2.5 15,1.93925014 15,1.25 C15,0.560691129 15.5607499,0 16.25,0 C16.9392501,0 17.5,0.560691129 17.5,1.25 C17.5,1.93925014 16.9392501,2.5 16.25,2.5 Z M61.25,92.5 C60.5607499,92.5 60,91.9392501 60,91.25 C60,90.5606911 60.5607499,90 61.25,90 C61.9392501,90 62.5,90.5606911 62.5,91.25 C62.5,91.9392501 61.9392501,92.5 61.25,92.5 Z" id="Couleur-décorative" fill="#ECECFE"></path>
                                <path d="M30,22.5 C32.7581581,22.5 35,24.7417692 35,27.5 C35,28.0927509 34.896453,28.6616594 34.7064885,29.1895959 L38.1147236,32.5987388 C38.9652909,31.0508094 40.6116362,30 42.5,30 C44.6060442,30 46.4110567,31.307036 47.1468512,33.1530191 L48.190983,32.631966 C48.8084561,32.3232295 49.5592974,32.5735099 49.868034,33.190983 C50.1547179,33.7643509 49.9593923,34.4527148 49.4356425,34.795319 L49.309017,34.868034 L47.434989,35.8070313 C47.0483073,38.1824398 44.983407,40 42.5,40 C39.9274564,40 37.8040016,38.0496234 37.5299181,35.5491529 L33.2666971,31.2831527 C32.3899969,32.0411156 31.2478292,32.5 30,32.5 C28.2932424,32.5 26.7841592,31.6415072 25.8816747,30.3334459 L22.4784862,32.0338886 C22.4927223,32.1873697 22.5,32.3428466 22.5,32.5 C22.5,35.2581064 20.2581064,37.5 17.5,37.5 C14.7418936,37.5 12.5,35.2581064 12.5,32.5 C12.5,29.7417692 14.7418419,27.5 17.5,27.5 C19.2067896,27.5 20.7158652,28.3584452 21.6183392,29.6664996 L25.0215143,27.9660925 C25.0072778,27.8126169 25,27.6571463 25,27.5 C25,24.7417692 27.2418419,22.5 30,22.5 Z M42.5,32.5 C41.1225356,32.5 40,33.6224992 40,35 C40,36.3773945 41.1226055,37.5 42.5,37.5 C43.8773945,37.5 45,36.3773945 45,35 C45,33.6224992 43.8774644,32.5 42.5,32.5 Z M17.5,30 C16.1225356,30 15,31.1224992 15,32.5 C15,33.8773945 16.1226055,35 17.5,35 C18.8773945,35 20,33.8773945 20,32.5 C20,31.1224992 18.8774644,30 17.5,30 Z M30,25 C28.6225356,25 27.5,26.1224992 27.5,27.5 C27.5,28.8773945 28.6226055,30 30,30 C31.3773945,30 32.5,28.8773945 32.5,27.5 C32.5,26.1224992 31.3774644,25 30,25 Z M67.5,25 C74.3937806,25 80,30.6060376 80,37.5 C80,40.7076217 78.7861731,43.6365517 76.7936413,45.851668 L84.1626588,58.6153811 C85.1981927,60.4089784 84.5836608,62.7024424 82.7900635,63.7379763 C81.0605232,64.7365269 78.8661834,64.2007688 77.7831517,62.553019 L77.6674682,62.3653811 L70.3409085,49.6745172 C69.4279847,49.8874083 68.4769177,50 67.5,50 C60.6063928,50 55,44.3936072 55,37.5 C55,30.6060376 60.6062194,25 67.5,25 Z M74.8985002,47.570319 C74.2292108,48.0633022 73.5091975,48.4912469 72.7478595,48.8447541 L79.8325318,61.1153811 C80.1777097,61.7132468 80.9421977,61.9180908 81.5400635,61.5729128 C82.0952246,61.2523904 82.3115046,60.5703201 82.0632005,59.995832 L81.9975953,59.8653811 Z M67.5,27.5 C61.9869131,27.5 57.5,31.9867676 57.5,37.5 C57.5,43.0128953 61.9871047,47.5 67.5,47.5 C73.0128953,47.5 77.5,43.0128953 77.5,37.5 C77.5,31.9867676 73.0130869,27.5 67.5,27.5 Z M69.0853119,30.0458132 C72.0097287,30.8601317 74.25171,33.1537984 74.8452489,35.9977995 C74.9862865,36.6735951 74.5527794,37.3357692 73.8769838,37.4768068 C73.2011881,37.6178444 72.539014,37.1843373 72.3979765,36.5085417 C71.9997678,34.6004851 70.4579773,33.023151 68.4146881,32.4541868 C67.7496341,32.2689992 67.3606255,31.5797421 67.5458132,30.9146881 C67.7310008,30.2496341 68.4202579,29.8606255 69.0853119,30.0458132 Z" id="🎨Couleur-mineure-(Indice--main)" fill="#E1000F"></path>
                                <path d="M27.25,79.5 C26.8357864,80.0522847 26.0522847,80.1642136 25.5,79.75 C24.9901987,79.367649 24.8556119,78.6706383 25.163713,78.1312814 L25.25,78 L31.25,70 L18.75,70 C16.7528989,70 15.1204239,68.43885 15.0063659,66.470341 L15,66.25 L15,65 L6.25,65 C5.6089552,65 5.08061605,64.5174498 5.00840966,63.8957764 L5,63.75 L5,16.25 C5,15.6089552 5.48255024,15.080616 6.10422359,15.0084097 L6.25,15 L30,15 L30,13.75 L30.0063659,13.529659 C30.1204239,11.56115 31.7528989,10 33.75,10 L38.75,10 L38.970341,10.0063659 C40.93885,10.1204239 42.5,11.7528989 42.5,13.75 L42.5,15 L66.25,15 C66.8910448,15 67.419384,15.4825502 67.4915903,16.1042236 L67.5,16.25 L67.5,18.75 C67.5,19.4403559 66.9403559,20 66.25,20 C65.6089552,20 65.080616,19.5174498 65.0084097,18.8957764 L65,18.75 L65,17.5 L7.5,17.5 L7.5,62.5 L65,62.5 L65,56.25 C65,55.6089552 65.4825502,55.080616 66.1042236,55.0084097 L66.25,55 C66.8910448,55 67.419384,55.4825502 67.4915903,56.1042236 L67.5,56.25 L67.5,63.75 C67.5,64.3910448 67.0174498,64.919384 66.3957764,64.9915903 L66.25,65 L57.5,65 L57.5,66.25 C57.5,68.2471011 55.93885,69.8795761 53.970341,69.9936341 L53.75,70 L41.249,70 L47.25,78 L47.336287,78.1312814 C47.6443881,78.6706383 47.5098013,79.367649 47,79.75 C46.4477153,80.1642136 45.6642136,80.0522847 45.25,79.5 L38.125,70 L34.375,70 L27.25,79.5 Z M55,65 L17.5,65 L17.5,66.25 C17.5,66.8910448 17.9825502,67.419384 18.6042236,67.4915903 L18.75,67.5 L53.75,67.5 C54.3910448,67.5 54.919384,67.0174498 54.9915903,66.3957764 L55,66.25 L55,65 Z M21.25,42.5 C21.8910448,42.5 22.419384,42.9825502 22.4915903,43.6042236 L22.5,43.75 L22.5,46.25 C22.5,46.9403559 21.9403559,47.5 21.25,47.5 C20.6089552,47.5 20.080616,47.0174498 20.0084097,46.3957764 L20,46.25 L20,45 L15,45 L15,55 L20,55 L20,51.25 C20,50.6089552 20.4825502,50.080616 21.1042236,50.0084097 L21.25,50 C21.8910448,50 22.419384,50.4825502 22.4915903,51.1042236 L22.5,51.25 L22.5,56.25 C22.5,56.8910448 22.0174498,57.419384 21.3957764,57.4915903 L21.25,57.5 L13.75,57.5 C13.1089552,57.5 12.580616,57.0174498 12.5084097,56.3957764 L12.5,56.25 L12.5,43.75 C12.5,43.1089552 12.9825502,42.580616 13.6042236,42.5084097 L13.75,42.5 L21.25,42.5 Z M28.75,37.5 C29.4403559,37.5 30,38.0596441 30,38.75 C30,39.3910448 29.5174498,39.919384 28.8957764,39.9915903 L28.75,40 L27.5,40 L27.5,55 L32.5,55 L32.5,41.25 C32.5,40.6089552 32.9825502,40.080616 33.6042236,40.0084097 L33.75,40 C34.3910448,40 34.919384,40.4825502 34.9915903,41.1042236 L35,41.25 L35,56.25 C35,56.8910448 34.5174498,57.419384 33.8957764,57.4915903 L33.75,57.5 L26.25,57.5 C25.6089552,57.5 25.080616,57.0174498 25.0084097,56.3957764 L25,56.25 L25,38.75 C25,38.1089552 25.4825502,37.580616 26.1042236,37.5084097 L26.25,37.5 L28.75,37.5 Z M41.25,47.5 C41.9403559,47.5 42.5,48.0596441 42.5,48.75 C42.5,49.3910448 42.0174498,49.919384 41.3957764,49.9915903 L41.25,50 L40,50 L40,55 L45,55 L45,48.75 C45,48.1089552 45.4825502,47.580616 46.1042236,47.5084097 L46.25,47.5 C46.8910448,47.5 47.419384,47.9825502 47.4915903,48.6042236 L47.5,48.75 L47.5,56.25 C47.5,56.8910448 47.0174498,57.419384 46.3957764,57.4915903 L46.25,57.5 L38.75,57.5 C38.1089552,57.5 37.580616,57.0174498 37.5084097,56.3957764 L37.5,56.25 L37.5,48.75 C37.5,48.1089552 37.9825502,47.580616 38.6042236,47.5084097 L38.75,47.5 L41.25,47.5 Z M51.25,45 C51.8910448,45 52.419384,45.4825502 52.4915903,46.1042236 L52.5,46.25 L52.5,55 L57.5,55 L57.5,53.75 C57.5,53.1089552 57.9825502,52.580616 58.6042236,52.5084097 L58.75,52.5 C59.3910448,52.5 59.919384,52.9825502 59.9915903,53.6042236 L60,53.75 L60,56.25 C60,56.8910448 59.5174498,57.419384 58.8957764,57.4915903 L58.75,57.5 L51.25,57.5 C50.6089552,57.5 50.080616,57.0174498 50.0084097,56.3957764 L50,56.25 L50,46.25 C50,45.5596441 50.5596441,45 51.25,45 Z M38.75,12.5 L33.75,12.5 L33.6042236,12.5084097 C32.9825502,12.580616 32.5,13.1089552 32.5,13.75 L32.5,15 L40,15 L40,13.75 L39.9915903,13.6042236 C39.919384,12.9825502 39.3910448,12.5 38.75,12.5 Z" id="Couleur-majeure" fill="#000091"></path>
                            </g>
                        </g>
                    </g>
                </g>
            </g>
        </g>
    </g>
</svg>