<?xml version="1.0" encoding="UTF-8"?>
<svg width="100px" height="100px" viewBox="0 0 100 100" version="1.1" xmlns="http://www.w3.org/2000/svg" xmlns:xlink="http://www.w3.org/1999/xlink">
    <title>System/system</title>
    <g id="X---Documentation" stroke="none" stroke-width="1" fill="none" fill-rule="evenodd">
        <g id="Outils_v1.1_1200_V0.3_Pictos_Left" transform="translate(-291, -1163)">
            <g id="Content" transform="translate(222, 90)">
                <g id="Les-outils" transform="translate(24, 323)">
                    <g id="Group-21" transform="translate(32, 630)">
                        <g id="Picto_guideUtilisateur" transform="translate(1, 1)">
                            <g id="System/system" transform="translate(22, 129)">
                                <path d="M13.75,80 C13.0607499,80 12.5,79.4392501 12.5,78.75 C12.5,78.0606911 13.0607499,77.5 13.75,77.5 C14.4392501,77.5 15,78.0606911 15,78.75 C15,79.4392501 14.4392501,80 13.75,80 Z M28.75,2.5 C28.0607499,2.5 27.5,1.93925014 27.5,1.25 C27.5,0.560691129 28.0607499,0 28.75,0 C29.4392501,0 30,0.560691129 30,1.25 C30,1.93925014 29.4392501,2.5 28.75,2.5 Z M73.75,72.5 C73.0607499,72.5 72.5,71.9392501 72.5,71.25 C72.5,70.5606911 73.0607499,70 73.75,70 C74.4392501,70 75,70.5606911 75,71.25 C75,71.9392501 74.4392501,72.5 73.75,72.5 Z M73.75,10 C73.0607499,10 72.5,9.43925014 72.5,8.75 C72.5,8.06069113 73.0607499,7.5 73.75,7.5 C74.4392501,7.5 75,8.06069113 75,8.75 C75,9.43925014 74.4392501,10 73.75,10 Z M1.25,30 C0.560749859,30 0,29.4392501 0,28.75 C0,28.0606911 0.560749859,27.5 1.25,27.5 C1.93925014,27.5 2.5,28.0606911 2.5,28.75 C2.5,29.4392501 1.93925014,30 1.25,30 Z" id="Couleur-décorative" fill="#ECECFE"></path>
                                <path d="M50.8721592,57.2275929 C50.2194149,57.002835 49.8724633,56.2914788 50.0972212,55.6387345 C50.3219791,54.9859901 51.0333353,54.6390385 51.6860796,54.8637964 C52.9884978,55.312255 54.4153261,54.616373 54.8637964,53.3139204 C55.3122322,52.0115683 54.6162725,50.5846393 53.3139204,50.1362036 C52.0707661,49.7081512 50.7141028,50.3228229 50.2033153,51.5122953 L50.1362036,51.6860796 C49.9114457,52.338824 49.2000895,52.6857755 48.5473451,52.4610176 C47.8946008,52.2362597 47.5476492,51.5249036 47.7724071,50.8721592 C48.6703587,48.2643184 51.52,46.8744555 54.1278408,47.7724071 C56.7356816,48.6703587 58.1255445,51.52 57.2275929,54.1278408 C56.3296008,56.7357992 53.4800489,58.1255613 50.8721592,57.2275929 Z M35.625,25.8373412 C36.2228658,26.1825192 36.4277097,26.9470072 36.0825318,27.544873 C35.7373538,28.1427388 34.9728658,28.3475827 34.375,28.0024047 C32.5851552,26.9690373 30.2857994,27.5851079 29.2524047,29.375 C28.2190824,31.1647667 28.8352333,33.464273 30.625,34.4975953 C32.3508465,35.4940132 34.5506727,34.9566736 35.632118,33.3122482 L35.7475953,33.125 C36.0927732,32.5271342 36.8572612,32.3222903 37.455127,32.6674682 C38.0529928,33.0126462 38.2578367,33.7771342 37.9126588,34.375 C36.1889805,37.3604983 32.3604983,38.386337 29.375,36.6626588 C26.3895017,34.9389805 25.363663,31.1104983 27.0873412,28.125 C28.8111009,25.1393606 32.6394393,24.113627 35.625,25.8373412 Z" id="🎨Couleur-mineure-(Indice--main)" fill="#E1000F"></path>
                                <path d="M50.6586454,35 L54.4425029,35.0040486 L54.6398376,35.0240979 C55.4691639,35.1593546 56.0988722,35.8379376 56.1791474,36.6662008 L56.1878121,36.8458333 L56.1871968,37.8195354 L56.191599,37.9818003 C56.2343971,38.6432235 56.637018,39.2275012 57.2834269,39.5278526 L57.9486994,39.8058799 L58.2026258,39.9188571 C58.8320301,40.2092741 59.5757797,40.108625 60.1133834,39.6705729 L60.2546507,39.5427791 L61.0588769,38.7471525 L61.2316026,38.6106481 C61.9083766,38.1462474 62.8101494,38.187497 63.4447409,38.7020001 L63.5862181,38.8291178 L66.2630385,41.5137549 L66.399281,41.6864965 C66.862071,42.3625784 66.8199847,43.2634389 66.3064842,43.8970573 L66.1796311,44.038309 L65.4876389,44.7303835 L65.3711245,44.8531171 C64.9012868,45.3890143 64.7900375,46.1633895 65.0992865,46.8287584 C65.1770676,46.9998994 65.253162,47.1771967 65.3232416,47.3500053 L65.4813026,47.7499228 C65.741055,48.3353936 66.3148397,48.7414589 66.9661265,48.8040618 L67.145494,48.8124964 L68.2550029,48.8165486 L68.4523376,48.8365979 C69.2816639,48.9718546 69.9113722,49.6504376 69.9916474,50.4787008 L70.0003121,50.6583333 L69.9962635,54.4421908 L69.9762142,54.6395255 C69.8409574,55.4688519 69.1623745,56.0985601 68.3341113,56.1788353 L68.1544788,56.1875 L67.1706814,56.1871608 L67.0117794,56.1901573 C66.3630697,56.2271144 65.7774594,56.625193 65.482796,57.2407741 L65.409818,57.4139445 L65.313541,57.6565303 C65.2418311,57.8321573 65.1643925,58.0117258 65.0799371,58.1973032 C64.7889978,58.8230808 64.8905906,59.5690401 65.3330442,60.1087746 L65.4621257,60.2506167 L66.2531595,61.0502773 L66.3896639,61.223003 C66.8540647,61.899777 66.8128151,62.8015498 66.2994377,63.4350139 L66.1726002,63.5762104 L63.4832343,66.2658992 L63.3104412,66.4018188 C62.6353267,66.8623487 61.7355217,66.818724 61.1030008,66.3059609 L60.9620031,66.179319 L60.2716543,65.4889472 L60.1483682,65.3723683 C59.6102444,64.9021552 58.8381544,64.790776 58.175704,65.0970516 C58.0023049,65.1758861 57.8242495,65.2523566 57.6509639,65.3226549 L57.2503893,65.4809905 C56.6649185,65.7407429 56.2588532,66.3145276 56.1962503,66.9658144 L56.1878156,67.1451819 L56.1837635,68.2546908 L56.1637142,68.4520255 C56.0284574,69.2813519 55.3498745,69.9110601 54.5216113,69.9913353 L54.3419788,70 L50.5581213,69.9959514 L50.3607865,69.9759021 C49.5314602,69.8406454 48.901752,69.1620624 48.8214767,68.3337992 L48.8128121,68.1541667 L48.813358,67.1781893 L48.8092859,67.0171038 C48.7679911,66.3602265 48.3685278,65.7767943 47.7312993,65.4765666 L47.0570673,65.1943248 L46.8188338,65.0884924 C46.1879303,64.8082209 45.903687,64.0695676 46.1839585,63.4386641 C46.4442106,62.8528252 47.0997,62.5658921 47.6971502,62.7522917 L47.8337867,62.8037888 L48.047564,62.8990673 L48.4594566,63.0733309 C49.9985589,63.6293778 51.0838736,65.0033477 51.2823687,66.6410433 L51.3062772,66.9017377 L51.3128121,67.14125 L51.3138103,67.5 L53.6888103,67.5 L53.6878177,67.1474433 C53.6848725,65.5226479 54.593316,64.0372611 56.0419851,63.2910298 L56.2751576,63.1794338 L56.814822,62.9633249 L57.1337501,62.824549 C58.6036033,62.1449185 60.3211112,62.3457507 61.6141629,63.3450823 L61.8256262,63.5190171 L62.009747,63.6924354 L62.2700603,63.95125 L63.9450603,62.27 L63.6977257,62.0217326 C62.4668292,60.8017798 62.0862555,58.968551 62.7078464,57.3878856 L62.8086203,57.1527883 L62.9059227,56.9332911 L62.9943354,56.7231887 L63.0740779,56.5233178 C63.6383966,54.9821612 65.0247838,53.8985093 66.6638748,53.7134797 L66.9115626,53.6925201 L67.1415621,53.6875 L67.5013103,53.6875 L67.5013103,51.3125 L67.1477554,51.3124944 C65.52296,51.3154396 64.0375732,50.4069961 63.2913418,48.958327 L63.1797459,48.7251544 L63.0090694,48.2960356 L62.8277878,47.8728747 C62.1435052,46.4008376 62.3439511,44.6774243 63.346292,43.3840386 L63.5207595,43.1725729 L63.6927475,42.9905651 L63.9525603,42.73125 L62.2775603,41.05625 L62.0231649,41.3097965 C60.8038717,42.5327279 58.9792632,42.9100059 57.4053961,42.295744 L57.1713036,42.1961499 L56.9567187,42.1005112 L56.5628154,41.9327756 C55.0115539,41.3816111 53.9163412,40.0010308 53.7178207,38.3511591 L53.6948229,38.1017286 L53.6878121,37.85875 L53.6888103,37.5 L51.3138103,37.5 L51.3128065,37.8525567 C51.3157517,39.4773521 50.4073081,40.9627389 48.9586391,41.7089702 L48.7254665,41.8205662 L48.5184342,41.9039586 C48.2947779,41.9892275 48.0722584,42.0821028 47.8596088,42.1787822 C47.2311547,42.4645035 46.490069,42.1866637 46.2043476,41.5582096 C45.9186263,40.9297554 46.1964661,40.1886697 46.8249202,39.9029484 C46.9983193,39.8241139 47.1763746,39.7476434 47.3496603,39.6773451 L47.7502349,39.5190095 C48.3357057,39.2592571 48.741771,38.6854724 48.8043739,38.0341856 L48.8128085,37.8548181 L48.8168607,36.7453092 L48.83691,36.5479745 C48.9721667,35.7186481 49.6507497,35.0889399 50.4790129,35.0086647 L50.6586454,35 Z M29.822701,10 L34.6714531,10.004073 L34.8970142,10.0264792 C35.8079452,10.1754951 36.4976902,10.9246729 36.58035,11.8360625 L36.5886731,12.0203735 L36.5880616,13.2909122 L36.5943243,13.5129911 C36.6593261,14.5206052 37.2796678,15.407101 38.246102,15.8375942 L38.4584162,15.922741 L39.0743634,16.1827076 L39.3970544,16.3266776 C40.3507832,16.7680761 41.4785181,16.6047315 42.2797011,15.9219916 L42.4462026,15.7677713 L43.4580539,14.7617408 L43.6545163,14.6050846 C44.3988499,14.0927773 45.3934328,14.1412757 46.0884451,14.7141224 L46.2325906,14.8448877 L49.6600887,18.2905973 L49.8157089,18.4873209 C50.3226889,19.2302031 50.2737096,20.2217719 49.7051817,20.915728 L49.5754153,21.0596785 L48.675856,21.9623095 L48.5170924,22.1304643 C47.8158925,22.932676 47.6500566,24.0905104 48.1087908,25.0804431 C48.2069432,25.2970612 48.3030218,25.5216031 48.3922346,25.7423182 L48.5998671,26.2684248 C48.9954561,27.1627666 49.8727002,27.7746365 50.8613179,27.8506579 L51.0747343,27.8586541 L52.4761734,27.8627318 L52.6007606,27.872814 C53.288867,27.9284991 53.8015459,28.5314612 53.7458608,29.2195677 C53.6941533,29.8585237 53.1705588,30.3462181 52.5450869,30.3680442 L52.3991072,30.3646679 L52.3753423,30.3586587 L51.0770026,30.3586521 C49.104032,30.3622393 47.3020459,29.2485149 46.4127878,27.4855449 L46.2972524,27.2411596 L46.1924114,26.9802611 C46.117516,26.783219 46.0380403,26.5864814 45.9574305,26.3978489 L45.8360961,26.121954 C45.0059765,24.3307804 45.2572451,22.2316113 46.482544,20.6717782 L46.6642012,20.4527053 L46.8783378,20.225205 L47.4724339,19.63 L44.7999339,16.95 L44.2173872,17.532112 C42.7380983,19.0203096 40.5187459,19.4731877 38.6102297,18.7093424 L38.363142,18.6027953 L38.0798533,18.4762432 L37.5531829,18.2520199 C35.6751844,17.582744 34.3524203,15.9029042 34.1221125,13.9066683 L34.0975288,13.6325584 L34.0886731,13.3300085 L34.0886839,12.5 L30.3049339,12.5 L30.3046476,13.3226715 C30.3082182,15.2984394 29.1988127,17.1042654 27.4404038,17.9964551 L27.1966416,18.1123845 L26.9363784,18.2176032 C26.7395263,18.2928804 26.5433584,18.3726272 26.3533691,18.4543946 L26.0737059,18.5782552 C24.287391,19.4067134 22.1975045,19.1537256 20.640456,17.9267471 L20.4217355,17.7448502 L20.1926825,17.5286705 L19.6074339,16.9425 L16.9324339,19.625 L17.5098835,20.2058526 C19.001736,21.6889207 19.4563545,23.9211017 18.6918212,25.8297105 L18.5851706,26.0767363 L18.4592546,26.3603396 L18.227946,26.9100712 C17.5535248,28.7824814 15.8791867,30.0998378 13.8943528,30.3262974 L13.6218338,30.3503662 L13.3236601,30.3586587 L12.4999339,30.35875 L12.4999339,34.1625 L13.3163247,34.1617214 C15.2892953,34.1581342 17.0912814,35.2718587 17.9805396,37.0348286 L18.096075,37.2792139 L18.2009159,37.5401124 C18.2758113,37.7371545 18.355287,37.9338921 18.4358968,38.1225246 L18.5572312,38.3984195 C19.3873508,40.1895931 19.1360822,42.2887622 17.9107833,43.8485953 L17.7291261,44.0676682 L17.5149825,44.2951755 L16.9249339,44.89 L19.5999339,47.5725 L20.181875,46.9882615 C21.661164,45.5000639 23.8805163,45.0471858 25.7889108,45.8109769 L26.3185767,46.0437483 L26.8662593,46.2756058 C28.7341934,46.9524974 30.046894,48.6309512 30.2724259,50.6187129 L30.2963916,50.8916236 L30.3049339,51.25 L35.0029339,51.25 L35.0040159,50.5578418 L35.0240653,50.3605071 C35.159322,49.5311808 35.8379049,48.9014725 36.6661681,48.8211973 L36.8458007,48.8125327 L37.821778,48.8130786 L37.9828635,48.8090064 C38.6397408,48.7677116 39.223173,48.3682483 39.5234007,47.7310198 L39.8056425,47.0567878 L39.9203423,46.7990461 C40.2112816,46.1732685 40.1096888,45.4273092 39.6672352,44.8875747 L39.5381538,44.7457326 L38.7471199,43.946072 L38.6106155,43.7733463 C38.1462147,43.0965723 38.1874643,42.1947995 38.7019674,41.5602081 L38.8290851,41.4187308 L41.5123737,38.7430283 L41.5945885,38.674785 C42.1257888,38.233857 42.9138546,38.3070371 43.3547826,38.8382374 C43.7617931,39.3285762 43.730747,40.0377825 43.3057589,40.4907916 L43.1913302,40.5984315 L43.1946258,40.5887372 L41.0567094,42.7286093 L41.3025538,42.9746167 C42.5334502,44.1945696 42.9140239,46.0277983 42.2963371,47.5997789 L42.1009,48.0472845 L41.9266364,48.4591772 C41.3705896,49.9982794 39.9966196,51.0835941 38.358924,51.2820893 L38.0982297,51.3059978 L37.8587173,51.3125327 L37.5004594,51.3136093 L37.5004594,53.6886093 L37.852524,53.6875383 C39.4773194,53.684593 40.9627062,54.5930366 41.7089376,56.0417057 L41.8205336,56.2748782 L41.9039259,56.4819106 C41.9606257,56.6306313 42.0208005,56.7791403 42.0814757,56.9207512 L42.1724917,57.1271579 C42.8567742,58.599195 42.6563283,60.3226084 41.6539875,61.615994 L41.4795199,61.8274597 L41.3075249,62.0094746 L41.0504594,62.2673593 L43.1864369,64.4031525 C43.6370407,64.8537586 43.6717008,65.5627975 43.2904185,66.0531605 L43.1864324,66.1709194 C42.7358263,66.6215232 42.0267874,66.6561833 41.5364244,66.274901 L41.4186655,66.1709149 L38.7433712,63.4881179 L38.6066732,63.3155783 C38.1413298,62.6392987 38.1812245,61.7376151 38.6953917,61.1017128 L38.8224506,60.9599078 L39.5126405,60.2696492 L39.6291549,60.1469155 C40.0989927,59.6110184 40.2102419,58.8366432 39.9009929,58.1712742 C39.8232118,58.0001332 39.7471175,57.8228359 39.6770378,57.6500273 L39.5189768,57.2501099 C39.2592244,56.664639 38.6854397,56.2585737 38.0341529,56.1959709 L37.8547854,56.1875362 L36.7452765,56.1834841 L36.5479418,56.1634347 C35.7186155,56.028178 35.0889072,55.3495951 35.008632,54.5213319 L34.9999673,54.3416993 L35.0009339,53.75 L29.0546542,53.75 C28.4136094,53.75 27.8852702,53.2674498 27.8130639,52.6457764 L27.8046542,52.5 L27.8051968,51.2271929 L27.7993822,51.0066423 C27.7366274,50.0053772 27.1211312,49.1200469 26.1659334,48.6885913 L25.9561263,48.6032068 L25.325553,48.337913 L25.0022078,48.1936959 C24.048479,47.7522974 22.9207441,47.915642 22.1195611,48.5983819 L21.9530597,48.7526022 L20.9412084,49.7586328 L20.7447459,49.9152889 C20.0004123,50.4275962 19.0058295,50.3790979 18.3108172,49.8062511 L18.1666716,49.6754858 L14.7406959,46.2316176 L14.5844311,46.0349588 C14.0745097,45.2916493 14.1210732,44.2992318 14.6902742,43.6028452 L14.8202331,43.4583492 L15.7174713,42.558064 L15.876235,42.3899093 C16.5774349,41.5876975 16.7432707,40.4298631 16.2845366,39.4399305 C16.1863841,39.2233124 16.0903055,38.9987704 16.0010928,38.7780554 L15.7934602,38.2519487 C15.3978712,37.3576069 14.5206272,36.745737 13.5320095,36.6697156 L13.318593,36.6617194 L11.9171539,36.6576417 L11.6915928,36.6352356 C10.7806618,36.4862197 10.0909168,35.7370419 10.008257,34.8256522 L9.99993386,34.6413413 L10.0039582,29.7788098 L10.0261892,29.5534527 C10.1743618,28.6421804 10.9218547,27.9499787 11.8335756,27.8670131 L12.0179806,27.8586587 L13.286609,27.859208 L13.5061192,27.8533931 C14.5015185,27.7906274 15.3830598,27.1739739 15.8133152,26.2152877 L15.8984824,26.0046969 L16.1629093,25.3723658 L16.308158,25.044866 C16.7531059,24.0849342 16.5846822,22.9397233 15.8889571,22.1313308 L15.7428069,21.974298 L14.7457939,20.9653521 L14.5897791,20.7685202 C14.0809282,20.0247222 14.1289822,19.0322035 14.6985948,18.337219 L14.8286248,18.193047 L18.2626544,14.7562197 L18.4590226,14.5994276 C19.2028086,14.0867457 20.1971169,14.1340557 20.8937739,14.7064307 L21.0383019,14.8371065 L21.933497,15.7347964 L22.1017793,15.8940242 C22.9024181,16.5957426 24.0487501,16.7616096 25.029146,16.3069494 C25.248116,16.2070949 25.4730504,16.1101993 25.6937598,16.0204148 L26.218909,15.8118907 C27.1098739,15.415404 27.7207603,14.5341124 27.7966656,13.5396272 L27.8046496,13.3249261 L27.8086785,11.920151 L27.8309095,11.694794 C27.9790821,10.7835216 28.726575,10.0913199 29.638296,10.0083544 L29.822701,10 Z M68.75,27.5 C69.4403559,27.5 70,28.0596441 70,28.75 C70,29.3910448 69.5174498,29.919384 68.8957764,29.9915903 L68.75,30 L63.75,30 C63.0596441,30 62.5,29.4403559 62.5,28.75 C62.5,28.1089552 62.9825502,27.580616 63.6042236,27.5084097 L63.75,27.5 L68.75,27.5 Z M58.75,27.5 C59.4392501,27.5 60,28.0607499 60,28.75 C60,29.4393089 59.4392501,30 58.75,30 C58.0607499,30 57.5,29.4393089 57.5,28.75 C57.5,28.0607499 58.0607499,27.5 58.75,27.5 Z" id="Couleur-majeure" fill="#000091"></path>
                            </g>
                        </g>
                    </g>
                </g>
            </g>
        </g>
    </g>
</svg>