<?xml version="1.0" encoding="UTF-8"?>
<svg width="100px" height="100px" viewBox="0 0 100 100" version="1.1" xmlns="http://www.w3.org/2000/svg" xmlns:xlink="http://www.w3.org/1999/xlink">
    <title>Digital/Tableur</title>
    <g id="X---Documentation" stroke="none" stroke-width="1" fill="none" fill-rule="evenodd">
        <g id="Outils_v1.1_1200_V0.3_Pictos_Left" transform="translate(-764, -713)">
            <g id="Content" transform="translate(222, 90)">
                <g id="Les-outils-Copy" transform="translate(498, 323)">
                    <g id="Group-23" transform="translate(32, 262)">
                        <g id="Picto_guideUtilisateur" transform="translate(1, 1)">
                            <g id="Digital/Tableur" transform="translate(11, 37)">
                                <rect id="Rectangle" x="0" y="0" width="100" height="100"></rect>
                                <g id="1.-Fondamentaux/Icônes/Librairie/User-&amp;-Faces/account-circle-line" transform="translate(55, 52)" fill="#000091">
                                    <path d="M10,20 C4.47700002,20 0,15.5230001 0,10 C0,4.47700002 4.47700002,0 10,0 C15.5230001,0 20,4.47700002 20,10 C20,15.5230001 15.5230001,20 10,20 Z M5.01300002,16.2560001 C6.42854849,17.3876976 8.18767875,18.0028817 10,18.0000102 C11.97,18.0000102 13.7730001,17.2880001 15.1670001,16.1080001 C13.8512166,14.757913 12.0452097,13.9975649 10.16,13.9999942 C8.20404705,13.9977438 6.33686121,14.8161568 5.01300002,16.2560001 L5.01300002,16.2560001 Z M3.61600002,14.8200001 C5.31472374,13.0172323 7.68298109,11.9966813 10.16,12.0000001 C12.5465886,11.9968946 14.8360668,12.9447861 16.5220001,14.6340001 C18.8981832,11.2896669 18.3594155,6.68990364 15.274712,3.98520114 C12.1900086,1.28049863 7.55928612,1.34759495 4.55424013,4.14053418 C1.54919414,6.9334734 1.14392004,11.5469152 3.61600002,14.8210001 L3.61600002,14.8200001 Z M10,11 C7.79086103,11 6.00000003,9.20913904 6.00000003,7.00000001 C6.00000003,4.79086102 7.79086103,3.00000001 10,3.00000001 C12.2091391,3.00000001 14,4.79086102 14,7.00000001 C14,9.20913904 12.2091391,11 10,11 Z M10,9.00000002 C11.1045695,9.00000002 12,8.10456953 12,7.00000002 C12,5.89543052 11.1045695,5.00000002 10,5.00000002 C8.89543054,5.00000002 8.00000003,5.89543052 8.00000003,7.00000002 C8.00000003,8.10456953 8.89543054,9.00000002 10,9.00000002 Z" id="Couleur-icône"></path>
                                </g>
                                <path d="M85,16.25 C84.3107499,16.25 83.75,15.6892501 83.75,15 C83.75,14.3106911 84.3107499,13.75 85,13.75 C85.6892501,13.75 86.25,14.3106911 86.25,15 C86.25,15.6892501 85.6892501,16.25 85,16.25 Z M51.25,95 C50.5607499,95 50,94.4392501 50,93.75 C50,93.0606911 50.5607499,92.5 51.25,92.5 C51.9392501,92.5 52.5,93.0606911 52.5,93.75 C52.5,94.4392501 51.9392501,95 51.25,95 Z M18.75,12.5 C18.0607499,12.5 17.5,11.9392501 17.5,11.25 C17.5,10.5606911 18.0607499,10 18.75,10 C19.4392501,10 20,10.5606911 20,11.25 C20,11.9392501 19.4392501,12.5 18.75,12.5 Z" id="Couleur-décorative" fill="#ECECFE"></path>
                                <path d="M21.25,27.5 C20.5607499,27.5 20,26.9392501 20,26.25 C20,25.5606911 20.5607499,25 21.25,25 C21.9392501,25 22.5,25.5606911 22.5,26.25 C22.5,26.9392501 21.9392501,27.5 21.25,27.5 Z M26.25,27.5 C25.5607499,27.5 25,26.9392501 25,26.25 C25,25.5606911 25.5607499,25 26.25,25 C26.9392501,25 27.5,25.5606911 27.5,26.25 C27.5,26.9392501 26.9392501,27.5 26.25,27.5 Z M31.25,27.5 C30.5607499,27.5 30,26.9392501 30,26.25 C30,25.5606911 30.5607499,25 31.25,25 C31.9392501,25 32.5,25.5606911 32.5,26.25 C32.5,26.9392501 31.9392501,27.5 31.25,27.5 Z M78.75,25 C79.4403559,25 80,25.5596441 80,26.25 C80,26.8910448 79.5174498,27.419384 78.8957764,27.4915903 L78.75,27.5 L41.25,27.5 C40.5596441,27.5 40,26.9403559 40,26.25 C40,25.6089552 40.4825502,25.080616 41.1042236,25.0084097 L41.25,25 L78.75,25 Z" id="🎨Couleur-mineure-(Indice--main)" fill="#E1000F"></path>
                                <g id="Group-20" transform="translate(23, 36)" stroke="#000091" stroke-width="2">
                                    <g id="Group-19">
                                        <rect id="Rectangle" x="1" y="1" width="11" height="10"></rect>
                                        <rect id="Rectangle" x="1" y="14" width="11" height="10"></rect>
                                        <rect id="Rectangle" x="1" y="27" width="11" height="10"></rect>
                                    </g>
                                    <g id="Group-19-Copy" transform="translate(14, 0)">
                                        <rect id="Rectangle" x="1" y="1" width="11" height="10"></rect>
                                        <rect id="Rectangle" x="1" y="14" width="11" height="10"></rect>
                                        <rect id="Rectangle" x="1" y="27" width="11" height="10"></rect>
                                    </g>
                                    <g id="Group-19-Copy-2" transform="translate(28, 0)">
                                        <rect id="Rectangle" x="1" y="1" width="11" height="10"></rect>
                                    </g>
                                    <g id="Group-19-Copy-3" transform="translate(42, 0)">
                                        <rect id="Rectangle" x="1" y="1" width="11" height="10"></rect>
                                    </g>
                                </g>
                                <path d="M83.75,20 C84.3910448,20 84.919384,20.4825502 84.9915903,21.1042236 L85,21.25 L85,41.25 C85,41.9403559 84.4403559,42.5 83.75,42.5 C83.1089552,42.5 82.580616,42.0174498 82.5084097,41.3957764 L82.5,41.25 L82.5,22.5 L17.5,22.5 L17.5,30 L63.75,30 C64.4403559,30 65,30.5596441 65,31.25 C65,31.8910448 64.5174498,32.419384 63.8957764,32.4915903 L63.75,32.5 L17.5,32.5 L17.5,77.5 L46.25,77.5 C46.8910448,77.5 47.419384,77.9825502 47.4915903,78.6042236 L47.5,78.75 C47.5,79.3910448 47.0174498,79.919384 46.3957764,79.9915903 L46.25,80 L16.25,80 C15.6089552,80 15.080616,79.5174498 15.0084097,78.8957764 L15,78.75 L15,21.25 C15,20.6089552 15.4825502,20.080616 16.1042236,20.0084097 L16.25,20 L83.75,20 Z" id="Couleur-majeure" fill="#000091"></path>
                            </g>
                        </g>
                    </g>
                </g>
            </g>
        </g>
    </g>
</svg>