<?xml version="1.0" encoding="UTF-8" standalone="no"?>
<!DOCTYPE svg PUBLIC "-//W3C//DTD SVG 1.1//EN"
 "http://www.w3.org/Graphics/SVG/1.1/DTD/svg11.dtd">
<!-- Generated by graphviz version 2.47.0 (20210316.0004)
 -->
<!-- Title: dependencies Pages: 1 -->
<svg width="504pt" height="284pt"
 viewBox="0.00 0.00 504.00 284.00" xmlns="http://www.w3.org/2000/svg" xmlns:xlink="http://www.w3.org/1999/xlink">
<g id="graph0" class="graph" transform="scale(1 1) rotate(0) translate(4 280)">
<title>dependencies</title>
<polygon fill="white" stroke="transparent" points="-4,4 -4,-280 500,-280 500,4 -4,4"/>
<text text-anchor="start" x="227.01" y="-42.4" font-family="Times-12" font-weight="bold" font-size="14.00">Legend</text>
<polygon fill="#ffffb3" stroke="transparent" points="14,-10 14,-30 34,-30 34,-10 14,-10"/>
<text text-anchor="start" x="37.63" y="-15.4" font-family="Times-12" font-size="14.00"> &#160;Declarations</text>
<polygon fill="#8dd3c7" stroke="transparent" points="127,-10 127,-30 147,-30 147,-10 127,-10"/>
<text text-anchor="start" x="150.73" y="-15.4" font-family="Times-12" font-size="14.00"> &#160;Module</text>
<polygon fill="#80b1d3" stroke="transparent" points="213,-10 213,-30 233,-30 233,-10 213,-10"/>
<text text-anchor="start" x="236.78" y="-15.4" font-family="Times-12" font-size="14.00"> &#160;Bootstrap</text>
<polygon fill="#fdb462" stroke="transparent" points="310,-10 310,-30 330,-30 330,-10 310,-10"/>
<text text-anchor="start" x="333.67" y="-15.4" font-family="Times-12" font-size="14.00"> &#160;Providers</text>
<polygon fill="#fb8072" stroke="transparent" points="406,-10 406,-30 426,-30 426,-10 406,-10"/>
<text text-anchor="start" x="429.73" y="-15.4" font-family="Times-12" font-size="14.00"> &#160;Exports</text>
<g id="clust14" class="cluster">
<title>cluster_SituationDisplayerModule</title>
<polygon fill="none" stroke="black" stroke-dasharray="1,5" points="56,-70 56,-268 264,-268 264,-70 56,-70"/>
</g>
<g id="clust15" class="cluster">
<title>cluster_SituationDisplayerModule_declarations</title>
<polygon fill="none" stroke="black" points="65,-78 65,-130 255,-130 255,-78 65,-78"/>
</g>
<g id="clust18" class="cluster">
<title>cluster_SituationDisplayerModule_exports</title>
<polygon fill="none" stroke="black" points="64,-208 64,-260 256,-260 256,-208 64,-208"/>
</g>
<g id="clust7" class="cluster">
<title>cluster_HeaderSelectorsModule</title>
<polygon fill="none" stroke="black" stroke-dasharray="1,5" points="272,-143 272,-195 440,-195 440,-143 272,-143"/>
</g>
<!-- HeaderSelectorsComponent -->
<g id="node1" class="node">
<title>HeaderSelectorsComponent</title>
<polygon fill="#ffffb3" stroke="black" points="246.56,-122 73.44,-122 73.44,-86 246.56,-86 246.56,-122"/>
<text text-anchor="middle" x="160" y="-99.8" font-family="Times,serif" font-size="14.00">HeaderSelectorsComponent</text>
</g>
<!-- HeaderSelectorsModule -->
<g id="node2" class="node">
<title>HeaderSelectorsModule</title>
<polygon fill="#8dd3c7" stroke="black" points="431.77,-187 428.77,-191 407.77,-191 404.77,-187 280.23,-187 280.23,-151 431.77,-151 431.77,-187"/>
<text text-anchor="middle" x="356" y="-164.8" font-family="Times,serif" font-size="14.00">HeaderSelectorsModule</text>
</g>
<!-- HeaderSelectorsComponent&#45;&gt;HeaderSelectorsModule -->
<g id="edge1" class="edge">
<title>HeaderSelectorsComponent&#45;&gt;HeaderSelectorsModule</title>
<path fill="none" stroke="black" d="M246.54,-104C299.04,-104 356,-104 356,-104 356,-104 356,-140.89 356,-140.89"/>
<polygon fill="black" stroke="black" points="352.5,-140.89 356,-150.89 359.5,-140.89 352.5,-140.89"/>
</g>
<!-- SituationDisplayerModule -->
<g id="node4" class="node">
<title>SituationDisplayerModule</title>
<polygon fill="#8dd3c7" stroke="black" points="242.03,-187 239.03,-191 218.03,-191 215.03,-187 77.97,-187 77.97,-151 242.03,-151 242.03,-187"/>
<text text-anchor="middle" x="160" y="-164.8" font-family="Times,serif" font-size="14.00">SituationDisplayerModule</text>
</g>
<!-- HeaderSelectorsComponent&#45;&gt;SituationDisplayerModule -->
<g id="edge3" class="edge">
<title>HeaderSelectorsComponent&#45;&gt;SituationDisplayerModule</title>
<path fill="none" stroke="black" d="M160,-122.11C160,-122.11 160,-140.99 160,-140.99"/>
<polygon fill="black" stroke="black" points="156.5,-140.99 160,-150.99 163.5,-140.99 156.5,-140.99"/>
</g>
<!-- HeaderSelectorsComponent  -->
<g id="node3" class="node">
<title>HeaderSelectorsComponent </title>
<polygon fill="#fb8072" stroke="black" points="248.06,-252 71.94,-252 71.94,-216 248.06,-216 248.06,-252"/>
<text text-anchor="middle" x="160" y="-229.8" font-family="Times,serif" font-size="14.00">HeaderSelectorsComponent </text>
</g>
<!-- HeaderSelectorsModule&#45;&gt;HeaderSelectorsComponent  -->
<g id="edge2" class="edge">
<title>HeaderSelectorsModule&#45;&gt;HeaderSelectorsComponent </title>
<path fill="none" stroke="black" stroke-dasharray="5,2" d="M356,-187.11C356,-206.34 356,-234 356,-234 356,-234 258.25,-234 258.25,-234"/>
<polygon fill="black" stroke="black" points="258.25,-230.5 248.25,-234 258.25,-237.5 258.25,-230.5"/>
</g>
<!-- SituationDisplayerModule&#45;&gt;HeaderSelectorsComponent  -->
<g id="edge4" class="edge">
<title>SituationDisplayerModule&#45;&gt;HeaderSelectorsComponent </title>
<path fill="none" stroke="black" stroke-dasharray="5,2" d="M160,-187.11C160,-187.11 160,-205.99 160,-205.99"/>
<polygon fill="black" stroke="black" points="156.5,-205.99 160,-215.99 163.5,-205.99 156.5,-205.99"/>
</g>
</g>
</svg>
