<?xml version="1.0" encoding="UTF-8" standalone="no"?>
<!DOCTYPE svg PUBLIC "-//W3C//DTD SVG 1.1//EN"
 "http://www.w3.org/Graphics/SVG/1.1/DTD/svg11.dtd">
<!-- Generated by graphviz version 2.47.0 (20210316.0004)
 -->
<!-- Title: dependencies Pages: 1 -->
<svg width="504pt" height="284pt"
 viewBox="0.00 0.00 504.00 284.00" xmlns="http://www.w3.org/2000/svg" xmlns:xlink="http://www.w3.org/1999/xlink">
<g id="graph0" class="graph" transform="scale(1 1) rotate(0) translate(4 280)">
<title>dependencies</title>
<polygon fill="white" stroke="transparent" points="-4,4 -4,-280 500,-280 500,4 -4,4"/>
<text text-anchor="start" x="227.01" y="-42.4" font-family="Times-12" font-weight="bold" font-size="14.00">Legend</text>
<polygon fill="#ffffb3" stroke="transparent" points="14,-10 14,-30 34,-30 34,-10 14,-10"/>
<text text-anchor="start" x="37.63" y="-15.4" font-family="Times-12" font-size="14.00"> &#160;Declarations</text>
<polygon fill="#8dd3c7" stroke="transparent" points="127,-10 127,-30 147,-30 147,-10 127,-10"/>
<text text-anchor="start" x="150.73" y="-15.4" font-family="Times-12" font-size="14.00"> &#160;Module</text>
<polygon fill="#80b1d3" stroke="transparent" points="213,-10 213,-30 233,-30 233,-10 213,-10"/>
<text text-anchor="start" x="236.78" y="-15.4" font-family="Times-12" font-size="14.00"> &#160;Bootstrap</text>
<polygon fill="#fdb462" stroke="transparent" points="310,-10 310,-30 330,-30 330,-10 310,-10"/>
<text text-anchor="start" x="333.67" y="-15.4" font-family="Times-12" font-size="14.00"> &#160;Providers</text>
<polygon fill="#fb8072" stroke="transparent" points="406,-10 406,-30 426,-30 426,-10 406,-10"/>
<text text-anchor="start" x="429.73" y="-15.4" font-family="Times-12" font-size="14.00"> &#160;Exports</text>
<g id="clust7" class="cluster">
<title>cluster_HeaderSelectorsModule</title>
<polygon fill="none" stroke="black" stroke-dasharray="1,5" points="50,-70 50,-268 258,-268 258,-70 50,-70"/>
</g>
<g id="clust11" class="cluster">
<title>cluster_HeaderSelectorsModule_exports</title>
<polygon fill="none" stroke="black" points="58,-208 58,-260 250,-260 250,-208 58,-208"/>
</g>
<g id="clust8" class="cluster">
<title>cluster_HeaderSelectorsModule_declarations</title>
<polygon fill="none" stroke="black" points="59,-78 59,-130 249,-130 249,-78 59,-78"/>
</g>
<g id="clust14" class="cluster">
<title>cluster_SituationDisplayerModule</title>
<polygon fill="none" stroke="black" stroke-dasharray="1,5" points="266,-143 266,-195 446,-195 446,-143 266,-143"/>
</g>
<!-- HeaderSelectorsComponent -->
<g id="node1" class="node">
<title>HeaderSelectorsComponent</title>
<polygon fill="#ffffb3" stroke="black" points="240.56,-122 67.44,-122 67.44,-86 240.56,-86 240.56,-122"/>
<text text-anchor="middle" x="154" y="-99.8" font-family="Times,serif" font-size="14.00">HeaderSelectorsComponent</text>
</g>
<!-- HeaderSelectorsModule -->
<g id="node2" class="node">
<title>HeaderSelectorsModule</title>
<polygon fill="#8dd3c7" stroke="black" points="229.77,-187 226.77,-191 205.77,-191 202.77,-187 78.23,-187 78.23,-151 229.77,-151 229.77,-187"/>
<text text-anchor="middle" x="154" y="-164.8" font-family="Times,serif" font-size="14.00">HeaderSelectorsModule</text>
</g>
<!-- HeaderSelectorsComponent&#45;&gt;HeaderSelectorsModule -->
<g id="edge1" class="edge">
<title>HeaderSelectorsComponent&#45;&gt;HeaderSelectorsModule</title>
<path fill="none" stroke="black" d="M154,-122.11C154,-122.11 154,-140.99 154,-140.99"/>
<polygon fill="black" stroke="black" points="150.5,-140.99 154,-150.99 157.5,-140.99 150.5,-140.99"/>
</g>
<!-- SituationDisplayerModule -->
<g id="node4" class="node">
<title>SituationDisplayerModule</title>
<polygon fill="#8dd3c7" stroke="black" points="438.03,-187 435.03,-191 414.03,-191 411.03,-187 273.97,-187 273.97,-151 438.03,-151 438.03,-187"/>
<text text-anchor="middle" x="356" y="-164.8" font-family="Times,serif" font-size="14.00">SituationDisplayerModule</text>
</g>
<!-- HeaderSelectorsComponent&#45;&gt;SituationDisplayerModule -->
<g id="edge3" class="edge">
<title>HeaderSelectorsComponent&#45;&gt;SituationDisplayerModule</title>
<path fill="none" stroke="black" d="M236.9,-122.02C236.9,-139.37 236.9,-163 236.9,-163 236.9,-163 263.93,-163 263.93,-163"/>
<polygon fill="black" stroke="black" points="263.93,-166.5 273.93,-163 263.93,-159.5 263.93,-166.5"/>
</g>
<!-- HeaderSelectorsComponent  -->
<g id="node3" class="node">
<title>HeaderSelectorsComponent </title>
<polygon fill="#fb8072" stroke="black" points="242.06,-252 65.94,-252 65.94,-216 242.06,-216 242.06,-252"/>
<text text-anchor="middle" x="154" y="-229.8" font-family="Times,serif" font-size="14.00">HeaderSelectorsComponent </text>
</g>
<!-- HeaderSelectorsModule&#45;&gt;HeaderSelectorsComponent  -->
<g id="edge2" class="edge">
<title>HeaderSelectorsModule&#45;&gt;HeaderSelectorsComponent </title>
<path fill="none" stroke="black" stroke-dasharray="5,2" d="M154,-187.11C154,-187.11 154,-205.99 154,-205.99"/>
<polygon fill="black" stroke="black" points="150.5,-205.99 154,-215.99 157.5,-205.99 150.5,-205.99"/>
</g>
<!-- SituationDisplayerModule&#45;&gt;HeaderSelectorsComponent  -->
<g id="edge4" class="edge">
<title>SituationDisplayerModule&#45;&gt;HeaderSelectorsComponent </title>
<path fill="none" stroke="black" stroke-dasharray="5,2" d="M273.79,-175C251.44,-175 233.27,-175 233.27,-175 233.27,-175 233.27,-205.98 233.27,-205.98"/>
<polygon fill="black" stroke="black" points="229.77,-205.98 233.27,-215.98 236.77,-205.98 229.77,-205.98"/>
</g>
</g>
</svg>
