<?xml version="1.0" encoding="UTF-8" standalone="no"?>
<!DOCTYPE svg PUBLIC "-//W3C//DTD SVG 1.1//EN"
 "http://www.w3.org/Graphics/SVG/1.1/DTD/svg11.dtd">
<!-- Generated by graphviz version 3.0.0 (20220226.1711)
 -->
<!-- Title: dependencies Pages: 1 -->
<svg width="442pt" height="247pt"
 viewBox="0.00 0.00 442.00 246.80" xmlns="http://www.w3.org/2000/svg" xmlns:xlink="http://www.w3.org/1999/xlink">
<g id="graph0" class="graph" transform="scale(1 1) rotate(0) translate(4 242.8)">
<title>dependencies</title>
<polygon fill="white" stroke="transparent" points="-4,4 -4,-242.8 438,-242.8 438,4 -4,4"/>
<text text-anchor="middle" x="217" y="-8.2" font-family="sans-serif" font-size="14.00">dependencies</text>
<g id="clust1" class="cluster">
<title>cluster_AppModule</title>
<polygon fill="none" stroke="black" stroke-dasharray="1,5" points="8,-32.8 8,-230.8 426,-230.8 426,-32.8 8,-32.8"/>
</g>
<g id="clust7" class="cluster">
<title>cluster_AppModule_bootstrap</title>
<polygon fill="none" stroke="black" points="141,-170.8 141,-222.8 265,-222.8 265,-170.8 141,-170.8"/>
</g>
<g id="clust5" class="cluster">
<title>cluster_AppModule_imports</title>
<polygon fill="none" stroke="black" points="274,-40.8 274,-92.8 418,-92.8 418,-40.8 274,-40.8"/>
</g>
<g id="clust2" class="cluster">
<title>cluster_AppModule_declarations</title>
<polygon fill="none" stroke="black" points="16,-40.8 16,-92.8 266,-92.8 266,-40.8 16,-40.8"/>
</g>
<!-- AlertComponent -->
<g id="node1" class="node">
<title>AlertComponent</title>
<polygon fill="#ffffb3" stroke="black" points="258.1,-84.8 147.9,-84.8 147.9,-48.8 258.1,-48.8 258.1,-84.8"/>
<text text-anchor="middle" x="203" y="-62.6" font-family="Times,serif" font-size="14.00">AlertComponent</text>
</g>
<!-- AppModule -->
<g id="node3" class="node">
<title>AppModule</title>
<polygon fill="#8dd3c7" stroke="black" points="244.66,-149.8 241.66,-153.8 220.66,-153.8 217.66,-149.8 161.34,-149.8 161.34,-113.8 244.66,-113.8 244.66,-149.8"/>
<text text-anchor="middle" x="203" y="-127.6" font-family="Times,serif" font-size="14.00">AppModule</text>
</g>
<!-- AlertComponent&#45;&gt;AppModule -->
<g id="edge1" class="edge">
<title>AlertComponent&#45;&gt;AppModule</title>
<path fill="none" stroke="black" d="M203,-84.91C203,-84.91 203,-103.79 203,-103.79"/>
<polygon fill="black" stroke="black" points="199.5,-103.79 203,-113.79 206.5,-103.79 199.5,-103.79"/>
</g>
<!-- AppComponent -->
<g id="node2" class="node">
<title>AppComponent</title>
<polygon fill="#ffffb3" stroke="black" points="129.94,-84.8 24.06,-84.8 24.06,-48.8 129.94,-48.8 129.94,-84.8"/>
<text text-anchor="middle" x="77" y="-62.6" font-family="Times,serif" font-size="14.00">AppComponent</text>
</g>
<!-- AppComponent&#45;&gt;AppModule -->
<g id="edge2" class="edge">
<title>AppComponent&#45;&gt;AppModule</title>
<path fill="none" stroke="black" d="M77,-84.91C77,-104.14 77,-131.8 77,-131.8 77,-131.8 151.04,-131.8 151.04,-131.8"/>
<polygon fill="black" stroke="black" points="151.04,-135.3 161.04,-131.8 151.04,-128.3 151.04,-135.3"/>
</g>
<!-- AppComponent  -->
<g id="node5" class="node">
<title>AppComponent </title>
<polygon fill="#80b1d3" stroke="black" points="257.44,-214.8 148.56,-214.8 148.56,-178.8 257.44,-178.8 257.44,-214.8"/>
<text text-anchor="middle" x="203" y="-192.6" font-family="Times,serif" font-size="14.00">AppComponent </text>
</g>
<!-- AppModule&#45;&gt;AppComponent  -->
<g id="edge4" class="edge">
<title>AppModule&#45;&gt;AppComponent </title>
<path fill="none" stroke="black" stroke-dasharray="1,5" d="M203,-149.91C203,-149.91 203,-168.79 203,-168.79"/>
<polygon fill="black" stroke="black" points="199.5,-168.79 203,-178.79 206.5,-168.79 199.5,-168.79"/>
</g>
<!-- AppRoutingModule -->
<g id="node4" class="node">
<title>AppRoutingModule</title>
<polygon fill="#8dd3c7" stroke="black" points="410.28,-84.8 407.28,-88.8 386.28,-88.8 383.28,-84.8 281.72,-84.8 281.72,-48.8 410.28,-48.8 410.28,-84.8"/>
<text text-anchor="middle" x="346" y="-62.6" font-family="Times,serif" font-size="14.00">AppRoutingModule</text>
</g>
<!-- AppRoutingModule&#45;&gt;AppModule -->
<g id="edge3" class="edge">
<title>AppRoutingModule&#45;&gt;AppModule</title>
<path fill="none" stroke="black" d="M346,-84.91C346,-104.14 346,-131.8 346,-131.8 346,-131.8 254.75,-131.8 254.75,-131.8"/>
<polygon fill="black" stroke="black" points="254.75,-128.3 244.75,-131.8 254.75,-135.3 254.75,-128.3"/>
</g>
</g>
</svg>
