<?xml version="1.0" encoding="UTF-8" standalone="no"?>
<!DOCTYPE svg PUBLIC "-//W3C//DTD SVG 1.1//EN"
 "http://www.w3.org/Graphics/SVG/1.1/DTD/svg11.dtd">
<!-- Generated by graphviz version 3.0.0 (20220226.1711)
 -->
<!-- Title: dependencies Pages: 1 -->
<svg width="472pt" height="174pt"
 viewBox="0.00 0.00 472.00 173.80" xmlns="http://www.w3.org/2000/svg" xmlns:xlink="http://www.w3.org/1999/xlink">
<g id="graph0" class="graph" transform="scale(1 1) rotate(0) translate(4 169.8)">
<title>dependencies</title>
<polygon fill="white" stroke="transparent" points="-4,4 -4,-169.8 468,-169.8 468,4 -4,4"/>
<text text-anchor="middle" x="232" y="-8.2" font-family="sans-serif" font-size="14.00">dependencies</text>
<g id="clust1" class="cluster">
<title>cluster_ReaffectatorModule</title>
<polygon fill="none" stroke="black" stroke-dasharray="1,5" points="8,-32.8 8,-157.8 456,-157.8 456,-32.8 8,-32.8"/>
</g>
<g id="clust2" class="cluster">
<title>cluster_ReaffectatorModule_declarations</title>
<polygon fill="none" stroke="black" points="320,-40.8 320,-92.8 448,-92.8 448,-40.8 320,-40.8"/>
</g>
<g id="clust4" class="cluster">
<title>cluster_ReaffectatorModule_imports</title>
<polygon fill="none" stroke="black" points="16,-40.8 16,-92.8 312,-92.8 312,-40.8 16,-40.8"/>
</g>
<!-- ReaffectatorPage -->
<g id="node1" class="node">
<title>ReaffectatorPage</title>
<polygon fill="#ffffb3" stroke="black" points="440.39,-84.8 327.61,-84.8 327.61,-48.8 440.39,-48.8 440.39,-84.8"/>
<text text-anchor="middle" x="384" y="-62.6" font-family="Times,serif" font-size="14.00">ReaffectatorPage</text>
</g>
<!-- ReaffectatorModule -->
<g id="node2" class="node">
<title>ReaffectatorModule</title>
<polygon fill="#8dd3c7" stroke="black" points="315.22,-149.8 312.22,-153.8 291.22,-153.8 288.22,-149.8 186.78,-149.8 186.78,-113.8 315.22,-113.8 315.22,-149.8"/>
<text text-anchor="middle" x="251" y="-127.6" font-family="Times,serif" font-size="14.00">ReaffectatorModule</text>
</g>
<!-- ReaffectatorPage&#45;&gt;ReaffectatorModule -->
<g id="edge1" class="edge">
<title>ReaffectatorPage&#45;&gt;ReaffectatorModule</title>
<path fill="none" stroke="black" d="M327.48,-66.8C317.34,-66.8 309.92,-66.8 309.92,-66.8 309.92,-66.8 309.92,-103.69 309.92,-103.69"/>
<polygon fill="black" stroke="black" points="306.42,-103.69 309.92,-113.69 313.42,-103.69 306.42,-103.69"/>
</g>
<!-- MaterialModule -->
<g id="node3" class="node">
<title>MaterialModule</title>
<polygon fill="#8dd3c7" stroke="black" points="304.47,-84.8 301.47,-88.8 280.47,-88.8 277.47,-84.8 197.53,-84.8 197.53,-48.8 304.47,-48.8 304.47,-84.8"/>
<text text-anchor="middle" x="251" y="-62.6" font-family="Times,serif" font-size="14.00">MaterialModule</text>
</g>
<!-- MaterialModule&#45;&gt;ReaffectatorModule -->
<g id="edge2" class="edge">
<title>MaterialModule&#45;&gt;ReaffectatorModule</title>
<path fill="none" stroke="black" d="M251,-84.91C251,-84.91 251,-103.79 251,-103.79"/>
<polygon fill="black" stroke="black" points="247.5,-103.79 251,-113.79 254.5,-103.79 247.5,-103.79"/>
</g>
<!-- ReaffectatorPageModule -->
<g id="node4" class="node">
<title>ReaffectatorPageModule</title>
<polygon fill="#8dd3c7" stroke="black" points="179.94,-84.8 176.94,-88.8 155.94,-88.8 152.94,-84.8 24.06,-84.8 24.06,-48.8 179.94,-48.8 179.94,-84.8"/>
<text text-anchor="middle" x="102" y="-62.6" font-family="Times,serif" font-size="14.00">ReaffectatorPageModule</text>
</g>
<!-- ReaffectatorPageModule&#45;&gt;ReaffectatorModule -->
<g id="edge3" class="edge">
<title>ReaffectatorPageModule&#45;&gt;ReaffectatorModule</title>
<path fill="none" stroke="black" d="M180.3,-66.8C187.45,-66.8 192.08,-66.8 192.08,-66.8 192.08,-66.8 192.08,-103.69 192.08,-103.69"/>
<polygon fill="black" stroke="black" points="188.58,-103.69 192.08,-113.69 195.58,-103.69 188.58,-103.69"/>
</g>
</g>
</svg>
