<?xml version="1.0" encoding="UTF-8" standalone="no"?>
<!DOCTYPE svg PUBLIC "-//W3C//DTD SVG 1.1//EN"
 "http://www.w3.org/Graphics/SVG/1.1/DTD/svg11.dtd">
<!-- Generated by graphviz version 3.0.0 (20220226.1711)
 -->
<!-- Title: dependencies Pages: 1 -->
<svg width="472pt" height="174pt"
 viewBox="0.00 0.00 472.00 173.80" xmlns="http://www.w3.org/2000/svg" xmlns:xlink="http://www.w3.org/1999/xlink">
<g id="graph0" class="graph" transform="scale(1 1) rotate(0) translate(4 169.8)">
<title>dependencies</title>
<polygon fill="white" stroke="transparent" points="-4,4 -4,-169.8 468,-169.8 468,4 -4,4"/>
<text text-anchor="middle" x="232" y="-8.2" font-family="sans-serif" font-size="14.00">dependencies</text>
<g id="clust1" class="cluster">
<title>cluster_ReaffectatorModule</title>
<polygon fill="none" stroke="black" stroke-dasharray="1,5" points="8,-32.8 8,-157.8 456,-157.8 456,-32.8 8,-32.8"/>
</g>
<g id="clust4" class="cluster">
<title>cluster_ReaffectatorModule_imports</title>
<polygon fill="none" stroke="black" points="152,-40.8 152,-92.8 448,-92.8 448,-40.8 152,-40.8"/>
</g>
<g id="clust2" class="cluster">
<title>cluster_ReaffectatorModule_declarations</title>
<polygon fill="none" stroke="black" points="16,-40.8 16,-92.8 144,-92.8 144,-40.8 16,-40.8"/>
</g>
<!-- ReaffectatorPage -->
<g id="node1" class="node">
<title>ReaffectatorPage</title>
<polygon fill="#ffffb3" stroke="black" points="136.39,-84.8 23.61,-84.8 23.61,-48.8 136.39,-48.8 136.39,-84.8"/>
<text text-anchor="middle" x="80" y="-62.6" font-family="Times,serif" font-size="14.00">ReaffectatorPage</text>
</g>
<!-- ReaffectatorModule -->
<g id="node2" class="node">
<title>ReaffectatorModule</title>
<polygon fill="#8dd3c7" stroke="black" points="302.22,-149.8 299.22,-153.8 278.22,-153.8 275.22,-149.8 173.78,-149.8 173.78,-113.8 302.22,-113.8 302.22,-149.8"/>
<text text-anchor="middle" x="238" y="-127.6" font-family="Times,serif" font-size="14.00">ReaffectatorModule</text>
</g>
<!-- ReaffectatorPage&#45;&gt;ReaffectatorModule -->
<g id="edge1" class="edge">
<title>ReaffectatorPage&#45;&gt;ReaffectatorModule</title>
<path fill="none" stroke="black" d="M80,-84.91C80,-104.14 80,-131.8 80,-131.8 80,-131.8 163.74,-131.8 163.74,-131.8"/>
<polygon fill="black" stroke="black" points="163.74,-135.3 173.74,-131.8 163.74,-128.3 163.74,-135.3"/>
</g>
<!-- MaterialModule -->
<g id="node3" class="node">
<title>MaterialModule</title>
<polygon fill="#8dd3c7" stroke="black" points="440.47,-84.8 437.47,-88.8 416.47,-88.8 413.47,-84.8 333.53,-84.8 333.53,-48.8 440.47,-48.8 440.47,-84.8"/>
<text text-anchor="middle" x="387" y="-62.6" font-family="Times,serif" font-size="14.00">MaterialModule</text>
</g>
<!-- MaterialModule&#45;&gt;ReaffectatorModule -->
<g id="edge2" class="edge">
<title>MaterialModule&#45;&gt;ReaffectatorModule</title>
<path fill="none" stroke="black" d="M387,-84.91C387,-104.14 387,-131.8 387,-131.8 387,-131.8 312.49,-131.8 312.49,-131.8"/>
<polygon fill="black" stroke="black" points="312.49,-128.3 302.49,-131.8 312.49,-135.3 312.49,-128.3"/>
</g>
<!-- ReaffectatorPageModule -->
<g id="node4" class="node">
<title>ReaffectatorPageModule</title>
<polygon fill="#8dd3c7" stroke="black" points="315.94,-84.8 312.94,-88.8 291.94,-88.8 288.94,-84.8 160.06,-84.8 160.06,-48.8 315.94,-48.8 315.94,-84.8"/>
<text text-anchor="middle" x="238" y="-62.6" font-family="Times,serif" font-size="14.00">ReaffectatorPageModule</text>
</g>
<!-- ReaffectatorPageModule&#45;&gt;ReaffectatorModule -->
<g id="edge3" class="edge">
<title>ReaffectatorPageModule&#45;&gt;ReaffectatorModule</title>
<path fill="none" stroke="black" d="M238,-84.91C238,-84.91 238,-103.79 238,-103.79"/>
<polygon fill="black" stroke="black" points="234.5,-103.79 238,-113.79 241.5,-103.79 234.5,-103.79"/>
</g>
</g>
</svg>
