<?xml version="1.0" encoding="UTF-8" standalone="no"?>
<!DOCTYPE svg PUBLIC "-//W3C//DTD SVG 1.1//EN"
 "http://www.w3.org/Graphics/SVG/1.1/DTD/svg11.dtd">
<!-- Generated by graphviz version 3.0.0 (20220226.1711)
 -->
<!-- Title: dependencies Pages: 1 -->
<svg width="1161pt" height="174pt"
 viewBox="0.00 0.00 1161.00 173.80" xmlns="http://www.w3.org/2000/svg" xmlns:xlink="http://www.w3.org/1999/xlink">
<g id="graph0" class="graph" transform="scale(1 1) rotate(0) translate(4 169.8)">
<title>dependencies</title>
<polygon fill="white" stroke="transparent" points="-4,4 -4,-169.8 1157,-169.8 1157,4 -4,4"/>
<text text-anchor="middle" x="576.5" y="-8.2" font-family="sans-serif" font-size="14.00">dependencies</text>
<g id="clust1" class="cluster">
<title>cluster_HumanResourceModule</title>
<polygon fill="none" stroke="black" stroke-dasharray="1,5" points="8,-32.8 8,-157.8 1145,-157.8 1145,-32.8 8,-32.8"/>
</g>
<g id="clust7" class="cluster">
<title>cluster_HumanResourceModule_imports</title>
<polygon fill="none" stroke="black" points="816,-40.8 816,-92.8 1137,-92.8 1137,-40.8 816,-40.8"/>
</g>
<g id="clust2" class="cluster">
<title>cluster_HumanResourceModule_declarations</title>
<polygon fill="none" stroke="black" points="16,-40.8 16,-92.8 808,-92.8 808,-40.8 16,-40.8"/>
</g>
<!-- ActualPanelSituationComponent -->
<g id="node1" class="node">
<title>ActualPanelSituationComponent</title>
<polygon fill="#ffffb3" stroke="black" points="800.31,-84.8 599.69,-84.8 599.69,-48.8 800.31,-48.8 800.31,-84.8"/>
<text text-anchor="middle" x="700" y="-62.6" font-family="Times,serif" font-size="14.00">ActualPanelSituationComponent</text>
</g>
<!-- HumanResourceModule -->
<g id="node5" class="node">
<title>HumanResourceModule</title>
<polygon fill="#8dd3c7" stroke="black" points="675.36,-149.8 672.36,-153.8 651.36,-153.8 648.36,-149.8 522.64,-149.8 522.64,-113.8 675.36,-113.8 675.36,-149.8"/>
<text text-anchor="middle" x="599" y="-127.6" font-family="Times,serif" font-size="14.00">HumanResourceModule</text>
</g>
<!-- ActualPanelSituationComponent&#45;&gt;HumanResourceModule -->
<g id="edge1" class="edge">
<title>ActualPanelSituationComponent&#45;&gt;HumanResourceModule</title>
<path fill="none" stroke="black" d="M637.64,-84.91C637.64,-84.91 637.64,-103.79 637.64,-103.79"/>
<polygon fill="black" stroke="black" points="634.14,-103.79 637.64,-113.79 641.14,-103.79 634.14,-103.79"/>
</g>
<!-- AddVentilationComponent -->
<g id="node2" class="node">
<title>AddVentilationComponent</title>
<polygon fill="#ffffb3" stroke="black" points="582.43,-84.8 413.57,-84.8 413.57,-48.8 582.43,-48.8 582.43,-84.8"/>
<text text-anchor="middle" x="498" y="-62.6" font-family="Times,serif" font-size="14.00">AddVentilationComponent</text>
</g>
<!-- AddVentilationComponent&#45;&gt;HumanResourceModule -->
<g id="edge2" class="edge">
<title>AddVentilationComponent&#45;&gt;HumanResourceModule</title>
<path fill="none" stroke="black" d="M552.39,-84.91C552.39,-84.91 552.39,-103.79 552.39,-103.79"/>
<polygon fill="black" stroke="black" points="548.89,-103.79 552.39,-113.79 555.89,-103.79 548.89,-103.79"/>
</g>
<!-- HumanResourcePage -->
<g id="node3" class="node">
<title>HumanResourcePage</title>
<polygon fill="#ffffb3" stroke="black" points="396.02,-84.8 259.98,-84.8 259.98,-48.8 396.02,-48.8 396.02,-84.8"/>
<text text-anchor="middle" x="328" y="-62.6" font-family="Times,serif" font-size="14.00">HumanResourcePage</text>
</g>
<!-- HumanResourcePage&#45;&gt;HumanResourceModule -->
<g id="edge3" class="edge">
<title>HumanResourcePage&#45;&gt;HumanResourceModule</title>
<path fill="none" stroke="black" d="M328,-84.82C328,-102.17 328,-125.8 328,-125.8 328,-125.8 512.43,-125.8 512.43,-125.8"/>
<polygon fill="black" stroke="black" points="512.43,-129.3 522.43,-125.8 512.43,-122.3 512.43,-129.3"/>
</g>
<!-- PanelHistoryVentilationComponent -->
<g id="node4" class="node">
<title>PanelHistoryVentilationComponent</title>
<polygon fill="#ffffb3" stroke="black" points="241.92,-84.8 24.08,-84.8 24.08,-48.8 241.92,-48.8 241.92,-84.8"/>
<text text-anchor="middle" x="133" y="-62.6" font-family="Times,serif" font-size="14.00">PanelHistoryVentilationComponent</text>
</g>
<!-- PanelHistoryVentilationComponent&#45;&gt;HumanResourceModule -->
<g id="edge4" class="edge">
<title>PanelHistoryVentilationComponent&#45;&gt;HumanResourceModule</title>
<path fill="none" stroke="black" d="M133,-85.08C133,-106.12 133,-137.8 133,-137.8 133,-137.8 512.57,-137.8 512.57,-137.8"/>
<polygon fill="black" stroke="black" points="512.57,-141.3 522.57,-137.8 512.57,-134.3 512.57,-141.3"/>
</g>
<!-- HumanResourcePageModule -->
<g id="node6" class="node">
<title>HumanResourcePageModule</title>
<polygon fill="#8dd3c7" stroke="black" points="1129.07,-84.8 1126.07,-88.8 1105.07,-88.8 1102.07,-84.8 948.93,-84.8 948.93,-48.8 1129.07,-48.8 1129.07,-84.8"/>
<text text-anchor="middle" x="1039" y="-62.6" font-family="Times,serif" font-size="14.00">HumanResourcePageModule</text>
</g>
<!-- HumanResourcePageModule&#45;&gt;HumanResourceModule -->
<g id="edge5" class="edge">
<title>HumanResourcePageModule&#45;&gt;HumanResourceModule</title>
<path fill="none" stroke="black" d="M1039,-85.08C1039,-106.12 1039,-137.8 1039,-137.8 1039,-137.8 685.39,-137.8 685.39,-137.8"/>
<polygon fill="black" stroke="black" points="685.39,-134.3 675.39,-137.8 685.39,-141.3 685.39,-134.3"/>
</g>
<!-- MaterialModule -->
<g id="node7" class="node">
<title>MaterialModule</title>
<polygon fill="#8dd3c7" stroke="black" points="930.47,-84.8 927.47,-88.8 906.47,-88.8 903.47,-84.8 823.53,-84.8 823.53,-48.8 930.47,-48.8 930.47,-84.8"/>
<text text-anchor="middle" x="877" y="-62.6" font-family="Times,serif" font-size="14.00">MaterialModule</text>
</g>
<!-- MaterialModule&#45;&gt;HumanResourceModule -->
<g id="edge6" class="edge">
<title>MaterialModule&#45;&gt;HumanResourceModule</title>
<path fill="none" stroke="black" d="M877,-84.82C877,-102.17 877,-125.8 877,-125.8 877,-125.8 685.7,-125.8 685.7,-125.8"/>
<polygon fill="black" stroke="black" points="685.7,-122.3 675.7,-125.8 685.7,-129.3 685.7,-122.3"/>
</g>
</g>
</svg>
