<?xml version="1.0" encoding="UTF-8" standalone="no"?>
<!DOCTYPE svg PUBLIC "-//W3C//DTD SVG 1.1//EN"
 "http://www.w3.org/Graphics/SVG/1.1/DTD/svg11.dtd">
<!-- Generated by graphviz version 3.0.0 (20220226.1711)
 -->
<!-- Title: dependencies Pages: 1 -->
<svg width="1161pt" height="174pt"
 viewBox="0.00 0.00 1161.00 173.80" xmlns="http://www.w3.org/2000/svg" xmlns:xlink="http://www.w3.org/1999/xlink">
<g id="graph0" class="graph" transform="scale(1 1) rotate(0) translate(4 169.8)">
<title>dependencies</title>
<polygon fill="white" stroke="transparent" points="-4,4 -4,-169.8 1157,-169.8 1157,4 -4,4"/>
<text text-anchor="middle" x="576.5" y="-8.2" font-family="sans-serif" font-size="14.00">dependencies</text>
<g id="clust1" class="cluster">
<title>cluster_HumanResourceModule</title>
<polygon fill="none" stroke="black" stroke-dasharray="1,5" points="8,-32.8 8,-157.8 1145,-157.8 1145,-32.8 8,-32.8"/>
</g>
<g id="clust2" class="cluster">
<title>cluster_HumanResourceModule_declarations</title>
<polygon fill="none" stroke="black" points="345,-40.8 345,-92.8 1137,-92.8 1137,-40.8 345,-40.8"/>
</g>
<g id="clust7" class="cluster">
<title>cluster_HumanResourceModule_imports</title>
<polygon fill="none" stroke="black" points="16,-40.8 16,-92.8 337,-92.8 337,-40.8 16,-40.8"/>
</g>
<!-- ActualPanelSituationComponent -->
<g id="node1" class="node">
<title>ActualPanelSituationComponent</title>
<polygon fill="#ffffb3" stroke="black" points="1129.31,-84.8 928.69,-84.8 928.69,-48.8 1129.31,-48.8 1129.31,-84.8"/>
<text text-anchor="middle" x="1029" y="-62.6" font-family="Times,serif" font-size="14.00">ActualPanelSituationComponent</text>
</g>
<!-- HumanResourceModule -->
<g id="node5" class="node">
<title>HumanResourceModule</title>
<polygon fill="#8dd3c7" stroke="black" points="635.36,-149.8 632.36,-153.8 611.36,-153.8 608.36,-149.8 482.64,-149.8 482.64,-113.8 635.36,-113.8 635.36,-149.8"/>
<text text-anchor="middle" x="559" y="-127.6" font-family="Times,serif" font-size="14.00">HumanResourceModule</text>
</g>
<!-- ActualPanelSituationComponent&#45;&gt;HumanResourceModule -->
<g id="edge1" class="edge">
<title>ActualPanelSituationComponent&#45;&gt;HumanResourceModule</title>
<path fill="none" stroke="black" d="M1029,-85.08C1029,-106.12 1029,-137.8 1029,-137.8 1029,-137.8 645.56,-137.8 645.56,-137.8"/>
<polygon fill="black" stroke="black" points="645.56,-134.3 635.56,-137.8 645.56,-141.3 645.56,-134.3"/>
</g>
<!-- AddVentilationComponent -->
<g id="node2" class="node">
<title>AddVentilationComponent</title>
<polygon fill="#ffffb3" stroke="black" points="911.43,-84.8 742.57,-84.8 742.57,-48.8 911.43,-48.8 911.43,-84.8"/>
<text text-anchor="middle" x="827" y="-62.6" font-family="Times,serif" font-size="14.00">AddVentilationComponent</text>
</g>
<!-- AddVentilationComponent&#45;&gt;HumanResourceModule -->
<g id="edge2" class="edge">
<title>AddVentilationComponent&#45;&gt;HumanResourceModule</title>
<path fill="none" stroke="black" d="M827,-84.82C827,-102.17 827,-125.8 827,-125.8 827,-125.8 645.44,-125.8 645.44,-125.8"/>
<polygon fill="black" stroke="black" points="645.44,-122.3 635.44,-125.8 645.44,-129.3 645.44,-122.3"/>
</g>
<!-- HumanResourcePage -->
<g id="node3" class="node">
<title>HumanResourcePage</title>
<polygon fill="#ffffb3" stroke="black" points="725.02,-84.8 588.98,-84.8 588.98,-48.8 725.02,-48.8 725.02,-84.8"/>
<text text-anchor="middle" x="657" y="-62.6" font-family="Times,serif" font-size="14.00">HumanResourcePage</text>
</g>
<!-- HumanResourcePage&#45;&gt;HumanResourceModule -->
<g id="edge3" class="edge">
<title>HumanResourcePage&#45;&gt;HumanResourceModule</title>
<path fill="none" stroke="black" d="M612.08,-84.91C612.08,-84.91 612.08,-103.79 612.08,-103.79"/>
<polygon fill="black" stroke="black" points="608.58,-103.79 612.08,-113.79 615.58,-103.79 608.58,-103.79"/>
</g>
<!-- PanelHistoryVentilationComponent -->
<g id="node4" class="node">
<title>PanelHistoryVentilationComponent</title>
<polygon fill="#ffffb3" stroke="black" points="570.92,-84.8 353.08,-84.8 353.08,-48.8 570.92,-48.8 570.92,-84.8"/>
<text text-anchor="middle" x="462" y="-62.6" font-family="Times,serif" font-size="14.00">PanelHistoryVentilationComponent</text>
</g>
<!-- PanelHistoryVentilationComponent&#45;&gt;HumanResourceModule -->
<g id="edge4" class="edge">
<title>PanelHistoryVentilationComponent&#45;&gt;HumanResourceModule</title>
<path fill="none" stroke="black" d="M526.64,-84.91C526.64,-84.91 526.64,-103.79 526.64,-103.79"/>
<polygon fill="black" stroke="black" points="523.14,-103.79 526.64,-113.79 530.14,-103.79 523.14,-103.79"/>
</g>
<!-- HumanResourcePageModule -->
<g id="node6" class="node">
<title>HumanResourcePageModule</title>
<polygon fill="#8dd3c7" stroke="black" points="329.07,-84.8 326.07,-88.8 305.07,-88.8 302.07,-84.8 148.93,-84.8 148.93,-48.8 329.07,-48.8 329.07,-84.8"/>
<text text-anchor="middle" x="239" y="-62.6" font-family="Times,serif" font-size="14.00">HumanResourcePageModule</text>
</g>
<!-- HumanResourcePageModule&#45;&gt;HumanResourceModule -->
<g id="edge5" class="edge">
<title>HumanResourcePageModule&#45;&gt;HumanResourceModule</title>
<path fill="none" stroke="black" d="M239,-84.82C239,-102.17 239,-125.8 239,-125.8 239,-125.8 472.35,-125.8 472.35,-125.8"/>
<polygon fill="black" stroke="black" points="472.35,-129.3 482.35,-125.8 472.35,-122.3 472.35,-129.3"/>
</g>
<!-- MaterialModule -->
<g id="node7" class="node">
<title>MaterialModule</title>
<polygon fill="#8dd3c7" stroke="black" points="130.47,-84.8 127.47,-88.8 106.47,-88.8 103.47,-84.8 23.53,-84.8 23.53,-48.8 130.47,-48.8 130.47,-84.8"/>
<text text-anchor="middle" x="77" y="-62.6" font-family="Times,serif" font-size="14.00">MaterialModule</text>
</g>
<!-- MaterialModule&#45;&gt;HumanResourceModule -->
<g id="edge6" class="edge">
<title>MaterialModule&#45;&gt;HumanResourceModule</title>
<path fill="none" stroke="black" d="M77,-85.08C77,-106.12 77,-137.8 77,-137.8 77,-137.8 472.63,-137.8 472.63,-137.8"/>
<polygon fill="black" stroke="black" points="472.63,-141.3 482.63,-137.8 472.63,-134.3 472.63,-141.3"/>
</g>
</g>
</svg>
