<?xml version="1.0" encoding="UTF-8" standalone="no"?>
<!DOCTYPE svg PUBLIC "-//W3C//DTD SVG 1.1//EN"
 "http://www.w3.org/Graphics/SVG/1.1/DTD/svg11.dtd">
<!-- Generated by graphviz version 3.0.0 (20220226.1711)
 -->
<!-- Title: dependencies Pages: 1 -->
<svg width="332pt" height="174pt"
 viewBox="0.00 0.00 332.00 173.80" xmlns="http://www.w3.org/2000/svg" xmlns:xlink="http://www.w3.org/1999/xlink">
<g id="graph0" class="graph" transform="scale(1 1) rotate(0) translate(4 169.8)">
<title>dependencies</title>
<polygon fill="white" stroke="transparent" points="-4,4 -4,-169.8 328,-169.8 328,4 -4,4"/>
<text text-anchor="middle" x="162" y="-8.2" font-family="sans-serif" font-size="14.00">dependencies</text>
<g id="clust1" class="cluster">
<title>cluster_DashboardModule</title>
<polygon fill="none" stroke="black" stroke-dasharray="1,5" points="8,-32.8 8,-157.8 316,-157.8 316,-32.8 8,-32.8"/>
</g>
<g id="clust2" class="cluster">
<title>cluster_DashboardModule_declarations</title>
<polygon fill="none" stroke="black" points="188,-40.8 188,-92.8 308,-92.8 308,-40.8 188,-40.8"/>
</g>
<g id="clust4" class="cluster">
<title>cluster_DashboardModule_imports</title>
<polygon fill="none" stroke="black" points="16,-40.8 16,-92.8 180,-92.8 180,-40.8 16,-40.8"/>
</g>
<!-- DashboardPage -->
<g id="node1" class="node">
<title>DashboardPage</title>
<polygon fill="#ffffb3" stroke="black" points="299.86,-84.8 196.14,-84.8 196.14,-48.8 299.86,-48.8 299.86,-84.8"/>
<text text-anchor="middle" x="248" y="-62.6" font-family="Times,serif" font-size="14.00">DashboardPage</text>
</g>
<!-- DashboardModule -->
<g id="node2" class="node">
<title>DashboardModule</title>
<polygon fill="#8dd3c7" stroke="black" points="233.2,-149.8 230.2,-153.8 209.2,-153.8 206.2,-149.8 112.8,-149.8 112.8,-113.8 233.2,-113.8 233.2,-149.8"/>
<text text-anchor="middle" x="173" y="-127.6" font-family="Times,serif" font-size="14.00">DashboardModule</text>
</g>
<!-- DashboardPage&#45;&gt;DashboardModule -->
<g id="edge1" class="edge">
<title>DashboardPage&#45;&gt;DashboardModule</title>
<path fill="none" stroke="black" d="M214.58,-84.91C214.58,-84.91 214.58,-103.79 214.58,-103.79"/>
<polygon fill="black" stroke="black" points="211.08,-103.79 214.58,-113.79 218.08,-103.79 211.08,-103.79"/>
</g>
<!-- DashboardPageModule -->
<g id="node3" class="node">
<title>DashboardPageModule</title>
<polygon fill="#8dd3c7" stroke="black" points="171.91,-84.8 168.91,-88.8 147.91,-88.8 144.91,-84.8 24.09,-84.8 24.09,-48.8 171.91,-48.8 171.91,-84.8"/>
<text text-anchor="middle" x="98" y="-62.6" font-family="Times,serif" font-size="14.00">DashboardPageModule</text>
</g>
<!-- DashboardPageModule&#45;&gt;DashboardModule -->
<g id="edge2" class="edge">
<title>DashboardPageModule&#45;&gt;DashboardModule</title>
<path fill="none" stroke="black" d="M142.3,-84.91C142.3,-84.91 142.3,-103.79 142.3,-103.79"/>
<polygon fill="black" stroke="black" points="138.8,-103.79 142.3,-113.79 145.8,-103.79 138.8,-103.79"/>
</g>
</g>
</svg>
