<?xml version="1.0" encoding="UTF-8" standalone="no"?>
<!DOCTYPE svg PUBLIC "-//W3C//DTD SVG 1.1//EN"
 "http://www.w3.org/Graphics/SVG/1.1/DTD/svg11.dtd">
<!-- Generated by graphviz version 3.0.0 (20220226.1711)
 -->
<!-- Title: dependencies Pages: 1 -->
<svg width="456pt" height="174pt"
 viewBox="0.00 0.00 456.00 173.80" xmlns="http://www.w3.org/2000/svg" xmlns:xlink="http://www.w3.org/1999/xlink">
<g id="graph0" class="graph" transform="scale(1 1) rotate(0) translate(4 169.8)">
<title>dependencies</title>
<polygon fill="white" stroke="transparent" points="-4,4 -4,-169.8 452,-169.8 452,4 -4,4"/>
<text text-anchor="middle" x="224" y="-8.2" font-family="sans-serif" font-size="14.00">dependencies</text>
<g id="clust1" class="cluster">
<title>cluster_DashboardModule</title>
<polygon fill="none" stroke="black" stroke-dasharray="1,5" points="8,-32.8 8,-157.8 440,-157.8 440,-32.8 8,-32.8"/>
</g>
<g id="clust2" class="cluster">
<title>cluster_DashboardModule_declarations</title>
<polygon fill="none" stroke="black" points="312,-40.8 312,-92.8 432,-92.8 432,-40.8 312,-40.8"/>
</g>
<g id="clust4" class="cluster">
<title>cluster_DashboardModule_imports</title>
<polygon fill="none" stroke="black" points="16,-40.8 16,-92.8 304,-92.8 304,-40.8 16,-40.8"/>
</g>
<!-- DashboardPage -->
<g id="node1" class="node">
<title>DashboardPage</title>
<polygon fill="#ffffb3" stroke="black" points="423.86,-84.8 320.14,-84.8 320.14,-48.8 423.86,-48.8 423.86,-84.8"/>
<text text-anchor="middle" x="372" y="-62.6" font-family="Times,serif" font-size="14.00">DashboardPage</text>
</g>
<!-- DashboardModule -->
<g id="node2" class="node">
<title>DashboardModule</title>
<polygon fill="#8dd3c7" stroke="black" points="282.2,-149.8 279.2,-153.8 258.2,-153.8 255.2,-149.8 161.8,-149.8 161.8,-113.8 282.2,-113.8 282.2,-149.8"/>
<text text-anchor="middle" x="222" y="-127.6" font-family="Times,serif" font-size="14.00">DashboardModule</text>
</g>
<!-- DashboardPage&#45;&gt;DashboardModule -->
<g id="edge1" class="edge">
<title>DashboardPage&#45;&gt;DashboardModule</title>
<path fill="none" stroke="black" d="M372,-84.91C372,-104.14 372,-131.8 372,-131.8 372,-131.8 292.15,-131.8 292.15,-131.8"/>
<polygon fill="black" stroke="black" points="292.15,-128.3 282.15,-131.8 292.15,-135.3 292.15,-128.3"/>
</g>
<!-- DashboardPageModule -->
<g id="node3" class="node">
<title>DashboardPageModule</title>
<polygon fill="#8dd3c7" stroke="black" points="295.91,-84.8 292.91,-88.8 271.91,-88.8 268.91,-84.8 148.09,-84.8 148.09,-48.8 295.91,-48.8 295.91,-84.8"/>
<text text-anchor="middle" x="222" y="-62.6" font-family="Times,serif" font-size="14.00">DashboardPageModule</text>
</g>
<!-- DashboardPageModule&#45;&gt;DashboardModule -->
<g id="edge2" class="edge">
<title>DashboardPageModule&#45;&gt;DashboardModule</title>
<path fill="none" stroke="black" d="M222,-84.91C222,-84.91 222,-103.79 222,-103.79"/>
<polygon fill="black" stroke="black" points="218.5,-103.79 222,-113.79 225.5,-103.79 218.5,-103.79"/>
</g>
<!-- MaterialModule -->
<g id="node4" class="node">
<title>MaterialModule</title>
<polygon fill="#8dd3c7" stroke="black" points="130.47,-84.8 127.47,-88.8 106.47,-88.8 103.47,-84.8 23.53,-84.8 23.53,-48.8 130.47,-48.8 130.47,-84.8"/>
<text text-anchor="middle" x="77" y="-62.6" font-family="Times,serif" font-size="14.00">MaterialModule</text>
</g>
<!-- MaterialModule&#45;&gt;DashboardModule -->
<g id="edge3" class="edge">
<title>MaterialModule&#45;&gt;DashboardModule</title>
<path fill="none" stroke="black" d="M77,-84.91C77,-104.14 77,-131.8 77,-131.8 77,-131.8 151.77,-131.8 151.77,-131.8"/>
<polygon fill="black" stroke="black" points="151.77,-135.3 161.77,-131.8 151.77,-128.3 151.77,-135.3"/>
</g>
</g>
</svg>
