<?xml version="1.0" encoding="UTF-8" standalone="no"?>
<!DOCTYPE svg PUBLIC "-//W3C//DTD SVG 1.1//EN"
 "http://www.w3.org/Graphics/SVG/1.1/DTD/svg11.dtd">
<!-- Generated by graphviz version 3.0.0 (20220226.1711)
 -->
<!-- Title: dependencies Pages: 1 -->
<svg width="332pt" height="174pt"
 viewBox="0.00 0.00 332.00 173.80" xmlns="http://www.w3.org/2000/svg" xmlns:xlink="http://www.w3.org/1999/xlink">
<g id="graph0" class="graph" transform="scale(1 1) rotate(0) translate(4 169.8)">
<title>dependencies</title>
<polygon fill="white" stroke="transparent" points="-4,4 -4,-169.8 328,-169.8 328,4 -4,4"/>
<text text-anchor="middle" x="162" y="-8.2" font-family="sans-serif" font-size="14.00">dependencies</text>
<g id="clust1" class="cluster">
<title>cluster_DashboardModule</title>
<polygon fill="none" stroke="black" stroke-dasharray="1,5" points="8,-32.8 8,-157.8 316,-157.8 316,-32.8 8,-32.8"/>
</g>
<g id="clust4" class="cluster">
<title>cluster_DashboardModule_imports</title>
<polygon fill="none" stroke="black" points="144,-40.8 144,-92.8 308,-92.8 308,-40.8 144,-40.8"/>
</g>
<g id="clust2" class="cluster">
<title>cluster_DashboardModule_declarations</title>
<polygon fill="none" stroke="black" points="16,-40.8 16,-92.8 136,-92.8 136,-40.8 16,-40.8"/>
</g>
<!-- DashboardPage -->
<g id="node1" class="node">
<title>DashboardPage</title>
<polygon fill="#ffffb3" stroke="black" points="127.86,-84.8 24.14,-84.8 24.14,-48.8 127.86,-48.8 127.86,-84.8"/>
<text text-anchor="middle" x="76" y="-62.6" font-family="Times,serif" font-size="14.00">DashboardPage</text>
</g>
<!-- DashboardModule -->
<g id="node2" class="node">
<title>DashboardModule</title>
<polygon fill="#8dd3c7" stroke="black" points="211.2,-149.8 208.2,-153.8 187.2,-153.8 184.2,-149.8 90.8,-149.8 90.8,-113.8 211.2,-113.8 211.2,-149.8"/>
<text text-anchor="middle" x="151" y="-127.6" font-family="Times,serif" font-size="14.00">DashboardModule</text>
</g>
<!-- DashboardPage&#45;&gt;DashboardModule -->
<g id="edge1" class="edge">
<title>DashboardPage&#45;&gt;DashboardModule</title>
<path fill="none" stroke="black" d="M109.42,-84.91C109.42,-84.91 109.42,-103.79 109.42,-103.79"/>
<polygon fill="black" stroke="black" points="105.92,-103.79 109.42,-113.79 112.92,-103.79 105.92,-103.79"/>
</g>
<!-- DashboardPageModule -->
<g id="node3" class="node">
<title>DashboardPageModule</title>
<polygon fill="#8dd3c7" stroke="black" points="299.91,-84.8 296.91,-88.8 275.91,-88.8 272.91,-84.8 152.09,-84.8 152.09,-48.8 299.91,-48.8 299.91,-84.8"/>
<text text-anchor="middle" x="226" y="-62.6" font-family="Times,serif" font-size="14.00">DashboardPageModule</text>
</g>
<!-- DashboardPageModule&#45;&gt;DashboardModule -->
<g id="edge2" class="edge">
<title>DashboardPageModule&#45;&gt;DashboardModule</title>
<path fill="none" stroke="black" d="M181.7,-84.91C181.7,-84.91 181.7,-103.79 181.7,-103.79"/>
<polygon fill="black" stroke="black" points="178.2,-103.79 181.7,-113.79 185.2,-103.79 178.2,-103.79"/>
</g>
</g>
</svg>
