<?xml version="1.0" encoding="UTF-8" standalone="no"?>
<!DOCTYPE svg PUBLIC "-//W3C//DTD SVG 1.1//EN"
 "http://www.w3.org/Graphics/SVG/1.1/DTD/svg11.dtd">
<!-- Generated by graphviz version 3.0.0 (20220226.1711)
 -->
<!-- Title: dependencies Pages: 1 -->
<svg width="4842pt" height="247pt"
 viewBox="0.00 0.00 4842.00 246.80" xmlns="http://www.w3.org/2000/svg" xmlns:xlink="http://www.w3.org/1999/xlink">
<g id="graph0" class="graph" transform="scale(1 1) rotate(0) translate(4 242.8)">
<title>dependencies</title>
<polygon fill="white" stroke="transparent" points="-4,4 -4,-242.8 4838,-242.8 4838,4 -4,4"/>
<text text-anchor="middle" x="2417" y="-8.2" font-family="sans-serif" font-size="14.00">dependencies</text>
<g id="clust1" class="cluster">
<title>cluster_PipesModule</title>
<polygon fill="none" stroke="black" stroke-dasharray="1,5" points="8,-32.8 8,-230.8 4826,-230.8 4826,-32.8 8,-32.8"/>
</g>
<g id="clust2" class="cluster">
<title>cluster_PipesModule_declarations</title>
<polygon fill="none" stroke="black" points="64,-40.8 64,-92.8 4771,-92.8 4771,-40.8 64,-40.8"/>
</g>
<g id="clust31" class="cluster">
<title>cluster_PipesModule_exports</title>
<polygon fill="none" stroke="black" points="16,-170.8 16,-222.8 4818,-222.8 4818,-170.8 16,-170.8"/>
</g>
<!-- CoveragePreviewComponent -->
<g id="node1" class="node">
<title>CoveragePreviewComponent</title>
<polygon fill="#ffffb3" stroke="black" points="4763.35,-84.8 4582.65,-84.8 4582.65,-48.8 4763.35,-48.8 4763.35,-84.8"/>
<text text-anchor="middle" x="4673" y="-62.6" font-family="Times,serif" font-size="14.00">CoveragePreviewComponent</text>
</g>
<!-- PipesModule -->
<g id="node28" class="node">
<title>PipesModule</title>
<polygon fill="#8dd3c7" stroke="black" points="2460.89,-149.8 2457.89,-153.8 2436.89,-153.8 2433.89,-149.8 2371.11,-149.8 2371.11,-113.8 2460.89,-113.8 2460.89,-149.8"/>
<text text-anchor="middle" x="2416" y="-127.6" font-family="Times,serif" font-size="14.00">PipesModule</text>
</g>
<!-- CoveragePreviewComponent&#45;&gt;PipesModule -->
<g id="edge1" class="edge">
<title>CoveragePreviewComponent&#45;&gt;PipesModule</title>
<path fill="none" stroke="black" d="M4595.26,-84.91C4595.26,-104.14 4595.26,-131.8 4595.26,-131.8 4595.26,-131.8 2471.02,-131.8 2471.02,-131.8"/>
<polygon fill="black" stroke="black" points="2471.02,-128.3 2461.02,-131.8 2471.02,-135.3 2471.02,-128.3"/>
</g>
<!-- DateSelectBlueComponent -->
<g id="node2" class="node">
<title>DateSelectBlueComponent</title>
<polygon fill="#ffffb3" stroke="black" points="4564.41,-84.8 4395.59,-84.8 4395.59,-48.8 4564.41,-48.8 4564.41,-84.8"/>
<text text-anchor="middle" x="4480" y="-62.6" font-family="Times,serif" font-size="14.00">DateSelectBlueComponent</text>
</g>
<!-- DateSelectBlueComponent&#45;&gt;PipesModule -->
<g id="edge2" class="edge">
<title>DateSelectBlueComponent&#45;&gt;PipesModule</title>
<path fill="none" stroke="black" d="M4406.76,-85.02C4406.76,-103.63 4406.76,-129.8 4406.76,-129.8 4406.76,-129.8 2471.32,-129.8 2471.32,-129.8"/>
<polygon fill="black" stroke="black" points="2471.32,-126.3 2461.32,-129.8 2471.32,-133.3 2471.32,-126.3"/>
</g>
<!-- DateSelectComponent -->
<g id="node3" class="node">
<title>DateSelectComponent</title>
<polygon fill="#ffffb3" stroke="black" points="4377.97,-84.8 4236.03,-84.8 4236.03,-48.8 4377.97,-48.8 4377.97,-84.8"/>
<text text-anchor="middle" x="4307" y="-62.6" font-family="Times,serif" font-size="14.00">DateSelectComponent</text>
</g>
<!-- DateSelectComponent&#45;&gt;PipesModule -->
<g id="edge3" class="edge">
<title>DateSelectComponent&#45;&gt;PipesModule</title>
<path fill="none" stroke="black" d="M4245.04,-85.07C4245.04,-103.36 4245.04,-128.8 4245.04,-128.8 4245.04,-128.8 2471.21,-128.8 2471.21,-128.8"/>
<polygon fill="black" stroke="black" points="2471.21,-125.3 2461.21,-128.8 2471.21,-132.3 2471.21,-125.3"/>
</g>
<!-- DialWidgetComponent -->
<g id="node4" class="node">
<title>DialWidgetComponent</title>
<polygon fill="#ffffb3" stroke="black" points="4218.14,-84.8 4071.86,-84.8 4071.86,-48.8 4218.14,-48.8 4218.14,-84.8"/>
<text text-anchor="middle" x="4145" y="-62.6" font-family="Times,serif" font-size="14.00">DialWidgetComponent</text>
</g>
<!-- DialWidgetComponent&#45;&gt;PipesModule -->
<g id="edge4" class="edge">
<title>DialWidgetComponent&#45;&gt;PipesModule</title>
<path fill="none" stroke="black" d="M4078.74,-85.1C4078.74,-103.07 4078.74,-127.8 4078.74,-127.8 4078.74,-127.8 2470.9,-127.8 2470.9,-127.8"/>
<polygon fill="black" stroke="black" points="2470.9,-124.3 2460.9,-127.8 2470.9,-131.3 2470.9,-124.3"/>
</g>
<!-- DtesChartComponent -->
<g id="node5" class="node">
<title>DtesChartComponent</title>
<polygon fill="#ffffb3" stroke="black" points="4054.1,-84.8 3915.9,-84.8 3915.9,-48.8 4054.1,-48.8 4054.1,-84.8"/>
<text text-anchor="middle" x="3985" y="-62.6" font-family="Times,serif" font-size="14.00">DtesChartComponent</text>
</g>
<!-- DtesChartComponent&#45;&gt;PipesModule -->
<g id="edge5" class="edge">
<title>DtesChartComponent&#45;&gt;PipesModule</title>
<path fill="none" stroke="black" d="M3921.32,-84.82C3921.32,-102.17 3921.32,-125.8 3921.32,-125.8 3921.32,-125.8 2471.05,-125.8 2471.05,-125.8"/>
<polygon fill="black" stroke="black" points="2471.05,-122.3 2461.05,-125.8 2471.05,-129.3 2471.05,-122.3"/>
</g>
<!-- EtpChartComponent -->
<g id="node6" class="node">
<title>EtpChartComponent</title>
<polygon fill="#ffffb3" stroke="black" points="3897.88,-84.8 3766.12,-84.8 3766.12,-48.8 3897.88,-48.8 3897.88,-84.8"/>
<text text-anchor="middle" x="3832" y="-62.6" font-family="Times,serif" font-size="14.00">EtpChartComponent</text>
</g>
<!-- EtpChartComponent&#45;&gt;PipesModule -->
<g id="edge6" class="edge">
<title>EtpChartComponent&#45;&gt;PipesModule</title>
<path fill="none" stroke="black" d="M3769.57,-84.83C3769.57,-101.86 3769.57,-124.8 3769.57,-124.8 3769.57,-124.8 2471.04,-124.8 2471.04,-124.8"/>
<polygon fill="black" stroke="black" points="2471.04,-121.3 2461.04,-124.8 2471.04,-128.3 2471.04,-121.3"/>
</g>
<!-- EtpPreviewComponent -->
<g id="node7" class="node">
<title>EtpPreviewComponent</title>
<polygon fill="#ffffb3" stroke="black" points="3748.15,-84.8 3601.85,-84.8 3601.85,-48.8 3748.15,-48.8 3748.15,-84.8"/>
<text text-anchor="middle" x="3675" y="-62.6" font-family="Times,serif" font-size="14.00">EtpPreviewComponent</text>
</g>
<!-- EtpPreviewComponent&#45;&gt;PipesModule -->
<g id="edge7" class="edge">
<title>EtpPreviewComponent&#45;&gt;PipesModule</title>
<path fill="none" stroke="black" d="M3613.97,-84.84C3613.97,-101.53 3613.97,-123.8 3613.97,-123.8 3613.97,-123.8 2471.14,-123.8 2471.14,-123.8"/>
<polygon fill="black" stroke="black" points="2471.14,-120.3 2461.14,-123.8 2471.14,-127.3 2471.14,-120.3"/>
</g>
<!-- FiguresWidgetComponent -->
<g id="node8" class="node">
<title>FiguresWidgetComponent</title>
<polygon fill="#ffffb3" stroke="black" points="3583.04,-84.8 3418.96,-84.8 3418.96,-48.8 3583.04,-48.8 3583.04,-84.8"/>
<text text-anchor="middle" x="3501" y="-62.6" font-family="Times,serif" font-size="14.00">FiguresWidgetComponent</text>
</g>
<!-- FiguresWidgetComponent&#45;&gt;PipesModule -->
<g id="edge8" class="edge">
<title>FiguresWidgetComponent&#45;&gt;PipesModule</title>
<path fill="none" stroke="black" d="M3428.08,-84.81C3428.08,-100.85 3428.08,-121.8 3428.08,-121.8 3428.08,-121.8 2471.12,-121.8 2471.12,-121.8"/>
<polygon fill="black" stroke="black" points="2471.12,-118.3 2461.12,-121.8 2471.12,-125.3 2471.12,-118.3"/>
</g>
<!-- FooterNoConnectedComponent -->
<g id="node9" class="node">
<title>FooterNoConnectedComponent</title>
<polygon fill="#ffffb3" stroke="black" points="3400.36,-84.8 3205.64,-84.8 3205.64,-48.8 3400.36,-48.8 3400.36,-84.8"/>
<text text-anchor="middle" x="3303" y="-62.6" font-family="Times,serif" font-size="14.00">FooterNoConnectedComponent</text>
</g>
<!-- FooterNoConnectedComponent&#45;&gt;PipesModule -->
<g id="edge9" class="edge">
<title>FooterNoConnectedComponent&#45;&gt;PipesModule</title>
<path fill="none" stroke="black" d="M3213.19,-85.08C3213.19,-100.75 3213.19,-120.8 3213.19,-120.8 3213.19,-120.8 2471.14,-120.8 2471.14,-120.8"/>
<polygon fill="black" stroke="black" points="2471.14,-117.3 2461.14,-120.8 2471.14,-124.3 2471.14,-117.3"/>
</g>
<!-- InOutChartComponent -->
<g id="node10" class="node">
<title>InOutChartComponent</title>
<polygon fill="#ffffb3" stroke="black" points="3187.6,-84.8 3042.4,-84.8 3042.4,-48.8 3187.6,-48.8 3187.6,-84.8"/>
<text text-anchor="middle" x="3115" y="-62.6" font-family="Times,serif" font-size="14.00">InOutChartComponent</text>
</g>
<!-- InOutChartComponent&#45;&gt;PipesModule -->
<g id="edge10" class="edge">
<title>InOutChartComponent&#45;&gt;PipesModule</title>
<path fill="none" stroke="black" d="M3048.58,-85.04C3048.58,-100.37 3048.58,-119.8 3048.58,-119.8 3048.58,-119.8 2470.99,-119.8 2470.99,-119.8"/>
<polygon fill="black" stroke="black" points="2470.99,-116.3 2460.99,-119.8 2470.99,-123.3 2470.99,-116.3"/>
</g>
<!-- InputButtonComponent -->
<g id="node11" class="node">
<title>InputButtonComponent</title>
<polygon fill="#ffffb3" stroke="black" points="3024.5,-84.8 2875.5,-84.8 2875.5,-48.8 3024.5,-48.8 3024.5,-84.8"/>
<text text-anchor="middle" x="2950" y="-62.6" font-family="Times,serif" font-size="14.00">InputButtonComponent</text>
</g>
<!-- InputButtonComponent&#45;&gt;PipesModule -->
<g id="edge11" class="edge">
<title>InputButtonComponent&#45;&gt;PipesModule</title>
<path fill="none" stroke="black" d="M2879.62,-84.92C2879.62,-99.58 2879.62,-117.8 2879.62,-117.8 2879.62,-117.8 2471.3,-117.8 2471.3,-117.8"/>
<polygon fill="black" stroke="black" points="2471.3,-114.3 2461.3,-117.8 2471.3,-121.3 2471.3,-114.3"/>
</g>
<!-- InputPercentageComponent -->
<g id="node12" class="node">
<title>InputPercentageComponent</title>
<polygon fill="#ffffb3" stroke="black" points="2857.29,-84.8 2684.71,-84.8 2684.71,-48.8 2857.29,-48.8 2857.29,-84.8"/>
<text text-anchor="middle" x="2771" y="-62.6" font-family="Times,serif" font-size="14.00">InputPercentageComponent</text>
</g>
<!-- InputPercentageComponent&#45;&gt;PipesModule -->
<g id="edge12" class="edge">
<title>InputPercentageComponent&#45;&gt;PipesModule</title>
<path fill="none" stroke="black" d="M2801.47,-84.85C2801.47,-99.17 2801.47,-116.8 2801.47,-116.8 2801.47,-116.8 2470.97,-116.8 2470.97,-116.8"/>
<polygon fill="black" stroke="black" points="2470.97,-113.3 2460.97,-116.8 2470.97,-120.3 2470.97,-113.3"/>
</g>
<!-- LegendLabelComponent -->
<g id="node13" class="node">
<title>LegendLabelComponent</title>
<polygon fill="#ffffb3" stroke="black" points="2666.68,-84.8 2511.32,-84.8 2511.32,-48.8 2666.68,-48.8 2666.68,-84.8"/>
<text text-anchor="middle" x="2589" y="-62.6" font-family="Times,serif" font-size="14.00">LegendLabelComponent</text>
</g>
<!-- LegendLabelComponent&#45;&gt;PipesModule -->
<g id="edge13" class="edge">
<title>LegendLabelComponent&#45;&gt;PipesModule</title>
<path fill="none" stroke="black" d="M2615.61,-85.05C2615.61,-98.98 2615.61,-115.8 2615.61,-115.8 2615.61,-115.8 2471.3,-115.8 2471.3,-115.8"/>
<polygon fill="black" stroke="black" points="2471.3,-112.3 2461.3,-115.8 2471.3,-119.3 2471.3,-112.3"/>
</g>
<!-- ListSelectionComponent -->
<g id="node14" class="node">
<title>ListSelectionComponent</title>
<polygon fill="#ffffb3" stroke="black" points="2493.71,-84.8 2338.29,-84.8 2338.29,-48.8 2493.71,-48.8 2493.71,-84.8"/>
<text text-anchor="middle" x="2416" y="-62.6" font-family="Times,serif" font-size="14.00">ListSelectionComponent</text>
</g>
<!-- ListSelectionComponent&#45;&gt;PipesModule -->
<g id="edge14" class="edge">
<title>ListSelectionComponent&#45;&gt;PipesModule</title>
<path fill="none" stroke="black" d="M2416,-84.91C2416,-84.91 2416,-103.79 2416,-103.79"/>
<polygon fill="black" stroke="black" points="2412.5,-103.79 2416,-113.79 2419.5,-103.79 2412.5,-103.79"/>
</g>
<!-- LoadersWidgetComponent -->
<g id="node15" class="node">
<title>LoadersWidgetComponent</title>
<polygon fill="#ffffb3" stroke="black" points="2320.63,-84.8 2153.37,-84.8 2153.37,-48.8 2320.63,-48.8 2320.63,-84.8"/>
<text text-anchor="middle" x="2237" y="-62.6" font-family="Times,serif" font-size="14.00">LoadersWidgetComponent</text>
</g>
<!-- LoadersWidgetComponent&#45;&gt;PipesModule -->
<g id="edge15" class="edge">
<title>LoadersWidgetComponent&#45;&gt;PipesModule</title>
<path fill="none" stroke="black" d="M2263.44,-85.05C2263.44,-98.98 2263.44,-115.8 2263.44,-115.8 2263.44,-115.8 2361.05,-115.8 2361.05,-115.8"/>
<polygon fill="black" stroke="black" points="2361.05,-119.3 2371.05,-115.8 2361.05,-112.3 2361.05,-119.3"/>
</g>
<!-- OptionsBackupPanelComponent -->
<g id="node16" class="node">
<title>OptionsBackupPanelComponent</title>
<polygon fill="#ffffb3" stroke="black" points="2134.54,-84.8 1935.46,-84.8 1935.46,-48.8 2134.54,-48.8 2134.54,-84.8"/>
<text text-anchor="middle" x="2035" y="-62.6" font-family="Times,serif" font-size="14.00">OptionsBackupPanelComponent</text>
</g>
<!-- OptionsBackupPanelComponent&#45;&gt;PipesModule -->
<g id="edge16" class="edge">
<title>OptionsBackupPanelComponent&#45;&gt;PipesModule</title>
<path fill="none" stroke="black" d="M2064.76,-84.85C2064.76,-99.17 2064.76,-116.8 2064.76,-116.8 2064.76,-116.8 2360.8,-116.8 2360.8,-116.8"/>
<polygon fill="black" stroke="black" points="2360.8,-120.3 2370.8,-116.8 2360.8,-113.3 2360.8,-120.3"/>
</g>
<!-- PanelActivitiesComponent -->
<g id="node17" class="node">
<title>PanelActivitiesComponent</title>
<polygon fill="#ffffb3" stroke="black" points="1917.37,-84.8 1750.63,-84.8 1750.63,-48.8 1917.37,-48.8 1917.37,-84.8"/>
<text text-anchor="middle" x="1834" y="-62.6" font-family="Times,serif" font-size="14.00">PanelActivitiesComponent</text>
</g>
<!-- PanelActivitiesComponent&#45;&gt;PipesModule -->
<g id="edge17" class="edge">
<title>PanelActivitiesComponent&#45;&gt;PipesModule</title>
<path fill="none" stroke="black" d="M1912.81,-84.92C1912.81,-99.58 1912.81,-117.8 1912.81,-117.8 1912.81,-117.8 2360.9,-117.8 2360.9,-117.8"/>
<polygon fill="black" stroke="black" points="2360.9,-121.3 2370.9,-117.8 2360.9,-114.3 2360.9,-121.3"/>
</g>
<!-- PopupComponent -->
<g id="node18" class="node">
<title>PopupComponent</title>
<polygon fill="#ffffb3" stroke="black" points="1732.62,-84.8 1615.38,-84.8 1615.38,-48.8 1732.62,-48.8 1732.62,-84.8"/>
<text text-anchor="middle" x="1674" y="-62.6" font-family="Times,serif" font-size="14.00">PopupComponent</text>
</g>
<!-- PopupComponent&#45;&gt;PipesModule -->
<g id="edge18" class="edge">
<title>PopupComponent&#45;&gt;PipesModule</title>
<path fill="none" stroke="black" d="M1726.43,-85.04C1726.43,-100.37 1726.43,-119.8 1726.43,-119.8 1726.43,-119.8 2361.02,-119.8 2361.02,-119.8"/>
<polygon fill="black" stroke="black" points="2361.02,-123.3 2371.02,-119.8 2361.02,-116.3 2361.02,-123.3"/>
</g>
<!-- ProgressionBarComponent -->
<g id="node19" class="node">
<title>ProgressionBarComponent</title>
<polygon fill="#ffffb3" stroke="black" points="1597.66,-84.8 1430.34,-84.8 1430.34,-48.8 1597.66,-48.8 1597.66,-84.8"/>
<text text-anchor="middle" x="1514" y="-62.6" font-family="Times,serif" font-size="14.00">ProgressionBarComponent</text>
</g>
<!-- ProgressionBarComponent&#45;&gt;PipesModule -->
<g id="edge19" class="edge">
<title>ProgressionBarComponent&#45;&gt;PipesModule</title>
<path fill="none" stroke="black" d="M1589.7,-85.08C1589.7,-100.75 1589.7,-120.8 1589.7,-120.8 1589.7,-120.8 2360.99,-120.8 2360.99,-120.8"/>
<polygon fill="black" stroke="black" points="2360.99,-124.3 2370.99,-120.8 2360.99,-117.3 2360.99,-124.3"/>
</g>
<!-- RadioButtonComponent -->
<g id="node20" class="node">
<title>RadioButtonComponent</title>
<polygon fill="#ffffb3" stroke="black" points="1412.39,-84.8 1259.61,-84.8 1259.61,-48.8 1412.39,-48.8 1412.39,-84.8"/>
<text text-anchor="middle" x="1336" y="-62.6" font-family="Times,serif" font-size="14.00">RadioButtonComponent</text>
</g>
<!-- RadioButtonComponent&#45;&gt;PipesModule -->
<g id="edge20" class="edge">
<title>RadioButtonComponent&#45;&gt;PipesModule</title>
<path fill="none" stroke="black" d="M1401.31,-84.81C1401.31,-100.85 1401.31,-121.8 1401.31,-121.8 1401.31,-121.8 2361.09,-121.8 2361.09,-121.8"/>
<polygon fill="black" stroke="black" points="2361.09,-125.3 2371.09,-121.8 2361.09,-118.3 2361.09,-125.3"/>
</g>
<!-- SelectCheckAllComponent -->
<g id="node21" class="node">
<title>SelectCheckAllComponent</title>
<polygon fill="#ffffb3" stroke="black" points="1241.69,-84.8 1072.31,-84.8 1072.31,-48.8 1241.69,-48.8 1241.69,-84.8"/>
<text text-anchor="middle" x="1157" y="-62.6" font-family="Times,serif" font-size="14.00">SelectCheckAllComponent</text>
</g>
<!-- SelectCheckAllComponent&#45;&gt;PipesModule -->
<g id="edge21" class="edge">
<title>SelectCheckAllComponent&#45;&gt;PipesModule</title>
<path fill="none" stroke="black" d="M1226.58,-84.84C1226.58,-101.53 1226.58,-123.8 1226.58,-123.8 1226.58,-123.8 2360.83,-123.8 2360.83,-123.8"/>
<polygon fill="black" stroke="black" points="2360.83,-127.3 2370.83,-123.8 2360.83,-120.3 2360.83,-127.3"/>
</g>
<!-- SelectComponent -->
<g id="node22" class="node">
<title>SelectComponent</title>
<polygon fill="#ffffb3" stroke="black" points="1054.54,-84.8 939.46,-84.8 939.46,-48.8 1054.54,-48.8 1054.54,-84.8"/>
<text text-anchor="middle" x="997" y="-62.6" font-family="Times,serif" font-size="14.00">SelectComponent</text>
</g>
<!-- SelectComponent&#45;&gt;PipesModule -->
<g id="edge22" class="edge">
<title>SelectComponent&#45;&gt;PipesModule</title>
<path fill="none" stroke="black" d="M1049.71,-84.83C1049.71,-101.86 1049.71,-124.8 1049.71,-124.8 1049.71,-124.8 2360.93,-124.8 2360.93,-124.8"/>
<polygon fill="black" stroke="black" points="2360.93,-128.3 2370.93,-124.8 2360.93,-121.3 2360.93,-128.3"/>
</g>
<!-- SpeedometerComponent -->
<g id="node23" class="node">
<title>SpeedometerComponent</title>
<polygon fill="#ffffb3" stroke="black" points="921.41,-84.8 766.59,-84.8 766.59,-48.8 921.41,-48.8 921.41,-84.8"/>
<text text-anchor="middle" x="844" y="-62.6" font-family="Times,serif" font-size="14.00">SpeedometerComponent</text>
</g>
<!-- SpeedometerComponent&#45;&gt;PipesModule -->
<g id="edge23" class="edge">
<title>SpeedometerComponent&#45;&gt;PipesModule</title>
<path fill="none" stroke="black" d="M914.34,-84.82C914.34,-102.17 914.34,-125.8 914.34,-125.8 914.34,-125.8 2361.06,-125.8 2361.06,-125.8"/>
<polygon fill="black" stroke="black" points="2361.06,-129.3 2371.06,-125.8 2361.06,-122.3 2361.06,-129.3"/>
</g>
<!-- TimeSelectorComponent -->
<g id="node24" class="node">
<title>TimeSelectorComponent</title>
<polygon fill="#ffffb3" stroke="black" points="748.25,-84.8 591.75,-84.8 591.75,-48.8 748.25,-48.8 748.25,-84.8"/>
<text text-anchor="middle" x="670" y="-62.6" font-family="Times,serif" font-size="14.00">TimeSelectorComponent</text>
</g>
<!-- TimeSelectorComponent&#45;&gt;PipesModule -->
<g id="edge24" class="edge">
<title>TimeSelectorComponent&#45;&gt;PipesModule</title>
<path fill="none" stroke="black" d="M740.21,-85.1C740.21,-103.07 740.21,-127.8 740.21,-127.8 740.21,-127.8 2360.74,-127.8 2360.74,-127.8"/>
<polygon fill="black" stroke="black" points="2360.74,-131.3 2370.74,-127.8 2360.74,-124.3 2360.74,-131.3"/>
</g>
<!-- TooltipsComponent -->
<g id="node25" class="node">
<title>TooltipsComponent</title>
<polygon fill="#ffffb3" stroke="black" points="574,-84.8 446,-84.8 446,-48.8 574,-48.8 574,-84.8"/>
<text text-anchor="middle" x="510" y="-62.6" font-family="Times,serif" font-size="14.00">TooltipsComponent</text>
</g>
<!-- TooltipsComponent&#45;&gt;PipesModule -->
<g id="edge25" class="edge">
<title>TooltipsComponent&#45;&gt;PipesModule</title>
<path fill="none" stroke="black" d="M563.94,-85.07C563.94,-103.36 563.94,-128.8 563.94,-128.8 563.94,-128.8 2360.68,-128.8 2360.68,-128.8"/>
<polygon fill="black" stroke="black" points="2360.68,-132.3 2370.68,-128.8 2360.68,-125.3 2360.68,-132.3"/>
</g>
<!-- WrapperComponent -->
<g id="node26" class="node">
<title>WrapperComponent</title>
<polygon fill="#ffffb3" stroke="black" points="428.3,-84.8 297.7,-84.8 297.7,-48.8 428.3,-48.8 428.3,-84.8"/>
<text text-anchor="middle" x="363" y="-62.6" font-family="Times,serif" font-size="14.00">WrapperComponent</text>
</g>
<!-- WrapperComponent&#45;&gt;PipesModule -->
<g id="edge26" class="edge">
<title>WrapperComponent&#45;&gt;PipesModule</title>
<path fill="none" stroke="black" d="M416.2,-85.02C416.2,-103.63 416.2,-129.8 416.2,-129.8 416.2,-129.8 2360.95,-129.8 2360.95,-129.8"/>
<polygon fill="black" stroke="black" points="2360.95,-133.3 2370.95,-129.8 2360.95,-126.3 2360.95,-133.3"/>
</g>
<!-- WrapperNoConnectedComponent -->
<g id="node27" class="node">
<title>WrapperNoConnectedComponent</title>
<polygon fill="#ffffb3" stroke="black" points="279.78,-84.8 72.22,-84.8 72.22,-48.8 279.78,-48.8 279.78,-84.8"/>
<text text-anchor="middle" x="176" y="-62.6" font-family="Times,serif" font-size="14.00">WrapperNoConnectedComponent</text>
</g>
<!-- WrapperNoConnectedComponent&#45;&gt;PipesModule -->
<g id="edge27" class="edge">
<title>WrapperNoConnectedComponent&#45;&gt;PipesModule</title>
<path fill="none" stroke="black" d="M265.87,-84.91C265.87,-104.14 265.87,-131.8 265.87,-131.8 265.87,-131.8 2361.09,-131.8 2361.09,-131.8"/>
<polygon fill="black" stroke="black" points="2361.09,-135.3 2371.09,-131.8 2361.09,-128.3 2361.09,-135.3"/>
</g>
<!-- CoveragePreviewComponent  -->
<g id="node29" class="node">
<title>CoveragePreviewComponent </title>
<polygon fill="#fb8072" stroke="black" points="4810.35,-214.8 4625.65,-214.8 4625.65,-178.8 4810.35,-178.8 4810.35,-214.8"/>
<text text-anchor="middle" x="4718" y="-192.6" font-family="Times,serif" font-size="14.00">CoveragePreviewComponent </text>
</g>
<!-- PipesModule&#45;&gt;CoveragePreviewComponent  -->
<g id="edge28" class="edge">
<title>PipesModule&#45;&gt;CoveragePreviewComponent </title>
<path fill="none" stroke="black" stroke-dasharray="5,2" d="M2461,-132.8C2780.63,-132.8 4694.62,-132.8 4694.62,-132.8 4694.62,-132.8 4694.62,-168.63 4694.62,-168.63"/>
<polygon fill="black" stroke="black" points="4691.13,-168.63 4694.62,-178.63 4698.13,-168.63 4691.13,-168.63"/>
</g>
<!-- DateSelectBlueComponent  -->
<g id="node30" class="node">
<title>DateSelectBlueComponent </title>
<polygon fill="#fb8072" stroke="black" points="4607.91,-214.8 4436.09,-214.8 4436.09,-178.8 4607.91,-178.8 4607.91,-214.8"/>
<text text-anchor="middle" x="4522" y="-192.6" font-family="Times,serif" font-size="14.00">DateSelectBlueComponent </text>
</g>
<!-- PipesModule&#45;&gt;DateSelectBlueComponent  -->
<g id="edge29" class="edge">
<title>PipesModule&#45;&gt;DateSelectBlueComponent </title>
<path fill="none" stroke="black" stroke-dasharray="5,2" d="M2460.98,-133.8C2764.39,-133.8 4500.12,-133.8 4500.12,-133.8 4500.12,-133.8 4500.12,-168.58 4500.12,-168.58"/>
<polygon fill="black" stroke="black" points="4496.63,-168.58 4500.12,-178.58 4503.63,-168.58 4496.63,-168.58"/>
</g>
<!-- DateSelectComponent  -->
<g id="node31" class="node">
<title>DateSelectComponent </title>
<polygon fill="#fb8072" stroke="black" points="4417.97,-214.8 4272.03,-214.8 4272.03,-178.8 4417.97,-178.8 4417.97,-214.8"/>
<text text-anchor="middle" x="4345" y="-192.6" font-family="Times,serif" font-size="14.00">DateSelectComponent </text>
</g>
<!-- PipesModule&#45;&gt;DateSelectComponent  -->
<g id="edge30" class="edge">
<title>PipesModule&#45;&gt;DateSelectComponent </title>
<path fill="none" stroke="black" stroke-dasharray="5,2" d="M2461.31,-135.8C2750.42,-135.8 4325.12,-135.8 4325.12,-135.8 4325.12,-135.8 4325.12,-168.5 4325.12,-168.5"/>
<polygon fill="black" stroke="black" points="4321.63,-168.5 4325.12,-178.5 4328.63,-168.5 4321.63,-168.5"/>
</g>
<!-- DialWidgetComponent  -->
<g id="node32" class="node">
<title>DialWidgetComponent </title>
<polygon fill="#fb8072" stroke="black" points="4254.14,-214.8 4103.86,-214.8 4103.86,-178.8 4254.14,-178.8 4254.14,-214.8"/>
<text text-anchor="middle" x="4179" y="-192.6" font-family="Times,serif" font-size="14.00">DialWidgetComponent </text>
</g>
<!-- PipesModule&#45;&gt;DialWidgetComponent  -->
<g id="edge31" class="edge">
<title>PipesModule&#45;&gt;DialWidgetComponent </title>
<path fill="none" stroke="black" stroke-dasharray="5,2" d="M2460.89,-136.8C2734.04,-136.8 4161.12,-136.8 4161.12,-136.8 4161.12,-136.8 4161.12,-168.8 4161.12,-168.8"/>
<polygon fill="black" stroke="black" points="4157.63,-168.8 4161.12,-178.8 4164.63,-168.8 4157.63,-168.8"/>
</g>
<!-- DtesChartComponent  -->
<g id="node33" class="node">
<title>DtesChartComponent </title>
<polygon fill="#fb8072" stroke="black" points="4085.6,-214.8 3944.4,-214.8 3944.4,-178.8 4085.6,-178.8 4085.6,-214.8"/>
<text text-anchor="middle" x="4015" y="-192.6" font-family="Times,serif" font-size="14.00">DtesChartComponent </text>
</g>
<!-- PipesModule&#45;&gt;DtesChartComponent  -->
<g id="edge32" class="edge">
<title>PipesModule&#45;&gt;DtesChartComponent </title>
<path fill="none" stroke="black" stroke-dasharray="5,2" d="M2461.25,-137.8C2719.85,-137.8 3999.12,-137.8 3999.12,-137.8 3999.12,-137.8 3999.12,-168.78 3999.12,-168.78"/>
<polygon fill="black" stroke="black" points="3995.63,-168.78 3999.12,-178.78 4002.63,-168.78 3995.63,-168.78"/>
</g>
<!-- EtpChartComponent  -->
<g id="node34" class="node">
<title>EtpChartComponent </title>
<polygon fill="#fb8072" stroke="black" points="3926.88,-214.8 3791.12,-214.8 3791.12,-178.8 3926.88,-178.8 3926.88,-214.8"/>
<text text-anchor="middle" x="3859" y="-192.6" font-family="Times,serif" font-size="14.00">EtpChartComponent </text>
</g>
<!-- PipesModule&#45;&gt;EtpChartComponent  -->
<g id="edge33" class="edge">
<title>PipesModule&#45;&gt;EtpChartComponent </title>
<path fill="none" stroke="black" stroke-dasharray="5,2" d="M2461.12,-139.8C2703.95,-139.8 3844.62,-139.8 3844.62,-139.8 3844.62,-139.8 3844.62,-168.76 3844.62,-168.76"/>
<polygon fill="black" stroke="black" points="3841.13,-168.76 3844.62,-178.76 3848.13,-168.76 3841.13,-168.76"/>
</g>
<!-- EtpPreviewComponent  -->
<g id="node35" class="node">
<title>EtpPreviewComponent </title>
<polygon fill="#fb8072" stroke="black" points="3773.15,-214.8 3622.85,-214.8 3622.85,-178.8 3773.15,-178.8 3773.15,-214.8"/>
<text text-anchor="middle" x="3698" y="-192.6" font-family="Times,serif" font-size="14.00">EtpPreviewComponent </text>
</g>
<!-- PipesModule&#45;&gt;EtpPreviewComponent  -->
<g id="edge34" class="edge">
<title>PipesModule&#45;&gt;EtpPreviewComponent </title>
<path fill="none" stroke="black" stroke-dasharray="5,2" d="M2461.19,-140.8C2687.36,-140.8 3685.62,-140.8 3685.62,-140.8 3685.62,-140.8 3685.62,-168.77 3685.62,-168.77"/>
<polygon fill="black" stroke="black" points="3682.13,-168.77 3685.62,-178.77 3689.13,-168.77 3682.13,-168.77"/>
</g>
<!-- FiguresWidgetComponent  -->
<g id="node36" class="node">
<title>FiguresWidgetComponent </title>
<polygon fill="#fb8072" stroke="black" points="3605.04,-214.8 3436.96,-214.8 3436.96,-178.8 3605.04,-178.8 3605.04,-214.8"/>
<text text-anchor="middle" x="3521" y="-192.6" font-family="Times,serif" font-size="14.00">FiguresWidgetComponent </text>
</g>
<!-- PipesModule&#45;&gt;FiguresWidgetComponent  -->
<g id="edge35" class="edge">
<title>PipesModule&#45;&gt;FiguresWidgetComponent </title>
<path fill="none" stroke="black" stroke-dasharray="5,2" d="M2460.93,-141.8C2666.82,-141.8 3510.12,-141.8 3510.12,-141.8 3510.12,-141.8 3510.12,-168.79 3510.12,-168.79"/>
<polygon fill="black" stroke="black" points="3506.63,-168.79 3510.12,-178.79 3513.63,-168.79 3506.63,-168.79"/>
</g>
<!-- FooterNoConnectedComponent  -->
<g id="node37" class="node">
<title>FooterNoConnectedComponent </title>
<polygon fill="#fb8072" stroke="black" points="3419.36,-214.8 3220.64,-214.8 3220.64,-178.8 3419.36,-178.8 3419.36,-214.8"/>
<text text-anchor="middle" x="3320" y="-192.6" font-family="Times,serif" font-size="14.00">FooterNoConnectedComponent </text>
</g>
<!-- PipesModule&#45;&gt;FooterNoConnectedComponent  -->
<g id="edge36" class="edge">
<title>PipesModule&#45;&gt;FooterNoConnectedComponent </title>
<path fill="none" stroke="black" stroke-dasharray="5,2" d="M2460.98,-143.8C2642.39,-143.8 3310.62,-143.8 3310.62,-143.8 3310.62,-143.8 3310.62,-168.56 3310.62,-168.56"/>
<polygon fill="black" stroke="black" points="3307.13,-168.56 3310.62,-178.56 3314.13,-168.56 3307.13,-168.56"/>
</g>
<!-- InOutChartComponent  -->
<g id="node38" class="node">
<title>InOutChartComponent </title>
<polygon fill="#fb8072" stroke="black" points="3203.1,-214.8 3054.9,-214.8 3054.9,-178.8 3203.1,-178.8 3203.1,-214.8"/>
<text text-anchor="middle" x="3129" y="-192.6" font-family="Times,serif" font-size="14.00">InOutChartComponent </text>
</g>
<!-- PipesModule&#45;&gt;InOutChartComponent  -->
<g id="edge37" class="edge">
<title>PipesModule&#45;&gt;InOutChartComponent </title>
<path fill="none" stroke="black" stroke-dasharray="5,2" d="M2460.91,-144.8C2616.23,-144.8 3121.12,-144.8 3121.12,-144.8 3121.12,-144.8 3121.12,-168.61 3121.12,-168.61"/>
<polygon fill="black" stroke="black" points="3117.63,-168.61 3121.12,-178.61 3124.63,-168.61 3117.63,-168.61"/>
</g>
<!-- InputButtonComponent  -->
<g id="node39" class="node">
<title>InputButtonComponent </title>
<polygon fill="#fb8072" stroke="black" points="3036,-214.8 2884,-214.8 2884,-178.8 3036,-178.8 3036,-214.8"/>
<text text-anchor="middle" x="2960" y="-192.6" font-family="Times,serif" font-size="14.00">InputButtonComponent </text>
</g>
<!-- PipesModule&#45;&gt;InputButtonComponent  -->
<g id="edge38" class="edge">
<title>PipesModule&#45;&gt;InputButtonComponent </title>
<path fill="none" stroke="black" stroke-dasharray="5,2" d="M2460.95,-145.8C2590.29,-145.8 2954.12,-145.8 2954.12,-145.8 2954.12,-145.8 2954.12,-168.68 2954.12,-168.68"/>
<polygon fill="black" stroke="black" points="2950.63,-168.68 2954.12,-178.68 2957.63,-168.68 2950.63,-168.68"/>
</g>
<!-- InputPercentageComponent  -->
<g id="node40" class="node">
<title>InputPercentageComponent </title>
<polygon fill="#fb8072" stroke="black" points="2865.79,-214.8 2690.21,-214.8 2690.21,-178.8 2865.79,-178.8 2865.79,-214.8"/>
<text text-anchor="middle" x="2778" y="-192.6" font-family="Times,serif" font-size="14.00">InputPercentageComponent </text>
</g>
<!-- PipesModule&#45;&gt;InputPercentageComponent  -->
<g id="edge39" class="edge">
<title>PipesModule&#45;&gt;InputPercentageComponent </title>
<path fill="none" stroke="black" stroke-dasharray="5,2" d="M2461.16,-147.8C2551.48,-147.8 2745.78,-147.8 2745.78,-147.8 2745.78,-147.8 2745.78,-168.55 2745.78,-168.55"/>
<polygon fill="black" stroke="black" points="2742.29,-168.55 2745.78,-178.55 2749.29,-168.55 2742.29,-168.55"/>
</g>
<!-- LegendLabelComponent  -->
<g id="node41" class="node">
<title>LegendLabelComponent </title>
<polygon fill="#fb8072" stroke="black" points="2672.18,-214.8 2513.82,-214.8 2513.82,-178.8 2672.18,-178.8 2672.18,-214.8"/>
<text text-anchor="middle" x="2593" y="-192.6" font-family="Times,serif" font-size="14.00">LegendLabelComponent </text>
</g>
<!-- PipesModule&#45;&gt;LegendLabelComponent  -->
<g id="edge40" class="edge">
<title>PipesModule&#45;&gt;LegendLabelComponent </title>
<path fill="none" stroke="black" stroke-dasharray="5,2" d="M2461,-148.8C2504.75,-148.8 2564.64,-148.8 2564.64,-148.8 2564.64,-148.8 2564.64,-168.65 2564.64,-168.65"/>
<polygon fill="black" stroke="black" points="2561.14,-168.65 2564.64,-178.65 2568.14,-168.65 2561.14,-168.65"/>
</g>
<!-- ListSelectionComponent  -->
<g id="node42" class="node">
<title>ListSelectionComponent </title>
<polygon fill="#fb8072" stroke="black" points="2495.21,-214.8 2336.79,-214.8 2336.79,-178.8 2495.21,-178.8 2495.21,-214.8"/>
<text text-anchor="middle" x="2416" y="-192.6" font-family="Times,serif" font-size="14.00">ListSelectionComponent </text>
</g>
<!-- PipesModule&#45;&gt;ListSelectionComponent  -->
<g id="edge41" class="edge">
<title>PipesModule&#45;&gt;ListSelectionComponent </title>
<path fill="none" stroke="black" stroke-dasharray="5,2" d="M2416,-149.91C2416,-149.91 2416,-168.79 2416,-168.79"/>
<polygon fill="black" stroke="black" points="2412.5,-168.79 2416,-178.79 2419.5,-168.79 2412.5,-168.79"/>
</g>
<!-- LoadersWidgetComponent  -->
<g id="node43" class="node">
<title>LoadersWidgetComponent </title>
<polygon fill="#fb8072" stroke="black" points="2318.63,-214.8 2147.37,-214.8 2147.37,-178.8 2318.63,-178.8 2318.63,-214.8"/>
<text text-anchor="middle" x="2233" y="-192.6" font-family="Times,serif" font-size="14.00">LoadersWidgetComponent </text>
</g>
<!-- PipesModule&#45;&gt;LoadersWidgetComponent  -->
<g id="edge42" class="edge">
<title>PipesModule&#45;&gt;LoadersWidgetComponent </title>
<path fill="none" stroke="black" stroke-dasharray="5,2" d="M2370.93,-148.8C2309.85,-148.8 2208.31,-148.8 2208.31,-148.8 2208.31,-148.8 2208.31,-168.65 2208.31,-168.65"/>
<polygon fill="black" stroke="black" points="2204.81,-168.65 2208.31,-178.65 2211.81,-168.65 2204.81,-168.65"/>
</g>
<!-- OptionsBackupPanelComponent  -->
<g id="node44" class="node">
<title>OptionsBackupPanelComponent </title>
<polygon fill="#fb8072" stroke="black" points="2129.54,-214.8 1926.46,-214.8 1926.46,-178.8 2129.54,-178.8 2129.54,-214.8"/>
<text text-anchor="middle" x="2028" y="-192.6" font-family="Times,serif" font-size="14.00">OptionsBackupPanelComponent </text>
</g>
<!-- PipesModule&#45;&gt;OptionsBackupPanelComponent  -->
<g id="edge43" class="edge">
<title>PipesModule&#45;&gt;OptionsBackupPanelComponent </title>
<path fill="none" stroke="black" stroke-dasharray="5,2" d="M2371.08,-147.8C2263.51,-147.8 1999.99,-147.8 1999.99,-147.8 1999.99,-147.8 1999.99,-168.55 1999.99,-168.55"/>
<polygon fill="black" stroke="black" points="1996.49,-168.55 1999.99,-178.55 2003.49,-168.55 1996.49,-168.55"/>
</g>
<!-- PanelActivitiesComponent  -->
<g id="node45" class="node">
<title>PanelActivitiesComponent </title>
<polygon fill="#fb8072" stroke="black" points="1908.37,-214.8 1737.63,-214.8 1737.63,-178.8 1908.37,-178.8 1908.37,-214.8"/>
<text text-anchor="middle" x="1823" y="-192.6" font-family="Times,serif" font-size="14.00">PanelActivitiesComponent </text>
</g>
<!-- PipesModule&#45;&gt;PanelActivitiesComponent  -->
<g id="edge44" class="edge">
<title>PipesModule&#45;&gt;PanelActivitiesComponent </title>
<path fill="none" stroke="black" stroke-dasharray="5,2" d="M2370.94,-145.8C2233.58,-145.8 1829.38,-145.8 1829.38,-145.8 1829.38,-145.8 1829.38,-168.68 1829.38,-168.68"/>
<polygon fill="black" stroke="black" points="1825.88,-168.68 1829.38,-178.68 1832.88,-168.68 1825.88,-168.68"/>
</g>
<!-- PopupComponent  -->
<g id="node46" class="node">
<title>PopupComponent </title>
<polygon fill="#fb8072" stroke="black" points="1720.12,-214.8 1599.88,-214.8 1599.88,-178.8 1720.12,-178.8 1720.12,-214.8"/>
<text text-anchor="middle" x="1660" y="-192.6" font-family="Times,serif" font-size="14.00">PopupComponent </text>
</g>
<!-- PipesModule&#45;&gt;PopupComponent  -->
<g id="edge45" class="edge">
<title>PipesModule&#45;&gt;PopupComponent </title>
<path fill="none" stroke="black" stroke-dasharray="5,2" d="M2370.89,-144.8C2209.14,-144.8 1667.88,-144.8 1667.88,-144.8 1667.88,-144.8 1667.88,-168.61 1667.88,-168.61"/>
<polygon fill="black" stroke="black" points="1664.38,-168.61 1667.88,-178.61 1671.38,-168.61 1664.38,-168.61"/>
</g>
<!-- ProgressionBarComponent  -->
<g id="node47" class="node">
<title>ProgressionBarComponent </title>
<polygon fill="#fb8072" stroke="black" points="1581.66,-214.8 1410.34,-214.8 1410.34,-178.8 1581.66,-178.8 1581.66,-214.8"/>
<text text-anchor="middle" x="1496" y="-192.6" font-family="Times,serif" font-size="14.00">ProgressionBarComponent </text>
</g>
<!-- PipesModule&#45;&gt;ProgressionBarComponent  -->
<g id="edge46" class="edge">
<title>PipesModule&#45;&gt;ProgressionBarComponent </title>
<path fill="none" stroke="black" stroke-dasharray="5,2" d="M2370.87,-143.8C2187.22,-143.8 1505.88,-143.8 1505.88,-143.8 1505.88,-143.8 1505.88,-168.56 1505.88,-168.56"/>
<polygon fill="black" stroke="black" points="1502.38,-168.56 1505.88,-178.56 1509.38,-168.56 1502.38,-168.56"/>
</g>
<!-- RadioButtonComponent  -->
<g id="node48" class="node">
<title>RadioButtonComponent </title>
<polygon fill="#fb8072" stroke="black" points="1392.39,-214.8 1235.61,-214.8 1235.61,-178.8 1392.39,-178.8 1392.39,-214.8"/>
<text text-anchor="middle" x="1314" y="-192.6" font-family="Times,serif" font-size="14.00">RadioButtonComponent </text>
</g>
<!-- PipesModule&#45;&gt;RadioButtonComponent  -->
<g id="edge47" class="edge">
<title>PipesModule&#45;&gt;RadioButtonComponent </title>
<path fill="none" stroke="black" stroke-dasharray="5,2" d="M2370.89,-141.8C2165.17,-141.8 1325.88,-141.8 1325.88,-141.8 1325.88,-141.8 1325.88,-168.79 1325.88,-168.79"/>
<polygon fill="black" stroke="black" points="1322.38,-168.79 1325.88,-178.79 1329.38,-168.79 1322.38,-168.79"/>
</g>
<!-- SelectCheckAllComponent  -->
<g id="node49" class="node">
<title>SelectCheckAllComponent </title>
<polygon fill="#fb8072" stroke="black" points="1217.19,-214.8 1044.81,-214.8 1044.81,-178.8 1217.19,-178.8 1217.19,-214.8"/>
<text text-anchor="middle" x="1131" y="-192.6" font-family="Times,serif" font-size="14.00">SelectCheckAllComponent </text>
</g>
<!-- PipesModule&#45;&gt;SelectCheckAllComponent  -->
<g id="edge48" class="edge">
<title>PipesModule&#45;&gt;SelectCheckAllComponent </title>
<path fill="none" stroke="black" stroke-dasharray="5,2" d="M2370.76,-140.8C2144.32,-140.8 1144.88,-140.8 1144.88,-140.8 1144.88,-140.8 1144.88,-168.77 1144.88,-168.77"/>
<polygon fill="black" stroke="black" points="1141.38,-168.77 1144.88,-178.77 1148.38,-168.77 1141.38,-168.77"/>
</g>
<!-- SelectComponent  -->
<g id="node50" class="node">
<title>SelectComponent </title>
<polygon fill="#fb8072" stroke="black" points="1026.54,-214.8 907.46,-214.8 907.46,-178.8 1026.54,-178.8 1026.54,-214.8"/>
<text text-anchor="middle" x="967" y="-192.6" font-family="Times,serif" font-size="14.00">SelectComponent </text>
</g>
<!-- PipesModule&#45;&gt;SelectComponent  -->
<g id="edge49" class="edge">
<title>PipesModule&#45;&gt;SelectComponent </title>
<path fill="none" stroke="black" stroke-dasharray="5,2" d="M2370.74,-139.8C2127.14,-139.8 982.88,-139.8 982.88,-139.8 982.88,-139.8 982.88,-168.76 982.88,-168.76"/>
<polygon fill="black" stroke="black" points="979.38,-168.76 982.88,-178.76 986.38,-168.76 979.38,-168.76"/>
</g>
<!-- SpeedometerComponent  -->
<g id="node51" class="node">
<title>SpeedometerComponent </title>
<polygon fill="#fb8072" stroke="black" points="889.91,-214.8 732.09,-214.8 732.09,-178.8 889.91,-178.8 889.91,-214.8"/>
<text text-anchor="middle" x="811" y="-192.6" font-family="Times,serif" font-size="14.00">SpeedometerComponent </text>
</g>
<!-- PipesModule&#45;&gt;SpeedometerComponent  -->
<g id="edge50" class="edge">
<title>PipesModule&#45;&gt;SpeedometerComponent </title>
<path fill="none" stroke="black" stroke-dasharray="5,2" d="M2371.04,-137.8C2112.68,-137.8 828.38,-137.8 828.38,-137.8 828.38,-137.8 828.38,-168.78 828.38,-168.78"/>
<polygon fill="black" stroke="black" points="824.88,-168.78 828.38,-178.78 831.88,-168.78 824.88,-168.78"/>
</g>
<!-- TimeSelectorComponent  -->
<g id="node52" class="node">
<title>TimeSelectorComponent </title>
<polygon fill="#fb8072" stroke="black" points="714.25,-214.8 553.75,-214.8 553.75,-178.8 714.25,-178.8 714.25,-214.8"/>
<text text-anchor="middle" x="634" y="-192.6" font-family="Times,serif" font-size="14.00">TimeSelectorComponent </text>
</g>
<!-- PipesModule&#45;&gt;TimeSelectorComponent  -->
<g id="edge51" class="edge">
<title>PipesModule&#45;&gt;TimeSelectorComponent </title>
<path fill="none" stroke="black" stroke-dasharray="5,2" d="M2371.09,-136.8C2096.23,-136.8 652.88,-136.8 652.88,-136.8 652.88,-136.8 652.88,-168.8 652.88,-168.8"/>
<polygon fill="black" stroke="black" points="649.38,-168.8 652.88,-178.8 656.38,-168.8 649.38,-168.8"/>
</g>
<!-- TooltipsComponent  -->
<g id="node53" class="node">
<title>TooltipsComponent </title>
<polygon fill="#fb8072" stroke="black" points="535.5,-214.8 404.5,-214.8 404.5,-178.8 535.5,-178.8 535.5,-214.8"/>
<text text-anchor="middle" x="470" y="-192.6" font-family="Times,serif" font-size="14.00">TooltipsComponent </text>
</g>
<!-- PipesModule&#45;&gt;TooltipsComponent  -->
<g id="edge52" class="edge">
<title>PipesModule&#45;&gt;TooltipsComponent </title>
<path fill="none" stroke="black" stroke-dasharray="5,2" d="M2370.78,-135.8C2080.49,-135.8 490.88,-135.8 490.88,-135.8 490.88,-135.8 490.88,-168.5 490.88,-168.5"/>
<polygon fill="black" stroke="black" points="487.38,-168.5 490.88,-178.5 494.38,-168.5 487.38,-168.5"/>
</g>
<!-- WrapperComponent  -->
<g id="node54" class="node">
<title>WrapperComponent </title>
<polygon fill="#fb8072" stroke="black" points="385.8,-214.8 252.2,-214.8 252.2,-178.8 385.8,-178.8 385.8,-214.8"/>
<text text-anchor="middle" x="319" y="-192.6" font-family="Times,serif" font-size="14.00">WrapperComponent </text>
</g>
<!-- PipesModule&#45;&gt;WrapperComponent  -->
<g id="edge53" class="edge">
<title>PipesModule&#45;&gt;WrapperComponent </title>
<path fill="none" stroke="black" stroke-dasharray="5,2" d="M2370.75,-133.8C2067.43,-133.8 341.88,-133.8 341.88,-133.8 341.88,-133.8 341.88,-168.58 341.88,-168.58"/>
<polygon fill="black" stroke="black" points="338.38,-168.58 341.88,-178.58 345.38,-168.58 338.38,-168.58"/>
</g>
<!-- WrapperNoConnectedComponent  -->
<g id="node55" class="node">
<title>WrapperNoConnectedComponent </title>
<polygon fill="#fb8072" stroke="black" points="234.28,-214.8 23.72,-214.8 23.72,-178.8 234.28,-178.8 234.28,-214.8"/>
<text text-anchor="middle" x="129" y="-192.6" font-family="Times,serif" font-size="14.00">WrapperNoConnectedComponent </text>
</g>
<!-- PipesModule&#45;&gt;WrapperNoConnectedComponent  -->
<g id="edge54" class="edge">
<title>PipesModule&#45;&gt;WrapperNoConnectedComponent </title>
<path fill="none" stroke="black" stroke-dasharray="5,2" d="M2371.06,-132.8C2052.92,-132.8 153.38,-132.8 153.38,-132.8 153.38,-132.8 153.38,-168.63 153.38,-168.63"/>
<polygon fill="black" stroke="black" points="149.88,-168.63 153.38,-178.63 156.88,-168.63 149.88,-168.63"/>
</g>
</g>
</svg>
