<?xml version="1.0" encoding="UTF-8" standalone="no"?>
<!DOCTYPE svg PUBLIC "-//W3C//DTD SVG 1.1//EN"
 "http://www.w3.org/Graphics/SVG/1.1/DTD/svg11.dtd">
<!-- Generated by graphviz version 3.0.0 (20220226.1711)
 -->
<!-- Title: dependencies Pages: 1 -->
<svg width="4621pt" height="247pt"
 viewBox="0.00 0.00 4621.00 246.80" xmlns="http://www.w3.org/2000/svg" xmlns:xlink="http://www.w3.org/1999/xlink">
<g id="graph0" class="graph" transform="scale(1 1) rotate(0) translate(4 242.8)">
<title>dependencies</title>
<polygon fill="white" stroke="transparent" points="-4,4 -4,-242.8 4617,-242.8 4617,4 -4,4"/>
<text text-anchor="middle" x="2306.5" y="-8.2" font-family="sans-serif" font-size="14.00">dependencies</text>
<g id="clust1" class="cluster">
<title>cluster_PipesModule</title>
<polygon fill="none" stroke="black" stroke-dasharray="1,5" points="8,-32.8 8,-230.8 4605,-230.8 4605,-32.8 8,-32.8"/>
</g>
<g id="clust30" class="cluster">
<title>cluster_PipesModule_exports</title>
<polygon fill="none" stroke="black" points="16,-170.8 16,-222.8 4597,-222.8 4597,-170.8 16,-170.8"/>
</g>
<g id="clust2" class="cluster">
<title>cluster_PipesModule_declarations</title>
<polygon fill="none" stroke="black" points="74,-40.8 74,-92.8 4562,-92.8 4562,-40.8 74,-40.8"/>
</g>
<!-- CoveragePreviewComponent -->
<g id="node1" class="node">
<title>CoveragePreviewComponent</title>
<polygon fill="#ffffb3" stroke="black" points="4554.35,-84.8 4373.65,-84.8 4373.65,-48.8 4554.35,-48.8 4554.35,-84.8"/>
<text text-anchor="middle" x="4464" y="-62.6" font-family="Times,serif" font-size="14.00">CoveragePreviewComponent</text>
</g>
<!-- PipesModule -->
<g id="node27" class="node">
<title>PipesModule</title>
<polygon fill="#8dd3c7" stroke="black" points="2307.89,-149.8 2304.89,-153.8 2283.89,-153.8 2280.89,-149.8 2218.11,-149.8 2218.11,-113.8 2307.89,-113.8 2307.89,-149.8"/>
<text text-anchor="middle" x="2263" y="-127.6" font-family="Times,serif" font-size="14.00">PipesModule</text>
</g>
<!-- CoveragePreviewComponent&#45;&gt;PipesModule -->
<g id="edge1" class="edge">
<title>CoveragePreviewComponent&#45;&gt;PipesModule</title>
<path fill="none" stroke="black" d="M4380.26,-84.91C4380.26,-104.14 4380.26,-131.8 4380.26,-131.8 4380.26,-131.8 2318.2,-131.8 2318.2,-131.8"/>
<polygon fill="black" stroke="black" points="2318.2,-128.3 2308.2,-131.8 2318.2,-135.3 2318.2,-128.3"/>
</g>
<!-- DateSelectBlueComponent -->
<g id="node2" class="node">
<title>DateSelectBlueComponent</title>
<polygon fill="#ffffb3" stroke="black" points="4355.41,-84.8 4186.59,-84.8 4186.59,-48.8 4355.41,-48.8 4355.41,-84.8"/>
<text text-anchor="middle" x="4271" y="-62.6" font-family="Times,serif" font-size="14.00">DateSelectBlueComponent</text>
</g>
<!-- DateSelectBlueComponent&#45;&gt;PipesModule -->
<g id="edge2" class="edge">
<title>DateSelectBlueComponent&#45;&gt;PipesModule</title>
<path fill="none" stroke="black" d="M4191.76,-85.02C4191.76,-103.63 4191.76,-129.8 4191.76,-129.8 4191.76,-129.8 2318.31,-129.8 2318.31,-129.8"/>
<polygon fill="black" stroke="black" points="2318.31,-126.3 2308.31,-129.8 2318.31,-133.3 2318.31,-126.3"/>
</g>
<!-- DateSelectComponent -->
<g id="node3" class="node">
<title>DateSelectComponent</title>
<polygon fill="#ffffb3" stroke="black" points="4168.97,-84.8 4027.03,-84.8 4027.03,-48.8 4168.97,-48.8 4168.97,-84.8"/>
<text text-anchor="middle" x="4098" y="-62.6" font-family="Times,serif" font-size="14.00">DateSelectComponent</text>
</g>
<!-- DateSelectComponent&#45;&gt;PipesModule -->
<g id="edge3" class="edge">
<title>DateSelectComponent&#45;&gt;PipesModule</title>
<path fill="none" stroke="black" d="M4042.17,-85.07C4042.17,-103.36 4042.17,-128.8 4042.17,-128.8 4042.17,-128.8 2318.32,-128.8 2318.32,-128.8"/>
<polygon fill="black" stroke="black" points="2318.32,-125.3 2308.32,-128.8 2318.32,-132.3 2318.32,-125.3"/>
</g>
<!-- DialWidgetComponent -->
<g id="node4" class="node">
<title>DialWidgetComponent</title>
<polygon fill="#ffffb3" stroke="black" points="4009.14,-84.8 3862.86,-84.8 3862.86,-48.8 4009.14,-48.8 4009.14,-84.8"/>
<text text-anchor="middle" x="3936" y="-62.6" font-family="Times,serif" font-size="14.00">DialWidgetComponent</text>
</g>
<!-- DialWidgetComponent&#45;&gt;PipesModule -->
<g id="edge4" class="edge">
<title>DialWidgetComponent&#45;&gt;PipesModule</title>
<path fill="none" stroke="black" d="M3873.86,-85.1C3873.86,-103.07 3873.86,-127.8 3873.86,-127.8 3873.86,-127.8 2318.19,-127.8 2318.19,-127.8"/>
<polygon fill="black" stroke="black" points="2318.19,-124.3 2308.19,-127.8 2318.19,-131.3 2318.19,-124.3"/>
</g>
<!-- DtesChartComponent -->
<g id="node5" class="node">
<title>DtesChartComponent</title>
<polygon fill="#ffffb3" stroke="black" points="3845.1,-84.8 3706.9,-84.8 3706.9,-48.8 3845.1,-48.8 3845.1,-84.8"/>
<text text-anchor="middle" x="3776" y="-62.6" font-family="Times,serif" font-size="14.00">DtesChartComponent</text>
</g>
<!-- DtesChartComponent&#45;&gt;PipesModule -->
<g id="edge5" class="edge">
<title>DtesChartComponent&#45;&gt;PipesModule</title>
<path fill="none" stroke="black" d="M3715.08,-84.82C3715.08,-102.17 3715.08,-125.8 3715.08,-125.8 3715.08,-125.8 2318.05,-125.8 2318.05,-125.8"/>
<polygon fill="black" stroke="black" points="2318.05,-122.3 2308.05,-125.8 2318.05,-129.3 2318.05,-122.3"/>
</g>
<!-- EtpChartComponent -->
<g id="node6" class="node">
<title>EtpChartComponent</title>
<polygon fill="#ffffb3" stroke="black" points="3688.88,-84.8 3557.12,-84.8 3557.12,-48.8 3688.88,-48.8 3688.88,-84.8"/>
<text text-anchor="middle" x="3623" y="-62.6" font-family="Times,serif" font-size="14.00">EtpChartComponent</text>
</g>
<!-- EtpChartComponent&#45;&gt;PipesModule -->
<g id="edge6" class="edge">
<title>EtpChartComponent&#45;&gt;PipesModule</title>
<path fill="none" stroke="black" d="M3563.69,-84.83C3563.69,-101.86 3563.69,-124.8 3563.69,-124.8 3563.69,-124.8 2318.15,-124.8 2318.15,-124.8"/>
<polygon fill="black" stroke="black" points="2318.15,-121.3 2308.15,-124.8 2318.15,-128.3 2318.15,-121.3"/>
</g>
<!-- EtpPreviewComponent -->
<g id="node7" class="node">
<title>EtpPreviewComponent</title>
<polygon fill="#ffffb3" stroke="black" points="3539.15,-84.8 3392.85,-84.8 3392.85,-48.8 3539.15,-48.8 3539.15,-84.8"/>
<text text-anchor="middle" x="3466" y="-62.6" font-family="Times,serif" font-size="14.00">EtpPreviewComponent</text>
</g>
<!-- EtpPreviewComponent&#45;&gt;PipesModule -->
<g id="edge7" class="edge">
<title>EtpPreviewComponent&#45;&gt;PipesModule</title>
<path fill="none" stroke="black" d="M3397.3,-84.84C3397.3,-101.53 3397.3,-123.8 3397.3,-123.8 3397.3,-123.8 2318.17,-123.8 2318.17,-123.8"/>
<polygon fill="black" stroke="black" points="2318.17,-120.3 2308.17,-123.8 2318.17,-127.3 2318.17,-120.3"/>
</g>
<!-- FiguresWidgetComponent -->
<g id="node8" class="node">
<title>FiguresWidgetComponent</title>
<polygon fill="#ffffb3" stroke="black" points="3374.04,-84.8 3209.96,-84.8 3209.96,-48.8 3374.04,-48.8 3374.04,-84.8"/>
<text text-anchor="middle" x="3292" y="-62.6" font-family="Times,serif" font-size="14.00">FiguresWidgetComponent</text>
</g>
<!-- FiguresWidgetComponent&#45;&gt;PipesModule -->
<g id="edge8" class="edge">
<title>FiguresWidgetComponent&#45;&gt;PipesModule</title>
<path fill="none" stroke="black" d="M3321.51,-84.81C3321.51,-100.85 3321.51,-121.8 3321.51,-121.8 3321.51,-121.8 2318.14,-121.8 2318.14,-121.8"/>
<polygon fill="black" stroke="black" points="2318.14,-118.3 2308.14,-121.8 2318.14,-125.3 2318.14,-118.3"/>
</g>
<!-- InOutChartComponent -->
<g id="node9" class="node">
<title>InOutChartComponent</title>
<polygon fill="#ffffb3" stroke="black" points="3191.6,-84.8 3046.4,-84.8 3046.4,-48.8 3191.6,-48.8 3191.6,-84.8"/>
<text text-anchor="middle" x="3119" y="-62.6" font-family="Times,serif" font-size="14.00">InOutChartComponent</text>
</g>
<!-- InOutChartComponent&#45;&gt;PipesModule -->
<g id="edge9" class="edge">
<title>InOutChartComponent&#45;&gt;PipesModule</title>
<path fill="none" stroke="black" d="M3144.27,-85.08C3144.27,-100.75 3144.27,-120.8 3144.27,-120.8 3144.27,-120.8 2317.91,-120.8 2317.91,-120.8"/>
<polygon fill="black" stroke="black" points="2317.91,-117.3 2307.91,-120.8 2317.91,-124.3 2317.91,-117.3"/>
</g>
<!-- InputButtonComponent -->
<g id="node10" class="node">
<title>InputButtonComponent</title>
<polygon fill="#ffffb3" stroke="black" points="3028.5,-84.8 2879.5,-84.8 2879.5,-48.8 3028.5,-48.8 3028.5,-84.8"/>
<text text-anchor="middle" x="2954" y="-62.6" font-family="Times,serif" font-size="14.00">InputButtonComponent</text>
</g>
<!-- InputButtonComponent&#45;&gt;PipesModule -->
<g id="edge10" class="edge">
<title>InputButtonComponent&#45;&gt;PipesModule</title>
<path fill="none" stroke="black" d="M2978.83,-85.04C2978.83,-100.37 2978.83,-119.8 2978.83,-119.8 2978.83,-119.8 2318.05,-119.8 2318.05,-119.8"/>
<polygon fill="black" stroke="black" points="2318.05,-116.3 2308.05,-119.8 2318.05,-123.3 2318.05,-116.3"/>
</g>
<!-- InputPercentageComponent -->
<g id="node11" class="node">
<title>InputPercentageComponent</title>
<polygon fill="#ffffb3" stroke="black" points="2861.29,-84.8 2688.71,-84.8 2688.71,-48.8 2861.29,-48.8 2861.29,-84.8"/>
<text text-anchor="middle" x="2775" y="-62.6" font-family="Times,serif" font-size="14.00">InputPercentageComponent</text>
</g>
<!-- InputPercentageComponent&#45;&gt;PipesModule -->
<g id="edge11" class="edge">
<title>InputPercentageComponent&#45;&gt;PipesModule</title>
<path fill="none" stroke="black" d="M2746.2,-84.92C2746.2,-99.58 2746.2,-117.8 2746.2,-117.8 2746.2,-117.8 2318.02,-117.8 2318.02,-117.8"/>
<polygon fill="black" stroke="black" points="2318.02,-114.3 2308.02,-117.8 2318.02,-121.3 2318.02,-114.3"/>
</g>
<!-- LegendLabelComponent -->
<g id="node12" class="node">
<title>LegendLabelComponent</title>
<polygon fill="#ffffb3" stroke="black" points="2670.68,-84.8 2515.32,-84.8 2515.32,-48.8 2670.68,-48.8 2670.68,-84.8"/>
<text text-anchor="middle" x="2593" y="-62.6" font-family="Times,serif" font-size="14.00">LegendLabelComponent</text>
</g>
<!-- LegendLabelComponent&#45;&gt;PipesModule -->
<g id="edge12" class="edge">
<title>LegendLabelComponent&#45;&gt;PipesModule</title>
<path fill="none" stroke="black" d="M2566.05,-84.85C2566.05,-99.17 2566.05,-116.8 2566.05,-116.8 2566.05,-116.8 2318.04,-116.8 2318.04,-116.8"/>
<polygon fill="black" stroke="black" points="2318.04,-113.3 2308.04,-116.8 2318.04,-120.3 2318.04,-113.3"/>
</g>
<!-- ListSelectionComponent -->
<g id="node13" class="node">
<title>ListSelectionComponent</title>
<polygon fill="#ffffb3" stroke="black" points="2497.71,-84.8 2342.29,-84.8 2342.29,-48.8 2497.71,-48.8 2497.71,-84.8"/>
<text text-anchor="middle" x="2420" y="-62.6" font-family="Times,serif" font-size="14.00">ListSelectionComponent</text>
</g>
<!-- ListSelectionComponent&#45;&gt;PipesModule -->
<g id="edge13" class="edge">
<title>ListSelectionComponent&#45;&gt;PipesModule</title>
<path fill="none" stroke="black" d="M2416.38,-85.05C2416.38,-98.98 2416.38,-115.8 2416.38,-115.8 2416.38,-115.8 2318.19,-115.8 2318.19,-115.8"/>
<polygon fill="black" stroke="black" points="2318.19,-112.3 2308.19,-115.8 2318.19,-119.3 2318.19,-112.3"/>
</g>
<!-- LoadersWidgetComponent -->
<g id="node14" class="node">
<title>LoadersWidgetComponent</title>
<polygon fill="#ffffb3" stroke="black" points="2324.63,-84.8 2157.37,-84.8 2157.37,-48.8 2324.63,-48.8 2324.63,-84.8"/>
<text text-anchor="middle" x="2241" y="-62.6" font-family="Times,serif" font-size="14.00">LoadersWidgetComponent</text>
</g>
<!-- LoadersWidgetComponent&#45;&gt;PipesModule -->
<g id="edge14" class="edge">
<title>LoadersWidgetComponent&#45;&gt;PipesModule</title>
<path fill="none" stroke="black" d="M2263,-84.91C2263,-84.91 2263,-103.79 2263,-103.79"/>
<polygon fill="black" stroke="black" points="2259.5,-103.79 2263,-113.79 2266.5,-103.79 2259.5,-103.79"/>
</g>
<!-- OptionsBackupPanelComponent -->
<g id="node15" class="node">
<title>OptionsBackupPanelComponent</title>
<polygon fill="#ffffb3" stroke="black" points="2138.54,-84.8 1939.46,-84.8 1939.46,-48.8 2138.54,-48.8 2138.54,-84.8"/>
<text text-anchor="middle" x="2039" y="-62.6" font-family="Times,serif" font-size="14.00">OptionsBackupPanelComponent</text>
</g>
<!-- OptionsBackupPanelComponent&#45;&gt;PipesModule -->
<g id="edge15" class="edge">
<title>OptionsBackupPanelComponent&#45;&gt;PipesModule</title>
<path fill="none" stroke="black" d="M2131.64,-85.05C2131.64,-98.98 2131.64,-115.8 2131.64,-115.8 2131.64,-115.8 2207.79,-115.8 2207.79,-115.8"/>
<polygon fill="black" stroke="black" points="2207.79,-119.3 2217.79,-115.8 2207.79,-112.3 2207.79,-119.3"/>
</g>
<!-- PanelActivitiesComponent -->
<g id="node16" class="node">
<title>PanelActivitiesComponent</title>
<polygon fill="#ffffb3" stroke="black" points="1921.37,-84.8 1754.63,-84.8 1754.63,-48.8 1921.37,-48.8 1921.37,-84.8"/>
<text text-anchor="middle" x="1838" y="-62.6" font-family="Times,serif" font-size="14.00">PanelActivitiesComponent</text>
</g>
<!-- PanelActivitiesComponent&#45;&gt;PipesModule -->
<g id="edge16" class="edge">
<title>PanelActivitiesComponent&#45;&gt;PipesModule</title>
<path fill="none" stroke="black" d="M1912.31,-84.85C1912.31,-99.17 1912.31,-116.8 1912.31,-116.8 1912.31,-116.8 2207.87,-116.8 2207.87,-116.8"/>
<polygon fill="black" stroke="black" points="2207.87,-120.3 2217.87,-116.8 2207.87,-113.3 2207.87,-120.3"/>
</g>
<!-- PopupComponent -->
<g id="node17" class="node">
<title>PopupComponent</title>
<polygon fill="#ffffb3" stroke="black" points="1736.62,-84.8 1619.38,-84.8 1619.38,-48.8 1736.62,-48.8 1736.62,-84.8"/>
<text text-anchor="middle" x="1678" y="-62.6" font-family="Times,serif" font-size="14.00">PopupComponent</text>
</g>
<!-- PopupComponent&#45;&gt;PipesModule -->
<g id="edge17" class="edge">
<title>PopupComponent&#45;&gt;PipesModule</title>
<path fill="none" stroke="black" d="M1724.06,-84.99C1724.06,-99.98 1724.06,-118.8 1724.06,-118.8 1724.06,-118.8 2207.98,-118.8 2207.98,-118.8"/>
<polygon fill="black" stroke="black" points="2207.98,-122.3 2217.98,-118.8 2207.98,-115.3 2207.98,-122.3"/>
</g>
<!-- ProgressionBarComponent -->
<g id="node18" class="node">
<title>ProgressionBarComponent</title>
<polygon fill="#ffffb3" stroke="black" points="1601.66,-84.8 1434.34,-84.8 1434.34,-48.8 1601.66,-48.8 1601.66,-84.8"/>
<text text-anchor="middle" x="1518" y="-62.6" font-family="Times,serif" font-size="14.00">ProgressionBarComponent</text>
</g>
<!-- ProgressionBarComponent&#45;&gt;PipesModule -->
<g id="edge18" class="edge">
<title>ProgressionBarComponent&#45;&gt;PipesModule</title>
<path fill="none" stroke="black" d="M1598.26,-85.04C1598.26,-100.37 1598.26,-119.8 1598.26,-119.8 1598.26,-119.8 2208.09,-119.8 2208.09,-119.8"/>
<polygon fill="black" stroke="black" points="2208.09,-123.3 2218.09,-119.8 2208.09,-116.3 2208.09,-123.3"/>
</g>
<!-- RadioButtonComponent -->
<g id="node19" class="node">
<title>RadioButtonComponent</title>
<polygon fill="#ffffb3" stroke="black" points="1416.39,-84.8 1263.61,-84.8 1263.61,-48.8 1416.39,-48.8 1416.39,-84.8"/>
<text text-anchor="middle" x="1340" y="-62.6" font-family="Times,serif" font-size="14.00">RadioButtonComponent</text>
</g>
<!-- RadioButtonComponent&#45;&gt;PipesModule -->
<g id="edge19" class="edge">
<title>RadioButtonComponent&#45;&gt;PipesModule</title>
<path fill="none" stroke="black" d="M1410.93,-84.81C1410.93,-100.85 1410.93,-121.8 1410.93,-121.8 1410.93,-121.8 2208.09,-121.8 2208.09,-121.8"/>
<polygon fill="black" stroke="black" points="2208.09,-125.3 2218.09,-121.8 2208.09,-118.3 2208.09,-125.3"/>
</g>
<!-- ReferentielCalculatorComponent -->
<g id="node20" class="node">
<title>ReferentielCalculatorComponent</title>
<polygon fill="#ffffb3" stroke="black" points="1245.83,-84.8 1044.17,-84.8 1044.17,-48.8 1245.83,-48.8 1245.83,-84.8"/>
<text text-anchor="middle" x="1145" y="-62.6" font-family="Times,serif" font-size="14.00">ReferentielCalculatorComponent</text>
</g>
<!-- ReferentielCalculatorComponent&#45;&gt;PipesModule -->
<g id="edge20" class="edge">
<title>ReferentielCalculatorComponent&#45;&gt;PipesModule</title>
<path fill="none" stroke="black" d="M1238.36,-84.83C1238.36,-101.2 1238.36,-122.8 1238.36,-122.8 1238.36,-122.8 2207.98,-122.8 2207.98,-122.8"/>
<polygon fill="black" stroke="black" points="2207.98,-126.3 2217.98,-122.8 2207.98,-119.3 2207.98,-126.3"/>
</g>
<!-- SelectCheckAllComponent -->
<g id="node21" class="node">
<title>SelectCheckAllComponent</title>
<polygon fill="#ffffb3" stroke="black" points="1025.69,-84.8 856.31,-84.8 856.31,-48.8 1025.69,-48.8 1025.69,-84.8"/>
<text text-anchor="middle" x="941" y="-62.6" font-family="Times,serif" font-size="14.00">SelectCheckAllComponent</text>
</g>
<!-- SelectCheckAllComponent&#45;&gt;PipesModule -->
<g id="edge21" class="edge">
<title>SelectCheckAllComponent&#45;&gt;PipesModule</title>
<path fill="none" stroke="black" d="M1016.47,-84.83C1016.47,-101.86 1016.47,-124.8 1016.47,-124.8 1016.47,-124.8 2207.9,-124.8 2207.9,-124.8"/>
<polygon fill="black" stroke="black" points="2207.9,-128.3 2217.9,-124.8 2207.9,-121.3 2207.9,-128.3"/>
</g>
<!-- SelectComponent -->
<g id="node22" class="node">
<title>SelectComponent</title>
<polygon fill="#ffffb3" stroke="black" points="838.54,-84.8 723.46,-84.8 723.46,-48.8 838.54,-48.8 838.54,-84.8"/>
<text text-anchor="middle" x="781" y="-62.6" font-family="Times,serif" font-size="14.00">SelectComponent</text>
</g>
<!-- SelectComponent&#45;&gt;PipesModule -->
<g id="edge22" class="edge">
<title>SelectComponent&#45;&gt;PipesModule</title>
<path fill="none" stroke="black" d="M827.71,-84.82C827.71,-102.17 827.71,-125.8 827.71,-125.8 827.71,-125.8 2208.07,-125.8 2208.07,-125.8"/>
<polygon fill="black" stroke="black" points="2208.07,-129.3 2218.07,-125.8 2208.07,-122.3 2208.07,-129.3"/>
</g>
<!-- SpeedometerComponent -->
<g id="node23" class="node">
<title>SpeedometerComponent</title>
<polygon fill="#ffffb3" stroke="black" points="705.41,-84.8 550.59,-84.8 550.59,-48.8 705.41,-48.8 705.41,-84.8"/>
<text text-anchor="middle" x="628" y="-62.6" font-family="Times,serif" font-size="14.00">SpeedometerComponent</text>
</g>
<!-- SpeedometerComponent&#45;&gt;PipesModule -->
<g id="edge23" class="edge">
<title>SpeedometerComponent&#45;&gt;PipesModule</title>
<path fill="none" stroke="black" d="M692.34,-84.8C692.34,-102.48 692.34,-126.8 692.34,-126.8 692.34,-126.8 2208.11,-126.8 2208.11,-126.8"/>
<polygon fill="black" stroke="black" points="2208.11,-130.3 2218.11,-126.8 2208.11,-123.3 2208.11,-130.3"/>
</g>
<!-- TimeSelectorComponent -->
<g id="node24" class="node">
<title>TimeSelectorComponent</title>
<polygon fill="#ffffb3" stroke="black" points="532.25,-84.8 375.75,-84.8 375.75,-48.8 532.25,-48.8 532.25,-84.8"/>
<text text-anchor="middle" x="454" y="-62.6" font-family="Times,serif" font-size="14.00">TimeSelectorComponent</text>
</g>
<!-- TimeSelectorComponent&#45;&gt;PipesModule -->
<g id="edge24" class="edge">
<title>TimeSelectorComponent&#45;&gt;PipesModule</title>
<path fill="none" stroke="black" d="M518.21,-85.07C518.21,-103.36 518.21,-128.8 518.21,-128.8 518.21,-128.8 2207.67,-128.8 2207.67,-128.8"/>
<polygon fill="black" stroke="black" points="2207.67,-132.3 2217.67,-128.8 2207.67,-125.3 2207.67,-132.3"/>
</g>
<!-- TooltipsComponent -->
<g id="node25" class="node">
<title>TooltipsComponent</title>
<polygon fill="#ffffb3" stroke="black" points="358,-84.8 230,-84.8 230,-48.8 358,-48.8 358,-84.8"/>
<text text-anchor="middle" x="294" y="-62.6" font-family="Times,serif" font-size="14.00">TooltipsComponent</text>
</g>
<!-- TooltipsComponent&#45;&gt;PipesModule -->
<g id="edge25" class="edge">
<title>TooltipsComponent&#45;&gt;PipesModule</title>
<path fill="none" stroke="black" d="M341.94,-85.02C341.94,-103.63 341.94,-129.8 341.94,-129.8 341.94,-129.8 2207.88,-129.8 2207.88,-129.8"/>
<polygon fill="black" stroke="black" points="2207.88,-133.3 2217.88,-129.8 2207.88,-126.3 2207.88,-133.3"/>
</g>
<!-- WrapperComponent -->
<g id="node26" class="node">
<title>WrapperComponent</title>
<polygon fill="#ffffb3" stroke="black" points="212.3,-84.8 81.7,-84.8 81.7,-48.8 212.3,-48.8 212.3,-84.8"/>
<text text-anchor="middle" x="147" y="-62.6" font-family="Times,serif" font-size="14.00">WrapperComponent</text>
</g>
<!-- WrapperComponent&#45;&gt;PipesModule -->
<g id="edge26" class="edge">
<title>WrapperComponent&#45;&gt;PipesModule</title>
<path fill="none" stroke="black" d="M194.2,-84.91C194.2,-104.14 194.2,-131.8 194.2,-131.8 194.2,-131.8 2207.87,-131.8 2207.87,-131.8"/>
<polygon fill="black" stroke="black" points="2207.87,-135.3 2217.87,-131.8 2207.87,-128.3 2207.87,-135.3"/>
</g>
<!-- CoveragePreviewComponent  -->
<g id="node28" class="node">
<title>CoveragePreviewComponent </title>
<polygon fill="#fb8072" stroke="black" points="4589.35,-214.8 4404.65,-214.8 4404.65,-178.8 4589.35,-178.8 4589.35,-214.8"/>
<text text-anchor="middle" x="4497" y="-192.6" font-family="Times,serif" font-size="14.00">CoveragePreviewComponent </text>
</g>
<!-- PipesModule&#45;&gt;CoveragePreviewComponent  -->
<g id="edge27" class="edge">
<title>PipesModule&#45;&gt;CoveragePreviewComponent </title>
<path fill="none" stroke="black" stroke-dasharray="5,2" d="M2308.03,-132.8C2622.66,-132.8 4479.62,-132.8 4479.62,-132.8 4479.62,-132.8 4479.62,-168.63 4479.62,-168.63"/>
<polygon fill="black" stroke="black" points="4476.13,-168.63 4479.62,-178.63 4483.13,-168.63 4476.13,-168.63"/>
</g>
<!-- DateSelectBlueComponent  -->
<g id="node29" class="node">
<title>DateSelectBlueComponent </title>
<polygon fill="#fb8072" stroke="black" points="4386.91,-214.8 4215.09,-214.8 4215.09,-178.8 4386.91,-178.8 4386.91,-214.8"/>
<text text-anchor="middle" x="4301" y="-192.6" font-family="Times,serif" font-size="14.00">DateSelectBlueComponent </text>
</g>
<!-- PipesModule&#45;&gt;DateSelectBlueComponent  -->
<g id="edge28" class="edge">
<title>PipesModule&#45;&gt;DateSelectBlueComponent </title>
<path fill="none" stroke="black" stroke-dasharray="5,2" d="M2308.07,-133.8C2606.43,-133.8 4285.12,-133.8 4285.12,-133.8 4285.12,-133.8 4285.12,-168.58 4285.12,-168.58"/>
<polygon fill="black" stroke="black" points="4281.63,-168.58 4285.12,-178.58 4288.63,-168.58 4281.63,-168.58"/>
</g>
<!-- DateSelectComponent  -->
<g id="node30" class="node">
<title>DateSelectComponent </title>
<polygon fill="#fb8072" stroke="black" points="4196.97,-214.8 4051.03,-214.8 4051.03,-178.8 4196.97,-178.8 4196.97,-214.8"/>
<text text-anchor="middle" x="4124" y="-192.6" font-family="Times,serif" font-size="14.00">DateSelectComponent </text>
</g>
<!-- PipesModule&#45;&gt;DateSelectComponent  -->
<g id="edge29" class="edge">
<title>PipesModule&#45;&gt;DateSelectComponent </title>
<path fill="none" stroke="black" stroke-dasharray="5,2" d="M2308.2,-135.8C2591.47,-135.8 4110.12,-135.8 4110.12,-135.8 4110.12,-135.8 4110.12,-168.5 4110.12,-168.5"/>
<polygon fill="black" stroke="black" points="4106.63,-168.5 4110.12,-178.5 4113.63,-168.5 4106.63,-168.5"/>
</g>
<!-- DialWidgetComponent  -->
<g id="node31" class="node">
<title>DialWidgetComponent </title>
<polygon fill="#fb8072" stroke="black" points="4033.14,-214.8 3882.86,-214.8 3882.86,-178.8 4033.14,-178.8 4033.14,-214.8"/>
<text text-anchor="middle" x="3958" y="-192.6" font-family="Times,serif" font-size="14.00">DialWidgetComponent </text>
</g>
<!-- PipesModule&#45;&gt;DialWidgetComponent  -->
<g id="edge30" class="edge">
<title>PipesModule&#45;&gt;DialWidgetComponent </title>
<path fill="none" stroke="black" stroke-dasharray="5,2" d="M2308.02,-136.8C2575.68,-136.8 3946.12,-136.8 3946.12,-136.8 3946.12,-136.8 3946.12,-168.8 3946.12,-168.8"/>
<polygon fill="black" stroke="black" points="3942.63,-168.8 3946.12,-178.8 3949.63,-168.8 3942.63,-168.8"/>
</g>
<!-- DtesChartComponent  -->
<g id="node32" class="node">
<title>DtesChartComponent </title>
<polygon fill="#fb8072" stroke="black" points="3864.6,-214.8 3723.4,-214.8 3723.4,-178.8 3864.6,-178.8 3864.6,-214.8"/>
<text text-anchor="middle" x="3794" y="-192.6" font-family="Times,serif" font-size="14.00">DtesChartComponent </text>
</g>
<!-- PipesModule&#45;&gt;DtesChartComponent  -->
<g id="edge31" class="edge">
<title>PipesModule&#45;&gt;DtesChartComponent </title>
<path fill="none" stroke="black" stroke-dasharray="5,2" d="M2308.11,-137.8C2560.29,-137.8 3784.12,-137.8 3784.12,-137.8 3784.12,-137.8 3784.12,-168.78 3784.12,-168.78"/>
<polygon fill="black" stroke="black" points="3780.63,-168.78 3784.12,-178.78 3787.63,-168.78 3780.63,-168.78"/>
</g>
<!-- EtpChartComponent  -->
<g id="node33" class="node">
<title>EtpChartComponent </title>
<polygon fill="#fb8072" stroke="black" points="3705.88,-214.8 3570.12,-214.8 3570.12,-178.8 3705.88,-178.8 3705.88,-214.8"/>
<text text-anchor="middle" x="3638" y="-192.6" font-family="Times,serif" font-size="14.00">EtpChartComponent </text>
</g>
<!-- PipesModule&#45;&gt;EtpChartComponent  -->
<g id="edge32" class="edge">
<title>PipesModule&#45;&gt;EtpChartComponent </title>
<path fill="none" stroke="black" stroke-dasharray="5,2" d="M2308.08,-139.8C2544.41,-139.8 3629.62,-139.8 3629.62,-139.8 3629.62,-139.8 3629.62,-168.76 3629.62,-168.76"/>
<polygon fill="black" stroke="black" points="3626.13,-168.76 3629.62,-178.76 3633.13,-168.76 3626.13,-168.76"/>
</g>
<!-- EtpPreviewComponent  -->
<g id="node34" class="node">
<title>EtpPreviewComponent </title>
<polygon fill="#fb8072" stroke="black" points="3552.15,-214.8 3401.85,-214.8 3401.85,-178.8 3552.15,-178.8 3552.15,-214.8"/>
<text text-anchor="middle" x="3477" y="-192.6" font-family="Times,serif" font-size="14.00">EtpPreviewComponent </text>
</g>
<!-- PipesModule&#45;&gt;EtpPreviewComponent  -->
<g id="edge33" class="edge">
<title>PipesModule&#45;&gt;EtpPreviewComponent </title>
<path fill="none" stroke="black" stroke-dasharray="5,2" d="M2308.14,-140.8C2527.37,-140.8 3470.62,-140.8 3470.62,-140.8 3470.62,-140.8 3470.62,-168.77 3470.62,-168.77"/>
<polygon fill="black" stroke="black" points="3467.13,-168.77 3470.62,-178.77 3474.13,-168.77 3467.13,-168.77"/>
</g>
<!-- FiguresWidgetComponent  -->
<g id="node35" class="node">
<title>FiguresWidgetComponent </title>
<polygon fill="#fb8072" stroke="black" points="3384.04,-214.8 3215.96,-214.8 3215.96,-178.8 3384.04,-178.8 3384.04,-214.8"/>
<text text-anchor="middle" x="3300" y="-192.6" font-family="Times,serif" font-size="14.00">FiguresWidgetComponent </text>
</g>
<!-- PipesModule&#45;&gt;FiguresWidgetComponent  -->
<g id="edge34" class="edge">
<title>PipesModule&#45;&gt;FiguresWidgetComponent </title>
<path fill="none" stroke="black" stroke-dasharray="5,2" d="M2308.17,-141.8C2503.87,-141.8 3268.74,-141.8 3268.74,-141.8 3268.74,-141.8 3268.74,-168.79 3268.74,-168.79"/>
<polygon fill="black" stroke="black" points="3265.24,-168.79 3268.74,-178.79 3272.24,-168.79 3265.24,-168.79"/>
</g>
<!-- InOutChartComponent  -->
<g id="node36" class="node">
<title>InOutChartComponent </title>
<polygon fill="#fb8072" stroke="black" points="3198.1,-214.8 3049.9,-214.8 3049.9,-178.8 3198.1,-178.8 3198.1,-214.8"/>
<text text-anchor="middle" x="3124" y="-192.6" font-family="Times,serif" font-size="14.00">InOutChartComponent </text>
</g>
<!-- PipesModule&#45;&gt;InOutChartComponent  -->
<g id="edge35" class="edge">
<title>PipesModule&#45;&gt;InOutChartComponent </title>
<path fill="none" stroke="black" stroke-dasharray="5,2" d="M2308.13,-143.8C2481.77,-143.8 3096.98,-143.8 3096.98,-143.8 3096.98,-143.8 3096.98,-168.56 3096.98,-168.56"/>
<polygon fill="black" stroke="black" points="3093.48,-168.56 3096.98,-178.56 3100.48,-168.56 3093.48,-168.56"/>
</g>
<!-- InputButtonComponent  -->
<g id="node37" class="node">
<title>InputButtonComponent </title>
<polygon fill="#fb8072" stroke="black" points="3031,-214.8 2879,-214.8 2879,-178.8 3031,-178.8 3031,-214.8"/>
<text text-anchor="middle" x="2955" y="-192.6" font-family="Times,serif" font-size="14.00">InputButtonComponent </text>
</g>
<!-- PipesModule&#45;&gt;InputButtonComponent  -->
<g id="edge36" class="edge">
<title>PipesModule&#45;&gt;InputButtonComponent </title>
<path fill="none" stroke="black" stroke-dasharray="5,2" d="M2308,-144.8C2457.65,-144.8 2929.17,-144.8 2929.17,-144.8 2929.17,-144.8 2929.17,-168.61 2929.17,-168.61"/>
<polygon fill="black" stroke="black" points="2925.67,-168.61 2929.17,-178.61 2932.67,-168.61 2925.67,-168.61"/>
</g>
<!-- InputPercentageComponent  -->
<g id="node38" class="node">
<title>InputPercentageComponent </title>
<polygon fill="#fb8072" stroke="black" points="2860.79,-214.8 2685.21,-214.8 2685.21,-178.8 2860.79,-178.8 2860.79,-214.8"/>
<text text-anchor="middle" x="2773" y="-192.6" font-family="Times,serif" font-size="14.00">InputPercentageComponent </text>
</g>
<!-- PipesModule&#45;&gt;InputPercentageComponent  -->
<g id="edge37" class="edge">
<title>PipesModule&#45;&gt;InputPercentageComponent </title>
<path fill="none" stroke="black" stroke-dasharray="5,2" d="M2308.16,-145.8C2438.07,-145.8 2803.55,-145.8 2803.55,-145.8 2803.55,-145.8 2803.55,-168.68 2803.55,-168.68"/>
<polygon fill="black" stroke="black" points="2800.05,-168.68 2803.55,-178.68 2807.05,-168.68 2800.05,-168.68"/>
</g>
<!-- LegendLabelComponent  -->
<g id="node39" class="node">
<title>LegendLabelComponent </title>
<polygon fill="#fb8072" stroke="black" points="2667.18,-214.8 2508.82,-214.8 2508.82,-178.8 2667.18,-178.8 2667.18,-214.8"/>
<text text-anchor="middle" x="2588" y="-192.6" font-family="Times,serif" font-size="14.00">LegendLabelComponent </text>
</g>
<!-- PipesModule&#45;&gt;LegendLabelComponent  -->
<g id="edge38" class="edge">
<title>PipesModule&#45;&gt;LegendLabelComponent </title>
<path fill="none" stroke="black" stroke-dasharray="5,2" d="M2308.16,-147.8C2403.51,-147.8 2616.7,-147.8 2616.7,-147.8 2616.7,-147.8 2616.7,-168.55 2616.7,-168.55"/>
<polygon fill="black" stroke="black" points="2613.2,-168.55 2616.7,-178.55 2620.2,-168.55 2613.2,-168.55"/>
</g>
<!-- ListSelectionComponent  -->
<g id="node40" class="node">
<title>ListSelectionComponent </title>
<polygon fill="#fb8072" stroke="black" points="2490.21,-214.8 2331.79,-214.8 2331.79,-178.8 2490.21,-178.8 2490.21,-214.8"/>
<text text-anchor="middle" x="2411" y="-192.6" font-family="Times,serif" font-size="14.00">ListSelectionComponent </text>
</g>
<!-- PipesModule&#45;&gt;ListSelectionComponent  -->
<g id="edge39" class="edge">
<title>PipesModule&#45;&gt;ListSelectionComponent </title>
<path fill="none" stroke="black" stroke-dasharray="5,2" d="M2308.19,-148.8C2323.6,-148.8 2337.02,-148.8 2337.02,-148.8 2337.02,-148.8 2337.02,-168.65 2337.02,-168.65"/>
<polygon fill="black" stroke="black" points="2333.52,-168.65 2337.02,-178.65 2340.52,-168.65 2333.52,-168.65"/>
</g>
<!-- LoadersWidgetComponent  -->
<g id="node41" class="node">
<title>LoadersWidgetComponent </title>
<polygon fill="#fb8072" stroke="black" points="2313.63,-214.8 2142.37,-214.8 2142.37,-178.8 2313.63,-178.8 2313.63,-214.8"/>
<text text-anchor="middle" x="2228" y="-192.6" font-family="Times,serif" font-size="14.00">LoadersWidgetComponent </text>
</g>
<!-- PipesModule&#45;&gt;LoadersWidgetComponent  -->
<g id="edge40" class="edge">
<title>PipesModule&#45;&gt;LoadersWidgetComponent </title>
<path fill="none" stroke="black" stroke-dasharray="5,2" d="M2263,-149.91C2263,-149.91 2263,-168.79 2263,-168.79"/>
<polygon fill="black" stroke="black" points="2259.5,-168.79 2263,-178.79 2266.5,-168.79 2259.5,-168.79"/>
</g>
<!-- OptionsBackupPanelComponent  -->
<g id="node42" class="node">
<title>OptionsBackupPanelComponent </title>
<polygon fill="#fb8072" stroke="black" points="2124.54,-214.8 1921.46,-214.8 1921.46,-178.8 2124.54,-178.8 2124.54,-214.8"/>
<text text-anchor="middle" x="2023" y="-192.6" font-family="Times,serif" font-size="14.00">OptionsBackupPanelComponent </text>
</g>
<!-- PipesModule&#45;&gt;OptionsBackupPanelComponent  -->
<g id="edge41" class="edge">
<title>PipesModule&#45;&gt;OptionsBackupPanelComponent </title>
<path fill="none" stroke="black" stroke-dasharray="5,2" d="M2217.89,-148.8C2150.63,-148.8 2031.88,-148.8 2031.88,-148.8 2031.88,-148.8 2031.88,-168.65 2031.88,-168.65"/>
<polygon fill="black" stroke="black" points="2028.38,-168.65 2031.88,-178.65 2035.38,-168.65 2028.38,-168.65"/>
</g>
<!-- PanelActivitiesComponent  -->
<g id="node43" class="node">
<title>PanelActivitiesComponent </title>
<polygon fill="#fb8072" stroke="black" points="1903.37,-214.8 1732.63,-214.8 1732.63,-178.8 1903.37,-178.8 1903.37,-214.8"/>
<text text-anchor="middle" x="1818" y="-192.6" font-family="Times,serif" font-size="14.00">PanelActivitiesComponent </text>
</g>
<!-- PipesModule&#45;&gt;PanelActivitiesComponent  -->
<g id="edge42" class="edge">
<title>PipesModule&#45;&gt;PanelActivitiesComponent </title>
<path fill="none" stroke="black" stroke-dasharray="5,2" d="M2217.77,-147.8C2106.58,-147.8 1828.88,-147.8 1828.88,-147.8 1828.88,-147.8 1828.88,-168.55 1828.88,-168.55"/>
<polygon fill="black" stroke="black" points="1825.38,-168.55 1828.88,-178.55 1832.38,-168.55 1825.38,-168.55"/>
</g>
<!-- PopupComponent  -->
<g id="node44" class="node">
<title>PopupComponent </title>
<polygon fill="#fb8072" stroke="black" points="1715.12,-214.8 1594.88,-214.8 1594.88,-178.8 1715.12,-178.8 1715.12,-214.8"/>
<text text-anchor="middle" x="1655" y="-192.6" font-family="Times,serif" font-size="14.00">PopupComponent </text>
</g>
<!-- PipesModule&#45;&gt;PopupComponent  -->
<g id="edge43" class="edge">
<title>PipesModule&#45;&gt;PopupComponent </title>
<path fill="none" stroke="black" stroke-dasharray="5,2" d="M2217.74,-145.8C2078.74,-145.8 1667.38,-145.8 1667.38,-145.8 1667.38,-145.8 1667.38,-168.68 1667.38,-168.68"/>
<polygon fill="black" stroke="black" points="1663.88,-168.68 1667.38,-178.68 1670.88,-168.68 1663.88,-168.68"/>
</g>
<!-- ProgressionBarComponent  -->
<g id="node45" class="node">
<title>ProgressionBarComponent </title>
<polygon fill="#fb8072" stroke="black" points="1576.66,-214.8 1405.34,-214.8 1405.34,-178.8 1576.66,-178.8 1576.66,-214.8"/>
<text text-anchor="middle" x="1491" y="-192.6" font-family="Times,serif" font-size="14.00">ProgressionBarComponent </text>
</g>
<!-- PipesModule&#45;&gt;ProgressionBarComponent  -->
<g id="edge44" class="edge">
<title>PipesModule&#45;&gt;ProgressionBarComponent </title>
<path fill="none" stroke="black" stroke-dasharray="5,2" d="M2217.88,-144.8C2054.77,-144.8 1505.38,-144.8 1505.38,-144.8 1505.38,-144.8 1505.38,-168.61 1505.38,-168.61"/>
<polygon fill="black" stroke="black" points="1501.88,-168.61 1505.38,-178.61 1508.88,-168.61 1501.88,-168.61"/>
</g>
<!-- RadioButtonComponent  -->
<g id="node46" class="node">
<title>RadioButtonComponent </title>
<polygon fill="#fb8072" stroke="black" points="1387.39,-214.8 1230.61,-214.8 1230.61,-178.8 1387.39,-178.8 1387.39,-214.8"/>
<text text-anchor="middle" x="1309" y="-192.6" font-family="Times,serif" font-size="14.00">RadioButtonComponent </text>
</g>
<!-- PipesModule&#45;&gt;RadioButtonComponent  -->
<g id="edge45" class="edge">
<title>PipesModule&#45;&gt;RadioButtonComponent </title>
<path fill="none" stroke="black" stroke-dasharray="5,2" d="M2218.09,-142.8C2031.28,-142.8 1325.38,-142.8 1325.38,-142.8 1325.38,-142.8 1325.38,-168.52 1325.38,-168.52"/>
<polygon fill="black" stroke="black" points="1321.88,-168.52 1325.38,-178.52 1328.88,-168.52 1321.88,-168.52"/>
</g>
<!-- ReferentielCalculatorComponent  -->
<g id="node47" class="node">
<title>ReferentielCalculatorComponent </title>
<polygon fill="#fb8072" stroke="black" points="1212.83,-214.8 1007.17,-214.8 1007.17,-178.8 1212.83,-178.8 1212.83,-214.8"/>
<text text-anchor="middle" x="1110" y="-192.6" font-family="Times,serif" font-size="14.00">ReferentielCalculatorComponent </text>
</g>
<!-- PipesModule&#45;&gt;ReferentielCalculatorComponent  -->
<g id="edge46" class="edge">
<title>PipesModule&#45;&gt;ReferentielCalculatorComponent </title>
<path fill="none" stroke="black" stroke-dasharray="5,2" d="M2217.82,-141.8C2006.79,-141.8 1128.38,-141.8 1128.38,-141.8 1128.38,-141.8 1128.38,-168.79 1128.38,-168.79"/>
<polygon fill="black" stroke="black" points="1124.88,-168.79 1128.38,-178.79 1131.88,-168.79 1124.88,-168.79"/>
</g>
<!-- SelectCheckAllComponent  -->
<g id="node48" class="node">
<title>SelectCheckAllComponent </title>
<polygon fill="#fb8072" stroke="black" points="989.19,-214.8 816.81,-214.8 816.81,-178.8 989.19,-178.8 989.19,-214.8"/>
<text text-anchor="middle" x="903" y="-192.6" font-family="Times,serif" font-size="14.00">SelectCheckAllComponent </text>
</g>
<!-- PipesModule&#45;&gt;SelectCheckAllComponent  -->
<g id="edge47" class="edge">
<title>PipesModule&#45;&gt;SelectCheckAllComponent </title>
<path fill="none" stroke="black" stroke-dasharray="5,2" d="M2218.03,-139.8C1984.71,-139.8 922.88,-139.8 922.88,-139.8 922.88,-139.8 922.88,-168.76 922.88,-168.76"/>
<polygon fill="black" stroke="black" points="919.38,-168.76 922.88,-178.76 926.38,-168.76 919.38,-168.76"/>
</g>
<!-- SelectComponent  -->
<g id="node49" class="node">
<title>SelectComponent </title>
<polygon fill="#fb8072" stroke="black" points="798.54,-214.8 679.46,-214.8 679.46,-178.8 798.54,-178.8 798.54,-214.8"/>
<text text-anchor="middle" x="739" y="-192.6" font-family="Times,serif" font-size="14.00">SelectComponent </text>
</g>
<!-- PipesModule&#45;&gt;SelectComponent  -->
<g id="edge48" class="edge">
<title>PipesModule&#45;&gt;SelectComponent </title>
<path fill="none" stroke="black" stroke-dasharray="5,2" d="M2218.04,-138.8C1968.11,-138.8 760.88,-138.8 760.88,-138.8 760.88,-138.8 760.88,-168.77 760.88,-168.77"/>
<polygon fill="black" stroke="black" points="757.38,-168.77 760.88,-178.77 764.38,-168.77 757.38,-168.77"/>
</g>
<!-- SpeedometerComponent  -->
<g id="node50" class="node">
<title>SpeedometerComponent </title>
<polygon fill="#fb8072" stroke="black" points="661.91,-214.8 504.09,-214.8 504.09,-178.8 661.91,-178.8 661.91,-214.8"/>
<text text-anchor="middle" x="583" y="-192.6" font-family="Times,serif" font-size="14.00">SpeedometerComponent </text>
</g>
<!-- PipesModule&#45;&gt;SpeedometerComponent  -->
<g id="edge49" class="edge">
<title>PipesModule&#45;&gt;SpeedometerComponent </title>
<path fill="none" stroke="black" stroke-dasharray="5,2" d="M2217.83,-137.8C1952.32,-137.8 606.38,-137.8 606.38,-137.8 606.38,-137.8 606.38,-168.78 606.38,-168.78"/>
<polygon fill="black" stroke="black" points="602.88,-168.78 606.38,-178.78 609.88,-168.78 602.88,-168.78"/>
</g>
<!-- TimeSelectorComponent  -->
<g id="node51" class="node">
<title>TimeSelectorComponent </title>
<polygon fill="#fb8072" stroke="black" points="486.25,-214.8 325.75,-214.8 325.75,-178.8 486.25,-178.8 486.25,-214.8"/>
<text text-anchor="middle" x="406" y="-192.6" font-family="Times,serif" font-size="14.00">TimeSelectorComponent </text>
</g>
<!-- PipesModule&#45;&gt;TimeSelectorComponent  -->
<g id="edge50" class="edge">
<title>PipesModule&#45;&gt;TimeSelectorComponent </title>
<path fill="none" stroke="black" stroke-dasharray="5,2" d="M2217.71,-135.8C1935.58,-135.8 430.88,-135.8 430.88,-135.8 430.88,-135.8 430.88,-168.5 430.88,-168.5"/>
<polygon fill="black" stroke="black" points="427.38,-168.5 430.88,-178.5 434.38,-168.5 427.38,-168.5"/>
</g>
<!-- TooltipsComponent  -->
<g id="node52" class="node">
<title>TooltipsComponent </title>
<polygon fill="#fb8072" stroke="black" points="307.5,-214.8 176.5,-214.8 176.5,-178.8 307.5,-178.8 307.5,-214.8"/>
<text text-anchor="middle" x="242" y="-192.6" font-family="Times,serif" font-size="14.00">TooltipsComponent </text>
</g>
<!-- PipesModule&#45;&gt;TooltipsComponent  -->
<g id="edge51" class="edge">
<title>PipesModule&#45;&gt;TooltipsComponent </title>
<path fill="none" stroke="black" stroke-dasharray="5,2" d="M2218.08,-134.8C1922.55,-134.8 268.88,-134.8 268.88,-134.8 268.88,-134.8 268.88,-168.53 268.88,-168.53"/>
<polygon fill="black" stroke="black" points="265.38,-168.53 268.88,-178.53 272.38,-168.53 265.38,-168.53"/>
</g>
<!-- WrapperComponent  -->
<g id="node53" class="node">
<title>WrapperComponent </title>
<polygon fill="#fb8072" stroke="black" points="157.8,-214.8 24.2,-214.8 24.2,-178.8 157.8,-178.8 157.8,-214.8"/>
<text text-anchor="middle" x="91" y="-192.6" font-family="Times,serif" font-size="14.00">WrapperComponent </text>
</g>
<!-- PipesModule&#45;&gt;WrapperComponent  -->
<g id="edge52" class="edge">
<title>PipesModule&#45;&gt;WrapperComponent </title>
<path fill="none" stroke="black" stroke-dasharray="5,2" d="M2217.74,-132.8C1908.57,-132.8 119.88,-132.8 119.88,-132.8 119.88,-132.8 119.88,-168.63 119.88,-168.63"/>
<polygon fill="black" stroke="black" points="116.38,-168.63 119.88,-178.63 123.38,-168.63 116.38,-168.63"/>
</g>
</g>
</svg>
