<?xml version="1.0" encoding="UTF-8" standalone="no"?>
<!DOCTYPE svg PUBLIC "-//W3C//DTD SVG 1.1//EN"
 "http://www.w3.org/Graphics/SVG/1.1/DTD/svg11.dtd">
<!-- Generated by graphviz version 3.0.0 (20220226.1711)
 -->
<!-- Title: dependencies Pages: 1 -->
<svg width="718pt" height="247pt"
 viewBox="0.00 0.00 718.00 246.80" xmlns="http://www.w3.org/2000/svg" xmlns:xlink="http://www.w3.org/1999/xlink">
<g id="graph0" class="graph" transform="scale(1 1) rotate(0) translate(4 242.8)">
<title>dependencies</title>
<polygon fill="white" stroke="transparent" points="-4,4 -4,-242.8 714,-242.8 714,4 -4,4"/>
<text text-anchor="middle" x="355" y="-8.2" font-family="sans-serif" font-size="14.00">dependencies</text>
<g id="clust1" class="cluster">
<title>cluster_PipesModule</title>
<polygon fill="none" stroke="black" stroke-dasharray="1,5" points="8,-32.8 8,-230.8 702,-230.8 702,-32.8 8,-32.8"/>
</g>
<g id="clust2" class="cluster">
<title>cluster_PipesModule_declarations</title>
<polygon fill="none" stroke="black" points="24,-40.8 24,-92.8 686,-92.8 686,-40.8 24,-40.8"/>
</g>
<g id="clust9" class="cluster">
<title>cluster_PipesModule_exports</title>
<polygon fill="none" stroke="black" points="16,-170.8 16,-222.8 694,-222.8 694,-170.8 16,-170.8"/>
</g>
<!-- SanitizeHtmlPipe -->
<g id="node1" class="node">
<title>SanitizeHtmlPipe</title>
<polygon fill="#ffffb3" stroke="black" points="678.27,-84.8 563.73,-84.8 563.73,-48.8 678.27,-48.8 678.27,-84.8"/>
<text text-anchor="middle" x="621" y="-62.6" font-family="Times,serif" font-size="14.00">SanitizeHtmlPipe</text>
</g>
<!-- PipesModule -->
<g id="node6" class="node">
<title>PipesModule</title>
<polygon fill="#8dd3c7" stroke="black" points="357.89,-149.8 354.89,-153.8 333.89,-153.8 330.89,-149.8 268.11,-149.8 268.11,-113.8 357.89,-113.8 357.89,-149.8"/>
<text text-anchor="middle" x="313" y="-127.6" font-family="Times,serif" font-size="14.00">PipesModule</text>
</g>
<!-- SanitizeHtmlPipe&#45;&gt;PipesModule -->
<g id="edge1" class="edge">
<title>SanitizeHtmlPipe&#45;&gt;PipesModule</title>
<path fill="none" stroke="black" d="M641.54,-85.07C641.54,-103.36 641.54,-128.8 641.54,-128.8 641.54,-128.8 367.99,-128.8 367.99,-128.8"/>
<polygon fill="black" stroke="black" points="367.99,-125.3 357.99,-128.8 367.99,-132.3 367.99,-125.3"/>
</g>
<!-- SanitizeResourceUrlPipe -->
<g id="node2" class="node">
<title>SanitizeResourceUrlPipe</title>
<polygon fill="#ffffb3" stroke="black" points="545.24,-84.8 388.76,-84.8 388.76,-48.8 545.24,-48.8 545.24,-84.8"/>
<text text-anchor="middle" x="467" y="-62.6" font-family="Times,serif" font-size="14.00">SanitizeResourceUrlPipe</text>
</g>
<!-- SanitizeResourceUrlPipe&#45;&gt;PipesModule -->
<g id="edge2" class="edge">
<title>SanitizeResourceUrlPipe&#45;&gt;PipesModule</title>
<path fill="none" stroke="black" d="M493.54,-84.81C493.54,-100.85 493.54,-121.8 493.54,-121.8 493.54,-121.8 368.09,-121.8 368.09,-121.8"/>
<polygon fill="black" stroke="black" points="368.09,-118.3 358.09,-121.8 368.09,-125.3 368.09,-118.3"/>
</g>
<!-- SanitizeStylePipe -->
<g id="node3" class="node">
<title>SanitizeStylePipe</title>
<polygon fill="#ffffb3" stroke="black" points="370.27,-84.8 255.73,-84.8 255.73,-48.8 370.27,-48.8 370.27,-84.8"/>
<text text-anchor="middle" x="313" y="-62.6" font-family="Times,serif" font-size="14.00">SanitizeStylePipe</text>
</g>
<!-- SanitizeStylePipe&#45;&gt;PipesModule -->
<g id="edge3" class="edge">
<title>SanitizeStylePipe&#45;&gt;PipesModule</title>
<path fill="none" stroke="black" d="M313,-84.91C313,-84.91 313,-103.79 313,-103.79"/>
<polygon fill="black" stroke="black" points="309.5,-103.79 313,-113.79 316.5,-103.79 309.5,-103.79"/>
</g>
<!-- SanitizeUrlPipe -->
<g id="node4" class="node">
<title>SanitizeUrlPipe</title>
<polygon fill="#ffffb3" stroke="black" points="237.15,-84.8 132.85,-84.8 132.85,-48.8 237.15,-48.8 237.15,-84.8"/>
<text text-anchor="middle" x="185" y="-62.6" font-family="Times,serif" font-size="14.00">SanitizeUrlPipe</text>
</g>
<!-- SanitizeUrlPipe&#45;&gt;PipesModule -->
<g id="edge4" class="edge">
<title>SanitizeUrlPipe&#45;&gt;PipesModule</title>
<path fill="none" stroke="black" d="M201.61,-84.81C201.61,-100.85 201.61,-121.8 201.61,-121.8 201.61,-121.8 258.01,-121.8 258.01,-121.8"/>
<polygon fill="black" stroke="black" points="258.01,-125.3 268.01,-121.8 258.01,-118.3 258.01,-125.3"/>
</g>
<!-- UcFirstPipe -->
<g id="node5" class="node">
<title>UcFirstPipe</title>
<polygon fill="#ffffb3" stroke="black" points="114.39,-84.8 31.61,-84.8 31.61,-48.8 114.39,-48.8 114.39,-84.8"/>
<text text-anchor="middle" x="73" y="-62.6" font-family="Times,serif" font-size="14.00">UcFirstPipe</text>
</g>
<!-- UcFirstPipe&#45;&gt;PipesModule -->
<g id="edge5" class="edge">
<title>UcFirstPipe&#45;&gt;PipesModule</title>
<path fill="none" stroke="black" d="M83.98,-85.07C83.98,-103.36 83.98,-128.8 83.98,-128.8 83.98,-128.8 258.03,-128.8 258.03,-128.8"/>
<polygon fill="black" stroke="black" points="258.03,-132.3 268.03,-128.8 258.03,-125.3 258.03,-132.3"/>
</g>
<!-- SanitizeHtmlPipe  -->
<g id="node7" class="node">
<title>SanitizeHtmlPipe </title>
<polygon fill="#fb8072" stroke="black" points="686.27,-214.8 567.73,-214.8 567.73,-178.8 686.27,-178.8 686.27,-214.8"/>
<text text-anchor="middle" x="627" y="-192.6" font-family="Times,serif" font-size="14.00">SanitizeHtmlPipe </text>
</g>
<!-- PipesModule&#45;&gt;SanitizeHtmlPipe  -->
<g id="edge6" class="edge">
<title>PipesModule&#45;&gt;SanitizeHtmlPipe </title>
<path fill="none" stroke="black" stroke-dasharray="5,2" d="M357.94,-135.8C439.77,-135.8 604.71,-135.8 604.71,-135.8 604.71,-135.8 604.71,-168.5 604.71,-168.5"/>
<polygon fill="black" stroke="black" points="601.21,-168.5 604.71,-178.5 608.21,-168.5 601.21,-168.5"/>
</g>
<!-- SanitizeResourceUrlPipe  -->
<g id="node8" class="node">
<title>SanitizeResourceUrlPipe </title>
<polygon fill="#fb8072" stroke="black" points="550.24,-214.8 389.76,-214.8 389.76,-178.8 550.24,-178.8 550.24,-214.8"/>
<text text-anchor="middle" x="470" y="-192.6" font-family="Times,serif" font-size="14.00">SanitizeResourceUrlPipe </text>
</g>
<!-- PipesModule&#45;&gt;SanitizeResourceUrlPipe  -->
<g id="edge7" class="edge">
<title>PipesModule&#45;&gt;SanitizeResourceUrlPipe </title>
<path fill="none" stroke="black" stroke-dasharray="5,2" d="M358.02,-142.8C395.13,-142.8 441.71,-142.8 441.71,-142.8 441.71,-142.8 441.71,-168.52 441.71,-168.52"/>
<polygon fill="black" stroke="black" points="438.21,-168.52 441.71,-178.52 445.21,-168.52 438.21,-168.52"/>
</g>
<!-- SanitizeStylePipe  -->
<g id="node9" class="node">
<title>SanitizeStylePipe </title>
<polygon fill="#fb8072" stroke="black" points="372.27,-214.8 253.73,-214.8 253.73,-178.8 372.27,-178.8 372.27,-214.8"/>
<text text-anchor="middle" x="313" y="-192.6" font-family="Times,serif" font-size="14.00">SanitizeStylePipe </text>
</g>
<!-- PipesModule&#45;&gt;SanitizeStylePipe  -->
<g id="edge8" class="edge">
<title>PipesModule&#45;&gt;SanitizeStylePipe </title>
<path fill="none" stroke="black" stroke-dasharray="5,2" d="M313,-149.91C313,-149.91 313,-168.79 313,-168.79"/>
<polygon fill="black" stroke="black" points="309.5,-168.79 313,-178.79 316.5,-168.79 309.5,-168.79"/>
</g>
<!-- SanitizeUrlPipe  -->
<g id="node10" class="node">
<title>SanitizeUrlPipe </title>
<polygon fill="#fb8072" stroke="black" points="236.15,-214.8 127.85,-214.8 127.85,-178.8 236.15,-178.8 236.15,-214.8"/>
<text text-anchor="middle" x="182" y="-192.6" font-family="Times,serif" font-size="14.00">SanitizeUrlPipe </text>
</g>
<!-- PipesModule&#45;&gt;SanitizeUrlPipe  -->
<g id="edge9" class="edge">
<title>PipesModule&#45;&gt;SanitizeUrlPipe </title>
<path fill="none" stroke="black" stroke-dasharray="5,2" d="M268.05,-142.8C225.19,-142.8 167.14,-142.8 167.14,-142.8 167.14,-142.8 167.14,-168.52 167.14,-168.52"/>
<polygon fill="black" stroke="black" points="163.64,-168.52 167.14,-178.52 170.64,-168.52 163.64,-168.52"/>
</g>
<!-- UcFirstPipe  -->
<g id="node11" class="node">
<title>UcFirstPipe </title>
<polygon fill="#fb8072" stroke="black" points="110.39,-214.8 23.61,-214.8 23.61,-178.8 110.39,-178.8 110.39,-214.8"/>
<text text-anchor="middle" x="67" y="-192.6" font-family="Times,serif" font-size="14.00">UcFirstPipe </text>
</g>
<!-- PipesModule&#45;&gt;UcFirstPipe  -->
<g id="edge10" class="edge">
<title>PipesModule&#45;&gt;UcFirstPipe </title>
<path fill="none" stroke="black" stroke-dasharray="5,2" d="M267.96,-135.8C194.69,-135.8 57.77,-135.8 57.77,-135.8 57.77,-135.8 57.77,-168.5 57.77,-168.5"/>
<polygon fill="black" stroke="black" points="54.27,-168.5 57.77,-178.5 61.27,-168.5 54.27,-168.5"/>
</g>
</g>
</svg>
