<?xml version="1.0" encoding="UTF-8" standalone="no"?>
<!DOCTYPE svg PUBLIC "-//W3C//DTD SVG 1.1//EN"
 "http://www.w3.org/Graphics/SVG/1.1/DTD/svg11.dtd">
<!-- Generated by graphviz version 3.0.0 (20220226.1711)
 -->
<!-- Title: dependencies Pages: 1 -->
<svg width="4977pt" height="247pt"
 viewBox="0.00 0.00 4977.00 246.80" xmlns="http://www.w3.org/2000/svg" xmlns:xlink="http://www.w3.org/1999/xlink">
<g id="graph0" class="graph" transform="scale(1 1) rotate(0) translate(4 242.8)">
<title>dependencies</title>
<polygon fill="white" stroke="transparent" points="-4,4 -4,-242.8 4973,-242.8 4973,4 -4,4"/>
<text text-anchor="middle" x="2484.5" y="-8.2" font-family="sans-serif" font-size="14.00">dependencies</text>
<g id="clust1" class="cluster">
<title>cluster_PipesModule</title>
<polygon fill="none" stroke="black" stroke-dasharray="1,5" points="8,-32.8 8,-230.8 4961,-230.8 4961,-32.8 8,-32.8"/>
</g>
<g id="clust2" class="cluster">
<title>cluster_PipesModule_declarations</title>
<polygon fill="none" stroke="black" points="78,-40.8 78,-92.8 4915,-92.8 4915,-40.8 78,-40.8"/>
</g>
<g id="clust32" class="cluster">
<title>cluster_PipesModule_exports</title>
<polygon fill="none" stroke="black" points="16,-170.8 16,-222.8 4953,-222.8 4953,-170.8 16,-170.8"/>
</g>
<!-- CoveragePreviewComponent -->
<g id="node1" class="node">
<title>CoveragePreviewComponent</title>
<polygon fill="#ffffb3" stroke="black" points="4907.35,-84.8 4726.65,-84.8 4726.65,-48.8 4907.35,-48.8 4907.35,-84.8"/>
<text text-anchor="middle" x="4817" y="-62.6" font-family="Times,serif" font-size="14.00">CoveragePreviewComponent</text>
</g>
<!-- PipesModule -->
<g id="node29" class="node">
<title>PipesModule</title>
<polygon fill="#8dd3c7" stroke="black" points="2449.89,-149.8 2446.89,-153.8 2425.89,-153.8 2422.89,-149.8 2360.11,-149.8 2360.11,-113.8 2449.89,-113.8 2449.89,-149.8"/>
<text text-anchor="middle" x="2405" y="-127.6" font-family="Times,serif" font-size="14.00">PipesModule</text>
</g>
<!-- CoveragePreviewComponent&#45;&gt;PipesModule -->
<g id="edge1" class="edge">
<title>CoveragePreviewComponent&#45;&gt;PipesModule</title>
<path fill="none" stroke="black" d="M4734.76,-84.91C4734.76,-104.14 4734.76,-131.8 4734.76,-131.8 4734.76,-131.8 2459.98,-131.8 2459.98,-131.8"/>
<polygon fill="black" stroke="black" points="2459.98,-128.3 2449.98,-131.8 2459.98,-135.3 2459.98,-128.3"/>
</g>
<!-- DateSelectBlueComponent -->
<g id="node2" class="node">
<title>DateSelectBlueComponent</title>
<polygon fill="#ffffb3" stroke="black" points="4708.41,-84.8 4539.59,-84.8 4539.59,-48.8 4708.41,-48.8 4708.41,-84.8"/>
<text text-anchor="middle" x="4624" y="-62.6" font-family="Times,serif" font-size="14.00">DateSelectBlueComponent</text>
</g>
<!-- DateSelectBlueComponent&#45;&gt;PipesModule -->
<g id="edge2" class="edge">
<title>DateSelectBlueComponent&#45;&gt;PipesModule</title>
<path fill="none" stroke="black" d="M4546.26,-84.97C4546.26,-103.89 4546.26,-130.8 4546.26,-130.8 4546.26,-130.8 2460.22,-130.8 2460.22,-130.8"/>
<polygon fill="black" stroke="black" points="2460.22,-127.3 2450.22,-130.8 2460.22,-134.3 2460.22,-127.3"/>
</g>
<!-- DateSelectComponent -->
<g id="node3" class="node">
<title>DateSelectComponent</title>
<polygon fill="#ffffb3" stroke="black" points="4521.97,-84.8 4380.03,-84.8 4380.03,-48.8 4521.97,-48.8 4521.97,-84.8"/>
<text text-anchor="middle" x="4451" y="-62.6" font-family="Times,serif" font-size="14.00">DateSelectComponent</text>
</g>
<!-- DateSelectComponent&#45;&gt;PipesModule -->
<g id="edge3" class="edge">
<title>DateSelectComponent&#45;&gt;PipesModule</title>
<path fill="none" stroke="black" d="M4384.54,-85.07C4384.54,-103.36 4384.54,-128.8 4384.54,-128.8 4384.54,-128.8 2460.06,-128.8 2460.06,-128.8"/>
<polygon fill="black" stroke="black" points="2460.06,-125.3 2450.06,-128.8 2460.06,-132.3 2460.06,-125.3"/>
</g>
<!-- DialWidgetComponent -->
<g id="node4" class="node">
<title>DialWidgetComponent</title>
<polygon fill="#ffffb3" stroke="black" points="4362.14,-84.8 4215.86,-84.8 4215.86,-48.8 4362.14,-48.8 4362.14,-84.8"/>
<text text-anchor="middle" x="4289" y="-62.6" font-family="Times,serif" font-size="14.00">DialWidgetComponent</text>
</g>
<!-- DialWidgetComponent&#45;&gt;PipesModule -->
<g id="edge4" class="edge">
<title>DialWidgetComponent&#45;&gt;PipesModule</title>
<path fill="none" stroke="black" d="M4229.86,-85.1C4229.86,-103.07 4229.86,-127.8 4229.86,-127.8 4229.86,-127.8 2460.11,-127.8 2460.11,-127.8"/>
<polygon fill="black" stroke="black" points="2460.11,-124.3 2450.11,-127.8 2460.11,-131.3 2460.11,-124.3"/>
</g>
<!-- DtesChartComponent -->
<g id="node5" class="node">
<title>DtesChartComponent</title>
<polygon fill="#ffffb3" stroke="black" points="4198.1,-84.8 4059.9,-84.8 4059.9,-48.8 4198.1,-48.8 4198.1,-84.8"/>
<text text-anchor="middle" x="4129" y="-62.6" font-family="Times,serif" font-size="14.00">DtesChartComponent</text>
</g>
<!-- DtesChartComponent&#45;&gt;PipesModule -->
<g id="edge5" class="edge">
<title>DtesChartComponent&#45;&gt;PipesModule</title>
<path fill="none" stroke="black" d="M4070.44,-84.8C4070.44,-102.48 4070.44,-126.8 4070.44,-126.8 4070.44,-126.8 2459.98,-126.8 2459.98,-126.8"/>
<polygon fill="black" stroke="black" points="2459.98,-123.3 2449.98,-126.8 2459.98,-130.3 2459.98,-123.3"/>
</g>
<!-- EtpChartComponent -->
<g id="node6" class="node">
<title>EtpChartComponent</title>
<polygon fill="#ffffb3" stroke="black" points="4041.88,-84.8 3910.12,-84.8 3910.12,-48.8 4041.88,-48.8 4041.88,-84.8"/>
<text text-anchor="middle" x="3976" y="-62.6" font-family="Times,serif" font-size="14.00">EtpChartComponent</text>
</g>
<!-- EtpChartComponent&#45;&gt;PipesModule -->
<g id="edge6" class="edge">
<title>EtpChartComponent&#45;&gt;PipesModule</title>
<path fill="none" stroke="black" d="M3918.19,-84.82C3918.19,-102.17 3918.19,-125.8 3918.19,-125.8 3918.19,-125.8 2460.29,-125.8 2460.29,-125.8"/>
<polygon fill="black" stroke="black" points="2460.29,-122.3 2450.29,-125.8 2460.29,-129.3 2460.29,-122.3"/>
</g>
<!-- EtpPreviewComponent -->
<g id="node7" class="node">
<title>EtpPreviewComponent</title>
<polygon fill="#ffffb3" stroke="black" points="3892.15,-84.8 3745.85,-84.8 3745.85,-48.8 3892.15,-48.8 3892.15,-84.8"/>
<text text-anchor="middle" x="3819" y="-62.6" font-family="Times,serif" font-size="14.00">EtpPreviewComponent</text>
</g>
<!-- EtpPreviewComponent&#45;&gt;PipesModule -->
<g id="edge7" class="edge">
<title>EtpPreviewComponent&#45;&gt;PipesModule</title>
<path fill="none" stroke="black" d="M3751.8,-84.84C3751.8,-101.53 3751.8,-123.8 3751.8,-123.8 3751.8,-123.8 2460.2,-123.8 2460.2,-123.8"/>
<polygon fill="black" stroke="black" points="2460.2,-120.3 2450.2,-123.8 2460.2,-127.3 2460.2,-120.3"/>
</g>
<!-- FiguresWidgetComponent -->
<g id="node8" class="node">
<title>FiguresWidgetComponent</title>
<polygon fill="#ffffb3" stroke="black" points="3727.04,-84.8 3562.96,-84.8 3562.96,-48.8 3727.04,-48.8 3727.04,-84.8"/>
<text text-anchor="middle" x="3645" y="-62.6" font-family="Times,serif" font-size="14.00">FiguresWidgetComponent</text>
</g>
<!-- FiguresWidgetComponent&#45;&gt;PipesModule -->
<g id="edge8" class="edge">
<title>FiguresWidgetComponent&#45;&gt;PipesModule</title>
<path fill="none" stroke="black" d="M3567.36,-84.83C3567.36,-101.2 3567.36,-122.8 3567.36,-122.8 3567.36,-122.8 2460.21,-122.8 2460.21,-122.8"/>
<polygon fill="black" stroke="black" points="2460.21,-119.3 2450.21,-122.8 2460.21,-126.3 2460.21,-119.3"/>
</g>
<!-- FooterNoConnectedComponent -->
<g id="node9" class="node">
<title>FooterNoConnectedComponent</title>
<polygon fill="#ffffb3" stroke="black" points="3544.36,-84.8 3349.64,-84.8 3349.64,-48.8 3544.36,-48.8 3544.36,-84.8"/>
<text text-anchor="middle" x="3447" y="-62.6" font-family="Times,serif" font-size="14.00">FooterNoConnectedComponent</text>
</g>
<!-- FooterNoConnectedComponent&#45;&gt;PipesModule -->
<g id="edge9" class="edge">
<title>FooterNoConnectedComponent&#45;&gt;PipesModule</title>
<path fill="none" stroke="black" d="M3481.56,-84.81C3481.56,-100.85 3481.56,-121.8 3481.56,-121.8 3481.56,-121.8 2460.23,-121.8 2460.23,-121.8"/>
<polygon fill="black" stroke="black" points="2460.23,-118.3 2450.23,-121.8 2460.23,-125.3 2460.23,-118.3"/>
</g>
<!-- InOutChartComponent -->
<g id="node10" class="node">
<title>InOutChartComponent</title>
<polygon fill="#ffffb3" stroke="black" points="3331.6,-84.8 3186.4,-84.8 3186.4,-48.8 3331.6,-48.8 3331.6,-84.8"/>
<text text-anchor="middle" x="3259" y="-62.6" font-family="Times,serif" font-size="14.00">InOutChartComponent</text>
</g>
<!-- InOutChartComponent&#45;&gt;PipesModule -->
<g id="edge10" class="edge">
<title>InOutChartComponent&#45;&gt;PipesModule</title>
<path fill="none" stroke="black" d="M3284.27,-85.08C3284.27,-100.75 3284.27,-120.8 3284.27,-120.8 3284.27,-120.8 2460.12,-120.8 2460.12,-120.8"/>
<polygon fill="black" stroke="black" points="2460.12,-117.3 2450.12,-120.8 2460.12,-124.3 2460.12,-117.3"/>
</g>
<!-- InputButtonComponent -->
<g id="node11" class="node">
<title>InputButtonComponent</title>
<polygon fill="#ffffb3" stroke="black" points="3168.5,-84.8 3019.5,-84.8 3019.5,-48.8 3168.5,-48.8 3168.5,-84.8"/>
<text text-anchor="middle" x="3094" y="-62.6" font-family="Times,serif" font-size="14.00">InputButtonComponent</text>
</g>
<!-- InputButtonComponent&#45;&gt;PipesModule -->
<g id="edge11" class="edge">
<title>InputButtonComponent&#45;&gt;PipesModule</title>
<path fill="none" stroke="black" d="M3118.83,-84.99C3118.83,-99.98 3118.83,-118.8 3118.83,-118.8 3118.83,-118.8 2459.92,-118.8 2459.92,-118.8"/>
<polygon fill="black" stroke="black" points="2459.92,-115.3 2449.92,-118.8 2459.92,-122.3 2459.92,-115.3"/>
</g>
<!-- InputPercentageComponent -->
<g id="node12" class="node">
<title>InputPercentageComponent</title>
<polygon fill="#ffffb3" stroke="black" points="3001.29,-84.8 2828.71,-84.8 2828.71,-48.8 3001.29,-48.8 3001.29,-84.8"/>
<text text-anchor="middle" x="2915" y="-62.6" font-family="Times,serif" font-size="14.00">InputPercentageComponent</text>
</g>
<!-- InputPercentageComponent&#45;&gt;PipesModule -->
<g id="edge12" class="edge">
<title>InputPercentageComponent&#45;&gt;PipesModule</title>
<path fill="none" stroke="black" d="M2886.2,-84.92C2886.2,-99.58 2886.2,-117.8 2886.2,-117.8 2886.2,-117.8 2460.27,-117.8 2460.27,-117.8"/>
<polygon fill="black" stroke="black" points="2460.27,-114.3 2450.27,-117.8 2460.27,-121.3 2460.27,-114.3"/>
</g>
<!-- LegendLabelComponent -->
<g id="node13" class="node">
<title>LegendLabelComponent</title>
<polygon fill="#ffffb3" stroke="black" points="2810.68,-84.8 2655.32,-84.8 2655.32,-48.8 2810.68,-48.8 2810.68,-84.8"/>
<text text-anchor="middle" x="2733" y="-62.6" font-family="Times,serif" font-size="14.00">LegendLabelComponent</text>
</g>
<!-- LegendLabelComponent&#45;&gt;PipesModule -->
<g id="edge13" class="edge">
<title>LegendLabelComponent&#45;&gt;PipesModule</title>
<path fill="none" stroke="black" d="M2706.05,-84.85C2706.05,-99.17 2706.05,-116.8 2706.05,-116.8 2706.05,-116.8 2460.07,-116.8 2460.07,-116.8"/>
<polygon fill="black" stroke="black" points="2460.07,-113.3 2450.07,-116.8 2460.07,-120.3 2460.07,-113.3"/>
</g>
<!-- ListSelectionComponent -->
<g id="node14" class="node">
<title>ListSelectionComponent</title>
<polygon fill="#ffffb3" stroke="black" points="2637.71,-84.8 2482.29,-84.8 2482.29,-48.8 2637.71,-48.8 2637.71,-84.8"/>
<text text-anchor="middle" x="2560" y="-62.6" font-family="Times,serif" font-size="14.00">ListSelectionComponent</text>
</g>
<!-- ListSelectionComponent&#45;&gt;PipesModule -->
<g id="edge14" class="edge">
<title>ListSelectionComponent&#45;&gt;PipesModule</title>
<path fill="none" stroke="black" d="M2556.38,-85.05C2556.38,-98.98 2556.38,-115.8 2556.38,-115.8 2556.38,-115.8 2460.01,-115.8 2460.01,-115.8"/>
<polygon fill="black" stroke="black" points="2460.01,-112.3 2450.01,-115.8 2460.01,-119.3 2460.01,-112.3"/>
</g>
<!-- LoadersWidgetComponent -->
<g id="node15" class="node">
<title>LoadersWidgetComponent</title>
<polygon fill="#ffffb3" stroke="black" points="2464.63,-84.8 2297.37,-84.8 2297.37,-48.8 2464.63,-48.8 2464.63,-84.8"/>
<text text-anchor="middle" x="2381" y="-62.6" font-family="Times,serif" font-size="14.00">LoadersWidgetComponent</text>
</g>
<!-- LoadersWidgetComponent&#45;&gt;PipesModule -->
<g id="edge15" class="edge">
<title>LoadersWidgetComponent&#45;&gt;PipesModule</title>
<path fill="none" stroke="black" d="M2405,-84.91C2405,-84.91 2405,-103.79 2405,-103.79"/>
<polygon fill="black" stroke="black" points="2401.5,-103.79 2405,-113.79 2408.5,-103.79 2401.5,-103.79"/>
</g>
<!-- NewsComponent -->
<g id="node16" class="node">
<title>NewsComponent</title>
<polygon fill="#ffffb3" stroke="black" points="2279.71,-84.8 2166.29,-84.8 2166.29,-48.8 2279.71,-48.8 2279.71,-84.8"/>
<text text-anchor="middle" x="2223" y="-62.6" font-family="Times,serif" font-size="14.00">NewsComponent</text>
</g>
<!-- NewsComponent&#45;&gt;PipesModule -->
<g id="edge16" class="edge">
<title>NewsComponent&#45;&gt;PipesModule</title>
<path fill="none" stroke="black" d="M2271.98,-85.05C2271.98,-98.98 2271.98,-115.8 2271.98,-115.8 2271.98,-115.8 2349.97,-115.8 2349.97,-115.8"/>
<polygon fill="black" stroke="black" points="2349.97,-119.3 2359.97,-115.8 2349.97,-112.3 2349.97,-119.3"/>
</g>
<!-- OptionsBackupPanelComponent -->
<g id="node17" class="node">
<title>OptionsBackupPanelComponent</title>
<polygon fill="#ffffb3" stroke="black" points="2148.54,-84.8 1949.46,-84.8 1949.46,-48.8 2148.54,-48.8 2148.54,-84.8"/>
<text text-anchor="middle" x="2049" y="-62.6" font-family="Times,serif" font-size="14.00">OptionsBackupPanelComponent</text>
</g>
<!-- OptionsBackupPanelComponent&#45;&gt;PipesModule -->
<g id="edge17" class="edge">
<title>OptionsBackupPanelComponent&#45;&gt;PipesModule</title>
<path fill="none" stroke="black" d="M2138.58,-84.85C2138.58,-99.17 2138.58,-116.8 2138.58,-116.8 2138.58,-116.8 2350.11,-116.8 2350.11,-116.8"/>
<polygon fill="black" stroke="black" points="2350.11,-120.3 2360.11,-116.8 2350.11,-113.3 2350.11,-120.3"/>
</g>
<!-- PanelActivitiesComponent -->
<g id="node18" class="node">
<title>PanelActivitiesComponent</title>
<polygon fill="#ffffb3" stroke="black" points="1931.37,-84.8 1764.63,-84.8 1764.63,-48.8 1931.37,-48.8 1931.37,-84.8"/>
<text text-anchor="middle" x="1848" y="-62.6" font-family="Times,serif" font-size="14.00">PanelActivitiesComponent</text>
</g>
<!-- PanelActivitiesComponent&#45;&gt;PipesModule -->
<g id="edge18" class="edge">
<title>PanelActivitiesComponent&#45;&gt;PipesModule</title>
<path fill="none" stroke="black" d="M1917.33,-84.92C1917.33,-99.58 1917.33,-117.8 1917.33,-117.8 1917.33,-117.8 2350,-117.8 2350,-117.8"/>
<polygon fill="black" stroke="black" points="2350,-121.3 2360,-117.8 2350,-114.3 2350,-121.3"/>
</g>
<!-- PopupComponent -->
<g id="node19" class="node">
<title>PopupComponent</title>
<polygon fill="#ffffb3" stroke="black" points="1746.62,-84.8 1629.38,-84.8 1629.38,-48.8 1746.62,-48.8 1746.62,-84.8"/>
<text text-anchor="middle" x="1688" y="-62.6" font-family="Times,serif" font-size="14.00">PopupComponent</text>
</g>
<!-- PopupComponent&#45;&gt;PipesModule -->
<g id="edge19" class="edge">
<title>PopupComponent&#45;&gt;PipesModule</title>
<path fill="none" stroke="black" d="M1742.19,-85.04C1742.19,-100.37 1742.19,-119.8 1742.19,-119.8 1742.19,-119.8 2349.96,-119.8 2349.96,-119.8"/>
<polygon fill="black" stroke="black" points="2349.96,-123.3 2359.96,-119.8 2349.96,-116.3 2349.96,-123.3"/>
</g>
<!-- ProgressionBarComponent -->
<g id="node20" class="node">
<title>ProgressionBarComponent</title>
<polygon fill="#ffffb3" stroke="black" points="1611.66,-84.8 1444.34,-84.8 1444.34,-48.8 1611.66,-48.8 1611.66,-84.8"/>
<text text-anchor="middle" x="1528" y="-62.6" font-family="Times,serif" font-size="14.00">ProgressionBarComponent</text>
</g>
<!-- ProgressionBarComponent&#45;&gt;PipesModule -->
<g id="edge20" class="edge">
<title>ProgressionBarComponent&#45;&gt;PipesModule</title>
<path fill="none" stroke="black" d="M1605.76,-85.08C1605.76,-100.75 1605.76,-120.8 1605.76,-120.8 1605.76,-120.8 2350.03,-120.8 2350.03,-120.8"/>
<polygon fill="black" stroke="black" points="2350.03,-124.3 2360.03,-120.8 2350.03,-117.3 2350.03,-124.3"/>
</g>
<!-- RadioButtonComponent -->
<g id="node21" class="node">
<title>RadioButtonComponent</title>
<polygon fill="#ffffb3" stroke="black" points="1426.39,-84.8 1273.61,-84.8 1273.61,-48.8 1426.39,-48.8 1426.39,-84.8"/>
<text text-anchor="middle" x="1350" y="-62.6" font-family="Times,serif" font-size="14.00">RadioButtonComponent</text>
</g>
<!-- RadioButtonComponent&#45;&gt;PipesModule -->
<g id="edge21" class="edge">
<title>RadioButtonComponent&#45;&gt;PipesModule</title>
<path fill="none" stroke="black" d="M1418.43,-84.81C1418.43,-100.85 1418.43,-121.8 1418.43,-121.8 1418.43,-121.8 2350.05,-121.8 2350.05,-121.8"/>
<polygon fill="black" stroke="black" points="2350.05,-125.3 2360.05,-121.8 2350.05,-118.3 2350.05,-125.3"/>
</g>
<!-- SelectCheckAllComponent -->
<g id="node22" class="node">
<title>SelectCheckAllComponent</title>
<polygon fill="#ffffb3" stroke="black" points="1255.69,-84.8 1086.31,-84.8 1086.31,-48.8 1255.69,-48.8 1255.69,-84.8"/>
<text text-anchor="middle" x="1171" y="-62.6" font-family="Times,serif" font-size="14.00">SelectCheckAllComponent</text>
</g>
<!-- SelectCheckAllComponent&#45;&gt;PipesModule -->
<g id="edge22" class="edge">
<title>SelectCheckAllComponent&#45;&gt;PipesModule</title>
<path fill="none" stroke="black" d="M1245.7,-84.84C1245.7,-101.53 1245.7,-123.8 1245.7,-123.8 1245.7,-123.8 2349.91,-123.8 2349.91,-123.8"/>
<polygon fill="black" stroke="black" points="2349.91,-127.3 2359.91,-123.8 2349.91,-120.3 2349.91,-127.3"/>
</g>
<!-- SelectComponent -->
<g id="node23" class="node">
<title>SelectComponent</title>
<polygon fill="#ffffb3" stroke="black" points="1068.54,-84.8 953.46,-84.8 953.46,-48.8 1068.54,-48.8 1068.54,-84.8"/>
<text text-anchor="middle" x="1011" y="-62.6" font-family="Times,serif" font-size="14.00">SelectComponent</text>
</g>
<!-- SelectComponent&#45;&gt;PipesModule -->
<g id="edge23" class="edge">
<title>SelectComponent&#45;&gt;PipesModule</title>
<path fill="none" stroke="black" d="M1056.71,-84.83C1056.71,-101.86 1056.71,-124.8 1056.71,-124.8 1056.71,-124.8 2349.75,-124.8 2349.75,-124.8"/>
<polygon fill="black" stroke="black" points="2349.75,-128.3 2359.75,-124.8 2349.75,-121.3 2349.75,-128.3"/>
</g>
<!-- SpeedometerComponent -->
<g id="node24" class="node">
<title>SpeedometerComponent</title>
<polygon fill="#ffffb3" stroke="black" points="935.41,-84.8 780.59,-84.8 780.59,-48.8 935.41,-48.8 935.41,-84.8"/>
<text text-anchor="middle" x="858" y="-62.6" font-family="Times,serif" font-size="14.00">SpeedometerComponent</text>
</g>
<!-- SpeedometerComponent&#45;&gt;PipesModule -->
<g id="edge24" class="edge">
<title>SpeedometerComponent&#45;&gt;PipesModule</title>
<path fill="none" stroke="black" d="M921.34,-84.82C921.34,-102.17 921.34,-125.8 921.34,-125.8 921.34,-125.8 2349.79,-125.8 2349.79,-125.8"/>
<polygon fill="black" stroke="black" points="2349.79,-129.3 2359.79,-125.8 2349.79,-122.3 2349.79,-129.3"/>
</g>
<!-- TimeSelectorComponent -->
<g id="node25" class="node">
<title>TimeSelectorComponent</title>
<polygon fill="#ffffb3" stroke="black" points="762.25,-84.8 605.75,-84.8 605.75,-48.8 762.25,-48.8 762.25,-84.8"/>
<text text-anchor="middle" x="684" y="-62.6" font-family="Times,serif" font-size="14.00">TimeSelectorComponent</text>
</g>
<!-- TimeSelectorComponent&#45;&gt;PipesModule -->
<g id="edge25" class="edge">
<title>TimeSelectorComponent&#45;&gt;PipesModule</title>
<path fill="none" stroke="black" d="M747.21,-85.1C747.21,-103.07 747.21,-127.8 747.21,-127.8 747.21,-127.8 2349.8,-127.8 2349.8,-127.8"/>
<polygon fill="black" stroke="black" points="2349.8,-131.3 2359.8,-127.8 2349.8,-124.3 2349.8,-131.3"/>
</g>
<!-- TooltipsComponent -->
<g id="node26" class="node">
<title>TooltipsComponent</title>
<polygon fill="#ffffb3" stroke="black" points="588,-84.8 460,-84.8 460,-48.8 588,-48.8 588,-84.8"/>
<text text-anchor="middle" x="524" y="-62.6" font-family="Times,serif" font-size="14.00">TooltipsComponent</text>
</g>
<!-- TooltipsComponent&#45;&gt;PipesModule -->
<g id="edge26" class="edge">
<title>TooltipsComponent&#45;&gt;PipesModule</title>
<path fill="none" stroke="black" d="M570.94,-85.07C570.94,-103.36 570.94,-128.8 570.94,-128.8 570.94,-128.8 2349.66,-128.8 2349.66,-128.8"/>
<polygon fill="black" stroke="black" points="2349.66,-132.3 2359.66,-128.8 2349.66,-125.3 2349.66,-132.3"/>
</g>
<!-- WrapperComponent -->
<g id="node27" class="node">
<title>WrapperComponent</title>
<polygon fill="#ffffb3" stroke="black" points="442.3,-84.8 311.7,-84.8 311.7,-48.8 442.3,-48.8 442.3,-84.8"/>
<text text-anchor="middle" x="377" y="-62.6" font-family="Times,serif" font-size="14.00">WrapperComponent</text>
</g>
<!-- WrapperComponent&#45;&gt;PipesModule -->
<g id="edge27" class="edge">
<title>WrapperComponent&#45;&gt;PipesModule</title>
<path fill="none" stroke="black" d="M423.2,-85.02C423.2,-103.63 423.2,-129.8 423.2,-129.8 423.2,-129.8 2349.88,-129.8 2349.88,-129.8"/>
<polygon fill="black" stroke="black" points="2349.88,-133.3 2359.88,-129.8 2349.88,-126.3 2349.88,-133.3"/>
</g>
<!-- WrapperNoConnectedComponent -->
<g id="node28" class="node">
<title>WrapperNoConnectedComponent</title>
<polygon fill="#ffffb3" stroke="black" points="293.78,-84.8 86.22,-84.8 86.22,-48.8 293.78,-48.8 293.78,-84.8"/>
<text text-anchor="middle" x="190" y="-62.6" font-family="Times,serif" font-size="14.00">WrapperNoConnectedComponent</text>
</g>
<!-- WrapperNoConnectedComponent&#45;&gt;PipesModule -->
<g id="edge28" class="edge">
<title>WrapperNoConnectedComponent&#45;&gt;PipesModule</title>
<path fill="none" stroke="black" d="M272.87,-84.91C272.87,-104.14 272.87,-131.8 272.87,-131.8 272.87,-131.8 2349.98,-131.8 2349.98,-131.8"/>
<polygon fill="black" stroke="black" points="2349.98,-135.3 2359.98,-131.8 2349.98,-128.3 2349.98,-135.3"/>
</g>
<!-- CoveragePreviewComponent  -->
<g id="node30" class="node">
<title>CoveragePreviewComponent </title>
<polygon fill="#fb8072" stroke="black" points="4945.35,-214.8 4760.65,-214.8 4760.65,-178.8 4945.35,-178.8 4945.35,-214.8"/>
<text text-anchor="middle" x="4853" y="-192.6" font-family="Times,serif" font-size="14.00">CoveragePreviewComponent </text>
</g>
<!-- PipesModule&#45;&gt;CoveragePreviewComponent  -->
<g id="edge29" class="edge">
<title>PipesModule&#45;&gt;CoveragePreviewComponent </title>
<path fill="none" stroke="black" stroke-dasharray="5,2" d="M2450.03,-132.8C2781.73,-132.8 4834.12,-132.8 4834.12,-132.8 4834.12,-132.8 4834.12,-168.63 4834.12,-168.63"/>
<polygon fill="black" stroke="black" points="4830.63,-168.63 4834.12,-178.63 4837.63,-168.63 4830.63,-168.63"/>
</g>
<!-- DateSelectBlueComponent  -->
<g id="node31" class="node">
<title>DateSelectBlueComponent </title>
<polygon fill="#fb8072" stroke="black" points="4742.91,-214.8 4571.09,-214.8 4571.09,-178.8 4742.91,-178.8 4742.91,-214.8"/>
<text text-anchor="middle" x="4657" y="-192.6" font-family="Times,serif" font-size="14.00">DateSelectBlueComponent </text>
</g>
<!-- PipesModule&#45;&gt;DateSelectBlueComponent  -->
<g id="edge30" class="edge">
<title>PipesModule&#45;&gt;DateSelectBlueComponent </title>
<path fill="none" stroke="black" stroke-dasharray="5,2" d="M2450.14,-133.8C2766.58,-133.8 4639.62,-133.8 4639.62,-133.8 4639.62,-133.8 4639.62,-168.58 4639.62,-168.58"/>
<polygon fill="black" stroke="black" points="4636.13,-168.58 4639.62,-178.58 4643.13,-168.58 4636.13,-168.58"/>
</g>
<!-- DateSelectComponent  -->
<g id="node32" class="node">
<title>DateSelectComponent </title>
<polygon fill="#fb8072" stroke="black" points="4552.97,-214.8 4407.03,-214.8 4407.03,-178.8 4552.97,-178.8 4552.97,-214.8"/>
<text text-anchor="middle" x="4480" y="-192.6" font-family="Times,serif" font-size="14.00">DateSelectComponent </text>
</g>
<!-- PipesModule&#45;&gt;DateSelectComponent  -->
<g id="edge31" class="edge">
<title>PipesModule&#45;&gt;DateSelectComponent </title>
<path fill="none" stroke="black" stroke-dasharray="5,2" d="M2449.93,-135.8C2751.13,-135.8 4464.62,-135.8 4464.62,-135.8 4464.62,-135.8 4464.62,-168.5 4464.62,-168.5"/>
<polygon fill="black" stroke="black" points="4461.13,-168.5 4464.62,-178.5 4468.13,-168.5 4461.13,-168.5"/>
</g>
<!-- DialWidgetComponent  -->
<g id="node33" class="node">
<title>DialWidgetComponent </title>
<polygon fill="#fb8072" stroke="black" points="4389.14,-214.8 4238.86,-214.8 4238.86,-178.8 4389.14,-178.8 4389.14,-214.8"/>
<text text-anchor="middle" x="4314" y="-192.6" font-family="Times,serif" font-size="14.00">DialWidgetComponent </text>
</g>
<!-- PipesModule&#45;&gt;DialWidgetComponent  -->
<g id="edge32" class="edge">
<title>PipesModule&#45;&gt;DialWidgetComponent </title>
<path fill="none" stroke="black" stroke-dasharray="5,2" d="M2449.99,-136.8C2737.05,-136.8 4300.62,-136.8 4300.62,-136.8 4300.62,-136.8 4300.62,-168.8 4300.62,-168.8"/>
<polygon fill="black" stroke="black" points="4297.13,-168.8 4300.62,-178.8 4304.13,-168.8 4297.13,-168.8"/>
</g>
<!-- DtesChartComponent  -->
<g id="node34" class="node">
<title>DtesChartComponent </title>
<polygon fill="#fb8072" stroke="black" points="4220.6,-214.8 4079.4,-214.8 4079.4,-178.8 4220.6,-178.8 4220.6,-214.8"/>
<text text-anchor="middle" x="4150" y="-192.6" font-family="Times,serif" font-size="14.00">DtesChartComponent </text>
</g>
<!-- PipesModule&#45;&gt;DtesChartComponent  -->
<g id="edge33" class="edge">
<title>PipesModule&#45;&gt;DtesChartComponent </title>
<path fill="none" stroke="black" stroke-dasharray="5,2" d="M2450.04,-137.8C2722.48,-137.8 4138.62,-137.8 4138.62,-137.8 4138.62,-137.8 4138.62,-168.78 4138.62,-168.78"/>
<polygon fill="black" stroke="black" points="4135.13,-168.78 4138.62,-178.78 4142.13,-168.78 4135.13,-168.78"/>
</g>
<!-- EtpChartComponent  -->
<g id="node35" class="node">
<title>EtpChartComponent </title>
<polygon fill="#fb8072" stroke="black" points="4061.88,-214.8 3926.12,-214.8 3926.12,-178.8 4061.88,-178.8 4061.88,-214.8"/>
<text text-anchor="middle" x="3994" y="-192.6" font-family="Times,serif" font-size="14.00">EtpChartComponent </text>
</g>
<!-- PipesModule&#45;&gt;EtpChartComponent  -->
<g id="edge34" class="edge">
<title>PipesModule&#45;&gt;EtpChartComponent </title>
<path fill="none" stroke="black" stroke-dasharray="5,2" d="M2450.14,-138.8C2708.09,-138.8 3984.12,-138.8 3984.12,-138.8 3984.12,-138.8 3984.12,-168.77 3984.12,-168.77"/>
<polygon fill="black" stroke="black" points="3980.63,-168.77 3984.12,-178.77 3987.63,-168.77 3980.63,-168.77"/>
</g>
<!-- EtpPreviewComponent  -->
<g id="node36" class="node">
<title>EtpPreviewComponent </title>
<polygon fill="#fb8072" stroke="black" points="3908.15,-214.8 3757.85,-214.8 3757.85,-178.8 3908.15,-178.8 3908.15,-214.8"/>
<text text-anchor="middle" x="3833" y="-192.6" font-family="Times,serif" font-size="14.00">EtpPreviewComponent </text>
</g>
<!-- PipesModule&#45;&gt;EtpPreviewComponent  -->
<g id="edge35" class="edge">
<title>PipesModule&#45;&gt;EtpPreviewComponent </title>
<path fill="none" stroke="black" stroke-dasharray="5,2" d="M2450.24,-140.8C2692.48,-140.8 3825.12,-140.8 3825.12,-140.8 3825.12,-140.8 3825.12,-168.77 3825.12,-168.77"/>
<polygon fill="black" stroke="black" points="3821.63,-168.77 3825.12,-178.77 3828.63,-168.77 3821.63,-168.77"/>
</g>
<!-- FiguresWidgetComponent  -->
<g id="node37" class="node">
<title>FiguresWidgetComponent </title>
<polygon fill="#fb8072" stroke="black" points="3740.04,-214.8 3571.96,-214.8 3571.96,-178.8 3740.04,-178.8 3740.04,-214.8"/>
<text text-anchor="middle" x="3656" y="-192.6" font-family="Times,serif" font-size="14.00">FiguresWidgetComponent </text>
</g>
<!-- PipesModule&#45;&gt;FiguresWidgetComponent  -->
<g id="edge36" class="edge">
<title>PipesModule&#45;&gt;FiguresWidgetComponent </title>
<path fill="none" stroke="black" stroke-dasharray="5,2" d="M2450.03,-141.8C2673.17,-141.8 3649.62,-141.8 3649.62,-141.8 3649.62,-141.8 3649.62,-168.79 3649.62,-168.79"/>
<polygon fill="black" stroke="black" points="3646.13,-168.79 3649.62,-178.79 3653.13,-168.79 3646.13,-168.79"/>
</g>
<!-- FooterNoConnectedComponent  -->
<g id="node38" class="node">
<title>FooterNoConnectedComponent </title>
<polygon fill="#fb8072" stroke="black" points="3554.36,-214.8 3355.64,-214.8 3355.64,-178.8 3554.36,-178.8 3554.36,-214.8"/>
<text text-anchor="middle" x="3455" y="-192.6" font-family="Times,serif" font-size="14.00">FooterNoConnectedComponent </text>
</g>
<!-- PipesModule&#45;&gt;FooterNoConnectedComponent  -->
<g id="edge37" class="edge">
<title>PipesModule&#45;&gt;FooterNoConnectedComponent </title>
<path fill="none" stroke="black" stroke-dasharray="5,2" d="M2450.19,-142.8C2646.91,-142.8 3418.69,-142.8 3418.69,-142.8 3418.69,-142.8 3418.69,-168.52 3418.69,-168.52"/>
<polygon fill="black" stroke="black" points="3415.19,-168.52 3418.69,-178.52 3422.19,-168.52 3415.19,-168.52"/>
</g>
<!-- InOutChartComponent  -->
<g id="node39" class="node">
<title>InOutChartComponent </title>
<polygon fill="#fb8072" stroke="black" points="3338.1,-214.8 3189.9,-214.8 3189.9,-178.8 3338.1,-178.8 3338.1,-214.8"/>
<text text-anchor="middle" x="3264" y="-192.6" font-family="Times,serif" font-size="14.00">InOutChartComponent </text>
</g>
<!-- PipesModule&#45;&gt;InOutChartComponent  -->
<g id="edge38" class="edge">
<title>PipesModule&#45;&gt;InOutChartComponent </title>
<path fill="none" stroke="black" stroke-dasharray="5,2" d="M2450.03,-143.8C2623.24,-143.8 3236.98,-143.8 3236.98,-143.8 3236.98,-143.8 3236.98,-168.56 3236.98,-168.56"/>
<polygon fill="black" stroke="black" points="3233.48,-168.56 3236.98,-178.56 3240.48,-168.56 3233.48,-168.56"/>
</g>
<!-- InputButtonComponent  -->
<g id="node40" class="node">
<title>InputButtonComponent </title>
<polygon fill="#fb8072" stroke="black" points="3171,-214.8 3019,-214.8 3019,-178.8 3171,-178.8 3171,-214.8"/>
<text text-anchor="middle" x="3095" y="-192.6" font-family="Times,serif" font-size="14.00">InputButtonComponent </text>
</g>
<!-- PipesModule&#45;&gt;InputButtonComponent  -->
<g id="edge39" class="edge">
<title>PipesModule&#45;&gt;InputButtonComponent </title>
<path fill="none" stroke="black" stroke-dasharray="5,2" d="M2450.13,-145.8C2599.61,-145.8 3069.17,-145.8 3069.17,-145.8 3069.17,-145.8 3069.17,-168.68 3069.17,-168.68"/>
<polygon fill="black" stroke="black" points="3065.67,-168.68 3069.17,-178.68 3072.67,-168.68 3065.67,-168.68"/>
</g>
<!-- InputPercentageComponent  -->
<g id="node41" class="node">
<title>InputPercentageComponent </title>
<polygon fill="#fb8072" stroke="black" points="3000.79,-214.8 2825.21,-214.8 2825.21,-178.8 3000.79,-178.8 3000.79,-214.8"/>
<text text-anchor="middle" x="2913" y="-192.6" font-family="Times,serif" font-size="14.00">InputPercentageComponent </text>
</g>
<!-- PipesModule&#45;&gt;InputPercentageComponent  -->
<g id="edge40" class="edge">
<title>PipesModule&#45;&gt;InputPercentageComponent </title>
<path fill="none" stroke="black" stroke-dasharray="5,2" d="M2449.99,-146.8C2579.42,-146.8 2943.55,-146.8 2943.55,-146.8 2943.55,-146.8 2943.55,-168.75 2943.55,-168.75"/>
<polygon fill="black" stroke="black" points="2940.05,-168.75 2943.55,-178.75 2947.05,-168.75 2940.05,-168.75"/>
</g>
<!-- LegendLabelComponent  -->
<g id="node42" class="node">
<title>LegendLabelComponent </title>
<polygon fill="#fb8072" stroke="black" points="2807.18,-214.8 2648.82,-214.8 2648.82,-178.8 2807.18,-178.8 2807.18,-214.8"/>
<text text-anchor="middle" x="2728" y="-192.6" font-family="Times,serif" font-size="14.00">LegendLabelComponent </text>
</g>
<!-- PipesModule&#45;&gt;LegendLabelComponent  -->
<g id="edge41" class="edge">
<title>PipesModule&#45;&gt;LegendLabelComponent </title>
<path fill="none" stroke="black" stroke-dasharray="5,2" d="M2449.9,-147.8C2544.71,-147.8 2756.7,-147.8 2756.7,-147.8 2756.7,-147.8 2756.7,-168.55 2756.7,-168.55"/>
<polygon fill="black" stroke="black" points="2753.2,-168.55 2756.7,-178.55 2760.2,-168.55 2753.2,-168.55"/>
</g>
<!-- ListSelectionComponent  -->
<g id="node43" class="node">
<title>ListSelectionComponent </title>
<polygon fill="#fb8072" stroke="black" points="2630.21,-214.8 2471.79,-214.8 2471.79,-178.8 2630.21,-178.8 2630.21,-214.8"/>
<text text-anchor="middle" x="2551" y="-192.6" font-family="Times,serif" font-size="14.00">ListSelectionComponent </text>
</g>
<!-- PipesModule&#45;&gt;ListSelectionComponent  -->
<g id="edge42" class="edge">
<title>PipesModule&#45;&gt;ListSelectionComponent </title>
<path fill="none" stroke="black" stroke-dasharray="5,2" d="M2450.2,-148.8C2464.67,-148.8 2477.02,-148.8 2477.02,-148.8 2477.02,-148.8 2477.02,-168.65 2477.02,-168.65"/>
<polygon fill="black" stroke="black" points="2473.52,-168.65 2477.02,-178.65 2480.52,-168.65 2473.52,-168.65"/>
</g>
<!-- LoadersWidgetComponent  -->
<g id="node44" class="node">
<title>LoadersWidgetComponent </title>
<polygon fill="#fb8072" stroke="black" points="2453.63,-214.8 2282.37,-214.8 2282.37,-178.8 2453.63,-178.8 2453.63,-214.8"/>
<text text-anchor="middle" x="2368" y="-192.6" font-family="Times,serif" font-size="14.00">LoadersWidgetComponent </text>
</g>
<!-- PipesModule&#45;&gt;LoadersWidgetComponent  -->
<g id="edge43" class="edge">
<title>PipesModule&#45;&gt;LoadersWidgetComponent </title>
<path fill="none" stroke="black" stroke-dasharray="5,2" d="M2405,-149.91C2405,-149.91 2405,-168.79 2405,-168.79"/>
<polygon fill="black" stroke="black" points="2401.5,-168.79 2405,-178.79 2408.5,-168.79 2401.5,-168.79"/>
</g>
<!-- NewsComponent  -->
<g id="node45" class="node">
<title>NewsComponent </title>
<polygon fill="#fb8072" stroke="black" points="2264.21,-214.8 2147.79,-214.8 2147.79,-178.8 2264.21,-178.8 2264.21,-214.8"/>
<text text-anchor="middle" x="2206" y="-192.6" font-family="Times,serif" font-size="14.00">NewsComponent </text>
</g>
<!-- PipesModule&#45;&gt;NewsComponent  -->
<g id="edge44" class="edge">
<title>PipesModule&#45;&gt;NewsComponent </title>
<path fill="none" stroke="black" stroke-dasharray="5,2" d="M2360.06,-148.8C2303.99,-148.8 2215.38,-148.8 2215.38,-148.8 2215.38,-148.8 2215.38,-168.65 2215.38,-168.65"/>
<polygon fill="black" stroke="black" points="2211.88,-168.65 2215.38,-178.65 2218.88,-168.65 2211.88,-168.65"/>
</g>
<!-- OptionsBackupPanelComponent  -->
<g id="node46" class="node">
<title>OptionsBackupPanelComponent </title>
<polygon fill="#fb8072" stroke="black" points="2129.54,-214.8 1926.46,-214.8 1926.46,-178.8 2129.54,-178.8 2129.54,-214.8"/>
<text text-anchor="middle" x="2028" y="-192.6" font-family="Times,serif" font-size="14.00">OptionsBackupPanelComponent </text>
</g>
<!-- PipesModule&#45;&gt;OptionsBackupPanelComponent  -->
<g id="edge45" class="edge">
<title>PipesModule&#45;&gt;OptionsBackupPanelComponent </title>
<path fill="none" stroke="black" stroke-dasharray="5,2" d="M2359.8,-147.8C2261.98,-147.8 2039.38,-147.8 2039.38,-147.8 2039.38,-147.8 2039.38,-168.55 2039.38,-168.55"/>
<polygon fill="black" stroke="black" points="2035.88,-168.55 2039.38,-178.55 2042.88,-168.55 2035.88,-168.55"/>
</g>
<!-- PanelActivitiesComponent  -->
<g id="node47" class="node">
<title>PanelActivitiesComponent </title>
<polygon fill="#fb8072" stroke="black" points="1908.37,-214.8 1737.63,-214.8 1737.63,-178.8 1908.37,-178.8 1908.37,-214.8"/>
<text text-anchor="middle" x="1823" y="-192.6" font-family="Times,serif" font-size="14.00">PanelActivitiesComponent </text>
</g>
<!-- PipesModule&#45;&gt;PanelActivitiesComponent  -->
<g id="edge46" class="edge">
<title>PipesModule&#45;&gt;PanelActivitiesComponent </title>
<path fill="none" stroke="black" stroke-dasharray="5,2" d="M2359.91,-145.8C2225.41,-145.8 1836.38,-145.8 1836.38,-145.8 1836.38,-145.8 1836.38,-168.68 1836.38,-168.68"/>
<polygon fill="black" stroke="black" points="1832.88,-168.68 1836.38,-178.68 1839.88,-168.68 1832.88,-168.68"/>
</g>
<!-- PopupComponent  -->
<g id="node48" class="node">
<title>PopupComponent </title>
<polygon fill="#fb8072" stroke="black" points="1720.12,-214.8 1599.88,-214.8 1599.88,-178.8 1720.12,-178.8 1720.12,-214.8"/>
<text text-anchor="middle" x="1660" y="-192.6" font-family="Times,serif" font-size="14.00">PopupComponent </text>
</g>
<!-- PipesModule&#45;&gt;PopupComponent  -->
<g id="edge47" class="edge">
<title>PipesModule&#45;&gt;PopupComponent </title>
<path fill="none" stroke="black" stroke-dasharray="5,2" d="M2359.88,-144.8C2200.69,-144.8 1674.88,-144.8 1674.88,-144.8 1674.88,-144.8 1674.88,-168.61 1674.88,-168.61"/>
<polygon fill="black" stroke="black" points="1671.38,-168.61 1674.88,-178.61 1678.38,-168.61 1671.38,-168.61"/>
</g>
<!-- ProgressionBarComponent  -->
<g id="node49" class="node">
<title>ProgressionBarComponent </title>
<polygon fill="#fb8072" stroke="black" points="1581.66,-214.8 1410.34,-214.8 1410.34,-178.8 1581.66,-178.8 1581.66,-214.8"/>
<text text-anchor="middle" x="1496" y="-192.6" font-family="Times,serif" font-size="14.00">ProgressionBarComponent </text>
</g>
<!-- PipesModule&#45;&gt;ProgressionBarComponent  -->
<g id="edge48" class="edge">
<title>PipesModule&#45;&gt;ProgressionBarComponent </title>
<path fill="none" stroke="black" stroke-dasharray="5,2" d="M2359.84,-143.8C2178.49,-143.8 1512.88,-143.8 1512.88,-143.8 1512.88,-143.8 1512.88,-168.56 1512.88,-168.56"/>
<polygon fill="black" stroke="black" points="1509.38,-168.56 1512.88,-178.56 1516.38,-168.56 1509.38,-168.56"/>
</g>
<!-- RadioButtonComponent  -->
<g id="node50" class="node">
<title>RadioButtonComponent </title>
<polygon fill="#fb8072" stroke="black" points="1392.39,-214.8 1235.61,-214.8 1235.61,-178.8 1392.39,-178.8 1392.39,-214.8"/>
<text text-anchor="middle" x="1314" y="-192.6" font-family="Times,serif" font-size="14.00">RadioButtonComponent </text>
</g>
<!-- PipesModule&#45;&gt;RadioButtonComponent  -->
<g id="edge49" class="edge">
<title>PipesModule&#45;&gt;RadioButtonComponent </title>
<path fill="none" stroke="black" stroke-dasharray="5,2" d="M2359.96,-141.8C2156.47,-141.8 1332.88,-141.8 1332.88,-141.8 1332.88,-141.8 1332.88,-168.79 1332.88,-168.79"/>
<polygon fill="black" stroke="black" points="1329.38,-168.79 1332.88,-178.79 1336.38,-168.79 1329.38,-168.79"/>
</g>
<!-- SelectCheckAllComponent  -->
<g id="node51" class="node">
<title>SelectCheckAllComponent </title>
<polygon fill="#fb8072" stroke="black" points="1217.19,-214.8 1044.81,-214.8 1044.81,-178.8 1217.19,-178.8 1217.19,-214.8"/>
<text text-anchor="middle" x="1131" y="-192.6" font-family="Times,serif" font-size="14.00">SelectCheckAllComponent </text>
</g>
<!-- PipesModule&#45;&gt;SelectCheckAllComponent  -->
<g id="edge50" class="edge">
<title>PipesModule&#45;&gt;SelectCheckAllComponent </title>
<path fill="none" stroke="black" stroke-dasharray="5,2" d="M2360.03,-140.8C2136.08,-140.8 1151.88,-140.8 1151.88,-140.8 1151.88,-140.8 1151.88,-168.77 1151.88,-168.77"/>
<polygon fill="black" stroke="black" points="1148.38,-168.77 1151.88,-178.77 1155.38,-168.77 1148.38,-168.77"/>
</g>
<!-- SelectComponent  -->
<g id="node52" class="node">
<title>SelectComponent </title>
<polygon fill="#fb8072" stroke="black" points="1026.54,-214.8 907.46,-214.8 907.46,-178.8 1026.54,-178.8 1026.54,-214.8"/>
<text text-anchor="middle" x="967" y="-192.6" font-family="Times,serif" font-size="14.00">SelectComponent </text>
</g>
<!-- PipesModule&#45;&gt;SelectComponent  -->
<g id="edge51" class="edge">
<title>PipesModule&#45;&gt;SelectComponent </title>
<path fill="none" stroke="black" stroke-dasharray="5,2" d="M2359.92,-139.8C2118.53,-139.8 989.88,-139.8 989.88,-139.8 989.88,-139.8 989.88,-168.76 989.88,-168.76"/>
<polygon fill="black" stroke="black" points="986.38,-168.76 989.88,-178.76 993.38,-168.76 986.38,-168.76"/>
</g>
<!-- SpeedometerComponent  -->
<g id="node53" class="node">
<title>SpeedometerComponent </title>
<polygon fill="#fb8072" stroke="black" points="889.91,-214.8 732.09,-214.8 732.09,-178.8 889.91,-178.8 889.91,-214.8"/>
<text text-anchor="middle" x="811" y="-192.6" font-family="Times,serif" font-size="14.00">SpeedometerComponent </text>
</g>
<!-- PipesModule&#45;&gt;SpeedometerComponent  -->
<g id="edge52" class="edge">
<title>PipesModule&#45;&gt;SpeedometerComponent </title>
<path fill="none" stroke="black" stroke-dasharray="5,2" d="M2359.72,-137.8C2102.36,-137.8 835.38,-137.8 835.38,-137.8 835.38,-137.8 835.38,-168.78 835.38,-168.78"/>
<polygon fill="black" stroke="black" points="831.88,-168.78 835.38,-178.78 838.88,-168.78 831.88,-168.78"/>
</g>
<!-- TimeSelectorComponent  -->
<g id="node54" class="node">
<title>TimeSelectorComponent </title>
<polygon fill="#fb8072" stroke="black" points="714.25,-214.8 553.75,-214.8 553.75,-178.8 714.25,-178.8 714.25,-214.8"/>
<text text-anchor="middle" x="634" y="-192.6" font-family="Times,serif" font-size="14.00">TimeSelectorComponent </text>
</g>
<!-- PipesModule&#45;&gt;TimeSelectorComponent  -->
<g id="edge53" class="edge">
<title>PipesModule&#45;&gt;TimeSelectorComponent </title>
<path fill="none" stroke="black" stroke-dasharray="5,2" d="M2360.11,-136.8C2086.96,-136.8 659.88,-136.8 659.88,-136.8 659.88,-136.8 659.88,-168.8 659.88,-168.8"/>
<polygon fill="black" stroke="black" points="656.38,-168.8 659.88,-178.8 663.38,-168.8 656.38,-168.8"/>
</g>
<!-- TooltipsComponent  -->
<g id="node55" class="node">
<title>TooltipsComponent </title>
<polygon fill="#fb8072" stroke="black" points="535.5,-214.8 404.5,-214.8 404.5,-178.8 535.5,-178.8 535.5,-214.8"/>
<text text-anchor="middle" x="470" y="-192.6" font-family="Times,serif" font-size="14.00">TooltipsComponent </text>
</g>
<!-- PipesModule&#45;&gt;TooltipsComponent  -->
<g id="edge54" class="edge">
<title>PipesModule&#45;&gt;TooltipsComponent </title>
<path fill="none" stroke="black" stroke-dasharray="5,2" d="M2359.74,-135.8C2070.93,-135.8 497.88,-135.8 497.88,-135.8 497.88,-135.8 497.88,-168.5 497.88,-168.5"/>
<polygon fill="black" stroke="black" points="494.38,-168.5 497.88,-178.5 501.38,-168.5 494.38,-168.5"/>
</g>
<!-- WrapperComponent  -->
<g id="node56" class="node">
<title>WrapperComponent </title>
<polygon fill="#fb8072" stroke="black" points="385.8,-214.8 252.2,-214.8 252.2,-178.8 385.8,-178.8 385.8,-214.8"/>
<text text-anchor="middle" x="319" y="-192.6" font-family="Times,serif" font-size="14.00">WrapperComponent </text>
</g>
<!-- PipesModule&#45;&gt;WrapperComponent  -->
<g id="edge55" class="edge">
<title>PipesModule&#45;&gt;WrapperComponent </title>
<path fill="none" stroke="black" stroke-dasharray="5,2" d="M2359.66,-133.8C2057.62,-133.8 348.88,-133.8 348.88,-133.8 348.88,-133.8 348.88,-168.58 348.88,-168.58"/>
<polygon fill="black" stroke="black" points="345.38,-168.58 348.88,-178.58 352.38,-168.58 345.38,-168.58"/>
</g>
<!-- WrapperNoConnectedComponent  -->
<g id="node57" class="node">
<title>WrapperNoConnectedComponent </title>
<polygon fill="#fb8072" stroke="black" points="234.28,-214.8 23.72,-214.8 23.72,-178.8 234.28,-178.8 234.28,-214.8"/>
<text text-anchor="middle" x="129" y="-192.6" font-family="Times,serif" font-size="14.00">WrapperNoConnectedComponent </text>
</g>
<!-- PipesModule&#45;&gt;WrapperNoConnectedComponent  -->
<g id="edge56" class="edge">
<title>PipesModule&#45;&gt;WrapperNoConnectedComponent </title>
<path fill="none" stroke="black" stroke-dasharray="5,2" d="M2359.91,-132.8C2042.8,-132.8 160.38,-132.8 160.38,-132.8 160.38,-132.8 160.38,-168.63 160.38,-168.63"/>
<polygon fill="black" stroke="black" points="156.88,-168.63 160.38,-178.63 163.88,-168.63 156.88,-168.63"/>
</g>
</g>
</svg>
