<?xml version="1.0" encoding="UTF-8" standalone="no"?>
<!DOCTYPE svg PUBLIC "-//W3C//DTD SVG 1.1//EN"
 "http://www.w3.org/Graphics/SVG/1.1/DTD/svg11.dtd">
<!-- Generated by graphviz version 3.0.0 (20220226.1711)
 -->
<!-- Title: dependencies Pages: 1 -->
<svg width="5065pt" height="247pt"
 viewBox="0.00 0.00 5065.00 246.80" xmlns="http://www.w3.org/2000/svg" xmlns:xlink="http://www.w3.org/1999/xlink">
<g id="graph0" class="graph" transform="scale(1 1) rotate(0) translate(4 242.8)">
<title>dependencies</title>
<polygon fill="white" stroke="transparent" points="-4,4 -4,-242.8 5061,-242.8 5061,4 -4,4"/>
<text text-anchor="middle" x="2528.5" y="-8.2" font-family="sans-serif" font-size="14.00">dependencies</text>
<g id="clust1" class="cluster">
<title>cluster_PipesModule</title>
<polygon fill="none" stroke="black" stroke-dasharray="1,5" points="8,-32.8 8,-230.8 5049,-230.8 5049,-32.8 8,-32.8"/>
</g>
<g id="clust32" class="cluster">
<title>cluster_PipesModule_exports</title>
<polygon fill="none" stroke="black" points="16,-170.8 16,-222.8 5041,-222.8 5041,-170.8 16,-170.8"/>
</g>
<g id="clust2" class="cluster">
<title>cluster_PipesModule_declarations</title>
<polygon fill="none" stroke="black" points="77,-40.8 77,-92.8 5004,-92.8 5004,-40.8 77,-40.8"/>
</g>
<!-- CoveragePreviewComponent -->
<g id="node1" class="node">
<title>CoveragePreviewComponent</title>
<polygon fill="#ffffb3" stroke="black" points="4996.35,-84.8 4815.65,-84.8 4815.65,-48.8 4996.35,-48.8 4996.35,-84.8"/>
<text text-anchor="middle" x="4906" y="-62.6" font-family="Times,serif" font-size="14.00">CoveragePreviewComponent</text>
</g>
<!-- PipesModule -->
<g id="node29" class="node">
<title>PipesModule</title>
<polygon fill="#8dd3c7" stroke="black" points="2537.89,-149.8 2534.89,-153.8 2513.89,-153.8 2510.89,-149.8 2448.11,-149.8 2448.11,-113.8 2537.89,-113.8 2537.89,-149.8"/>
<text text-anchor="middle" x="2493" y="-127.6" font-family="Times,serif" font-size="14.00">PipesModule</text>
</g>
<!-- CoveragePreviewComponent&#45;&gt;PipesModule -->
<g id="edge1" class="edge">
<title>CoveragePreviewComponent&#45;&gt;PipesModule</title>
<path fill="none" stroke="black" d="M4823.26,-84.91C4823.26,-104.14 4823.26,-131.8 4823.26,-131.8 4823.26,-131.8 2547.98,-131.8 2547.98,-131.8"/>
<polygon fill="black" stroke="black" points="2547.98,-128.3 2537.98,-131.8 2547.98,-135.3 2547.98,-128.3"/>
</g>
<!-- DateSelectBlueComponent -->
<g id="node2" class="node">
<title>DateSelectBlueComponent</title>
<polygon fill="#ffffb3" stroke="black" points="4797.41,-84.8 4628.59,-84.8 4628.59,-48.8 4797.41,-48.8 4797.41,-84.8"/>
<text text-anchor="middle" x="4713" y="-62.6" font-family="Times,serif" font-size="14.00">DateSelectBlueComponent</text>
</g>
<!-- DateSelectBlueComponent&#45;&gt;PipesModule -->
<g id="edge2" class="edge">
<title>DateSelectBlueComponent&#45;&gt;PipesModule</title>
<path fill="none" stroke="black" d="M4634.76,-84.97C4634.76,-103.89 4634.76,-130.8 4634.76,-130.8 4634.76,-130.8 2548.23,-130.8 2548.23,-130.8"/>
<polygon fill="black" stroke="black" points="2548.23,-127.3 2538.23,-130.8 2548.23,-134.3 2548.23,-127.3"/>
</g>
<!-- DateSelectComponent -->
<g id="node3" class="node">
<title>DateSelectComponent</title>
<polygon fill="#ffffb3" stroke="black" points="4610.97,-84.8 4469.03,-84.8 4469.03,-48.8 4610.97,-48.8 4610.97,-84.8"/>
<text text-anchor="middle" x="4540" y="-62.6" font-family="Times,serif" font-size="14.00">DateSelectComponent</text>
</g>
<!-- DateSelectComponent&#45;&gt;PipesModule -->
<g id="edge3" class="edge">
<title>DateSelectComponent&#45;&gt;PipesModule</title>
<path fill="none" stroke="black" d="M4473.04,-85.07C4473.04,-103.36 4473.04,-128.8 4473.04,-128.8 4473.04,-128.8 2548.08,-128.8 2548.08,-128.8"/>
<polygon fill="black" stroke="black" points="2548.08,-125.3 2538.08,-128.8 2548.08,-132.3 2548.08,-125.3"/>
</g>
<!-- DialWidgetComponent -->
<g id="node4" class="node">
<title>DialWidgetComponent</title>
<polygon fill="#ffffb3" stroke="black" points="4451.14,-84.8 4304.86,-84.8 4304.86,-48.8 4451.14,-48.8 4451.14,-84.8"/>
<text text-anchor="middle" x="4378" y="-62.6" font-family="Times,serif" font-size="14.00">DialWidgetComponent</text>
</g>
<!-- DialWidgetComponent&#45;&gt;PipesModule -->
<g id="edge4" class="edge">
<title>DialWidgetComponent&#45;&gt;PipesModule</title>
<path fill="none" stroke="black" d="M4317.86,-85.1C4317.86,-103.07 4317.86,-127.8 4317.86,-127.8 4317.86,-127.8 2548.11,-127.8 2548.11,-127.8"/>
<polygon fill="black" stroke="black" points="2548.11,-124.3 2538.11,-127.8 2548.11,-131.3 2548.11,-124.3"/>
</g>
<!-- DtesChartComponent -->
<g id="node5" class="node">
<title>DtesChartComponent</title>
<polygon fill="#ffffb3" stroke="black" points="4287.1,-84.8 4148.9,-84.8 4148.9,-48.8 4287.1,-48.8 4287.1,-84.8"/>
<text text-anchor="middle" x="4218" y="-62.6" font-family="Times,serif" font-size="14.00">DtesChartComponent</text>
</g>
<!-- DtesChartComponent&#45;&gt;PipesModule -->
<g id="edge5" class="edge">
<title>DtesChartComponent&#45;&gt;PipesModule</title>
<path fill="none" stroke="black" d="M4158.44,-84.8C4158.44,-102.48 4158.44,-126.8 4158.44,-126.8 4158.44,-126.8 2547.98,-126.8 2547.98,-126.8"/>
<polygon fill="black" stroke="black" points="2547.98,-123.3 2537.98,-126.8 2547.98,-130.3 2547.98,-123.3"/>
</g>
<!-- EtpChartComponent -->
<g id="node6" class="node">
<title>EtpChartComponent</title>
<polygon fill="#ffffb3" stroke="black" points="4130.88,-84.8 3999.12,-84.8 3999.12,-48.8 4130.88,-48.8 4130.88,-84.8"/>
<text text-anchor="middle" x="4065" y="-62.6" font-family="Times,serif" font-size="14.00">EtpChartComponent</text>
</g>
<!-- EtpChartComponent&#45;&gt;PipesModule -->
<g id="edge6" class="edge">
<title>EtpChartComponent&#45;&gt;PipesModule</title>
<path fill="none" stroke="black" d="M4006.69,-84.82C4006.69,-102.17 4006.69,-125.8 4006.69,-125.8 4006.69,-125.8 2547.89,-125.8 2547.89,-125.8"/>
<polygon fill="black" stroke="black" points="2547.89,-122.3 2537.89,-125.8 2547.89,-129.3 2547.89,-122.3"/>
</g>
<!-- EtpPreviewComponent -->
<g id="node7" class="node">
<title>EtpPreviewComponent</title>
<polygon fill="#ffffb3" stroke="black" points="3981.15,-84.8 3834.85,-84.8 3834.85,-48.8 3981.15,-48.8 3981.15,-84.8"/>
<text text-anchor="middle" x="3908" y="-62.6" font-family="Times,serif" font-size="14.00">EtpPreviewComponent</text>
</g>
<!-- EtpPreviewComponent&#45;&gt;PipesModule -->
<g id="edge7" class="edge">
<title>EtpPreviewComponent&#45;&gt;PipesModule</title>
<path fill="none" stroke="black" d="M3840.3,-84.84C3840.3,-101.53 3840.3,-123.8 3840.3,-123.8 3840.3,-123.8 2548.21,-123.8 2548.21,-123.8"/>
<polygon fill="black" stroke="black" points="2548.21,-120.3 2538.21,-123.8 2548.21,-127.3 2548.21,-120.3"/>
</g>
<!-- FiguresWidgetComponent -->
<g id="node8" class="node">
<title>FiguresWidgetComponent</title>
<polygon fill="#ffffb3" stroke="black" points="3816.04,-84.8 3651.96,-84.8 3651.96,-48.8 3816.04,-48.8 3816.04,-84.8"/>
<text text-anchor="middle" x="3734" y="-62.6" font-family="Times,serif" font-size="14.00">FiguresWidgetComponent</text>
</g>
<!-- FiguresWidgetComponent&#45;&gt;PipesModule -->
<g id="edge8" class="edge">
<title>FiguresWidgetComponent&#45;&gt;PipesModule</title>
<path fill="none" stroke="black" d="M3655.86,-84.83C3655.86,-101.2 3655.86,-122.8 3655.86,-122.8 3655.86,-122.8 2548.23,-122.8 2548.23,-122.8"/>
<polygon fill="black" stroke="black" points="2548.23,-119.3 2538.23,-122.8 2548.23,-126.3 2548.23,-119.3"/>
</g>
<!-- FooterNoConnectedComponent -->
<g id="node9" class="node">
<title>FooterNoConnectedComponent</title>
<polygon fill="#ffffb3" stroke="black" points="3633.36,-84.8 3438.64,-84.8 3438.64,-48.8 3633.36,-48.8 3633.36,-84.8"/>
<text text-anchor="middle" x="3536" y="-62.6" font-family="Times,serif" font-size="14.00">FooterNoConnectedComponent</text>
</g>
<!-- FooterNoConnectedComponent&#45;&gt;PipesModule -->
<g id="edge9" class="edge">
<title>FooterNoConnectedComponent&#45;&gt;PipesModule</title>
<path fill="none" stroke="black" d="M3570.23,-84.81C3570.23,-100.85 3570.23,-121.8 3570.23,-121.8 3570.23,-121.8 2547.92,-121.8 2547.92,-121.8"/>
<polygon fill="black" stroke="black" points="2547.92,-118.3 2537.92,-121.8 2547.92,-125.3 2547.92,-118.3"/>
</g>
<!-- InOutChartComponent -->
<g id="node10" class="node">
<title>InOutChartComponent</title>
<polygon fill="#ffffb3" stroke="black" points="3420.6,-84.8 3275.4,-84.8 3275.4,-48.8 3420.6,-48.8 3420.6,-84.8"/>
<text text-anchor="middle" x="3348" y="-62.6" font-family="Times,serif" font-size="14.00">InOutChartComponent</text>
</g>
<!-- InOutChartComponent&#45;&gt;PipesModule -->
<g id="edge10" class="edge">
<title>InOutChartComponent&#45;&gt;PipesModule</title>
<path fill="none" stroke="black" d="M3372.93,-85.08C3372.93,-100.75 3372.93,-120.8 3372.93,-120.8 3372.93,-120.8 2548.15,-120.8 2548.15,-120.8"/>
<polygon fill="black" stroke="black" points="2548.15,-117.3 2538.15,-120.8 2548.15,-124.3 2548.15,-117.3"/>
</g>
<!-- InputButtonComponent -->
<g id="node11" class="node">
<title>InputButtonComponent</title>
<polygon fill="#ffffb3" stroke="black" points="3257.5,-84.8 3108.5,-84.8 3108.5,-48.8 3257.5,-48.8 3257.5,-84.8"/>
<text text-anchor="middle" x="3183" y="-62.6" font-family="Times,serif" font-size="14.00">InputButtonComponent</text>
</g>
<!-- InputButtonComponent&#45;&gt;PipesModule -->
<g id="edge11" class="edge">
<title>InputButtonComponent&#45;&gt;PipesModule</title>
<path fill="none" stroke="black" d="M3207.83,-84.99C3207.83,-99.98 3207.83,-118.8 3207.83,-118.8 3207.83,-118.8 2547.99,-118.8 2547.99,-118.8"/>
<polygon fill="black" stroke="black" points="2547.99,-115.3 2537.99,-118.8 2547.99,-122.3 2547.99,-115.3"/>
</g>
<!-- InputPercentageComponent -->
<g id="node12" class="node">
<title>InputPercentageComponent</title>
<polygon fill="#ffffb3" stroke="black" points="3090.29,-84.8 2917.71,-84.8 2917.71,-48.8 3090.29,-48.8 3090.29,-84.8"/>
<text text-anchor="middle" x="3004" y="-62.6" font-family="Times,serif" font-size="14.00">InputPercentageComponent</text>
</g>
<!-- InputPercentageComponent&#45;&gt;PipesModule -->
<g id="edge12" class="edge">
<title>InputPercentageComponent&#45;&gt;PipesModule</title>
<path fill="none" stroke="black" d="M2974.87,-84.92C2974.87,-99.58 2974.87,-117.8 2974.87,-117.8 2974.87,-117.8 2547.9,-117.8 2547.9,-117.8"/>
<polygon fill="black" stroke="black" points="2547.9,-114.3 2537.9,-117.8 2547.9,-121.3 2547.9,-114.3"/>
</g>
<!-- LegendLabelComponent -->
<g id="node13" class="node">
<title>LegendLabelComponent</title>
<polygon fill="#ffffb3" stroke="black" points="2899.68,-84.8 2744.32,-84.8 2744.32,-48.8 2899.68,-48.8 2899.68,-84.8"/>
<text text-anchor="middle" x="2822" y="-62.6" font-family="Times,serif" font-size="14.00">LegendLabelComponent</text>
</g>
<!-- LegendLabelComponent&#45;&gt;PipesModule -->
<g id="edge13" class="edge">
<title>LegendLabelComponent&#45;&gt;PipesModule</title>
<path fill="none" stroke="black" d="M2819.88,-84.85C2819.88,-99.17 2819.88,-116.8 2819.88,-116.8 2819.88,-116.8 2548.11,-116.8 2548.11,-116.8"/>
<polygon fill="black" stroke="black" points="2548.11,-113.3 2538.11,-116.8 2548.11,-120.3 2548.11,-113.3"/>
</g>
<!-- ListSelectionComponent -->
<g id="node14" class="node">
<title>ListSelectionComponent</title>
<polygon fill="#ffffb3" stroke="black" points="2726.71,-84.8 2571.29,-84.8 2571.29,-48.8 2726.71,-48.8 2726.71,-84.8"/>
<text text-anchor="middle" x="2649" y="-62.6" font-family="Times,serif" font-size="14.00">ListSelectionComponent</text>
</g>
<!-- ListSelectionComponent&#45;&gt;PipesModule -->
<g id="edge14" class="edge">
<title>ListSelectionComponent&#45;&gt;PipesModule</title>
<path fill="none" stroke="black" d="M2644.88,-85.05C2644.88,-98.98 2644.88,-115.8 2644.88,-115.8 2644.88,-115.8 2548.16,-115.8 2548.16,-115.8"/>
<polygon fill="black" stroke="black" points="2548.16,-112.3 2538.16,-115.8 2548.16,-119.3 2548.16,-112.3"/>
</g>
<!-- LoadersWidgetComponent -->
<g id="node15" class="node">
<title>LoadersWidgetComponent</title>
<polygon fill="#ffffb3" stroke="black" points="2553.63,-84.8 2386.37,-84.8 2386.37,-48.8 2553.63,-48.8 2553.63,-84.8"/>
<text text-anchor="middle" x="2470" y="-62.6" font-family="Times,serif" font-size="14.00">LoadersWidgetComponent</text>
</g>
<!-- LoadersWidgetComponent&#45;&gt;PipesModule -->
<g id="edge15" class="edge">
<title>LoadersWidgetComponent&#45;&gt;PipesModule</title>
<path fill="none" stroke="black" d="M2493,-84.91C2493,-84.91 2493,-103.79 2493,-103.79"/>
<polygon fill="black" stroke="black" points="2489.5,-103.79 2493,-113.79 2496.5,-103.79 2489.5,-103.79"/>
</g>
<!-- OptionsBackupPanelComponent -->
<g id="node16" class="node">
<title>OptionsBackupPanelComponent</title>
<polygon fill="#ffffb3" stroke="black" points="2367.54,-84.8 2168.46,-84.8 2168.46,-48.8 2367.54,-48.8 2367.54,-84.8"/>
<text text-anchor="middle" x="2268" y="-62.6" font-family="Times,serif" font-size="14.00">OptionsBackupPanelComponent</text>
</g>
<!-- OptionsBackupPanelComponent&#45;&gt;PipesModule -->
<g id="edge16" class="edge">
<title>OptionsBackupPanelComponent&#45;&gt;PipesModule</title>
<path fill="none" stroke="black" d="M2360.14,-85.05C2360.14,-98.98 2360.14,-115.8 2360.14,-115.8 2360.14,-115.8 2438.02,-115.8 2438.02,-115.8"/>
<polygon fill="black" stroke="black" points="2438.02,-119.3 2448.02,-115.8 2438.02,-112.3 2438.02,-119.3"/>
</g>
<!-- PanelActivitiesComponent -->
<g id="node17" class="node">
<title>PanelActivitiesComponent</title>
<polygon fill="#ffffb3" stroke="black" points="2150.37,-84.8 1983.63,-84.8 1983.63,-48.8 2150.37,-48.8 2150.37,-84.8"/>
<text text-anchor="middle" x="2067" y="-62.6" font-family="Times,serif" font-size="14.00">PanelActivitiesComponent</text>
</g>
<!-- PanelActivitiesComponent&#45;&gt;PipesModule -->
<g id="edge17" class="edge">
<title>PanelActivitiesComponent&#45;&gt;PipesModule</title>
<path fill="none" stroke="black" d="M2140.33,-84.85C2140.33,-99.17 2140.33,-116.8 2140.33,-116.8 2140.33,-116.8 2437.98,-116.8 2437.98,-116.8"/>
<polygon fill="black" stroke="black" points="2437.98,-120.3 2447.98,-116.8 2437.98,-113.3 2437.98,-120.3"/>
</g>
<!-- PopupComponent -->
<g id="node18" class="node">
<title>PopupComponent</title>
<polygon fill="#ffffb3" stroke="black" points="1965.62,-84.8 1848.38,-84.8 1848.38,-48.8 1965.62,-48.8 1965.62,-84.8"/>
<text text-anchor="middle" x="1907" y="-62.6" font-family="Times,serif" font-size="14.00">PopupComponent</text>
</g>
<!-- PopupComponent&#45;&gt;PipesModule -->
<g id="edge18" class="edge">
<title>PopupComponent&#45;&gt;PipesModule</title>
<path fill="none" stroke="black" d="M1952.06,-84.92C1952.06,-99.58 1952.06,-117.8 1952.06,-117.8 1952.06,-117.8 2437.81,-117.8 2437.81,-117.8"/>
<polygon fill="black" stroke="black" points="2437.81,-121.3 2447.81,-117.8 2437.81,-114.3 2437.81,-121.3"/>
</g>
<!-- ProgressionBarComponent -->
<g id="node19" class="node">
<title>ProgressionBarComponent</title>
<polygon fill="#ffffb3" stroke="black" points="1830.66,-84.8 1663.34,-84.8 1663.34,-48.8 1830.66,-48.8 1830.66,-84.8"/>
<text text-anchor="middle" x="1747" y="-62.6" font-family="Times,serif" font-size="14.00">ProgressionBarComponent</text>
</g>
<!-- ProgressionBarComponent&#45;&gt;PipesModule -->
<g id="edge19" class="edge">
<title>ProgressionBarComponent&#45;&gt;PipesModule</title>
<path fill="none" stroke="black" d="M1826.76,-85.04C1826.76,-100.37 1826.76,-119.8 1826.76,-119.8 1826.76,-119.8 2437.99,-119.8 2437.99,-119.8"/>
<polygon fill="black" stroke="black" points="2437.99,-123.3 2447.99,-119.8 2437.99,-116.3 2437.99,-123.3"/>
</g>
<!-- RadioButtonComponent -->
<g id="node20" class="node">
<title>RadioButtonComponent</title>
<polygon fill="#ffffb3" stroke="black" points="1645.39,-84.8 1492.61,-84.8 1492.61,-48.8 1645.39,-48.8 1645.39,-84.8"/>
<text text-anchor="middle" x="1569" y="-62.6" font-family="Times,serif" font-size="14.00">RadioButtonComponent</text>
</g>
<!-- RadioButtonComponent&#45;&gt;PipesModule -->
<g id="edge20" class="edge">
<title>RadioButtonComponent&#45;&gt;PipesModule</title>
<path fill="none" stroke="black" d="M1639.43,-85.08C1639.43,-100.75 1639.43,-120.8 1639.43,-120.8 1639.43,-120.8 2438.01,-120.8 2438.01,-120.8"/>
<polygon fill="black" stroke="black" points="2438.01,-124.3 2448.01,-120.8 2438.01,-117.3 2438.01,-124.3"/>
</g>
<!-- ReferentielCalculatorComponent -->
<g id="node21" class="node">
<title>ReferentielCalculatorComponent</title>
<polygon fill="#ffffb3" stroke="black" points="1474.83,-84.8 1273.17,-84.8 1273.17,-48.8 1474.83,-48.8 1474.83,-84.8"/>
<text text-anchor="middle" x="1374" y="-62.6" font-family="Times,serif" font-size="14.00">ReferentielCalculatorComponent</text>
</g>
<!-- ReferentielCalculatorComponent&#45;&gt;PipesModule -->
<g id="edge21" class="edge">
<title>ReferentielCalculatorComponent&#45;&gt;PipesModule</title>
<path fill="none" stroke="black" d="M1466.86,-84.81C1466.86,-100.85 1466.86,-121.8 1466.86,-121.8 1466.86,-121.8 2437.92,-121.8 2437.92,-121.8"/>
<polygon fill="black" stroke="black" points="2437.92,-125.3 2447.92,-121.8 2437.92,-118.3 2437.92,-125.3"/>
</g>
<!-- SelectCheckAllComponent -->
<g id="node22" class="node">
<title>SelectCheckAllComponent</title>
<polygon fill="#ffffb3" stroke="black" points="1254.69,-84.8 1085.31,-84.8 1085.31,-48.8 1254.69,-48.8 1254.69,-84.8"/>
<text text-anchor="middle" x="1170" y="-62.6" font-family="Times,serif" font-size="14.00">SelectCheckAllComponent</text>
</g>
<!-- SelectCheckAllComponent&#45;&gt;PipesModule -->
<g id="edge22" class="edge">
<title>SelectCheckAllComponent&#45;&gt;PipesModule</title>
<path fill="none" stroke="black" d="M1244.97,-84.84C1244.97,-101.53 1244.97,-123.8 1244.97,-123.8 1244.97,-123.8 2437.84,-123.8 2437.84,-123.8"/>
<polygon fill="black" stroke="black" points="2437.84,-127.3 2447.84,-123.8 2437.84,-120.3 2437.84,-127.3"/>
</g>
<!-- SelectComponent -->
<g id="node23" class="node">
<title>SelectComponent</title>
<polygon fill="#ffffb3" stroke="black" points="1067.54,-84.8 952.46,-84.8 952.46,-48.8 1067.54,-48.8 1067.54,-84.8"/>
<text text-anchor="middle" x="1010" y="-62.6" font-family="Times,serif" font-size="14.00">SelectComponent</text>
</g>
<!-- SelectComponent&#45;&gt;PipesModule -->
<g id="edge23" class="edge">
<title>SelectComponent&#45;&gt;PipesModule</title>
<path fill="none" stroke="black" d="M1056.21,-84.83C1056.21,-101.86 1056.21,-124.8 1056.21,-124.8 1056.21,-124.8 2438.03,-124.8 2438.03,-124.8"/>
<polygon fill="black" stroke="black" points="2438.03,-128.3 2448.03,-124.8 2438.03,-121.3 2438.03,-128.3"/>
</g>
<!-- SpeedometerComponent -->
<g id="node24" class="node">
<title>SpeedometerComponent</title>
<polygon fill="#ffffb3" stroke="black" points="934.41,-84.8 779.59,-84.8 779.59,-48.8 934.41,-48.8 934.41,-84.8"/>
<text text-anchor="middle" x="857" y="-62.6" font-family="Times,serif" font-size="14.00">SpeedometerComponent</text>
</g>
<!-- SpeedometerComponent&#45;&gt;PipesModule -->
<g id="edge24" class="edge">
<title>SpeedometerComponent&#45;&gt;PipesModule</title>
<path fill="none" stroke="black" d="M920.84,-84.82C920.84,-102.17 920.84,-125.8 920.84,-125.8 920.84,-125.8 2438.06,-125.8 2438.06,-125.8"/>
<polygon fill="black" stroke="black" points="2438.06,-129.3 2448.06,-125.8 2438.06,-122.3 2438.06,-129.3"/>
</g>
<!-- TimeSelectorComponent -->
<g id="node25" class="node">
<title>TimeSelectorComponent</title>
<polygon fill="#ffffb3" stroke="black" points="761.25,-84.8 604.75,-84.8 604.75,-48.8 761.25,-48.8 761.25,-84.8"/>
<text text-anchor="middle" x="683" y="-62.6" font-family="Times,serif" font-size="14.00">TimeSelectorComponent</text>
</g>
<!-- TimeSelectorComponent&#45;&gt;PipesModule -->
<g id="edge25" class="edge">
<title>TimeSelectorComponent&#45;&gt;PipesModule</title>
<path fill="none" stroke="black" d="M746.71,-85.1C746.71,-103.07 746.71,-127.8 746.71,-127.8 746.71,-127.8 2438.08,-127.8 2438.08,-127.8"/>
<polygon fill="black" stroke="black" points="2438.08,-131.3 2448.08,-127.8 2438.08,-124.3 2438.08,-131.3"/>
</g>
<!-- TooltipsComponent -->
<g id="node26" class="node">
<title>TooltipsComponent</title>
<polygon fill="#ffffb3" stroke="black" points="587,-84.8 459,-84.8 459,-48.8 587,-48.8 587,-84.8"/>
<text text-anchor="middle" x="523" y="-62.6" font-family="Times,serif" font-size="14.00">TooltipsComponent</text>
</g>
<!-- TooltipsComponent&#45;&gt;PipesModule -->
<g id="edge26" class="edge">
<title>TooltipsComponent&#45;&gt;PipesModule</title>
<path fill="none" stroke="black" d="M570.44,-85.07C570.44,-103.36 570.44,-128.8 570.44,-128.8 570.44,-128.8 2437.84,-128.8 2437.84,-128.8"/>
<polygon fill="black" stroke="black" points="2437.84,-132.3 2447.84,-128.8 2437.84,-125.3 2437.84,-132.3"/>
</g>
<!-- WrapperComponent -->
<g id="node27" class="node">
<title>WrapperComponent</title>
<polygon fill="#ffffb3" stroke="black" points="441.3,-84.8 310.7,-84.8 310.7,-48.8 441.3,-48.8 441.3,-84.8"/>
<text text-anchor="middle" x="376" y="-62.6" font-family="Times,serif" font-size="14.00">WrapperComponent</text>
</g>
<!-- WrapperComponent&#45;&gt;PipesModule -->
<g id="edge27" class="edge">
<title>WrapperComponent&#45;&gt;PipesModule</title>
<path fill="none" stroke="black" d="M422.7,-85.02C422.7,-103.63 422.7,-129.8 422.7,-129.8 422.7,-129.8 2437.83,-129.8 2437.83,-129.8"/>
<polygon fill="black" stroke="black" points="2437.83,-133.3 2447.83,-129.8 2437.83,-126.3 2437.83,-133.3"/>
</g>
<!-- WrapperNoConnectedComponent -->
<g id="node28" class="node">
<title>WrapperNoConnectedComponent</title>
<polygon fill="#ffffb3" stroke="black" points="292.78,-84.8 85.22,-84.8 85.22,-48.8 292.78,-48.8 292.78,-84.8"/>
<text text-anchor="middle" x="189" y="-62.6" font-family="Times,serif" font-size="14.00">WrapperNoConnectedComponent</text>
</g>
<!-- WrapperNoConnectedComponent&#45;&gt;PipesModule -->
<g id="edge28" class="edge">
<title>WrapperNoConnectedComponent&#45;&gt;PipesModule</title>
<path fill="none" stroke="black" d="M272.37,-84.91C272.37,-104.14 272.37,-131.8 272.37,-131.8 272.37,-131.8 2437.89,-131.8 2437.89,-131.8"/>
<polygon fill="black" stroke="black" points="2437.89,-135.3 2447.89,-131.8 2437.89,-128.3 2437.89,-135.3"/>
</g>
<!-- CoveragePreviewComponent  -->
<g id="node30" class="node">
<title>CoveragePreviewComponent </title>
<polygon fill="#fb8072" stroke="black" points="5033.35,-214.8 4848.65,-214.8 4848.65,-178.8 5033.35,-178.8 5033.35,-214.8"/>
<text text-anchor="middle" x="4941" y="-192.6" font-family="Times,serif" font-size="14.00">CoveragePreviewComponent </text>
</g>
<!-- PipesModule&#45;&gt;CoveragePreviewComponent  -->
<g id="edge29" class="edge">
<title>PipesModule&#45;&gt;CoveragePreviewComponent </title>
<path fill="none" stroke="black" stroke-dasharray="5,2" d="M2538.03,-132.8C2869.81,-132.8 4922.62,-132.8 4922.62,-132.8 4922.62,-132.8 4922.62,-168.63 4922.62,-168.63"/>
<polygon fill="black" stroke="black" points="4919.13,-168.63 4922.62,-178.63 4926.13,-168.63 4919.13,-168.63"/>
</g>
<!-- DateSelectBlueComponent  -->
<g id="node31" class="node">
<title>DateSelectBlueComponent </title>
<polygon fill="#fb8072" stroke="black" points="4830.91,-214.8 4659.09,-214.8 4659.09,-178.8 4830.91,-178.8 4830.91,-214.8"/>
<text text-anchor="middle" x="4745" y="-192.6" font-family="Times,serif" font-size="14.00">DateSelectBlueComponent </text>
</g>
<!-- PipesModule&#45;&gt;DateSelectBlueComponent  -->
<g id="edge30" class="edge">
<title>PipesModule&#45;&gt;DateSelectBlueComponent </title>
<path fill="none" stroke="black" stroke-dasharray="5,2" d="M2537.9,-133.8C2853.67,-133.8 4728.12,-133.8 4728.12,-133.8 4728.12,-133.8 4728.12,-168.58 4728.12,-168.58"/>
<polygon fill="black" stroke="black" points="4724.63,-168.58 4728.12,-178.58 4731.63,-168.58 4724.63,-168.58"/>
</g>
<!-- DateSelectComponent  -->
<g id="node32" class="node">
<title>DateSelectComponent </title>
<polygon fill="#fb8072" stroke="black" points="4640.97,-214.8 4495.03,-214.8 4495.03,-178.8 4640.97,-178.8 4640.97,-214.8"/>
<text text-anchor="middle" x="4568" y="-192.6" font-family="Times,serif" font-size="14.00">DateSelectComponent </text>
</g>
<!-- PipesModule&#45;&gt;DateSelectComponent  -->
<g id="edge31" class="edge">
<title>PipesModule&#45;&gt;DateSelectComponent </title>
<path fill="none" stroke="black" stroke-dasharray="5,2" d="M2537.94,-135.8C2839.22,-135.8 4553.12,-135.8 4553.12,-135.8 4553.12,-135.8 4553.12,-168.5 4553.12,-168.5"/>
<polygon fill="black" stroke="black" points="4549.63,-168.5 4553.12,-178.5 4556.63,-168.5 4549.63,-168.5"/>
</g>
<!-- DialWidgetComponent  -->
<g id="node33" class="node">
<title>DialWidgetComponent </title>
<polygon fill="#fb8072" stroke="black" points="4477.14,-214.8 4326.86,-214.8 4326.86,-178.8 4477.14,-178.8 4477.14,-214.8"/>
<text text-anchor="middle" x="4402" y="-192.6" font-family="Times,serif" font-size="14.00">DialWidgetComponent </text>
</g>
<!-- PipesModule&#45;&gt;DialWidgetComponent  -->
<g id="edge32" class="edge">
<title>PipesModule&#45;&gt;DialWidgetComponent </title>
<path fill="none" stroke="black" stroke-dasharray="5,2" d="M2538,-136.8C2825.14,-136.8 4389.12,-136.8 4389.12,-136.8 4389.12,-136.8 4389.12,-168.8 4389.12,-168.8"/>
<polygon fill="black" stroke="black" points="4385.63,-168.8 4389.12,-178.8 4392.63,-168.8 4385.63,-168.8"/>
</g>
<!-- DtesChartComponent  -->
<g id="node34" class="node">
<title>DtesChartComponent </title>
<polygon fill="#fb8072" stroke="black" points="4308.6,-214.8 4167.4,-214.8 4167.4,-178.8 4308.6,-178.8 4308.6,-214.8"/>
<text text-anchor="middle" x="4238" y="-192.6" font-family="Times,serif" font-size="14.00">DtesChartComponent </text>
</g>
<!-- PipesModule&#45;&gt;DtesChartComponent  -->
<g id="edge33" class="edge">
<title>PipesModule&#45;&gt;DtesChartComponent </title>
<path fill="none" stroke="black" stroke-dasharray="5,2" d="M2538.05,-137.8C2810.57,-137.8 4227.12,-137.8 4227.12,-137.8 4227.12,-137.8 4227.12,-168.78 4227.12,-168.78"/>
<polygon fill="black" stroke="black" points="4223.63,-168.78 4227.12,-178.78 4230.63,-168.78 4223.63,-168.78"/>
</g>
<!-- EtpChartComponent  -->
<g id="node35" class="node">
<title>EtpChartComponent </title>
<polygon fill="#fb8072" stroke="black" points="4149.88,-214.8 4014.12,-214.8 4014.12,-178.8 4149.88,-178.8 4149.88,-214.8"/>
<text text-anchor="middle" x="4082" y="-192.6" font-family="Times,serif" font-size="14.00">EtpChartComponent </text>
</g>
<!-- PipesModule&#45;&gt;EtpChartComponent  -->
<g id="edge34" class="edge">
<title>PipesModule&#45;&gt;EtpChartComponent </title>
<path fill="none" stroke="black" stroke-dasharray="5,2" d="M2538.15,-138.8C2796.18,-138.8 4072.62,-138.8 4072.62,-138.8 4072.62,-138.8 4072.62,-168.77 4072.62,-168.77"/>
<polygon fill="black" stroke="black" points="4069.13,-168.77 4072.62,-178.77 4076.13,-168.77 4069.13,-168.77"/>
</g>
<!-- EtpPreviewComponent  -->
<g id="node36" class="node">
<title>EtpPreviewComponent </title>
<polygon fill="#fb8072" stroke="black" points="3996.15,-214.8 3845.85,-214.8 3845.85,-178.8 3996.15,-178.8 3996.15,-214.8"/>
<text text-anchor="middle" x="3921" y="-192.6" font-family="Times,serif" font-size="14.00">EtpPreviewComponent </text>
</g>
<!-- PipesModule&#45;&gt;EtpPreviewComponent  -->
<g id="edge35" class="edge">
<title>PipesModule&#45;&gt;EtpPreviewComponent </title>
<path fill="none" stroke="black" stroke-dasharray="5,2" d="M2538.26,-140.8C2780.58,-140.8 3913.62,-140.8 3913.62,-140.8 3913.62,-140.8 3913.62,-168.77 3913.62,-168.77"/>
<polygon fill="black" stroke="black" points="3910.13,-168.77 3913.62,-178.77 3917.13,-168.77 3910.13,-168.77"/>
</g>
<!-- FiguresWidgetComponent  -->
<g id="node37" class="node">
<title>FiguresWidgetComponent </title>
<polygon fill="#fb8072" stroke="black" points="3828.04,-214.8 3659.96,-214.8 3659.96,-178.8 3828.04,-178.8 3828.04,-214.8"/>
<text text-anchor="middle" x="3744" y="-192.6" font-family="Times,serif" font-size="14.00">FiguresWidgetComponent </text>
</g>
<!-- PipesModule&#45;&gt;FiguresWidgetComponent  -->
<g id="edge36" class="edge">
<title>PipesModule&#45;&gt;FiguresWidgetComponent </title>
<path fill="none" stroke="black" stroke-dasharray="5,2" d="M2538.05,-141.8C2761.28,-141.8 3738.12,-141.8 3738.12,-141.8 3738.12,-141.8 3738.12,-168.79 3738.12,-168.79"/>
<polygon fill="black" stroke="black" points="3734.63,-168.79 3738.12,-178.79 3741.63,-168.79 3734.63,-168.79"/>
</g>
<!-- FooterNoConnectedComponent  -->
<g id="node38" class="node">
<title>FooterNoConnectedComponent </title>
<polygon fill="#fb8072" stroke="black" points="3642.36,-214.8 3443.64,-214.8 3443.64,-178.8 3642.36,-178.8 3642.36,-214.8"/>
<text text-anchor="middle" x="3543" y="-192.6" font-family="Times,serif" font-size="14.00">FooterNoConnectedComponent </text>
</g>
<!-- PipesModule&#45;&gt;FooterNoConnectedComponent  -->
<g id="edge37" class="edge">
<title>PipesModule&#45;&gt;FooterNoConnectedComponent </title>
<path fill="none" stroke="black" stroke-dasharray="5,2" d="M2538.21,-142.8C2734.99,-142.8 3507.02,-142.8 3507.02,-142.8 3507.02,-142.8 3507.02,-168.52 3507.02,-168.52"/>
<polygon fill="black" stroke="black" points="3503.52,-168.52 3507.02,-178.52 3510.52,-168.52 3503.52,-168.52"/>
</g>
<!-- InOutChartComponent  -->
<g id="node39" class="node">
<title>InOutChartComponent </title>
<polygon fill="#fb8072" stroke="black" points="3426.1,-214.8 3277.9,-214.8 3277.9,-178.8 3426.1,-178.8 3426.1,-214.8"/>
<text text-anchor="middle" x="3352" y="-192.6" font-family="Times,serif" font-size="14.00">InOutChartComponent </text>
</g>
<!-- PipesModule&#45;&gt;InOutChartComponent  -->
<g id="edge38" class="edge">
<title>PipesModule&#45;&gt;InOutChartComponent </title>
<path fill="none" stroke="black" stroke-dasharray="5,2" d="M2538.04,-143.8C2711.33,-143.8 3325.32,-143.8 3325.32,-143.8 3325.32,-143.8 3325.32,-168.56 3325.32,-168.56"/>
<polygon fill="black" stroke="black" points="3321.82,-168.56 3325.32,-178.56 3328.82,-168.56 3321.82,-168.56"/>
</g>
<!-- InputButtonComponent  -->
<g id="node40" class="node">
<title>InputButtonComponent </title>
<polygon fill="#fb8072" stroke="black" points="3259,-214.8 3107,-214.8 3107,-178.8 3259,-178.8 3259,-214.8"/>
<text text-anchor="middle" x="3183" y="-192.6" font-family="Times,serif" font-size="14.00">InputButtonComponent </text>
</g>
<!-- PipesModule&#45;&gt;InputButtonComponent  -->
<g id="edge39" class="edge">
<title>PipesModule&#45;&gt;InputButtonComponent </title>
<path fill="none" stroke="black" stroke-dasharray="5,2" d="M2537.94,-145.8C2687.36,-145.8 3158.17,-145.8 3158.17,-145.8 3158.17,-145.8 3158.17,-168.68 3158.17,-168.68"/>
<polygon fill="black" stroke="black" points="3154.67,-168.68 3158.17,-178.68 3161.67,-168.68 3154.67,-168.68"/>
</g>
<!-- InputPercentageComponent  -->
<g id="node41" class="node">
<title>InputPercentageComponent </title>
<polygon fill="#fb8072" stroke="black" points="3088.79,-214.8 2913.21,-214.8 2913.21,-178.8 3088.79,-178.8 3088.79,-214.8"/>
<text text-anchor="middle" x="3001" y="-192.6" font-family="Times,serif" font-size="14.00">InputPercentageComponent </text>
</g>
<!-- PipesModule&#45;&gt;InputPercentageComponent  -->
<g id="edge40" class="edge">
<title>PipesModule&#45;&gt;InputPercentageComponent </title>
<path fill="none" stroke="black" stroke-dasharray="5,2" d="M2538.02,-146.8C2667.53,-146.8 3031.88,-146.8 3031.88,-146.8 3031.88,-146.8 3031.88,-168.75 3031.88,-168.75"/>
<polygon fill="black" stroke="black" points="3028.38,-168.75 3031.88,-178.75 3035.38,-168.75 3028.38,-168.75"/>
</g>
<!-- LegendLabelComponent  -->
<g id="node42" class="node">
<title>LegendLabelComponent </title>
<polygon fill="#fb8072" stroke="black" points="2895.18,-214.8 2736.82,-214.8 2736.82,-178.8 2895.18,-178.8 2895.18,-214.8"/>
<text text-anchor="middle" x="2816" y="-192.6" font-family="Times,serif" font-size="14.00">LegendLabelComponent </text>
</g>
<!-- PipesModule&#45;&gt;LegendLabelComponent  -->
<g id="edge41" class="edge">
<title>PipesModule&#45;&gt;LegendLabelComponent </title>
<path fill="none" stroke="black" stroke-dasharray="5,2" d="M2538.11,-147.8C2609.51,-147.8 2740.54,-147.8 2740.54,-147.8 2740.54,-147.8 2740.54,-168.55 2740.54,-168.55"/>
<polygon fill="black" stroke="black" points="2737.04,-168.55 2740.54,-178.55 2744.04,-168.55 2737.04,-168.55"/>
</g>
<!-- ListSelectionComponent  -->
<g id="node43" class="node">
<title>ListSelectionComponent </title>
<polygon fill="#fb8072" stroke="black" points="2718.21,-214.8 2559.79,-214.8 2559.79,-178.8 2718.21,-178.8 2718.21,-214.8"/>
<text text-anchor="middle" x="2639" y="-192.6" font-family="Times,serif" font-size="14.00">ListSelectionComponent </text>
</g>
<!-- PipesModule&#45;&gt;ListSelectionComponent  -->
<g id="edge42" class="edge">
<title>PipesModule&#45;&gt;ListSelectionComponent </title>
<path fill="none" stroke="black" stroke-dasharray="5,2" d="M2538.1,-148.8C2552.85,-148.8 2565.52,-148.8 2565.52,-148.8 2565.52,-148.8 2565.52,-168.65 2565.52,-168.65"/>
<polygon fill="black" stroke="black" points="2562.02,-168.65 2565.52,-178.65 2569.02,-168.65 2562.02,-168.65"/>
</g>
<!-- LoadersWidgetComponent  -->
<g id="node44" class="node">
<title>LoadersWidgetComponent </title>
<polygon fill="#fb8072" stroke="black" points="2541.63,-214.8 2370.37,-214.8 2370.37,-178.8 2541.63,-178.8 2541.63,-214.8"/>
<text text-anchor="middle" x="2456" y="-192.6" font-family="Times,serif" font-size="14.00">LoadersWidgetComponent </text>
</g>
<!-- PipesModule&#45;&gt;LoadersWidgetComponent  -->
<g id="edge43" class="edge">
<title>PipesModule&#45;&gt;LoadersWidgetComponent </title>
<path fill="none" stroke="black" stroke-dasharray="5,2" d="M2493,-149.91C2493,-149.91 2493,-168.79 2493,-168.79"/>
<polygon fill="black" stroke="black" points="2489.5,-168.79 2493,-178.79 2496.5,-168.79 2489.5,-168.79"/>
</g>
<!-- OptionsBackupPanelComponent  -->
<g id="node45" class="node">
<title>OptionsBackupPanelComponent </title>
<polygon fill="#fb8072" stroke="black" points="2352.54,-214.8 2149.46,-214.8 2149.46,-178.8 2352.54,-178.8 2352.54,-214.8"/>
<text text-anchor="middle" x="2251" y="-192.6" font-family="Times,serif" font-size="14.00">OptionsBackupPanelComponent </text>
</g>
<!-- PipesModule&#45;&gt;OptionsBackupPanelComponent  -->
<g id="edge44" class="edge">
<title>PipesModule&#45;&gt;OptionsBackupPanelComponent </title>
<path fill="none" stroke="black" stroke-dasharray="5,2" d="M2447.87,-148.8C2380.22,-148.8 2260.38,-148.8 2260.38,-148.8 2260.38,-148.8 2260.38,-168.65 2260.38,-168.65"/>
<polygon fill="black" stroke="black" points="2256.88,-168.65 2260.38,-178.65 2263.88,-168.65 2256.88,-168.65"/>
</g>
<!-- PanelActivitiesComponent  -->
<g id="node46" class="node">
<title>PanelActivitiesComponent </title>
<polygon fill="#fb8072" stroke="black" points="2131.37,-214.8 1960.63,-214.8 1960.63,-178.8 2131.37,-178.8 2131.37,-214.8"/>
<text text-anchor="middle" x="2046" y="-192.6" font-family="Times,serif" font-size="14.00">PanelActivitiesComponent </text>
</g>
<!-- PipesModule&#45;&gt;PanelActivitiesComponent  -->
<g id="edge45" class="edge">
<title>PipesModule&#45;&gt;PanelActivitiesComponent </title>
<path fill="none" stroke="black" stroke-dasharray="5,2" d="M2448.02,-147.8C2336.72,-147.8 2057.38,-147.8 2057.38,-147.8 2057.38,-147.8 2057.38,-168.55 2057.38,-168.55"/>
<polygon fill="black" stroke="black" points="2053.88,-168.55 2057.38,-178.55 2060.88,-168.55 2053.88,-168.55"/>
</g>
<!-- PopupComponent  -->
<g id="node47" class="node">
<title>PopupComponent </title>
<polygon fill="#fb8072" stroke="black" points="1943.12,-214.8 1822.88,-214.8 1822.88,-178.8 1943.12,-178.8 1943.12,-214.8"/>
<text text-anchor="middle" x="1883" y="-192.6" font-family="Times,serif" font-size="14.00">PopupComponent </text>
</g>
<!-- PipesModule&#45;&gt;PopupComponent  -->
<g id="edge46" class="edge">
<title>PipesModule&#45;&gt;PopupComponent </title>
<path fill="none" stroke="black" stroke-dasharray="5,2" d="M2447.63,-145.8C2308.28,-145.8 1895.88,-145.8 1895.88,-145.8 1895.88,-145.8 1895.88,-168.68 1895.88,-168.68"/>
<polygon fill="black" stroke="black" points="1892.38,-168.68 1895.88,-178.68 1899.38,-168.68 1892.38,-168.68"/>
</g>
<!-- ProgressionBarComponent  -->
<g id="node48" class="node">
<title>ProgressionBarComponent </title>
<polygon fill="#fb8072" stroke="black" points="1804.66,-214.8 1633.34,-214.8 1633.34,-178.8 1804.66,-178.8 1804.66,-214.8"/>
<text text-anchor="middle" x="1719" y="-192.6" font-family="Times,serif" font-size="14.00">ProgressionBarComponent </text>
</g>
<!-- PipesModule&#45;&gt;ProgressionBarComponent  -->
<g id="edge47" class="edge">
<title>PipesModule&#45;&gt;ProgressionBarComponent </title>
<path fill="none" stroke="black" stroke-dasharray="5,2" d="M2448.07,-144.8C2284.99,-144.8 1733.88,-144.8 1733.88,-144.8 1733.88,-144.8 1733.88,-168.61 1733.88,-168.61"/>
<polygon fill="black" stroke="black" points="1730.38,-168.61 1733.88,-178.61 1737.38,-168.61 1730.38,-168.61"/>
</g>
<!-- RadioButtonComponent  -->
<g id="node49" class="node">
<title>RadioButtonComponent </title>
<polygon fill="#fb8072" stroke="black" points="1615.39,-214.8 1458.61,-214.8 1458.61,-178.8 1615.39,-178.8 1615.39,-214.8"/>
<text text-anchor="middle" x="1537" y="-192.6" font-family="Times,serif" font-size="14.00">RadioButtonComponent </text>
</g>
<!-- PipesModule&#45;&gt;RadioButtonComponent  -->
<g id="edge48" class="edge">
<title>PipesModule&#45;&gt;RadioButtonComponent </title>
<path fill="none" stroke="black" stroke-dasharray="5,2" d="M2448.02,-143.8C2260.91,-143.8 1553.88,-143.8 1553.88,-143.8 1553.88,-143.8 1553.88,-168.56 1553.88,-168.56"/>
<polygon fill="black" stroke="black" points="1550.38,-168.56 1553.88,-178.56 1557.38,-168.56 1550.38,-168.56"/>
</g>
<!-- ReferentielCalculatorComponent  -->
<g id="node50" class="node">
<title>ReferentielCalculatorComponent </title>
<polygon fill="#fb8072" stroke="black" points="1440.83,-214.8 1235.17,-214.8 1235.17,-178.8 1440.83,-178.8 1440.83,-214.8"/>
<text text-anchor="middle" x="1338" y="-192.6" font-family="Times,serif" font-size="14.00">ReferentielCalculatorComponent </text>
</g>
<!-- PipesModule&#45;&gt;ReferentielCalculatorComponent  -->
<g id="edge49" class="edge">
<title>PipesModule&#45;&gt;ReferentielCalculatorComponent </title>
<path fill="none" stroke="black" stroke-dasharray="5,2" d="M2447.76,-141.8C2236.46,-141.8 1356.88,-141.8 1356.88,-141.8 1356.88,-141.8 1356.88,-168.79 1356.88,-168.79"/>
<polygon fill="black" stroke="black" points="1353.38,-168.79 1356.88,-178.79 1360.38,-168.79 1353.38,-168.79"/>
</g>
<!-- SelectCheckAllComponent  -->
<g id="node51" class="node">
<title>SelectCheckAllComponent </title>
<polygon fill="#fb8072" stroke="black" points="1217.19,-214.8 1044.81,-214.8 1044.81,-178.8 1217.19,-178.8 1217.19,-214.8"/>
<text text-anchor="middle" x="1131" y="-192.6" font-family="Times,serif" font-size="14.00">SelectCheckAllComponent </text>
</g>
<!-- PipesModule&#45;&gt;SelectCheckAllComponent  -->
<g id="edge50" class="edge">
<title>PipesModule&#45;&gt;SelectCheckAllComponent </title>
<path fill="none" stroke="black" stroke-dasharray="5,2" d="M2447.98,-140.8C2214.4,-140.8 1151.38,-140.8 1151.38,-140.8 1151.38,-140.8 1151.38,-168.77 1151.38,-168.77"/>
<polygon fill="black" stroke="black" points="1147.88,-168.77 1151.38,-178.77 1154.88,-168.77 1147.88,-168.77"/>
</g>
<!-- SelectComponent  -->
<g id="node52" class="node">
<title>SelectComponent </title>
<polygon fill="#fb8072" stroke="black" points="1026.54,-214.8 907.46,-214.8 907.46,-178.8 1026.54,-178.8 1026.54,-214.8"/>
<text text-anchor="middle" x="967" y="-192.6" font-family="Times,serif" font-size="14.00">SelectComponent </text>
</g>
<!-- PipesModule&#45;&gt;SelectComponent  -->
<g id="edge51" class="edge">
<title>PipesModule&#45;&gt;SelectComponent </title>
<path fill="none" stroke="black" stroke-dasharray="5,2" d="M2448,-139.8C2197.81,-139.8 989.38,-139.8 989.38,-139.8 989.38,-139.8 989.38,-168.76 989.38,-168.76"/>
<polygon fill="black" stroke="black" points="985.88,-168.76 989.38,-178.76 992.88,-168.76 985.88,-168.76"/>
</g>
<!-- SpeedometerComponent  -->
<g id="node53" class="node">
<title>SpeedometerComponent </title>
<polygon fill="#fb8072" stroke="black" points="889.91,-214.8 732.09,-214.8 732.09,-178.8 889.91,-178.8 889.91,-214.8"/>
<text text-anchor="middle" x="811" y="-192.6" font-family="Times,serif" font-size="14.00">SpeedometerComponent </text>
</g>
<!-- PipesModule&#45;&gt;SpeedometerComponent  -->
<g id="edge52" class="edge">
<title>PipesModule&#45;&gt;SpeedometerComponent </title>
<path fill="none" stroke="black" stroke-dasharray="5,2" d="M2447.79,-137.8C2182.04,-137.8 834.88,-137.8 834.88,-137.8 834.88,-137.8 834.88,-168.78 834.88,-168.78"/>
<polygon fill="black" stroke="black" points="831.38,-168.78 834.88,-178.78 838.38,-168.78 831.38,-168.78"/>
</g>
<!-- TimeSelectorComponent  -->
<g id="node54" class="node">
<title>TimeSelectorComponent </title>
<polygon fill="#fb8072" stroke="black" points="714.25,-214.8 553.75,-214.8 553.75,-178.8 714.25,-178.8 714.25,-214.8"/>
<text text-anchor="middle" x="634" y="-192.6" font-family="Times,serif" font-size="14.00">TimeSelectorComponent </text>
</g>
<!-- PipesModule&#45;&gt;TimeSelectorComponent  -->
<g id="edge53" class="edge">
<title>PipesModule&#45;&gt;TimeSelectorComponent </title>
<path fill="none" stroke="black" stroke-dasharray="5,2" d="M2447.67,-136.8C2165.31,-136.8 659.38,-136.8 659.38,-136.8 659.38,-136.8 659.38,-168.8 659.38,-168.8"/>
<polygon fill="black" stroke="black" points="655.88,-168.8 659.38,-178.8 662.88,-168.8 655.88,-168.8"/>
</g>
<!-- TooltipsComponent  -->
<g id="node55" class="node">
<title>TooltipsComponent </title>
<polygon fill="#fb8072" stroke="black" points="535.5,-214.8 404.5,-214.8 404.5,-178.8 535.5,-178.8 535.5,-214.8"/>
<text text-anchor="middle" x="470" y="-192.6" font-family="Times,serif" font-size="14.00">TooltipsComponent </text>
</g>
<!-- PipesModule&#45;&gt;TooltipsComponent  -->
<g id="edge54" class="edge">
<title>PipesModule&#45;&gt;TooltipsComponent </title>
<path fill="none" stroke="black" stroke-dasharray="5,2" d="M2448.05,-135.8C2152.29,-135.8 497.38,-135.8 497.38,-135.8 497.38,-135.8 497.38,-168.5 497.38,-168.5"/>
<polygon fill="black" stroke="black" points="493.88,-168.5 497.38,-178.5 500.88,-168.5 493.88,-168.5"/>
</g>
<!-- WrapperComponent  -->
<g id="node56" class="node">
<title>WrapperComponent </title>
<polygon fill="#fb8072" stroke="black" points="385.8,-214.8 252.2,-214.8 252.2,-178.8 385.8,-178.8 385.8,-214.8"/>
<text text-anchor="middle" x="319" y="-192.6" font-family="Times,serif" font-size="14.00">WrapperComponent </text>
</g>
<!-- PipesModule&#45;&gt;WrapperComponent  -->
<g id="edge55" class="edge">
<title>PipesModule&#45;&gt;WrapperComponent </title>
<path fill="none" stroke="black" stroke-dasharray="5,2" d="M2447.71,-133.8C2138.32,-133.8 348.38,-133.8 348.38,-133.8 348.38,-133.8 348.38,-168.58 348.38,-168.58"/>
<polygon fill="black" stroke="black" points="344.88,-168.58 348.38,-178.58 351.88,-168.58 344.88,-168.58"/>
</g>
<!-- WrapperNoConnectedComponent  -->
<g id="node57" class="node">
<title>WrapperNoConnectedComponent </title>
<polygon fill="#fb8072" stroke="black" points="234.28,-214.8 23.72,-214.8 23.72,-178.8 234.28,-178.8 234.28,-214.8"/>
<text text-anchor="middle" x="129" y="-192.6" font-family="Times,serif" font-size="14.00">WrapperNoConnectedComponent </text>
</g>
<!-- PipesModule&#45;&gt;WrapperNoConnectedComponent  -->
<g id="edge56" class="edge">
<title>PipesModule&#45;&gt;WrapperNoConnectedComponent </title>
<path fill="none" stroke="black" stroke-dasharray="5,2" d="M2447.96,-132.8C2123.83,-132.8 159.88,-132.8 159.88,-132.8 159.88,-132.8 159.88,-168.63 159.88,-168.63"/>
<polygon fill="black" stroke="black" points="156.38,-168.63 159.88,-178.63 163.38,-168.63 156.38,-168.63"/>
</g>
</g>
</svg>
