<?xml version="1.0" encoding="UTF-8" standalone="no"?>
<!DOCTYPE svg PUBLIC "-//W3C//DTD SVG 1.1//EN"
 "http://www.w3.org/Graphics/SVG/1.1/DTD/svg11.dtd">
<!-- Generated by graphviz version 3.0.0 (20220226.1711)
 -->
<!-- Title: dependencies Pages: 1 -->
<svg width="220pt" height="247pt"
 viewBox="0.00 0.00 220.00 246.80" xmlns="http://www.w3.org/2000/svg" xmlns:xlink="http://www.w3.org/1999/xlink">
<g id="graph0" class="graph" transform="scale(1 1) rotate(0) translate(4 242.8)">
<title>dependencies</title>
<polygon fill="white" stroke="transparent" points="-4,4 -4,-242.8 216,-242.8 216,4 -4,4"/>
<text text-anchor="middle" x="106" y="-8.2" font-family="sans-serif" font-size="14.00">dependencies</text>
<g id="clust1" class="cluster">
<title>cluster_HumanResourcePageModule</title>
<polygon fill="none" stroke="black" stroke-dasharray="1,5" points="8,-32.8 8,-230.8 204,-230.8 204,-32.8 8,-32.8"/>
</g>
<g id="clust4" class="cluster">
<title>cluster_HumanResourcePageModule_exports</title>
<polygon fill="none" stroke="black" points="47,-170.8 47,-222.8 165,-222.8 165,-170.8 47,-170.8"/>
</g>
<g id="clust3" class="cluster">
<title>cluster_HumanResourcePageModule_imports</title>
<polygon fill="none" stroke="black" points="49,-40.8 49,-92.8 163,-92.8 163,-40.8 49,-40.8"/>
</g>
<!-- RouterModule -->
<g id="node1" class="node">
<title>RouterModule</title>
<polygon fill="#8dd3c7" stroke="black" points="154.66,-84.8 151.66,-88.8 130.66,-88.8 127.66,-84.8 57.34,-84.8 57.34,-48.8 154.66,-48.8 154.66,-84.8"/>
<text text-anchor="middle" x="106" y="-62.6" font-family="Times,serif" font-size="14.00">RouterModule</text>
</g>
<!-- HumanResourcePageModule -->
<g id="node2" class="node">
<title>HumanResourcePageModule</title>
<polygon fill="#8dd3c7" stroke="black" points="196.07,-149.8 193.07,-153.8 172.07,-153.8 169.07,-149.8 15.93,-149.8 15.93,-113.8 196.07,-113.8 196.07,-149.8"/>
<text text-anchor="middle" x="106" y="-127.6" font-family="Times,serif" font-size="14.00">HumanResourcePageModule</text>
</g>
<!-- RouterModule&#45;&gt;HumanResourcePageModule -->
<g id="edge1" class="edge">
<title>RouterModule&#45;&gt;HumanResourcePageModule</title>
<path fill="none" stroke="black" d="M106,-84.91C106,-84.91 106,-103.79 106,-103.79"/>
<polygon fill="black" stroke="black" points="102.5,-103.79 106,-113.79 109.5,-103.79 102.5,-103.79"/>
</g>
<!-- RouterModule  -->
<g id="node3" class="node">
<title>RouterModule </title>
<polygon fill="#fb8072" stroke="black" points="156.66,-214.8 55.34,-214.8 55.34,-178.8 156.66,-178.8 156.66,-214.8"/>
<text text-anchor="middle" x="106" y="-192.6" font-family="Times,serif" font-size="14.00">RouterModule </text>
</g>
<!-- HumanResourcePageModule&#45;&gt;RouterModule  -->
<g id="edge2" class="edge">
<title>HumanResourcePageModule&#45;&gt;RouterModule </title>
<path fill="none" stroke="black" stroke-dasharray="5,2" d="M106,-149.91C106,-149.91 106,-168.79 106,-168.79"/>
<polygon fill="black" stroke="black" points="102.5,-168.79 106,-178.79 109.5,-168.79 102.5,-168.79"/>
</g>
</g>
</svg>
