<?xml version="1.0" encoding="UTF-8" standalone="no"?>
<!DOCTYPE svg PUBLIC "-//W3C//DTD SVG 1.1//EN"
 "http://www.w3.org/Graphics/SVG/1.1/DTD/svg11.dtd">
<!-- Generated by graphviz version 3.0.0 (20220226.1711)
 -->
<!-- Title: dependencies Pages: 1 -->
<svg width="452pt" height="174pt"
 viewBox="0.00 0.00 452.00 173.80" xmlns="http://www.w3.org/2000/svg" xmlns:xlink="http://www.w3.org/1999/xlink">
<g id="graph0" class="graph" transform="scale(1 1) rotate(0) translate(4 169.8)">
<title>dependencies</title>
<polygon fill="white" stroke="transparent" points="-4,4 -4,-169.8 448,-169.8 448,4 -4,4"/>
<text text-anchor="middle" x="222" y="-8.2" font-family="sans-serif" font-size="14.00">dependencies</text>
<g id="clust1" class="cluster">
<title>cluster_CalculatorModule</title>
<polygon fill="none" stroke="black" stroke-dasharray="1,5" points="8,-32.8 8,-157.8 436,-157.8 436,-32.8 8,-32.8"/>
</g>
<g id="clust4" class="cluster">
<title>cluster_CalculatorModule_imports</title>
<polygon fill="none" stroke="black" points="142,-40.8 142,-92.8 428,-92.8 428,-40.8 142,-40.8"/>
</g>
<g id="clust2" class="cluster">
<title>cluster_CalculatorModule_declarations</title>
<polygon fill="none" stroke="black" points="16,-40.8 16,-92.8 134,-92.8 134,-40.8 16,-40.8"/>
</g>
<!-- CalculatorPage -->
<g id="node1" class="node">
<title>CalculatorPage</title>
<polygon fill="#ffffb3" stroke="black" points="125.53,-84.8 24.47,-84.8 24.47,-48.8 125.53,-48.8 125.53,-84.8"/>
<text text-anchor="middle" x="75" y="-62.6" font-family="Times,serif" font-size="14.00">CalculatorPage</text>
</g>
<!-- CalculatorModule -->
<g id="node2" class="node">
<title>CalculatorModule</title>
<polygon fill="#8dd3c7" stroke="black" points="261.86,-149.8 258.86,-153.8 237.86,-153.8 234.86,-149.8 144.14,-149.8 144.14,-113.8 261.86,-113.8 261.86,-149.8"/>
<text text-anchor="middle" x="203" y="-127.6" font-family="Times,serif" font-size="14.00">CalculatorModule</text>
</g>
<!-- CalculatorPage&#45;&gt;CalculatorModule -->
<g id="edge1" class="edge">
<title>CalculatorPage&#45;&gt;CalculatorModule</title>
<path fill="none" stroke="black" d="M75,-84.91C75,-104.14 75,-131.8 75,-131.8 75,-131.8 133.87,-131.8 133.87,-131.8"/>
<polygon fill="black" stroke="black" points="133.87,-135.3 143.87,-131.8 133.87,-128.3 133.87,-135.3"/>
</g>
<!-- CalculatorPageModule -->
<g id="node3" class="node">
<title>CalculatorPageModule</title>
<polygon fill="#8dd3c7" stroke="black" points="419.58,-84.8 416.58,-88.8 395.58,-88.8 392.58,-84.8 274.42,-84.8 274.42,-48.8 419.58,-48.8 419.58,-84.8"/>
<text text-anchor="middle" x="347" y="-62.6" font-family="Times,serif" font-size="14.00">CalculatorPageModule</text>
</g>
<!-- CalculatorPageModule&#45;&gt;CalculatorModule -->
<g id="edge2" class="edge">
<title>CalculatorPageModule&#45;&gt;CalculatorModule</title>
<path fill="none" stroke="black" d="M347,-84.91C347,-104.14 347,-131.8 347,-131.8 347,-131.8 271.99,-131.8 271.99,-131.8"/>
<polygon fill="black" stroke="black" points="271.99,-128.3 261.99,-131.8 271.99,-135.3 271.99,-128.3"/>
</g>
<!-- MaterialModule -->
<g id="node4" class="node">
<title>MaterialModule</title>
<polygon fill="#8dd3c7" stroke="black" points="256.47,-84.8 253.47,-88.8 232.47,-88.8 229.47,-84.8 149.53,-84.8 149.53,-48.8 256.47,-48.8 256.47,-84.8"/>
<text text-anchor="middle" x="203" y="-62.6" font-family="Times,serif" font-size="14.00">MaterialModule</text>
</g>
<!-- MaterialModule&#45;&gt;CalculatorModule -->
<g id="edge3" class="edge">
<title>MaterialModule&#45;&gt;CalculatorModule</title>
<path fill="none" stroke="black" d="M203,-84.91C203,-84.91 203,-103.79 203,-103.79"/>
<polygon fill="black" stroke="black" points="199.5,-103.79 203,-113.79 206.5,-103.79 199.5,-103.79"/>
</g>
</g>
</svg>
