<?xml version="1.0" encoding="UTF-8" standalone="no"?>
<!DOCTYPE svg PUBLIC "-//W3C//DTD SVG 1.1//EN"
 "http://www.w3.org/Graphics/SVG/1.1/DTD/svg11.dtd">
<!-- Generated by graphviz version 3.0.0 (20220226.1711)
 -->
<!-- Title: dependencies Pages: 1 -->
<svg width="672pt" height="174pt"
 viewBox="0.00 0.00 672.00 173.80" xmlns="http://www.w3.org/2000/svg" xmlns:xlink="http://www.w3.org/1999/xlink">
<g id="graph0" class="graph" transform="scale(1 1) rotate(0) translate(4 169.8)">
<title>dependencies</title>
<polygon fill="white" stroke="transparent" points="-4,4 -4,-169.8 668,-169.8 668,4 -4,4"/>
<text text-anchor="middle" x="332" y="-8.2" font-family="sans-serif" font-size="14.00">dependencies</text>
<g id="clust1" class="cluster">
<title>cluster_CalculatorModule</title>
<polygon fill="none" stroke="black" stroke-dasharray="1,5" points="8,-32.8 8,-157.8 656,-157.8 656,-32.8 8,-32.8"/>
</g>
<g id="clust2" class="cluster">
<title>cluster_CalculatorModule_declarations</title>
<polygon fill="none" stroke="black" points="310,-40.8 310,-92.8 648,-92.8 648,-40.8 310,-40.8"/>
</g>
<g id="clust5" class="cluster">
<title>cluster_CalculatorModule_imports</title>
<polygon fill="none" stroke="black" points="16,-40.8 16,-92.8 302,-92.8 302,-40.8 16,-40.8"/>
</g>
<!-- CalculatorPage -->
<g id="node1" class="node">
<title>CalculatorPage</title>
<polygon fill="#ffffb3" stroke="black" points="639.53,-84.8 538.47,-84.8 538.47,-48.8 639.53,-48.8 639.53,-84.8"/>
<text text-anchor="middle" x="589" y="-62.6" font-family="Times,serif" font-size="14.00">CalculatorPage</text>
</g>
<!-- CalculatorModule -->
<g id="node3" class="node">
<title>CalculatorModule</title>
<polygon fill="#8dd3c7" stroke="black" points="378.86,-149.8 375.86,-153.8 354.86,-153.8 351.86,-149.8 261.14,-149.8 261.14,-113.8 378.86,-113.8 378.86,-149.8"/>
<text text-anchor="middle" x="320" y="-127.6" font-family="Times,serif" font-size="14.00">CalculatorModule</text>
</g>
<!-- CalculatorPage&#45;&gt;CalculatorModule -->
<g id="edge1" class="edge">
<title>CalculatorPage&#45;&gt;CalculatorModule</title>
<path fill="none" stroke="black" d="M589,-84.91C589,-104.14 589,-131.8 589,-131.8 589,-131.8 389.03,-131.8 389.03,-131.8"/>
<polygon fill="black" stroke="black" points="389.03,-128.3 379.03,-131.8 389.03,-135.3 389.03,-128.3"/>
</g>
<!-- ReferentielCalculatorComponent -->
<g id="node2" class="node">
<title>ReferentielCalculatorComponent</title>
<polygon fill="#ffffb3" stroke="black" points="519.83,-84.8 318.17,-84.8 318.17,-48.8 519.83,-48.8 519.83,-84.8"/>
<text text-anchor="middle" x="419" y="-62.6" font-family="Times,serif" font-size="14.00">ReferentielCalculatorComponent</text>
</g>
<!-- ReferentielCalculatorComponent&#45;&gt;CalculatorModule -->
<g id="edge2" class="edge">
<title>ReferentielCalculatorComponent&#45;&gt;CalculatorModule</title>
<path fill="none" stroke="black" d="M348.51,-84.91C348.51,-84.91 348.51,-103.79 348.51,-103.79"/>
<polygon fill="black" stroke="black" points="345.01,-103.79 348.51,-113.79 352.01,-103.79 345.01,-103.79"/>
</g>
<!-- CalculatorPageModule -->
<g id="node4" class="node">
<title>CalculatorPageModule</title>
<polygon fill="#8dd3c7" stroke="black" points="293.58,-84.8 290.58,-88.8 269.58,-88.8 266.58,-84.8 148.42,-84.8 148.42,-48.8 293.58,-48.8 293.58,-84.8"/>
<text text-anchor="middle" x="221" y="-62.6" font-family="Times,serif" font-size="14.00">CalculatorPageModule</text>
</g>
<!-- CalculatorPageModule&#45;&gt;CalculatorModule -->
<g id="edge3" class="edge">
<title>CalculatorPageModule&#45;&gt;CalculatorModule</title>
<path fill="none" stroke="black" d="M277.3,-84.91C277.3,-84.91 277.3,-103.79 277.3,-103.79"/>
<polygon fill="black" stroke="black" points="273.8,-103.79 277.3,-113.79 280.8,-103.79 273.8,-103.79"/>
</g>
<!-- MaterialModule -->
<g id="node5" class="node">
<title>MaterialModule</title>
<polygon fill="#8dd3c7" stroke="black" points="130.47,-84.8 127.47,-88.8 106.47,-88.8 103.47,-84.8 23.53,-84.8 23.53,-48.8 130.47,-48.8 130.47,-84.8"/>
<text text-anchor="middle" x="77" y="-62.6" font-family="Times,serif" font-size="14.00">MaterialModule</text>
</g>
<!-- MaterialModule&#45;&gt;CalculatorModule -->
<g id="edge4" class="edge">
<title>MaterialModule&#45;&gt;CalculatorModule</title>
<path fill="none" stroke="black" d="M77,-84.91C77,-104.14 77,-131.8 77,-131.8 77,-131.8 250.87,-131.8 250.87,-131.8"/>
<polygon fill="black" stroke="black" points="250.87,-135.3 260.87,-131.8 250.87,-128.3 250.87,-135.3"/>
</g>
</g>
</svg>
