<?xml version="1.0" encoding="UTF-8" standalone="no"?>
<!DOCTYPE svg PUBLIC "-//W3C//DTD SVG 1.1//EN"
 "http://www.w3.org/Graphics/SVG/1.1/DTD/svg11.dtd">
<!-- Generated by graphviz version 3.0.0 (20220226.1711)
 -->
<!-- Title: dependencies Pages: 1 -->
<svg width="452pt" height="174pt"
 viewBox="0.00 0.00 452.00 173.80" xmlns="http://www.w3.org/2000/svg" xmlns:xlink="http://www.w3.org/1999/xlink">
<g id="graph0" class="graph" transform="scale(1 1) rotate(0) translate(4 169.8)">
<title>dependencies</title>
<polygon fill="white" stroke="transparent" points="-4,4 -4,-169.8 448,-169.8 448,4 -4,4"/>
<text text-anchor="middle" x="222" y="-8.2" font-family="sans-serif" font-size="14.00">dependencies</text>
<g id="clust1" class="cluster">
<title>cluster_CalculatorModule</title>
<polygon fill="none" stroke="black" stroke-dasharray="1,5" points="8,-32.8 8,-157.8 436,-157.8 436,-32.8 8,-32.8"/>
</g>
<g id="clust2" class="cluster">
<title>cluster_CalculatorModule_declarations</title>
<polygon fill="none" stroke="black" points="310,-40.8 310,-92.8 428,-92.8 428,-40.8 310,-40.8"/>
</g>
<g id="clust4" class="cluster">
<title>cluster_CalculatorModule_imports</title>
<polygon fill="none" stroke="black" points="16,-40.8 16,-92.8 302,-92.8 302,-40.8 16,-40.8"/>
</g>
<!-- CalculatorPage -->
<g id="node1" class="node">
<title>CalculatorPage</title>
<polygon fill="#ffffb3" stroke="black" points="419.53,-84.8 318.47,-84.8 318.47,-48.8 419.53,-48.8 419.53,-84.8"/>
<text text-anchor="middle" x="369" y="-62.6" font-family="Times,serif" font-size="14.00">CalculatorPage</text>
</g>
<!-- CalculatorModule -->
<g id="node2" class="node">
<title>CalculatorModule</title>
<polygon fill="#8dd3c7" stroke="black" points="279.86,-149.8 276.86,-153.8 255.86,-153.8 252.86,-149.8 162.14,-149.8 162.14,-113.8 279.86,-113.8 279.86,-149.8"/>
<text text-anchor="middle" x="221" y="-127.6" font-family="Times,serif" font-size="14.00">CalculatorModule</text>
</g>
<!-- CalculatorPage&#45;&gt;CalculatorModule -->
<g id="edge1" class="edge">
<title>CalculatorPage&#45;&gt;CalculatorModule</title>
<path fill="none" stroke="black" d="M369,-84.91C369,-104.14 369,-131.8 369,-131.8 369,-131.8 289.92,-131.8 289.92,-131.8"/>
<polygon fill="black" stroke="black" points="289.92,-128.3 279.92,-131.8 289.92,-135.3 289.92,-128.3"/>
</g>
<!-- CalculatorPageModule -->
<g id="node3" class="node">
<title>CalculatorPageModule</title>
<polygon fill="#8dd3c7" stroke="black" points="293.58,-84.8 290.58,-88.8 269.58,-88.8 266.58,-84.8 148.42,-84.8 148.42,-48.8 293.58,-48.8 293.58,-84.8"/>
<text text-anchor="middle" x="221" y="-62.6" font-family="Times,serif" font-size="14.00">CalculatorPageModule</text>
</g>
<!-- CalculatorPageModule&#45;&gt;CalculatorModule -->
<g id="edge2" class="edge">
<title>CalculatorPageModule&#45;&gt;CalculatorModule</title>
<path fill="none" stroke="black" d="M221,-84.91C221,-84.91 221,-103.79 221,-103.79"/>
<polygon fill="black" stroke="black" points="217.5,-103.79 221,-113.79 224.5,-103.79 217.5,-103.79"/>
</g>
<!-- MaterialModule -->
<g id="node4" class="node">
<title>MaterialModule</title>
<polygon fill="#8dd3c7" stroke="black" points="130.47,-84.8 127.47,-88.8 106.47,-88.8 103.47,-84.8 23.53,-84.8 23.53,-48.8 130.47,-48.8 130.47,-84.8"/>
<text text-anchor="middle" x="77" y="-62.6" font-family="Times,serif" font-size="14.00">MaterialModule</text>
</g>
<!-- MaterialModule&#45;&gt;CalculatorModule -->
<g id="edge3" class="edge">
<title>MaterialModule&#45;&gt;CalculatorModule</title>
<path fill="none" stroke="black" d="M77,-84.91C77,-104.14 77,-131.8 77,-131.8 77,-131.8 152.01,-131.8 152.01,-131.8"/>
<polygon fill="black" stroke="black" points="152.01,-135.3 162.01,-131.8 152.01,-128.3 152.01,-135.3"/>
</g>
</g>
</svg>
