<?xml version="1.0" encoding="UTF-8" standalone="no"?>
<!DOCTYPE svg PUBLIC "-//W3C//DTD SVG 1.1//EN"
 "http://www.w3.org/Graphics/SVG/1.1/DTD/svg11.dtd">
<!-- Generated by graphviz version 3.0.0 (20220226.1711)
 -->
<!-- Title: dependencies Pages: 1 -->
<svg width="376pt" height="174pt"
 viewBox="0.00 0.00 376.00 173.80" xmlns="http://www.w3.org/2000/svg" xmlns:xlink="http://www.w3.org/1999/xlink">
<g id="graph0" class="graph" transform="scale(1 1) rotate(0) translate(4 169.8)">
<title>dependencies</title>
<polygon fill="white" stroke="transparent" points="-4,4 -4,-169.8 372,-169.8 372,4 -4,4"/>
<text text-anchor="middle" x="184" y="-8.2" font-family="sans-serif" font-size="14.00">dependencies</text>
<g id="clust1" class="cluster">
<title>cluster_ChangePasswordModule</title>
<polygon fill="none" stroke="black" stroke-dasharray="1,5" points="8,-32.8 8,-157.8 360,-157.8 360,-32.8 8,-32.8"/>
</g>
<g id="clust2" class="cluster">
<title>cluster_ChangePasswordModule_declarations</title>
<polygon fill="none" stroke="black" points="224,-40.8 224,-92.8 352,-92.8 352,-40.8 224,-40.8"/>
</g>
<g id="clust4" class="cluster">
<title>cluster_ChangePasswordModule_imports</title>
<polygon fill="none" stroke="black" points="16,-40.8 16,-92.8 216,-92.8 216,-40.8 16,-40.8"/>
</g>
<!-- ChangePassword -->
<g id="node1" class="node">
<title>ChangePassword</title>
<polygon fill="#ffffb3" stroke="black" points="344.44,-84.8 231.56,-84.8 231.56,-48.8 344.44,-48.8 344.44,-84.8"/>
<text text-anchor="middle" x="288" y="-62.6" font-family="Times,serif" font-size="14.00">ChangePassword</text>
</g>
<!-- ChangePasswordModule -->
<g id="node2" class="node">
<title>ChangePasswordModule</title>
<polygon fill="#8dd3c7" stroke="black" points="272.99,-149.8 269.99,-153.8 248.99,-153.8 245.99,-149.8 117.01,-149.8 117.01,-113.8 272.99,-113.8 272.99,-149.8"/>
<text text-anchor="middle" x="195" y="-127.6" font-family="Times,serif" font-size="14.00">ChangePasswordModule</text>
</g>
<!-- ChangePassword&#45;&gt;ChangePasswordModule -->
<g id="edge1" class="edge">
<title>ChangePassword&#45;&gt;ChangePasswordModule</title>
<path fill="none" stroke="black" d="M252.39,-84.91C252.39,-84.91 252.39,-103.79 252.39,-103.79"/>
<polygon fill="black" stroke="black" points="248.89,-103.79 252.39,-113.79 255.89,-103.79 248.89,-103.79"/>
</g>
<!-- ChangePasswordPageModule -->
<g id="node3" class="node">
<title>ChangePasswordPageModule</title>
<polygon fill="#8dd3c7" stroke="black" points="207.7,-84.8 204.7,-88.8 183.7,-88.8 180.7,-84.8 24.3,-84.8 24.3,-48.8 207.7,-48.8 207.7,-84.8"/>
<text text-anchor="middle" x="116" y="-62.6" font-family="Times,serif" font-size="14.00">ChangePasswordPageModule</text>
</g>
<!-- ChangePasswordPageModule&#45;&gt;ChangePasswordModule -->
<g id="edge2" class="edge">
<title>ChangePasswordPageModule&#45;&gt;ChangePasswordModule</title>
<path fill="none" stroke="black" d="M162.3,-84.91C162.3,-84.91 162.3,-103.79 162.3,-103.79"/>
<polygon fill="black" stroke="black" points="158.8,-103.79 162.3,-113.79 165.8,-103.79 158.8,-103.79"/>
</g>
</g>
</svg>
