<?xml version="1.0" encoding="UTF-8" standalone="no"?>
<!DOCTYPE svg PUBLIC "-//W3C//DTD SVG 1.1//EN"
 "http://www.w3.org/Graphics/SVG/1.1/DTD/svg11.dtd">
<!-- Generated by graphviz version 3.0.0 (20220226.1711)
 -->
<!-- Title: dependencies Pages: 1 -->
<svg width="376pt" height="174pt"
 viewBox="0.00 0.00 376.00 173.80" xmlns="http://www.w3.org/2000/svg" xmlns:xlink="http://www.w3.org/1999/xlink">
<g id="graph0" class="graph" transform="scale(1 1) rotate(0) translate(4 169.8)">
<title>dependencies</title>
<polygon fill="white" stroke="transparent" points="-4,4 -4,-169.8 372,-169.8 372,4 -4,4"/>
<text text-anchor="middle" x="184" y="-8.2" font-family="sans-serif" font-size="14.00">dependencies</text>
<g id="clust1" class="cluster">
<title>cluster_ChangePasswordModule</title>
<polygon fill="none" stroke="black" stroke-dasharray="1,5" points="8,-32.8 8,-157.8 360,-157.8 360,-32.8 8,-32.8"/>
</g>
<g id="clust4" class="cluster">
<title>cluster_ChangePasswordModule_imports</title>
<polygon fill="none" stroke="black" points="152,-40.8 152,-92.8 352,-92.8 352,-40.8 152,-40.8"/>
</g>
<g id="clust2" class="cluster">
<title>cluster_ChangePasswordModule_declarations</title>
<polygon fill="none" stroke="black" points="16,-40.8 16,-92.8 144,-92.8 144,-40.8 16,-40.8"/>
</g>
<!-- ChangePassword -->
<g id="node1" class="node">
<title>ChangePassword</title>
<polygon fill="#ffffb3" stroke="black" points="136.44,-84.8 23.56,-84.8 23.56,-48.8 136.44,-48.8 136.44,-84.8"/>
<text text-anchor="middle" x="80" y="-62.6" font-family="Times,serif" font-size="14.00">ChangePassword</text>
</g>
<!-- ChangePasswordModule -->
<g id="node2" class="node">
<title>ChangePasswordModule</title>
<polygon fill="#8dd3c7" stroke="black" points="250.99,-149.8 247.99,-153.8 226.99,-153.8 223.99,-149.8 95.01,-149.8 95.01,-113.8 250.99,-113.8 250.99,-149.8"/>
<text text-anchor="middle" x="173" y="-127.6" font-family="Times,serif" font-size="14.00">ChangePasswordModule</text>
</g>
<!-- ChangePassword&#45;&gt;ChangePasswordModule -->
<g id="edge1" class="edge">
<title>ChangePassword&#45;&gt;ChangePasswordModule</title>
<path fill="none" stroke="black" d="M115.61,-84.91C115.61,-84.91 115.61,-103.79 115.61,-103.79"/>
<polygon fill="black" stroke="black" points="112.11,-103.79 115.61,-113.79 119.11,-103.79 112.11,-103.79"/>
</g>
<!-- ChangePasswordPageModule -->
<g id="node3" class="node">
<title>ChangePasswordPageModule</title>
<polygon fill="#8dd3c7" stroke="black" points="343.7,-84.8 340.7,-88.8 319.7,-88.8 316.7,-84.8 160.3,-84.8 160.3,-48.8 343.7,-48.8 343.7,-84.8"/>
<text text-anchor="middle" x="252" y="-62.6" font-family="Times,serif" font-size="14.00">ChangePasswordPageModule</text>
</g>
<!-- ChangePasswordPageModule&#45;&gt;ChangePasswordModule -->
<g id="edge2" class="edge">
<title>ChangePasswordPageModule&#45;&gt;ChangePasswordModule</title>
<path fill="none" stroke="black" d="M205.7,-84.91C205.7,-84.91 205.7,-103.79 205.7,-103.79"/>
<polygon fill="black" stroke="black" points="202.2,-103.79 205.7,-113.79 209.2,-103.79 202.2,-103.79"/>
</g>
</g>
</svg>
