<?xml version="1.0" encoding="UTF-8" standalone="no"?>
<!DOCTYPE svg PUBLIC "-//W3C//DTD SVG 1.1//EN"
 "http://www.w3.org/Graphics/SVG/1.1/DTD/svg11.dtd">
<!-- Generated by graphviz version 3.0.0 (20220226.1711)
 -->
<!-- Title: dependencies Pages: 1 -->
<svg width="616pt" height="174pt"
 viewBox="0.00 0.00 616.00 173.80" xmlns="http://www.w3.org/2000/svg" xmlns:xlink="http://www.w3.org/1999/xlink">
<g id="graph0" class="graph" transform="scale(1 1) rotate(0) translate(4 169.8)">
<title>dependencies</title>
<polygon fill="white" stroke="transparent" points="-4,4 -4,-169.8 612,-169.8 612,4 -4,4"/>
<text text-anchor="middle" x="304" y="-8.2" font-family="sans-serif" font-size="14.00">dependencies</text>
<g id="clust1" class="cluster">
<title>cluster_WorkforceModule</title>
<polygon fill="none" stroke="black" stroke-dasharray="1,5" points="8,-32.8 8,-157.8 600,-157.8 600,-32.8 8,-32.8"/>
</g>
<g id="clust5" class="cluster">
<title>cluster_WorkforceModule_imports</title>
<polygon fill="none" stroke="black" points="304,-40.8 304,-92.8 592,-92.8 592,-40.8 304,-40.8"/>
</g>
<g id="clust2" class="cluster">
<title>cluster_WorkforceModule_declarations</title>
<polygon fill="none" stroke="black" points="16,-40.8 16,-92.8 296,-92.8 296,-40.8 16,-40.8"/>
</g>
<!-- FilterPanelComponent -->
<g id="node1" class="node">
<title>FilterPanelComponent</title>
<polygon fill="#ffffb3" stroke="black" points="288.27,-84.8 145.73,-84.8 145.73,-48.8 288.27,-48.8 288.27,-84.8"/>
<text text-anchor="middle" x="217" y="-62.6" font-family="Times,serif" font-size="14.00">FilterPanelComponent</text>
</g>
<!-- WorkforceModule -->
<g id="node3" class="node">
<title>WorkforceModule</title>
<polygon fill="#8dd3c7" stroke="black" points="361.18,-149.8 358.18,-153.8 337.18,-153.8 334.18,-149.8 240.82,-149.8 240.82,-113.8 361.18,-113.8 361.18,-149.8"/>
<text text-anchor="middle" x="301" y="-127.6" font-family="Times,serif" font-size="14.00">WorkforceModule</text>
</g>
<!-- FilterPanelComponent&#45;&gt;WorkforceModule -->
<g id="edge1" class="edge">
<title>FilterPanelComponent&#45;&gt;WorkforceModule</title>
<path fill="none" stroke="black" d="M264.65,-84.91C264.65,-84.91 264.65,-103.79 264.65,-103.79"/>
<polygon fill="black" stroke="black" points="261.15,-103.79 264.65,-113.79 268.15,-103.79 261.15,-103.79"/>
</g>
<!-- WorkforcePage -->
<g id="node2" class="node">
<title>WorkforcePage</title>
<polygon fill="#ffffb3" stroke="black" points="127.84,-84.8 24.16,-84.8 24.16,-48.8 127.84,-48.8 127.84,-84.8"/>
<text text-anchor="middle" x="76" y="-62.6" font-family="Times,serif" font-size="14.00">WorkforcePage</text>
</g>
<!-- WorkforcePage&#45;&gt;WorkforceModule -->
<g id="edge2" class="edge">
<title>WorkforcePage&#45;&gt;WorkforceModule</title>
<path fill="none" stroke="black" d="M76,-84.91C76,-104.14 76,-131.8 76,-131.8 76,-131.8 230.7,-131.8 230.7,-131.8"/>
<polygon fill="black" stroke="black" points="230.7,-135.3 240.7,-131.8 230.7,-128.3 230.7,-135.3"/>
</g>
<!-- MaterialModule -->
<g id="node4" class="node">
<title>MaterialModule</title>
<polygon fill="#8dd3c7" stroke="black" points="584.47,-84.8 581.47,-88.8 560.47,-88.8 557.47,-84.8 477.53,-84.8 477.53,-48.8 584.47,-48.8 584.47,-84.8"/>
<text text-anchor="middle" x="531" y="-62.6" font-family="Times,serif" font-size="14.00">MaterialModule</text>
</g>
<!-- MaterialModule&#45;&gt;WorkforceModule -->
<g id="edge3" class="edge">
<title>MaterialModule&#45;&gt;WorkforceModule</title>
<path fill="none" stroke="black" d="M531,-84.91C531,-104.14 531,-131.8 531,-131.8 531,-131.8 371.13,-131.8 371.13,-131.8"/>
<polygon fill="black" stroke="black" points="371.13,-128.3 361.13,-131.8 371.13,-135.3 371.13,-128.3"/>
</g>
<!-- WorkforcePageModule -->
<g id="node5" class="node">
<title>WorkforcePageModule</title>
<polygon fill="#8dd3c7" stroke="black" points="459.89,-84.8 456.89,-88.8 435.89,-88.8 432.89,-84.8 312.11,-84.8 312.11,-48.8 459.89,-48.8 459.89,-84.8"/>
<text text-anchor="middle" x="386" y="-62.6" font-family="Times,serif" font-size="14.00">WorkforcePageModule</text>
</g>
<!-- WorkforcePageModule&#45;&gt;WorkforceModule -->
<g id="edge4" class="edge">
<title>WorkforcePageModule&#45;&gt;WorkforceModule</title>
<path fill="none" stroke="black" d="M336.7,-84.91C336.7,-84.91 336.7,-103.79 336.7,-103.79"/>
<polygon fill="black" stroke="black" points="333.2,-103.79 336.7,-113.79 340.2,-103.79 333.2,-103.79"/>
</g>
</g>
</svg>
