<?xml version="1.0" encoding="UTF-8" standalone="no"?>
<!DOCTYPE svg PUBLIC "-//W3C//DTD SVG 1.1//EN"
 "http://www.w3.org/Graphics/SVG/1.1/DTD/svg11.dtd">
<!-- Generated by graphviz version 3.0.0 (20220226.1711)
 -->
<!-- Title: dependencies Pages: 1 -->
<svg width="456pt" height="174pt"
 viewBox="0.00 0.00 456.00 173.80" xmlns="http://www.w3.org/2000/svg" xmlns:xlink="http://www.w3.org/1999/xlink">
<g id="graph0" class="graph" transform="scale(1 1) rotate(0) translate(4 169.8)">
<title>dependencies</title>
<polygon fill="white" stroke="transparent" points="-4,4 -4,-169.8 452,-169.8 452,4 -4,4"/>
<text text-anchor="middle" x="224" y="-8.2" font-family="sans-serif" font-size="14.00">dependencies</text>
<g id="clust1" class="cluster">
<title>cluster_WorkforceModule</title>
<polygon fill="none" stroke="black" stroke-dasharray="1,5" points="8,-32.8 8,-157.8 440,-157.8 440,-32.8 8,-32.8"/>
</g>
<g id="clust2" class="cluster">
<title>cluster_WorkforceModule_declarations</title>
<polygon fill="none" stroke="black" points="312,-40.8 312,-92.8 432,-92.8 432,-40.8 312,-40.8"/>
</g>
<g id="clust4" class="cluster">
<title>cluster_WorkforceModule_imports</title>
<polygon fill="none" stroke="black" points="16,-40.8 16,-92.8 304,-92.8 304,-40.8 16,-40.8"/>
</g>
<!-- WorkforcePage -->
<g id="node1" class="node">
<title>WorkforcePage</title>
<polygon fill="#ffffb3" stroke="black" points="423.84,-84.8 320.16,-84.8 320.16,-48.8 423.84,-48.8 423.84,-84.8"/>
<text text-anchor="middle" x="372" y="-62.6" font-family="Times,serif" font-size="14.00">WorkforcePage</text>
</g>
<!-- WorkforceModule -->
<g id="node2" class="node">
<title>WorkforceModule</title>
<polygon fill="#8dd3c7" stroke="black" points="303.18,-149.8 300.18,-153.8 279.18,-153.8 276.18,-149.8 182.82,-149.8 182.82,-113.8 303.18,-113.8 303.18,-149.8"/>
<text text-anchor="middle" x="243" y="-127.6" font-family="Times,serif" font-size="14.00">WorkforceModule</text>
</g>
<!-- WorkforcePage&#45;&gt;WorkforceModule -->
<g id="edge1" class="edge">
<title>WorkforcePage&#45;&gt;WorkforceModule</title>
<path fill="none" stroke="black" d="M372,-84.91C372,-104.14 372,-131.8 372,-131.8 372,-131.8 313.35,-131.8 313.35,-131.8"/>
<polygon fill="black" stroke="black" points="313.35,-128.3 303.35,-131.8 313.35,-135.3 313.35,-128.3"/>
</g>
<!-- MaterialModule -->
<g id="node3" class="node">
<title>MaterialModule</title>
<polygon fill="#8dd3c7" stroke="black" points="296.47,-84.8 293.47,-88.8 272.47,-88.8 269.47,-84.8 189.53,-84.8 189.53,-48.8 296.47,-48.8 296.47,-84.8"/>
<text text-anchor="middle" x="243" y="-62.6" font-family="Times,serif" font-size="14.00">MaterialModule</text>
</g>
<!-- MaterialModule&#45;&gt;WorkforceModule -->
<g id="edge2" class="edge">
<title>MaterialModule&#45;&gt;WorkforceModule</title>
<path fill="none" stroke="black" d="M243,-84.91C243,-84.91 243,-103.79 243,-103.79"/>
<polygon fill="black" stroke="black" points="239.5,-103.79 243,-113.79 246.5,-103.79 239.5,-103.79"/>
</g>
<!-- WorkforcePageModule -->
<g id="node4" class="node">
<title>WorkforcePageModule</title>
<polygon fill="#8dd3c7" stroke="black" points="171.89,-84.8 168.89,-88.8 147.89,-88.8 144.89,-84.8 24.11,-84.8 24.11,-48.8 171.89,-48.8 171.89,-84.8"/>
<text text-anchor="middle" x="98" y="-62.6" font-family="Times,serif" font-size="14.00">WorkforcePageModule</text>
</g>
<!-- WorkforcePageModule&#45;&gt;WorkforceModule -->
<g id="edge3" class="edge">
<title>WorkforcePageModule&#45;&gt;WorkforceModule</title>
<path fill="none" stroke="black" d="M98,-84.91C98,-104.14 98,-131.8 98,-131.8 98,-131.8 172.77,-131.8 172.77,-131.8"/>
<polygon fill="black" stroke="black" points="172.77,-135.3 182.77,-131.8 172.77,-128.3 172.77,-135.3"/>
</g>
</g>
</svg>
